%TF.GenerationSoftware,KiCad,Pcbnew,7.0.10*%
%TF.CreationDate,2024-03-06T18:57:33-08:00*%
%TF.ProjectId,player_system,706c6179-6572-45f7-9379-7374656d2e6b,rev?*%
%TF.SameCoordinates,Original*%
%TF.FileFunction,Legend,Top*%
%TF.FilePolarity,Positive*%
%FSLAX46Y46*%
G04 Gerber Fmt 4.6, Leading zero omitted, Abs format (unit mm)*
G04 Created by KiCad (PCBNEW 7.0.10) date 2024-03-06 18:57:33*
%MOMM*%
%LPD*%
G01*
G04 APERTURE LIST*
%ADD10C,0.150000*%
%ADD11C,0.100000*%
%ADD12C,0.120000*%
G04 APERTURE END LIST*
D10*
X98154819Y-42238094D02*
X97154819Y-42238094D01*
X97631009Y-42238094D02*
X97631009Y-41666666D01*
X98154819Y-41666666D02*
X97154819Y-41666666D01*
X98154819Y-40666666D02*
X98154819Y-41238094D01*
X98154819Y-40952380D02*
X97154819Y-40952380D01*
X97154819Y-40952380D02*
X97297676Y-41047618D01*
X97297676Y-41047618D02*
X97392914Y-41142856D01*
X97392914Y-41142856D02*
X97440533Y-41238094D01*
X97250057Y-40285713D02*
X97202438Y-40238094D01*
X97202438Y-40238094D02*
X97154819Y-40142856D01*
X97154819Y-40142856D02*
X97154819Y-39904761D01*
X97154819Y-39904761D02*
X97202438Y-39809523D01*
X97202438Y-39809523D02*
X97250057Y-39761904D01*
X97250057Y-39761904D02*
X97345295Y-39714285D01*
X97345295Y-39714285D02*
X97440533Y-39714285D01*
X97440533Y-39714285D02*
X97583390Y-39761904D01*
X97583390Y-39761904D02*
X98154819Y-40333332D01*
X98154819Y-40333332D02*
X98154819Y-39714285D01*
X98154819Y-86238094D02*
X97154819Y-86238094D01*
X97631009Y-86238094D02*
X97631009Y-85666666D01*
X98154819Y-85666666D02*
X97154819Y-85666666D01*
X98154819Y-84666666D02*
X98154819Y-85238094D01*
X98154819Y-84952380D02*
X97154819Y-84952380D01*
X97154819Y-84952380D02*
X97297676Y-85047618D01*
X97297676Y-85047618D02*
X97392914Y-85142856D01*
X97392914Y-85142856D02*
X97440533Y-85238094D01*
X98154819Y-83714285D02*
X98154819Y-84285713D01*
X98154819Y-83999999D02*
X97154819Y-83999999D01*
X97154819Y-83999999D02*
X97297676Y-84095237D01*
X97297676Y-84095237D02*
X97392914Y-84190475D01*
X97392914Y-84190475D02*
X97440533Y-84285713D01*
X175761905Y-82254819D02*
X175761905Y-81254819D01*
X175761905Y-81731009D02*
X176333333Y-81731009D01*
X176333333Y-82254819D02*
X176333333Y-81254819D01*
X177333333Y-82254819D02*
X176761905Y-82254819D01*
X177047619Y-82254819D02*
X177047619Y-81254819D01*
X177047619Y-81254819D02*
X176952381Y-81397676D01*
X176952381Y-81397676D02*
X176857143Y-81492914D01*
X176857143Y-81492914D02*
X176761905Y-81540533D01*
X177952381Y-81254819D02*
X178047619Y-81254819D01*
X178047619Y-81254819D02*
X178142857Y-81302438D01*
X178142857Y-81302438D02*
X178190476Y-81350057D01*
X178190476Y-81350057D02*
X178238095Y-81445295D01*
X178238095Y-81445295D02*
X178285714Y-81635771D01*
X178285714Y-81635771D02*
X178285714Y-81873866D01*
X178285714Y-81873866D02*
X178238095Y-82064342D01*
X178238095Y-82064342D02*
X178190476Y-82159580D01*
X178190476Y-82159580D02*
X178142857Y-82207200D01*
X178142857Y-82207200D02*
X178047619Y-82254819D01*
X178047619Y-82254819D02*
X177952381Y-82254819D01*
X177952381Y-82254819D02*
X177857143Y-82207200D01*
X177857143Y-82207200D02*
X177809524Y-82159580D01*
X177809524Y-82159580D02*
X177761905Y-82064342D01*
X177761905Y-82064342D02*
X177714286Y-81873866D01*
X177714286Y-81873866D02*
X177714286Y-81635771D01*
X177714286Y-81635771D02*
X177761905Y-81445295D01*
X177761905Y-81445295D02*
X177809524Y-81350057D01*
X177809524Y-81350057D02*
X177857143Y-81302438D01*
X177857143Y-81302438D02*
X177952381Y-81254819D01*
X176238095Y-44654819D02*
X176238095Y-43654819D01*
X176238095Y-44131009D02*
X176809523Y-44131009D01*
X176809523Y-44654819D02*
X176809523Y-43654819D01*
X177333333Y-44654819D02*
X177523809Y-44654819D01*
X177523809Y-44654819D02*
X177619047Y-44607200D01*
X177619047Y-44607200D02*
X177666666Y-44559580D01*
X177666666Y-44559580D02*
X177761904Y-44416723D01*
X177761904Y-44416723D02*
X177809523Y-44226247D01*
X177809523Y-44226247D02*
X177809523Y-43845295D01*
X177809523Y-43845295D02*
X177761904Y-43750057D01*
X177761904Y-43750057D02*
X177714285Y-43702438D01*
X177714285Y-43702438D02*
X177619047Y-43654819D01*
X177619047Y-43654819D02*
X177428571Y-43654819D01*
X177428571Y-43654819D02*
X177333333Y-43702438D01*
X177333333Y-43702438D02*
X177285714Y-43750057D01*
X177285714Y-43750057D02*
X177238095Y-43845295D01*
X177238095Y-43845295D02*
X177238095Y-44083390D01*
X177238095Y-44083390D02*
X177285714Y-44178628D01*
X177285714Y-44178628D02*
X177333333Y-44226247D01*
X177333333Y-44226247D02*
X177428571Y-44273866D01*
X177428571Y-44273866D02*
X177619047Y-44273866D01*
X177619047Y-44273866D02*
X177714285Y-44226247D01*
X177714285Y-44226247D02*
X177761904Y-44178628D01*
X177761904Y-44178628D02*
X177809523Y-44083390D01*
X186654819Y-43361904D02*
X185654819Y-43361904D01*
X186131009Y-43361904D02*
X186131009Y-42790476D01*
X186654819Y-42790476D02*
X185654819Y-42790476D01*
X186083390Y-42171428D02*
X186035771Y-42266666D01*
X186035771Y-42266666D02*
X185988152Y-42314285D01*
X185988152Y-42314285D02*
X185892914Y-42361904D01*
X185892914Y-42361904D02*
X185845295Y-42361904D01*
X185845295Y-42361904D02*
X185750057Y-42314285D01*
X185750057Y-42314285D02*
X185702438Y-42266666D01*
X185702438Y-42266666D02*
X185654819Y-42171428D01*
X185654819Y-42171428D02*
X185654819Y-41980952D01*
X185654819Y-41980952D02*
X185702438Y-41885714D01*
X185702438Y-41885714D02*
X185750057Y-41838095D01*
X185750057Y-41838095D02*
X185845295Y-41790476D01*
X185845295Y-41790476D02*
X185892914Y-41790476D01*
X185892914Y-41790476D02*
X185988152Y-41838095D01*
X185988152Y-41838095D02*
X186035771Y-41885714D01*
X186035771Y-41885714D02*
X186083390Y-41980952D01*
X186083390Y-41980952D02*
X186083390Y-42171428D01*
X186083390Y-42171428D02*
X186131009Y-42266666D01*
X186131009Y-42266666D02*
X186178628Y-42314285D01*
X186178628Y-42314285D02*
X186273866Y-42361904D01*
X186273866Y-42361904D02*
X186464342Y-42361904D01*
X186464342Y-42361904D02*
X186559580Y-42314285D01*
X186559580Y-42314285D02*
X186607200Y-42266666D01*
X186607200Y-42266666D02*
X186654819Y-42171428D01*
X186654819Y-42171428D02*
X186654819Y-41980952D01*
X186654819Y-41980952D02*
X186607200Y-41885714D01*
X186607200Y-41885714D02*
X186559580Y-41838095D01*
X186559580Y-41838095D02*
X186464342Y-41790476D01*
X186464342Y-41790476D02*
X186273866Y-41790476D01*
X186273866Y-41790476D02*
X186178628Y-41838095D01*
X186178628Y-41838095D02*
X186131009Y-41885714D01*
X186131009Y-41885714D02*
X186083390Y-41980952D01*
X89238095Y-43654819D02*
X89238095Y-42654819D01*
X89238095Y-43131009D02*
X89809523Y-43131009D01*
X89809523Y-43654819D02*
X89809523Y-42654819D01*
X90190476Y-42654819D02*
X90857142Y-42654819D01*
X90857142Y-42654819D02*
X90428571Y-43654819D01*
X176238095Y-116654819D02*
X176238095Y-115654819D01*
X176238095Y-116131009D02*
X176809523Y-116131009D01*
X176809523Y-116654819D02*
X176809523Y-115654819D01*
X177714285Y-115654819D02*
X177523809Y-115654819D01*
X177523809Y-115654819D02*
X177428571Y-115702438D01*
X177428571Y-115702438D02*
X177380952Y-115750057D01*
X177380952Y-115750057D02*
X177285714Y-115892914D01*
X177285714Y-115892914D02*
X177238095Y-116083390D01*
X177238095Y-116083390D02*
X177238095Y-116464342D01*
X177238095Y-116464342D02*
X177285714Y-116559580D01*
X177285714Y-116559580D02*
X177333333Y-116607200D01*
X177333333Y-116607200D02*
X177428571Y-116654819D01*
X177428571Y-116654819D02*
X177619047Y-116654819D01*
X177619047Y-116654819D02*
X177714285Y-116607200D01*
X177714285Y-116607200D02*
X177761904Y-116559580D01*
X177761904Y-116559580D02*
X177809523Y-116464342D01*
X177809523Y-116464342D02*
X177809523Y-116226247D01*
X177809523Y-116226247D02*
X177761904Y-116131009D01*
X177761904Y-116131009D02*
X177714285Y-116083390D01*
X177714285Y-116083390D02*
X177619047Y-116035771D01*
X177619047Y-116035771D02*
X177428571Y-116035771D01*
X177428571Y-116035771D02*
X177333333Y-116083390D01*
X177333333Y-116083390D02*
X177285714Y-116131009D01*
X177285714Y-116131009D02*
X177238095Y-116226247D01*
X127238095Y-109254819D02*
X127238095Y-108254819D01*
X127238095Y-108731009D02*
X127809523Y-108731009D01*
X127809523Y-109254819D02*
X127809523Y-108254819D01*
X128761904Y-108254819D02*
X128285714Y-108254819D01*
X128285714Y-108254819D02*
X128238095Y-108731009D01*
X128238095Y-108731009D02*
X128285714Y-108683390D01*
X128285714Y-108683390D02*
X128380952Y-108635771D01*
X128380952Y-108635771D02*
X128619047Y-108635771D01*
X128619047Y-108635771D02*
X128714285Y-108683390D01*
X128714285Y-108683390D02*
X128761904Y-108731009D01*
X128761904Y-108731009D02*
X128809523Y-108826247D01*
X128809523Y-108826247D02*
X128809523Y-109064342D01*
X128809523Y-109064342D02*
X128761904Y-109159580D01*
X128761904Y-109159580D02*
X128714285Y-109207200D01*
X128714285Y-109207200D02*
X128619047Y-109254819D01*
X128619047Y-109254819D02*
X128380952Y-109254819D01*
X128380952Y-109254819D02*
X128285714Y-109207200D01*
X128285714Y-109207200D02*
X128238095Y-109159580D01*
X94654819Y-111761904D02*
X93654819Y-111761904D01*
X94131009Y-111761904D02*
X94131009Y-111190476D01*
X94654819Y-111190476D02*
X93654819Y-111190476D01*
X93988152Y-110285714D02*
X94654819Y-110285714D01*
X93607200Y-110523809D02*
X94321485Y-110761904D01*
X94321485Y-110761904D02*
X94321485Y-110142857D01*
X183338095Y-87854819D02*
X183338095Y-86854819D01*
X183338095Y-87331009D02*
X183909523Y-87331009D01*
X183909523Y-87854819D02*
X183909523Y-86854819D01*
X184290476Y-86854819D02*
X184909523Y-86854819D01*
X184909523Y-86854819D02*
X184576190Y-87235771D01*
X184576190Y-87235771D02*
X184719047Y-87235771D01*
X184719047Y-87235771D02*
X184814285Y-87283390D01*
X184814285Y-87283390D02*
X184861904Y-87331009D01*
X184861904Y-87331009D02*
X184909523Y-87426247D01*
X184909523Y-87426247D02*
X184909523Y-87664342D01*
X184909523Y-87664342D02*
X184861904Y-87759580D01*
X184861904Y-87759580D02*
X184814285Y-87807200D01*
X184814285Y-87807200D02*
X184719047Y-87854819D01*
X184719047Y-87854819D02*
X184433333Y-87854819D01*
X184433333Y-87854819D02*
X184338095Y-87807200D01*
X184338095Y-87807200D02*
X184290476Y-87759580D01*
X90238095Y-129254819D02*
X90238095Y-128254819D01*
X90238095Y-128731009D02*
X90809523Y-128731009D01*
X90809523Y-129254819D02*
X90809523Y-128254819D01*
X91238095Y-128350057D02*
X91285714Y-128302438D01*
X91285714Y-128302438D02*
X91380952Y-128254819D01*
X91380952Y-128254819D02*
X91619047Y-128254819D01*
X91619047Y-128254819D02*
X91714285Y-128302438D01*
X91714285Y-128302438D02*
X91761904Y-128350057D01*
X91761904Y-128350057D02*
X91809523Y-128445295D01*
X91809523Y-128445295D02*
X91809523Y-128540533D01*
X91809523Y-128540533D02*
X91761904Y-128683390D01*
X91761904Y-128683390D02*
X91190476Y-129254819D01*
X91190476Y-129254819D02*
X91809523Y-129254819D01*
X106238095Y-129254819D02*
X106238095Y-128254819D01*
X106238095Y-128731009D02*
X106809523Y-128731009D01*
X106809523Y-129254819D02*
X106809523Y-128254819D01*
X107809523Y-129254819D02*
X107238095Y-129254819D01*
X107523809Y-129254819D02*
X107523809Y-128254819D01*
X107523809Y-128254819D02*
X107428571Y-128397676D01*
X107428571Y-128397676D02*
X107333333Y-128492914D01*
X107333333Y-128492914D02*
X107238095Y-128540533D01*
X172666666Y-101124819D02*
X172666666Y-101839104D01*
X172666666Y-101839104D02*
X172619047Y-101981961D01*
X172619047Y-101981961D02*
X172523809Y-102077200D01*
X172523809Y-102077200D02*
X172380952Y-102124819D01*
X172380952Y-102124819D02*
X172285714Y-102124819D01*
X173666666Y-102124819D02*
X173095238Y-102124819D01*
X173380952Y-102124819D02*
X173380952Y-101124819D01*
X173380952Y-101124819D02*
X173285714Y-101267676D01*
X173285714Y-101267676D02*
X173190476Y-101362914D01*
X173190476Y-101362914D02*
X173095238Y-101410533D01*
X131039580Y-104642857D02*
X131087200Y-104690476D01*
X131087200Y-104690476D02*
X131134819Y-104833333D01*
X131134819Y-104833333D02*
X131134819Y-104928571D01*
X131134819Y-104928571D02*
X131087200Y-105071428D01*
X131087200Y-105071428D02*
X130991961Y-105166666D01*
X130991961Y-105166666D02*
X130896723Y-105214285D01*
X130896723Y-105214285D02*
X130706247Y-105261904D01*
X130706247Y-105261904D02*
X130563390Y-105261904D01*
X130563390Y-105261904D02*
X130372914Y-105214285D01*
X130372914Y-105214285D02*
X130277676Y-105166666D01*
X130277676Y-105166666D02*
X130182438Y-105071428D01*
X130182438Y-105071428D02*
X130134819Y-104928571D01*
X130134819Y-104928571D02*
X130134819Y-104833333D01*
X130134819Y-104833333D02*
X130182438Y-104690476D01*
X130182438Y-104690476D02*
X130230057Y-104642857D01*
X131134819Y-103690476D02*
X131134819Y-104261904D01*
X131134819Y-103976190D02*
X130134819Y-103976190D01*
X130134819Y-103976190D02*
X130277676Y-104071428D01*
X130277676Y-104071428D02*
X130372914Y-104166666D01*
X130372914Y-104166666D02*
X130420533Y-104261904D01*
X130134819Y-103071428D02*
X130134819Y-102976190D01*
X130134819Y-102976190D02*
X130182438Y-102880952D01*
X130182438Y-102880952D02*
X130230057Y-102833333D01*
X130230057Y-102833333D02*
X130325295Y-102785714D01*
X130325295Y-102785714D02*
X130515771Y-102738095D01*
X130515771Y-102738095D02*
X130753866Y-102738095D01*
X130753866Y-102738095D02*
X130944342Y-102785714D01*
X130944342Y-102785714D02*
X131039580Y-102833333D01*
X131039580Y-102833333D02*
X131087200Y-102880952D01*
X131087200Y-102880952D02*
X131134819Y-102976190D01*
X131134819Y-102976190D02*
X131134819Y-103071428D01*
X131134819Y-103071428D02*
X131087200Y-103166666D01*
X131087200Y-103166666D02*
X131039580Y-103214285D01*
X131039580Y-103214285D02*
X130944342Y-103261904D01*
X130944342Y-103261904D02*
X130753866Y-103309523D01*
X130753866Y-103309523D02*
X130515771Y-103309523D01*
X130515771Y-103309523D02*
X130325295Y-103261904D01*
X130325295Y-103261904D02*
X130230057Y-103214285D01*
X130230057Y-103214285D02*
X130182438Y-103166666D01*
X130182438Y-103166666D02*
X130134819Y-103071428D01*
D11*
X177647619Y-91271704D02*
X178123809Y-91271704D01*
X177552381Y-91557419D02*
X177885714Y-90557419D01*
X177885714Y-90557419D02*
X178219047Y-91557419D01*
X178552381Y-90557419D02*
X178552381Y-91366942D01*
X178552381Y-91366942D02*
X178600000Y-91462180D01*
X178600000Y-91462180D02*
X178647619Y-91509800D01*
X178647619Y-91509800D02*
X178742857Y-91557419D01*
X178742857Y-91557419D02*
X178933333Y-91557419D01*
X178933333Y-91557419D02*
X179028571Y-91509800D01*
X179028571Y-91509800D02*
X179076190Y-91462180D01*
X179076190Y-91462180D02*
X179123809Y-91366942D01*
X179123809Y-91366942D02*
X179123809Y-90557419D01*
X179600000Y-91557419D02*
X179600000Y-90557419D01*
X179600000Y-90557419D02*
X179838095Y-90557419D01*
X179838095Y-90557419D02*
X179980952Y-90605038D01*
X179980952Y-90605038D02*
X180076190Y-90700276D01*
X180076190Y-90700276D02*
X180123809Y-90795514D01*
X180123809Y-90795514D02*
X180171428Y-90985990D01*
X180171428Y-90985990D02*
X180171428Y-91128847D01*
X180171428Y-91128847D02*
X180123809Y-91319323D01*
X180123809Y-91319323D02*
X180076190Y-91414561D01*
X180076190Y-91414561D02*
X179980952Y-91509800D01*
X179980952Y-91509800D02*
X179838095Y-91557419D01*
X179838095Y-91557419D02*
X179600000Y-91557419D01*
X180361905Y-91652657D02*
X181123809Y-91652657D01*
X181695238Y-91033609D02*
X181838095Y-91081228D01*
X181838095Y-91081228D02*
X181885714Y-91128847D01*
X181885714Y-91128847D02*
X181933333Y-91224085D01*
X181933333Y-91224085D02*
X181933333Y-91366942D01*
X181933333Y-91366942D02*
X181885714Y-91462180D01*
X181885714Y-91462180D02*
X181838095Y-91509800D01*
X181838095Y-91509800D02*
X181742857Y-91557419D01*
X181742857Y-91557419D02*
X181361905Y-91557419D01*
X181361905Y-91557419D02*
X181361905Y-90557419D01*
X181361905Y-90557419D02*
X181695238Y-90557419D01*
X181695238Y-90557419D02*
X181790476Y-90605038D01*
X181790476Y-90605038D02*
X181838095Y-90652657D01*
X181838095Y-90652657D02*
X181885714Y-90747895D01*
X181885714Y-90747895D02*
X181885714Y-90843133D01*
X181885714Y-90843133D02*
X181838095Y-90938371D01*
X181838095Y-90938371D02*
X181790476Y-90985990D01*
X181790476Y-90985990D02*
X181695238Y-91033609D01*
X181695238Y-91033609D02*
X181361905Y-91033609D01*
X182838095Y-91557419D02*
X182361905Y-91557419D01*
X182361905Y-91557419D02*
X182361905Y-90557419D01*
X183123810Y-91271704D02*
X183600000Y-91271704D01*
X183028572Y-91557419D02*
X183361905Y-90557419D01*
X183361905Y-90557419D02*
X183695238Y-91557419D01*
X184600000Y-91462180D02*
X184552381Y-91509800D01*
X184552381Y-91509800D02*
X184409524Y-91557419D01*
X184409524Y-91557419D02*
X184314286Y-91557419D01*
X184314286Y-91557419D02*
X184171429Y-91509800D01*
X184171429Y-91509800D02*
X184076191Y-91414561D01*
X184076191Y-91414561D02*
X184028572Y-91319323D01*
X184028572Y-91319323D02*
X183980953Y-91128847D01*
X183980953Y-91128847D02*
X183980953Y-90985990D01*
X183980953Y-90985990D02*
X184028572Y-90795514D01*
X184028572Y-90795514D02*
X184076191Y-90700276D01*
X184076191Y-90700276D02*
X184171429Y-90605038D01*
X184171429Y-90605038D02*
X184314286Y-90557419D01*
X184314286Y-90557419D02*
X184409524Y-90557419D01*
X184409524Y-90557419D02*
X184552381Y-90605038D01*
X184552381Y-90605038D02*
X184600000Y-90652657D01*
X185028572Y-91557419D02*
X185028572Y-90557419D01*
X185600000Y-91557419D02*
X185171429Y-90985990D01*
X185600000Y-90557419D02*
X185028572Y-91128847D01*
X186552381Y-91557419D02*
X185980953Y-91557419D01*
X186266667Y-91557419D02*
X186266667Y-90557419D01*
X186266667Y-90557419D02*
X186171429Y-90700276D01*
X186171429Y-90700276D02*
X186076191Y-90795514D01*
X186076191Y-90795514D02*
X185980953Y-90843133D01*
D10*
X119804819Y-104166666D02*
X119328628Y-104499999D01*
X119804819Y-104738094D02*
X118804819Y-104738094D01*
X118804819Y-104738094D02*
X118804819Y-104357142D01*
X118804819Y-104357142D02*
X118852438Y-104261904D01*
X118852438Y-104261904D02*
X118900057Y-104214285D01*
X118900057Y-104214285D02*
X118995295Y-104166666D01*
X118995295Y-104166666D02*
X119138152Y-104166666D01*
X119138152Y-104166666D02*
X119233390Y-104214285D01*
X119233390Y-104214285D02*
X119281009Y-104261904D01*
X119281009Y-104261904D02*
X119328628Y-104357142D01*
X119328628Y-104357142D02*
X119328628Y-104738094D01*
X119804819Y-103214285D02*
X119804819Y-103785713D01*
X119804819Y-103499999D02*
X118804819Y-103499999D01*
X118804819Y-103499999D02*
X118947676Y-103595237D01*
X118947676Y-103595237D02*
X119042914Y-103690475D01*
X119042914Y-103690475D02*
X119090533Y-103785713D01*
X154950057Y-67095238D02*
X154902438Y-67190476D01*
X154902438Y-67190476D02*
X154807200Y-67285714D01*
X154807200Y-67285714D02*
X154664342Y-67428571D01*
X154664342Y-67428571D02*
X154616723Y-67523809D01*
X154616723Y-67523809D02*
X154616723Y-67619047D01*
X154854819Y-67571428D02*
X154807200Y-67666666D01*
X154807200Y-67666666D02*
X154711961Y-67761904D01*
X154711961Y-67761904D02*
X154521485Y-67809523D01*
X154521485Y-67809523D02*
X154188152Y-67809523D01*
X154188152Y-67809523D02*
X153997676Y-67761904D01*
X153997676Y-67761904D02*
X153902438Y-67666666D01*
X153902438Y-67666666D02*
X153854819Y-67571428D01*
X153854819Y-67571428D02*
X153854819Y-67380952D01*
X153854819Y-67380952D02*
X153902438Y-67285714D01*
X153902438Y-67285714D02*
X153997676Y-67190476D01*
X153997676Y-67190476D02*
X154188152Y-67142857D01*
X154188152Y-67142857D02*
X154521485Y-67142857D01*
X154521485Y-67142857D02*
X154711961Y-67190476D01*
X154711961Y-67190476D02*
X154807200Y-67285714D01*
X154807200Y-67285714D02*
X154854819Y-67380952D01*
X154854819Y-67380952D02*
X154854819Y-67571428D01*
X154188152Y-66285714D02*
X154854819Y-66285714D01*
X153807200Y-66523809D02*
X154521485Y-66761904D01*
X154521485Y-66761904D02*
X154521485Y-66142857D01*
X130238095Y-67454819D02*
X130238095Y-68264342D01*
X130238095Y-68264342D02*
X130285714Y-68359580D01*
X130285714Y-68359580D02*
X130333333Y-68407200D01*
X130333333Y-68407200D02*
X130428571Y-68454819D01*
X130428571Y-68454819D02*
X130619047Y-68454819D01*
X130619047Y-68454819D02*
X130714285Y-68407200D01*
X130714285Y-68407200D02*
X130761904Y-68359580D01*
X130761904Y-68359580D02*
X130809523Y-68264342D01*
X130809523Y-68264342D02*
X130809523Y-67454819D01*
X131238095Y-67550057D02*
X131285714Y-67502438D01*
X131285714Y-67502438D02*
X131380952Y-67454819D01*
X131380952Y-67454819D02*
X131619047Y-67454819D01*
X131619047Y-67454819D02*
X131714285Y-67502438D01*
X131714285Y-67502438D02*
X131761904Y-67550057D01*
X131761904Y-67550057D02*
X131809523Y-67645295D01*
X131809523Y-67645295D02*
X131809523Y-67740533D01*
X131809523Y-67740533D02*
X131761904Y-67883390D01*
X131761904Y-67883390D02*
X131190476Y-68454819D01*
X131190476Y-68454819D02*
X131809523Y-68454819D01*
X146071428Y-101154819D02*
X145738095Y-100678628D01*
X145500000Y-101154819D02*
X145500000Y-100154819D01*
X145500000Y-100154819D02*
X145880952Y-100154819D01*
X145880952Y-100154819D02*
X145976190Y-100202438D01*
X145976190Y-100202438D02*
X146023809Y-100250057D01*
X146023809Y-100250057D02*
X146071428Y-100345295D01*
X146071428Y-100345295D02*
X146071428Y-100488152D01*
X146071428Y-100488152D02*
X146023809Y-100583390D01*
X146023809Y-100583390D02*
X145976190Y-100631009D01*
X145976190Y-100631009D02*
X145880952Y-100678628D01*
X145880952Y-100678628D02*
X145500000Y-100678628D01*
X146500000Y-100631009D02*
X146833333Y-100631009D01*
X146976190Y-101154819D02*
X146500000Y-101154819D01*
X146500000Y-101154819D02*
X146500000Y-100154819D01*
X146500000Y-100154819D02*
X146976190Y-100154819D01*
X147357143Y-101107200D02*
X147500000Y-101154819D01*
X147500000Y-101154819D02*
X147738095Y-101154819D01*
X147738095Y-101154819D02*
X147833333Y-101107200D01*
X147833333Y-101107200D02*
X147880952Y-101059580D01*
X147880952Y-101059580D02*
X147928571Y-100964342D01*
X147928571Y-100964342D02*
X147928571Y-100869104D01*
X147928571Y-100869104D02*
X147880952Y-100773866D01*
X147880952Y-100773866D02*
X147833333Y-100726247D01*
X147833333Y-100726247D02*
X147738095Y-100678628D01*
X147738095Y-100678628D02*
X147547619Y-100631009D01*
X147547619Y-100631009D02*
X147452381Y-100583390D01*
X147452381Y-100583390D02*
X147404762Y-100535771D01*
X147404762Y-100535771D02*
X147357143Y-100440533D01*
X147357143Y-100440533D02*
X147357143Y-100345295D01*
X147357143Y-100345295D02*
X147404762Y-100250057D01*
X147404762Y-100250057D02*
X147452381Y-100202438D01*
X147452381Y-100202438D02*
X147547619Y-100154819D01*
X147547619Y-100154819D02*
X147785714Y-100154819D01*
X147785714Y-100154819D02*
X147928571Y-100202438D01*
X148357143Y-100631009D02*
X148690476Y-100631009D01*
X148833333Y-101154819D02*
X148357143Y-101154819D01*
X148357143Y-101154819D02*
X148357143Y-100154819D01*
X148357143Y-100154819D02*
X148833333Y-100154819D01*
X149119048Y-100154819D02*
X149690476Y-100154819D01*
X149404762Y-101154819D02*
X149404762Y-100154819D01*
X150547619Y-101154819D02*
X149976191Y-101154819D01*
X150261905Y-101154819D02*
X150261905Y-100154819D01*
X150261905Y-100154819D02*
X150166667Y-100297676D01*
X150166667Y-100297676D02*
X150071429Y-100392914D01*
X150071429Y-100392914D02*
X149976191Y-100440533D01*
X95507200Y-116333332D02*
X95554819Y-116190475D01*
X95554819Y-116190475D02*
X95554819Y-115952380D01*
X95554819Y-115952380D02*
X95507200Y-115857142D01*
X95507200Y-115857142D02*
X95459580Y-115809523D01*
X95459580Y-115809523D02*
X95364342Y-115761904D01*
X95364342Y-115761904D02*
X95269104Y-115761904D01*
X95269104Y-115761904D02*
X95173866Y-115809523D01*
X95173866Y-115809523D02*
X95126247Y-115857142D01*
X95126247Y-115857142D02*
X95078628Y-115952380D01*
X95078628Y-115952380D02*
X95031009Y-116142856D01*
X95031009Y-116142856D02*
X94983390Y-116238094D01*
X94983390Y-116238094D02*
X94935771Y-116285713D01*
X94935771Y-116285713D02*
X94840533Y-116333332D01*
X94840533Y-116333332D02*
X94745295Y-116333332D01*
X94745295Y-116333332D02*
X94650057Y-116285713D01*
X94650057Y-116285713D02*
X94602438Y-116238094D01*
X94602438Y-116238094D02*
X94554819Y-116142856D01*
X94554819Y-116142856D02*
X94554819Y-115904761D01*
X94554819Y-115904761D02*
X94602438Y-115761904D01*
X94554819Y-115428570D02*
X95554819Y-115190475D01*
X95554819Y-115190475D02*
X94840533Y-114999999D01*
X94840533Y-114999999D02*
X95554819Y-114809523D01*
X95554819Y-114809523D02*
X94554819Y-114571428D01*
X94650057Y-114238094D02*
X94602438Y-114190475D01*
X94602438Y-114190475D02*
X94554819Y-114095237D01*
X94554819Y-114095237D02*
X94554819Y-113857142D01*
X94554819Y-113857142D02*
X94602438Y-113761904D01*
X94602438Y-113761904D02*
X94650057Y-113714285D01*
X94650057Y-113714285D02*
X94745295Y-113666666D01*
X94745295Y-113666666D02*
X94840533Y-113666666D01*
X94840533Y-113666666D02*
X94983390Y-113714285D01*
X94983390Y-113714285D02*
X95554819Y-114285713D01*
X95554819Y-114285713D02*
X95554819Y-113666666D01*
X98833333Y-119679580D02*
X98785714Y-119727200D01*
X98785714Y-119727200D02*
X98642857Y-119774819D01*
X98642857Y-119774819D02*
X98547619Y-119774819D01*
X98547619Y-119774819D02*
X98404762Y-119727200D01*
X98404762Y-119727200D02*
X98309524Y-119631961D01*
X98309524Y-119631961D02*
X98261905Y-119536723D01*
X98261905Y-119536723D02*
X98214286Y-119346247D01*
X98214286Y-119346247D02*
X98214286Y-119203390D01*
X98214286Y-119203390D02*
X98261905Y-119012914D01*
X98261905Y-119012914D02*
X98309524Y-118917676D01*
X98309524Y-118917676D02*
X98404762Y-118822438D01*
X98404762Y-118822438D02*
X98547619Y-118774819D01*
X98547619Y-118774819D02*
X98642857Y-118774819D01*
X98642857Y-118774819D02*
X98785714Y-118822438D01*
X98785714Y-118822438D02*
X98833333Y-118870057D01*
X99690476Y-119108152D02*
X99690476Y-119774819D01*
X99452381Y-118727200D02*
X99214286Y-119441485D01*
X99214286Y-119441485D02*
X99833333Y-119441485D01*
X119882142Y-108679580D02*
X119834523Y-108727200D01*
X119834523Y-108727200D02*
X119691666Y-108774819D01*
X119691666Y-108774819D02*
X119596428Y-108774819D01*
X119596428Y-108774819D02*
X119453571Y-108727200D01*
X119453571Y-108727200D02*
X119358333Y-108631961D01*
X119358333Y-108631961D02*
X119310714Y-108536723D01*
X119310714Y-108536723D02*
X119263095Y-108346247D01*
X119263095Y-108346247D02*
X119263095Y-108203390D01*
X119263095Y-108203390D02*
X119310714Y-108012914D01*
X119310714Y-108012914D02*
X119358333Y-107917676D01*
X119358333Y-107917676D02*
X119453571Y-107822438D01*
X119453571Y-107822438D02*
X119596428Y-107774819D01*
X119596428Y-107774819D02*
X119691666Y-107774819D01*
X119691666Y-107774819D02*
X119834523Y-107822438D01*
X119834523Y-107822438D02*
X119882142Y-107870057D01*
X120263095Y-107870057D02*
X120310714Y-107822438D01*
X120310714Y-107822438D02*
X120405952Y-107774819D01*
X120405952Y-107774819D02*
X120644047Y-107774819D01*
X120644047Y-107774819D02*
X120739285Y-107822438D01*
X120739285Y-107822438D02*
X120786904Y-107870057D01*
X120786904Y-107870057D02*
X120834523Y-107965295D01*
X120834523Y-107965295D02*
X120834523Y-108060533D01*
X120834523Y-108060533D02*
X120786904Y-108203390D01*
X120786904Y-108203390D02*
X120215476Y-108774819D01*
X120215476Y-108774819D02*
X120834523Y-108774819D01*
X121167857Y-107774819D02*
X121786904Y-107774819D01*
X121786904Y-107774819D02*
X121453571Y-108155771D01*
X121453571Y-108155771D02*
X121596428Y-108155771D01*
X121596428Y-108155771D02*
X121691666Y-108203390D01*
X121691666Y-108203390D02*
X121739285Y-108251009D01*
X121739285Y-108251009D02*
X121786904Y-108346247D01*
X121786904Y-108346247D02*
X121786904Y-108584342D01*
X121786904Y-108584342D02*
X121739285Y-108679580D01*
X121739285Y-108679580D02*
X121691666Y-108727200D01*
X121691666Y-108727200D02*
X121596428Y-108774819D01*
X121596428Y-108774819D02*
X121310714Y-108774819D01*
X121310714Y-108774819D02*
X121215476Y-108727200D01*
X121215476Y-108727200D02*
X121167857Y-108679580D01*
X161309523Y-76054819D02*
X160976190Y-75578628D01*
X160738095Y-76054819D02*
X160738095Y-75054819D01*
X160738095Y-75054819D02*
X161119047Y-75054819D01*
X161119047Y-75054819D02*
X161214285Y-75102438D01*
X161214285Y-75102438D02*
X161261904Y-75150057D01*
X161261904Y-75150057D02*
X161309523Y-75245295D01*
X161309523Y-75245295D02*
X161309523Y-75388152D01*
X161309523Y-75388152D02*
X161261904Y-75483390D01*
X161261904Y-75483390D02*
X161214285Y-75531009D01*
X161214285Y-75531009D02*
X161119047Y-75578628D01*
X161119047Y-75578628D02*
X160738095Y-75578628D01*
X161738095Y-76054819D02*
X161738095Y-75054819D01*
X161738095Y-75054819D02*
X162309523Y-76054819D01*
X162309523Y-76054819D02*
X162309523Y-75054819D01*
X163261904Y-75054819D02*
X162785714Y-75054819D01*
X162785714Y-75054819D02*
X162738095Y-75531009D01*
X162738095Y-75531009D02*
X162785714Y-75483390D01*
X162785714Y-75483390D02*
X162880952Y-75435771D01*
X162880952Y-75435771D02*
X163119047Y-75435771D01*
X163119047Y-75435771D02*
X163214285Y-75483390D01*
X163214285Y-75483390D02*
X163261904Y-75531009D01*
X163261904Y-75531009D02*
X163309523Y-75626247D01*
X163309523Y-75626247D02*
X163309523Y-75864342D01*
X163309523Y-75864342D02*
X163261904Y-75959580D01*
X163261904Y-75959580D02*
X163214285Y-76007200D01*
X163214285Y-76007200D02*
X163119047Y-76054819D01*
X163119047Y-76054819D02*
X162880952Y-76054819D01*
X162880952Y-76054819D02*
X162785714Y-76007200D01*
X162785714Y-76007200D02*
X162738095Y-75959580D01*
X161309523Y-64854819D02*
X160976190Y-64378628D01*
X160738095Y-64854819D02*
X160738095Y-63854819D01*
X160738095Y-63854819D02*
X161119047Y-63854819D01*
X161119047Y-63854819D02*
X161214285Y-63902438D01*
X161214285Y-63902438D02*
X161261904Y-63950057D01*
X161261904Y-63950057D02*
X161309523Y-64045295D01*
X161309523Y-64045295D02*
X161309523Y-64188152D01*
X161309523Y-64188152D02*
X161261904Y-64283390D01*
X161261904Y-64283390D02*
X161214285Y-64331009D01*
X161214285Y-64331009D02*
X161119047Y-64378628D01*
X161119047Y-64378628D02*
X160738095Y-64378628D01*
X161738095Y-64854819D02*
X161738095Y-63854819D01*
X161738095Y-63854819D02*
X162309523Y-64854819D01*
X162309523Y-64854819D02*
X162309523Y-63854819D01*
X163214285Y-63854819D02*
X163023809Y-63854819D01*
X163023809Y-63854819D02*
X162928571Y-63902438D01*
X162928571Y-63902438D02*
X162880952Y-63950057D01*
X162880952Y-63950057D02*
X162785714Y-64092914D01*
X162785714Y-64092914D02*
X162738095Y-64283390D01*
X162738095Y-64283390D02*
X162738095Y-64664342D01*
X162738095Y-64664342D02*
X162785714Y-64759580D01*
X162785714Y-64759580D02*
X162833333Y-64807200D01*
X162833333Y-64807200D02*
X162928571Y-64854819D01*
X162928571Y-64854819D02*
X163119047Y-64854819D01*
X163119047Y-64854819D02*
X163214285Y-64807200D01*
X163214285Y-64807200D02*
X163261904Y-64759580D01*
X163261904Y-64759580D02*
X163309523Y-64664342D01*
X163309523Y-64664342D02*
X163309523Y-64426247D01*
X163309523Y-64426247D02*
X163261904Y-64331009D01*
X163261904Y-64331009D02*
X163214285Y-64283390D01*
X163214285Y-64283390D02*
X163119047Y-64235771D01*
X163119047Y-64235771D02*
X162928571Y-64235771D01*
X162928571Y-64235771D02*
X162833333Y-64283390D01*
X162833333Y-64283390D02*
X162785714Y-64331009D01*
X162785714Y-64331009D02*
X162738095Y-64426247D01*
X155150057Y-85095238D02*
X155102438Y-85190476D01*
X155102438Y-85190476D02*
X155007200Y-85285714D01*
X155007200Y-85285714D02*
X154864342Y-85428571D01*
X154864342Y-85428571D02*
X154816723Y-85523809D01*
X154816723Y-85523809D02*
X154816723Y-85619047D01*
X155054819Y-85571428D02*
X155007200Y-85666666D01*
X155007200Y-85666666D02*
X154911961Y-85761904D01*
X154911961Y-85761904D02*
X154721485Y-85809523D01*
X154721485Y-85809523D02*
X154388152Y-85809523D01*
X154388152Y-85809523D02*
X154197676Y-85761904D01*
X154197676Y-85761904D02*
X154102438Y-85666666D01*
X154102438Y-85666666D02*
X154054819Y-85571428D01*
X154054819Y-85571428D02*
X154054819Y-85380952D01*
X154054819Y-85380952D02*
X154102438Y-85285714D01*
X154102438Y-85285714D02*
X154197676Y-85190476D01*
X154197676Y-85190476D02*
X154388152Y-85142857D01*
X154388152Y-85142857D02*
X154721485Y-85142857D01*
X154721485Y-85142857D02*
X154911961Y-85190476D01*
X154911961Y-85190476D02*
X155007200Y-85285714D01*
X155007200Y-85285714D02*
X155054819Y-85380952D01*
X155054819Y-85380952D02*
X155054819Y-85571428D01*
X154054819Y-84809523D02*
X154054819Y-84142857D01*
X154054819Y-84142857D02*
X155054819Y-84571428D01*
X154238095Y-70174819D02*
X154238095Y-70984342D01*
X154238095Y-70984342D02*
X154285714Y-71079580D01*
X154285714Y-71079580D02*
X154333333Y-71127200D01*
X154333333Y-71127200D02*
X154428571Y-71174819D01*
X154428571Y-71174819D02*
X154619047Y-71174819D01*
X154619047Y-71174819D02*
X154714285Y-71127200D01*
X154714285Y-71127200D02*
X154761904Y-71079580D01*
X154761904Y-71079580D02*
X154809523Y-70984342D01*
X154809523Y-70984342D02*
X154809523Y-70174819D01*
X155761904Y-70174819D02*
X155285714Y-70174819D01*
X155285714Y-70174819D02*
X155238095Y-70651009D01*
X155238095Y-70651009D02*
X155285714Y-70603390D01*
X155285714Y-70603390D02*
X155380952Y-70555771D01*
X155380952Y-70555771D02*
X155619047Y-70555771D01*
X155619047Y-70555771D02*
X155714285Y-70603390D01*
X155714285Y-70603390D02*
X155761904Y-70651009D01*
X155761904Y-70651009D02*
X155809523Y-70746247D01*
X155809523Y-70746247D02*
X155809523Y-70984342D01*
X155809523Y-70984342D02*
X155761904Y-71079580D01*
X155761904Y-71079580D02*
X155714285Y-71127200D01*
X155714285Y-71127200D02*
X155619047Y-71174819D01*
X155619047Y-71174819D02*
X155380952Y-71174819D01*
X155380952Y-71174819D02*
X155285714Y-71127200D01*
X155285714Y-71127200D02*
X155238095Y-71079580D01*
X95507200Y-132333332D02*
X95554819Y-132190475D01*
X95554819Y-132190475D02*
X95554819Y-131952380D01*
X95554819Y-131952380D02*
X95507200Y-131857142D01*
X95507200Y-131857142D02*
X95459580Y-131809523D01*
X95459580Y-131809523D02*
X95364342Y-131761904D01*
X95364342Y-131761904D02*
X95269104Y-131761904D01*
X95269104Y-131761904D02*
X95173866Y-131809523D01*
X95173866Y-131809523D02*
X95126247Y-131857142D01*
X95126247Y-131857142D02*
X95078628Y-131952380D01*
X95078628Y-131952380D02*
X95031009Y-132142856D01*
X95031009Y-132142856D02*
X94983390Y-132238094D01*
X94983390Y-132238094D02*
X94935771Y-132285713D01*
X94935771Y-132285713D02*
X94840533Y-132333332D01*
X94840533Y-132333332D02*
X94745295Y-132333332D01*
X94745295Y-132333332D02*
X94650057Y-132285713D01*
X94650057Y-132285713D02*
X94602438Y-132238094D01*
X94602438Y-132238094D02*
X94554819Y-132142856D01*
X94554819Y-132142856D02*
X94554819Y-131904761D01*
X94554819Y-131904761D02*
X94602438Y-131761904D01*
X94554819Y-131428570D02*
X95554819Y-131190475D01*
X95554819Y-131190475D02*
X94840533Y-130999999D01*
X94840533Y-130999999D02*
X95554819Y-130809523D01*
X95554819Y-130809523D02*
X94554819Y-130571428D01*
X94554819Y-130285713D02*
X94554819Y-129666666D01*
X94554819Y-129666666D02*
X94935771Y-129999999D01*
X94935771Y-129999999D02*
X94935771Y-129857142D01*
X94935771Y-129857142D02*
X94983390Y-129761904D01*
X94983390Y-129761904D02*
X95031009Y-129714285D01*
X95031009Y-129714285D02*
X95126247Y-129666666D01*
X95126247Y-129666666D02*
X95364342Y-129666666D01*
X95364342Y-129666666D02*
X95459580Y-129714285D01*
X95459580Y-129714285D02*
X95507200Y-129761904D01*
X95507200Y-129761904D02*
X95554819Y-129857142D01*
X95554819Y-129857142D02*
X95554819Y-130142856D01*
X95554819Y-130142856D02*
X95507200Y-130238094D01*
X95507200Y-130238094D02*
X95459580Y-130285713D01*
X87761905Y-80859819D02*
X87761905Y-79859819D01*
X87761905Y-80240771D02*
X87857143Y-80193152D01*
X87857143Y-80193152D02*
X88047619Y-80193152D01*
X88047619Y-80193152D02*
X88142857Y-80240771D01*
X88142857Y-80240771D02*
X88190476Y-80288390D01*
X88190476Y-80288390D02*
X88238095Y-80383628D01*
X88238095Y-80383628D02*
X88238095Y-80669342D01*
X88238095Y-80669342D02*
X88190476Y-80764580D01*
X88190476Y-80764580D02*
X88142857Y-80812200D01*
X88142857Y-80812200D02*
X88047619Y-80859819D01*
X88047619Y-80859819D02*
X87857143Y-80859819D01*
X87857143Y-80859819D02*
X87761905Y-80812200D01*
X88619048Y-80812200D02*
X88761905Y-80859819D01*
X88761905Y-80859819D02*
X89000000Y-80859819D01*
X89000000Y-80859819D02*
X89095238Y-80812200D01*
X89095238Y-80812200D02*
X89142857Y-80764580D01*
X89142857Y-80764580D02*
X89190476Y-80669342D01*
X89190476Y-80669342D02*
X89190476Y-80574104D01*
X89190476Y-80574104D02*
X89142857Y-80478866D01*
X89142857Y-80478866D02*
X89095238Y-80431247D01*
X89095238Y-80431247D02*
X89000000Y-80383628D01*
X89000000Y-80383628D02*
X88809524Y-80336009D01*
X88809524Y-80336009D02*
X88714286Y-80288390D01*
X88714286Y-80288390D02*
X88666667Y-80240771D01*
X88666667Y-80240771D02*
X88619048Y-80145533D01*
X88619048Y-80145533D02*
X88619048Y-80050295D01*
X88619048Y-80050295D02*
X88666667Y-79955057D01*
X88666667Y-79955057D02*
X88714286Y-79907438D01*
X88714286Y-79907438D02*
X88809524Y-79859819D01*
X88809524Y-79859819D02*
X89047619Y-79859819D01*
X89047619Y-79859819D02*
X89190476Y-79907438D01*
X89523810Y-79859819D02*
X89761905Y-80859819D01*
X89761905Y-80859819D02*
X89952381Y-80145533D01*
X89952381Y-80145533D02*
X90142857Y-80859819D01*
X90142857Y-80859819D02*
X90380953Y-79859819D01*
X90761905Y-80859819D02*
X90761905Y-79859819D01*
X90761905Y-79859819D02*
X91000000Y-79859819D01*
X91000000Y-79859819D02*
X91142857Y-79907438D01*
X91142857Y-79907438D02*
X91238095Y-80002676D01*
X91238095Y-80002676D02*
X91285714Y-80097914D01*
X91285714Y-80097914D02*
X91333333Y-80288390D01*
X91333333Y-80288390D02*
X91333333Y-80431247D01*
X91333333Y-80431247D02*
X91285714Y-80621723D01*
X91285714Y-80621723D02*
X91238095Y-80716961D01*
X91238095Y-80716961D02*
X91142857Y-80812200D01*
X91142857Y-80812200D02*
X91000000Y-80859819D01*
X91000000Y-80859819D02*
X90761905Y-80859819D01*
X92285714Y-80859819D02*
X91714286Y-80859819D01*
X92000000Y-80859819D02*
X92000000Y-79859819D01*
X92000000Y-79859819D02*
X91904762Y-80002676D01*
X91904762Y-80002676D02*
X91809524Y-80097914D01*
X91809524Y-80097914D02*
X91714286Y-80145533D01*
D11*
X87519048Y-107171704D02*
X87995238Y-107171704D01*
X87423810Y-107457419D02*
X87757143Y-106457419D01*
X87757143Y-106457419D02*
X88090476Y-107457419D01*
X88423810Y-106457419D02*
X88423810Y-107266942D01*
X88423810Y-107266942D02*
X88471429Y-107362180D01*
X88471429Y-107362180D02*
X88519048Y-107409800D01*
X88519048Y-107409800D02*
X88614286Y-107457419D01*
X88614286Y-107457419D02*
X88804762Y-107457419D01*
X88804762Y-107457419D02*
X88900000Y-107409800D01*
X88900000Y-107409800D02*
X88947619Y-107362180D01*
X88947619Y-107362180D02*
X88995238Y-107266942D01*
X88995238Y-107266942D02*
X88995238Y-106457419D01*
X89471429Y-107457419D02*
X89471429Y-106457419D01*
X89471429Y-106457419D02*
X89709524Y-106457419D01*
X89709524Y-106457419D02*
X89852381Y-106505038D01*
X89852381Y-106505038D02*
X89947619Y-106600276D01*
X89947619Y-106600276D02*
X89995238Y-106695514D01*
X89995238Y-106695514D02*
X90042857Y-106885990D01*
X90042857Y-106885990D02*
X90042857Y-107028847D01*
X90042857Y-107028847D02*
X89995238Y-107219323D01*
X89995238Y-107219323D02*
X89947619Y-107314561D01*
X89947619Y-107314561D02*
X89852381Y-107409800D01*
X89852381Y-107409800D02*
X89709524Y-107457419D01*
X89709524Y-107457419D02*
X89471429Y-107457419D01*
X90233334Y-107552657D02*
X90995238Y-107552657D01*
X91233334Y-107457419D02*
X91233334Y-106457419D01*
X91233334Y-106457419D02*
X91614286Y-106457419D01*
X91614286Y-106457419D02*
X91709524Y-106505038D01*
X91709524Y-106505038D02*
X91757143Y-106552657D01*
X91757143Y-106552657D02*
X91804762Y-106647895D01*
X91804762Y-106647895D02*
X91804762Y-106790752D01*
X91804762Y-106790752D02*
X91757143Y-106885990D01*
X91757143Y-106885990D02*
X91709524Y-106933609D01*
X91709524Y-106933609D02*
X91614286Y-106981228D01*
X91614286Y-106981228D02*
X91233334Y-106981228D01*
X92233334Y-107457419D02*
X92233334Y-106457419D01*
X92709524Y-107457419D02*
X92709524Y-106457419D01*
X92709524Y-106457419D02*
X93280952Y-107457419D01*
X93280952Y-107457419D02*
X93280952Y-106457419D01*
X93757143Y-107457419D02*
X93757143Y-106457419D01*
X94328571Y-107457419D02*
X93900000Y-106885990D01*
X94328571Y-106457419D02*
X93757143Y-107028847D01*
X95280952Y-107457419D02*
X94709524Y-107457419D01*
X94995238Y-107457419D02*
X94995238Y-106457419D01*
X94995238Y-106457419D02*
X94900000Y-106600276D01*
X94900000Y-106600276D02*
X94804762Y-106695514D01*
X94804762Y-106695514D02*
X94709524Y-106743133D01*
D10*
X109238095Y-90174819D02*
X109238095Y-90984342D01*
X109238095Y-90984342D02*
X109285714Y-91079580D01*
X109285714Y-91079580D02*
X109333333Y-91127200D01*
X109333333Y-91127200D02*
X109428571Y-91174819D01*
X109428571Y-91174819D02*
X109619047Y-91174819D01*
X109619047Y-91174819D02*
X109714285Y-91127200D01*
X109714285Y-91127200D02*
X109761904Y-91079580D01*
X109761904Y-91079580D02*
X109809523Y-90984342D01*
X109809523Y-90984342D02*
X109809523Y-90174819D01*
X110809523Y-91174819D02*
X110238095Y-91174819D01*
X110523809Y-91174819D02*
X110523809Y-90174819D01*
X110523809Y-90174819D02*
X110428571Y-90317676D01*
X110428571Y-90317676D02*
X110333333Y-90412914D01*
X110333333Y-90412914D02*
X110238095Y-90460533D01*
D11*
X91757419Y-55171428D02*
X91757419Y-54600000D01*
X92757419Y-54885714D02*
X91757419Y-54885714D01*
X92233609Y-53933333D02*
X92233609Y-54266666D01*
X92757419Y-54266666D02*
X91757419Y-54266666D01*
X91757419Y-54266666D02*
X91757419Y-53790476D01*
X91757419Y-53552380D02*
X91757419Y-52980952D01*
X92757419Y-53266666D02*
X91757419Y-53266666D01*
X92757419Y-52123809D02*
X92757419Y-52695237D01*
X92757419Y-52409523D02*
X91757419Y-52409523D01*
X91757419Y-52409523D02*
X91900276Y-52504761D01*
X91900276Y-52504761D02*
X91995514Y-52599999D01*
X91995514Y-52599999D02*
X92043133Y-52695237D01*
D10*
X165150057Y-85095238D02*
X165102438Y-85190476D01*
X165102438Y-85190476D02*
X165007200Y-85285714D01*
X165007200Y-85285714D02*
X164864342Y-85428571D01*
X164864342Y-85428571D02*
X164816723Y-85523809D01*
X164816723Y-85523809D02*
X164816723Y-85619047D01*
X165054819Y-85571428D02*
X165007200Y-85666666D01*
X165007200Y-85666666D02*
X164911961Y-85761904D01*
X164911961Y-85761904D02*
X164721485Y-85809523D01*
X164721485Y-85809523D02*
X164388152Y-85809523D01*
X164388152Y-85809523D02*
X164197676Y-85761904D01*
X164197676Y-85761904D02*
X164102438Y-85666666D01*
X164102438Y-85666666D02*
X164054819Y-85571428D01*
X164054819Y-85571428D02*
X164054819Y-85380952D01*
X164054819Y-85380952D02*
X164102438Y-85285714D01*
X164102438Y-85285714D02*
X164197676Y-85190476D01*
X164197676Y-85190476D02*
X164388152Y-85142857D01*
X164388152Y-85142857D02*
X164721485Y-85142857D01*
X164721485Y-85142857D02*
X164911961Y-85190476D01*
X164911961Y-85190476D02*
X165007200Y-85285714D01*
X165007200Y-85285714D02*
X165054819Y-85380952D01*
X165054819Y-85380952D02*
X165054819Y-85571428D01*
X164054819Y-84285714D02*
X164054819Y-84476190D01*
X164054819Y-84476190D02*
X164102438Y-84571428D01*
X164102438Y-84571428D02*
X164150057Y-84619047D01*
X164150057Y-84619047D02*
X164292914Y-84714285D01*
X164292914Y-84714285D02*
X164483390Y-84761904D01*
X164483390Y-84761904D02*
X164864342Y-84761904D01*
X164864342Y-84761904D02*
X164959580Y-84714285D01*
X164959580Y-84714285D02*
X165007200Y-84666666D01*
X165007200Y-84666666D02*
X165054819Y-84571428D01*
X165054819Y-84571428D02*
X165054819Y-84380952D01*
X165054819Y-84380952D02*
X165007200Y-84285714D01*
X165007200Y-84285714D02*
X164959580Y-84238095D01*
X164959580Y-84238095D02*
X164864342Y-84190476D01*
X164864342Y-84190476D02*
X164626247Y-84190476D01*
X164626247Y-84190476D02*
X164531009Y-84238095D01*
X164531009Y-84238095D02*
X164483390Y-84285714D01*
X164483390Y-84285714D02*
X164435771Y-84380952D01*
X164435771Y-84380952D02*
X164435771Y-84571428D01*
X164435771Y-84571428D02*
X164483390Y-84666666D01*
X164483390Y-84666666D02*
X164531009Y-84714285D01*
X164531009Y-84714285D02*
X164626247Y-84761904D01*
X101309523Y-102054819D02*
X100976190Y-101578628D01*
X100738095Y-102054819D02*
X100738095Y-101054819D01*
X100738095Y-101054819D02*
X101119047Y-101054819D01*
X101119047Y-101054819D02*
X101214285Y-101102438D01*
X101214285Y-101102438D02*
X101261904Y-101150057D01*
X101261904Y-101150057D02*
X101309523Y-101245295D01*
X101309523Y-101245295D02*
X101309523Y-101388152D01*
X101309523Y-101388152D02*
X101261904Y-101483390D01*
X101261904Y-101483390D02*
X101214285Y-101531009D01*
X101214285Y-101531009D02*
X101119047Y-101578628D01*
X101119047Y-101578628D02*
X100738095Y-101578628D01*
X101738095Y-102054819D02*
X101738095Y-101054819D01*
X101738095Y-101054819D02*
X102309523Y-102054819D01*
X102309523Y-102054819D02*
X102309523Y-101054819D01*
X102690476Y-101054819D02*
X103309523Y-101054819D01*
X103309523Y-101054819D02*
X102976190Y-101435771D01*
X102976190Y-101435771D02*
X103119047Y-101435771D01*
X103119047Y-101435771D02*
X103214285Y-101483390D01*
X103214285Y-101483390D02*
X103261904Y-101531009D01*
X103261904Y-101531009D02*
X103309523Y-101626247D01*
X103309523Y-101626247D02*
X103309523Y-101864342D01*
X103309523Y-101864342D02*
X103261904Y-101959580D01*
X103261904Y-101959580D02*
X103214285Y-102007200D01*
X103214285Y-102007200D02*
X103119047Y-102054819D01*
X103119047Y-102054819D02*
X102833333Y-102054819D01*
X102833333Y-102054819D02*
X102738095Y-102007200D01*
X102738095Y-102007200D02*
X102690476Y-101959580D01*
X154934819Y-94632857D02*
X155649104Y-94632857D01*
X155649104Y-94632857D02*
X155791961Y-94680476D01*
X155791961Y-94680476D02*
X155887200Y-94775714D01*
X155887200Y-94775714D02*
X155934819Y-94918571D01*
X155934819Y-94918571D02*
X155934819Y-95013809D01*
X154934819Y-94299523D02*
X154934819Y-93728095D01*
X155934819Y-94013809D02*
X154934819Y-94013809D01*
X155649104Y-93442380D02*
X155649104Y-92966190D01*
X155934819Y-93537618D02*
X154934819Y-93204285D01*
X154934819Y-93204285D02*
X155934819Y-92870952D01*
X154982438Y-92013809D02*
X154934819Y-92109047D01*
X154934819Y-92109047D02*
X154934819Y-92251904D01*
X154934819Y-92251904D02*
X154982438Y-92394761D01*
X154982438Y-92394761D02*
X155077676Y-92489999D01*
X155077676Y-92489999D02*
X155172914Y-92537618D01*
X155172914Y-92537618D02*
X155363390Y-92585237D01*
X155363390Y-92585237D02*
X155506247Y-92585237D01*
X155506247Y-92585237D02*
X155696723Y-92537618D01*
X155696723Y-92537618D02*
X155791961Y-92489999D01*
X155791961Y-92489999D02*
X155887200Y-92394761D01*
X155887200Y-92394761D02*
X155934819Y-92251904D01*
X155934819Y-92251904D02*
X155934819Y-92156666D01*
X155934819Y-92156666D02*
X155887200Y-92013809D01*
X155887200Y-92013809D02*
X155839580Y-91966190D01*
X155839580Y-91966190D02*
X155506247Y-91966190D01*
X155506247Y-91966190D02*
X155506247Y-92156666D01*
X155934819Y-91013809D02*
X155934819Y-91585237D01*
X155934819Y-91299523D02*
X154934819Y-91299523D01*
X154934819Y-91299523D02*
X155077676Y-91394761D01*
X155077676Y-91394761D02*
X155172914Y-91489999D01*
X155172914Y-91489999D02*
X155220533Y-91585237D01*
X161309523Y-82054819D02*
X160976190Y-81578628D01*
X160738095Y-82054819D02*
X160738095Y-81054819D01*
X160738095Y-81054819D02*
X161119047Y-81054819D01*
X161119047Y-81054819D02*
X161214285Y-81102438D01*
X161214285Y-81102438D02*
X161261904Y-81150057D01*
X161261904Y-81150057D02*
X161309523Y-81245295D01*
X161309523Y-81245295D02*
X161309523Y-81388152D01*
X161309523Y-81388152D02*
X161261904Y-81483390D01*
X161261904Y-81483390D02*
X161214285Y-81531009D01*
X161214285Y-81531009D02*
X161119047Y-81578628D01*
X161119047Y-81578628D02*
X160738095Y-81578628D01*
X161738095Y-82054819D02*
X161738095Y-81054819D01*
X161738095Y-81054819D02*
X162309523Y-82054819D01*
X162309523Y-82054819D02*
X162309523Y-81054819D01*
X162690476Y-81054819D02*
X163357142Y-81054819D01*
X163357142Y-81054819D02*
X162928571Y-82054819D01*
X121659580Y-77166666D02*
X121707200Y-77214285D01*
X121707200Y-77214285D02*
X121754819Y-77357142D01*
X121754819Y-77357142D02*
X121754819Y-77452380D01*
X121754819Y-77452380D02*
X121707200Y-77595237D01*
X121707200Y-77595237D02*
X121611961Y-77690475D01*
X121611961Y-77690475D02*
X121516723Y-77738094D01*
X121516723Y-77738094D02*
X121326247Y-77785713D01*
X121326247Y-77785713D02*
X121183390Y-77785713D01*
X121183390Y-77785713D02*
X120992914Y-77738094D01*
X120992914Y-77738094D02*
X120897676Y-77690475D01*
X120897676Y-77690475D02*
X120802438Y-77595237D01*
X120802438Y-77595237D02*
X120754819Y-77452380D01*
X120754819Y-77452380D02*
X120754819Y-77357142D01*
X120754819Y-77357142D02*
X120802438Y-77214285D01*
X120802438Y-77214285D02*
X120850057Y-77166666D01*
X120850057Y-76785713D02*
X120802438Y-76738094D01*
X120802438Y-76738094D02*
X120754819Y-76642856D01*
X120754819Y-76642856D02*
X120754819Y-76404761D01*
X120754819Y-76404761D02*
X120802438Y-76309523D01*
X120802438Y-76309523D02*
X120850057Y-76261904D01*
X120850057Y-76261904D02*
X120945295Y-76214285D01*
X120945295Y-76214285D02*
X121040533Y-76214285D01*
X121040533Y-76214285D02*
X121183390Y-76261904D01*
X121183390Y-76261904D02*
X121754819Y-76833332D01*
X121754819Y-76833332D02*
X121754819Y-76214285D01*
X103507200Y-124333332D02*
X103554819Y-124190475D01*
X103554819Y-124190475D02*
X103554819Y-123952380D01*
X103554819Y-123952380D02*
X103507200Y-123857142D01*
X103507200Y-123857142D02*
X103459580Y-123809523D01*
X103459580Y-123809523D02*
X103364342Y-123761904D01*
X103364342Y-123761904D02*
X103269104Y-123761904D01*
X103269104Y-123761904D02*
X103173866Y-123809523D01*
X103173866Y-123809523D02*
X103126247Y-123857142D01*
X103126247Y-123857142D02*
X103078628Y-123952380D01*
X103078628Y-123952380D02*
X103031009Y-124142856D01*
X103031009Y-124142856D02*
X102983390Y-124238094D01*
X102983390Y-124238094D02*
X102935771Y-124285713D01*
X102935771Y-124285713D02*
X102840533Y-124333332D01*
X102840533Y-124333332D02*
X102745295Y-124333332D01*
X102745295Y-124333332D02*
X102650057Y-124285713D01*
X102650057Y-124285713D02*
X102602438Y-124238094D01*
X102602438Y-124238094D02*
X102554819Y-124142856D01*
X102554819Y-124142856D02*
X102554819Y-123904761D01*
X102554819Y-123904761D02*
X102602438Y-123761904D01*
X102554819Y-123428570D02*
X103554819Y-123190475D01*
X103554819Y-123190475D02*
X102840533Y-122999999D01*
X102840533Y-122999999D02*
X103554819Y-122809523D01*
X103554819Y-122809523D02*
X102554819Y-122571428D01*
X102888152Y-121761904D02*
X103554819Y-121761904D01*
X102507200Y-121999999D02*
X103221485Y-122238094D01*
X103221485Y-122238094D02*
X103221485Y-121619047D01*
X98833333Y-123679580D02*
X98785714Y-123727200D01*
X98785714Y-123727200D02*
X98642857Y-123774819D01*
X98642857Y-123774819D02*
X98547619Y-123774819D01*
X98547619Y-123774819D02*
X98404762Y-123727200D01*
X98404762Y-123727200D02*
X98309524Y-123631961D01*
X98309524Y-123631961D02*
X98261905Y-123536723D01*
X98261905Y-123536723D02*
X98214286Y-123346247D01*
X98214286Y-123346247D02*
X98214286Y-123203390D01*
X98214286Y-123203390D02*
X98261905Y-123012914D01*
X98261905Y-123012914D02*
X98309524Y-122917676D01*
X98309524Y-122917676D02*
X98404762Y-122822438D01*
X98404762Y-122822438D02*
X98547619Y-122774819D01*
X98547619Y-122774819D02*
X98642857Y-122774819D01*
X98642857Y-122774819D02*
X98785714Y-122822438D01*
X98785714Y-122822438D02*
X98833333Y-122870057D01*
X99738095Y-122774819D02*
X99261905Y-122774819D01*
X99261905Y-122774819D02*
X99214286Y-123251009D01*
X99214286Y-123251009D02*
X99261905Y-123203390D01*
X99261905Y-123203390D02*
X99357143Y-123155771D01*
X99357143Y-123155771D02*
X99595238Y-123155771D01*
X99595238Y-123155771D02*
X99690476Y-123203390D01*
X99690476Y-123203390D02*
X99738095Y-123251009D01*
X99738095Y-123251009D02*
X99785714Y-123346247D01*
X99785714Y-123346247D02*
X99785714Y-123584342D01*
X99785714Y-123584342D02*
X99738095Y-123679580D01*
X99738095Y-123679580D02*
X99690476Y-123727200D01*
X99690476Y-123727200D02*
X99595238Y-123774819D01*
X99595238Y-123774819D02*
X99357143Y-123774819D01*
X99357143Y-123774819D02*
X99261905Y-123727200D01*
X99261905Y-123727200D02*
X99214286Y-123679580D01*
X150150057Y-85095238D02*
X150102438Y-85190476D01*
X150102438Y-85190476D02*
X150007200Y-85285714D01*
X150007200Y-85285714D02*
X149864342Y-85428571D01*
X149864342Y-85428571D02*
X149816723Y-85523809D01*
X149816723Y-85523809D02*
X149816723Y-85619047D01*
X150054819Y-85571428D02*
X150007200Y-85666666D01*
X150007200Y-85666666D02*
X149911961Y-85761904D01*
X149911961Y-85761904D02*
X149721485Y-85809523D01*
X149721485Y-85809523D02*
X149388152Y-85809523D01*
X149388152Y-85809523D02*
X149197676Y-85761904D01*
X149197676Y-85761904D02*
X149102438Y-85666666D01*
X149102438Y-85666666D02*
X149054819Y-85571428D01*
X149054819Y-85571428D02*
X149054819Y-85380952D01*
X149054819Y-85380952D02*
X149102438Y-85285714D01*
X149102438Y-85285714D02*
X149197676Y-85190476D01*
X149197676Y-85190476D02*
X149388152Y-85142857D01*
X149388152Y-85142857D02*
X149721485Y-85142857D01*
X149721485Y-85142857D02*
X149911961Y-85190476D01*
X149911961Y-85190476D02*
X150007200Y-85285714D01*
X150007200Y-85285714D02*
X150054819Y-85380952D01*
X150054819Y-85380952D02*
X150054819Y-85571428D01*
X149150057Y-84761904D02*
X149102438Y-84714285D01*
X149102438Y-84714285D02*
X149054819Y-84619047D01*
X149054819Y-84619047D02*
X149054819Y-84380952D01*
X149054819Y-84380952D02*
X149102438Y-84285714D01*
X149102438Y-84285714D02*
X149150057Y-84238095D01*
X149150057Y-84238095D02*
X149245295Y-84190476D01*
X149245295Y-84190476D02*
X149340533Y-84190476D01*
X149340533Y-84190476D02*
X149483390Y-84238095D01*
X149483390Y-84238095D02*
X150054819Y-84809523D01*
X150054819Y-84809523D02*
X150054819Y-84190476D01*
X121659580Y-69204166D02*
X121707200Y-69251785D01*
X121707200Y-69251785D02*
X121754819Y-69394642D01*
X121754819Y-69394642D02*
X121754819Y-69489880D01*
X121754819Y-69489880D02*
X121707200Y-69632737D01*
X121707200Y-69632737D02*
X121611961Y-69727975D01*
X121611961Y-69727975D02*
X121516723Y-69775594D01*
X121516723Y-69775594D02*
X121326247Y-69823213D01*
X121326247Y-69823213D02*
X121183390Y-69823213D01*
X121183390Y-69823213D02*
X120992914Y-69775594D01*
X120992914Y-69775594D02*
X120897676Y-69727975D01*
X120897676Y-69727975D02*
X120802438Y-69632737D01*
X120802438Y-69632737D02*
X120754819Y-69489880D01*
X120754819Y-69489880D02*
X120754819Y-69394642D01*
X120754819Y-69394642D02*
X120802438Y-69251785D01*
X120802438Y-69251785D02*
X120850057Y-69204166D01*
X121754819Y-68251785D02*
X121754819Y-68823213D01*
X121754819Y-68537499D02*
X120754819Y-68537499D01*
X120754819Y-68537499D02*
X120897676Y-68632737D01*
X120897676Y-68632737D02*
X120992914Y-68727975D01*
X120992914Y-68727975D02*
X121040533Y-68823213D01*
X117761905Y-101031009D02*
X117904762Y-101078628D01*
X117904762Y-101078628D02*
X117952381Y-101126247D01*
X117952381Y-101126247D02*
X118000000Y-101221485D01*
X118000000Y-101221485D02*
X118000000Y-101364342D01*
X118000000Y-101364342D02*
X117952381Y-101459580D01*
X117952381Y-101459580D02*
X117904762Y-101507200D01*
X117904762Y-101507200D02*
X117809524Y-101554819D01*
X117809524Y-101554819D02*
X117428572Y-101554819D01*
X117428572Y-101554819D02*
X117428572Y-100554819D01*
X117428572Y-100554819D02*
X117761905Y-100554819D01*
X117761905Y-100554819D02*
X117857143Y-100602438D01*
X117857143Y-100602438D02*
X117904762Y-100650057D01*
X117904762Y-100650057D02*
X117952381Y-100745295D01*
X117952381Y-100745295D02*
X117952381Y-100840533D01*
X117952381Y-100840533D02*
X117904762Y-100935771D01*
X117904762Y-100935771D02*
X117857143Y-100983390D01*
X117857143Y-100983390D02*
X117761905Y-101031009D01*
X117761905Y-101031009D02*
X117428572Y-101031009D01*
X118428572Y-101554819D02*
X118428572Y-100554819D01*
X118857143Y-101269104D02*
X119333333Y-101269104D01*
X118761905Y-101554819D02*
X119095238Y-100554819D01*
X119095238Y-100554819D02*
X119428571Y-101554819D01*
X119714286Y-101507200D02*
X119857143Y-101554819D01*
X119857143Y-101554819D02*
X120095238Y-101554819D01*
X120095238Y-101554819D02*
X120190476Y-101507200D01*
X120190476Y-101507200D02*
X120238095Y-101459580D01*
X120238095Y-101459580D02*
X120285714Y-101364342D01*
X120285714Y-101364342D02*
X120285714Y-101269104D01*
X120285714Y-101269104D02*
X120238095Y-101173866D01*
X120238095Y-101173866D02*
X120190476Y-101126247D01*
X120190476Y-101126247D02*
X120095238Y-101078628D01*
X120095238Y-101078628D02*
X119904762Y-101031009D01*
X119904762Y-101031009D02*
X119809524Y-100983390D01*
X119809524Y-100983390D02*
X119761905Y-100935771D01*
X119761905Y-100935771D02*
X119714286Y-100840533D01*
X119714286Y-100840533D02*
X119714286Y-100745295D01*
X119714286Y-100745295D02*
X119761905Y-100650057D01*
X119761905Y-100650057D02*
X119809524Y-100602438D01*
X119809524Y-100602438D02*
X119904762Y-100554819D01*
X119904762Y-100554819D02*
X120142857Y-100554819D01*
X120142857Y-100554819D02*
X120285714Y-100602438D01*
X120571429Y-100554819D02*
X121142857Y-100554819D01*
X120857143Y-101554819D02*
X120857143Y-100554819D01*
X122047619Y-101554819D02*
X121714286Y-101078628D01*
X121476191Y-101554819D02*
X121476191Y-100554819D01*
X121476191Y-100554819D02*
X121857143Y-100554819D01*
X121857143Y-100554819D02*
X121952381Y-100602438D01*
X121952381Y-100602438D02*
X122000000Y-100650057D01*
X122000000Y-100650057D02*
X122047619Y-100745295D01*
X122047619Y-100745295D02*
X122047619Y-100888152D01*
X122047619Y-100888152D02*
X122000000Y-100983390D01*
X122000000Y-100983390D02*
X121952381Y-101031009D01*
X121952381Y-101031009D02*
X121857143Y-101078628D01*
X121857143Y-101078628D02*
X121476191Y-101078628D01*
X122476191Y-101554819D02*
X122476191Y-100554819D01*
X122952381Y-101554819D02*
X122952381Y-100554819D01*
X122952381Y-100554819D02*
X123285714Y-101269104D01*
X123285714Y-101269104D02*
X123619047Y-100554819D01*
X123619047Y-100554819D02*
X123619047Y-101554819D01*
X124619047Y-101554819D02*
X124047619Y-101554819D01*
X124333333Y-101554819D02*
X124333333Y-100554819D01*
X124333333Y-100554819D02*
X124238095Y-100697676D01*
X124238095Y-100697676D02*
X124142857Y-100792914D01*
X124142857Y-100792914D02*
X124047619Y-100840533D01*
X167904761Y-77150057D02*
X167809523Y-77102438D01*
X167809523Y-77102438D02*
X167714285Y-77007200D01*
X167714285Y-77007200D02*
X167571428Y-76864342D01*
X167571428Y-76864342D02*
X167476190Y-76816723D01*
X167476190Y-76816723D02*
X167380952Y-76816723D01*
X167428571Y-77054819D02*
X167333333Y-77007200D01*
X167333333Y-77007200D02*
X167238095Y-76911961D01*
X167238095Y-76911961D02*
X167190476Y-76721485D01*
X167190476Y-76721485D02*
X167190476Y-76388152D01*
X167190476Y-76388152D02*
X167238095Y-76197676D01*
X167238095Y-76197676D02*
X167333333Y-76102438D01*
X167333333Y-76102438D02*
X167428571Y-76054819D01*
X167428571Y-76054819D02*
X167619047Y-76054819D01*
X167619047Y-76054819D02*
X167714285Y-76102438D01*
X167714285Y-76102438D02*
X167809523Y-76197676D01*
X167809523Y-76197676D02*
X167857142Y-76388152D01*
X167857142Y-76388152D02*
X167857142Y-76721485D01*
X167857142Y-76721485D02*
X167809523Y-76911961D01*
X167809523Y-76911961D02*
X167714285Y-77007200D01*
X167714285Y-77007200D02*
X167619047Y-77054819D01*
X167619047Y-77054819D02*
X167428571Y-77054819D01*
X168190476Y-76054819D02*
X168809523Y-76054819D01*
X168809523Y-76054819D02*
X168476190Y-76435771D01*
X168476190Y-76435771D02*
X168619047Y-76435771D01*
X168619047Y-76435771D02*
X168714285Y-76483390D01*
X168714285Y-76483390D02*
X168761904Y-76531009D01*
X168761904Y-76531009D02*
X168809523Y-76626247D01*
X168809523Y-76626247D02*
X168809523Y-76864342D01*
X168809523Y-76864342D02*
X168761904Y-76959580D01*
X168761904Y-76959580D02*
X168714285Y-77007200D01*
X168714285Y-77007200D02*
X168619047Y-77054819D01*
X168619047Y-77054819D02*
X168333333Y-77054819D01*
X168333333Y-77054819D02*
X168238095Y-77007200D01*
X168238095Y-77007200D02*
X168190476Y-76959580D01*
X139954819Y-106761904D02*
X140764342Y-106761904D01*
X140764342Y-106761904D02*
X140859580Y-106714285D01*
X140859580Y-106714285D02*
X140907200Y-106666666D01*
X140907200Y-106666666D02*
X140954819Y-106571428D01*
X140954819Y-106571428D02*
X140954819Y-106380952D01*
X140954819Y-106380952D02*
X140907200Y-106285714D01*
X140907200Y-106285714D02*
X140859580Y-106238095D01*
X140859580Y-106238095D02*
X140764342Y-106190476D01*
X140764342Y-106190476D02*
X139954819Y-106190476D01*
X140288152Y-105285714D02*
X140954819Y-105285714D01*
X139907200Y-105523809D02*
X140621485Y-105761904D01*
X140621485Y-105761904D02*
X140621485Y-105142857D01*
X101294819Y-106190476D02*
X100818628Y-106523809D01*
X101294819Y-106761904D02*
X100294819Y-106761904D01*
X100294819Y-106761904D02*
X100294819Y-106380952D01*
X100294819Y-106380952D02*
X100342438Y-106285714D01*
X100342438Y-106285714D02*
X100390057Y-106238095D01*
X100390057Y-106238095D02*
X100485295Y-106190476D01*
X100485295Y-106190476D02*
X100628152Y-106190476D01*
X100628152Y-106190476D02*
X100723390Y-106238095D01*
X100723390Y-106238095D02*
X100771009Y-106285714D01*
X100771009Y-106285714D02*
X100818628Y-106380952D01*
X100818628Y-106380952D02*
X100818628Y-106761904D01*
X101294819Y-105761904D02*
X100294819Y-105761904D01*
X100294819Y-105761904D02*
X101294819Y-105190476D01*
X101294819Y-105190476D02*
X100294819Y-105190476D01*
X101294819Y-104190476D02*
X101294819Y-104761904D01*
X101294819Y-104476190D02*
X100294819Y-104476190D01*
X100294819Y-104476190D02*
X100437676Y-104571428D01*
X100437676Y-104571428D02*
X100532914Y-104666666D01*
X100532914Y-104666666D02*
X100580533Y-104761904D01*
D11*
X177552381Y-103371704D02*
X178028571Y-103371704D01*
X177457143Y-103657419D02*
X177790476Y-102657419D01*
X177790476Y-102657419D02*
X178123809Y-103657419D01*
X178457143Y-102657419D02*
X178457143Y-103466942D01*
X178457143Y-103466942D02*
X178504762Y-103562180D01*
X178504762Y-103562180D02*
X178552381Y-103609800D01*
X178552381Y-103609800D02*
X178647619Y-103657419D01*
X178647619Y-103657419D02*
X178838095Y-103657419D01*
X178838095Y-103657419D02*
X178933333Y-103609800D01*
X178933333Y-103609800D02*
X178980952Y-103562180D01*
X178980952Y-103562180D02*
X179028571Y-103466942D01*
X179028571Y-103466942D02*
X179028571Y-102657419D01*
X179504762Y-103657419D02*
X179504762Y-102657419D01*
X179504762Y-102657419D02*
X179742857Y-102657419D01*
X179742857Y-102657419D02*
X179885714Y-102705038D01*
X179885714Y-102705038D02*
X179980952Y-102800276D01*
X179980952Y-102800276D02*
X180028571Y-102895514D01*
X180028571Y-102895514D02*
X180076190Y-103085990D01*
X180076190Y-103085990D02*
X180076190Y-103228847D01*
X180076190Y-103228847D02*
X180028571Y-103419323D01*
X180028571Y-103419323D02*
X179980952Y-103514561D01*
X179980952Y-103514561D02*
X179885714Y-103609800D01*
X179885714Y-103609800D02*
X179742857Y-103657419D01*
X179742857Y-103657419D02*
X179504762Y-103657419D01*
X180266667Y-103752657D02*
X181028571Y-103752657D01*
X181457143Y-102657419D02*
X181647619Y-102657419D01*
X181647619Y-102657419D02*
X181742857Y-102705038D01*
X181742857Y-102705038D02*
X181838095Y-102800276D01*
X181838095Y-102800276D02*
X181885714Y-102990752D01*
X181885714Y-102990752D02*
X181885714Y-103324085D01*
X181885714Y-103324085D02*
X181838095Y-103514561D01*
X181838095Y-103514561D02*
X181742857Y-103609800D01*
X181742857Y-103609800D02*
X181647619Y-103657419D01*
X181647619Y-103657419D02*
X181457143Y-103657419D01*
X181457143Y-103657419D02*
X181361905Y-103609800D01*
X181361905Y-103609800D02*
X181266667Y-103514561D01*
X181266667Y-103514561D02*
X181219048Y-103324085D01*
X181219048Y-103324085D02*
X181219048Y-102990752D01*
X181219048Y-102990752D02*
X181266667Y-102800276D01*
X181266667Y-102800276D02*
X181361905Y-102705038D01*
X181361905Y-102705038D02*
X181457143Y-102657419D01*
X182885714Y-103657419D02*
X182552381Y-103181228D01*
X182314286Y-103657419D02*
X182314286Y-102657419D01*
X182314286Y-102657419D02*
X182695238Y-102657419D01*
X182695238Y-102657419D02*
X182790476Y-102705038D01*
X182790476Y-102705038D02*
X182838095Y-102752657D01*
X182838095Y-102752657D02*
X182885714Y-102847895D01*
X182885714Y-102847895D02*
X182885714Y-102990752D01*
X182885714Y-102990752D02*
X182838095Y-103085990D01*
X182838095Y-103085990D02*
X182790476Y-103133609D01*
X182790476Y-103133609D02*
X182695238Y-103181228D01*
X182695238Y-103181228D02*
X182314286Y-103181228D01*
X183266667Y-103371704D02*
X183742857Y-103371704D01*
X183171429Y-103657419D02*
X183504762Y-102657419D01*
X183504762Y-102657419D02*
X183838095Y-103657419D01*
X184171429Y-103657419D02*
X184171429Y-102657419D01*
X184171429Y-102657419D02*
X184742857Y-103657419D01*
X184742857Y-103657419D02*
X184742857Y-102657419D01*
X185742857Y-102705038D02*
X185647619Y-102657419D01*
X185647619Y-102657419D02*
X185504762Y-102657419D01*
X185504762Y-102657419D02*
X185361905Y-102705038D01*
X185361905Y-102705038D02*
X185266667Y-102800276D01*
X185266667Y-102800276D02*
X185219048Y-102895514D01*
X185219048Y-102895514D02*
X185171429Y-103085990D01*
X185171429Y-103085990D02*
X185171429Y-103228847D01*
X185171429Y-103228847D02*
X185219048Y-103419323D01*
X185219048Y-103419323D02*
X185266667Y-103514561D01*
X185266667Y-103514561D02*
X185361905Y-103609800D01*
X185361905Y-103609800D02*
X185504762Y-103657419D01*
X185504762Y-103657419D02*
X185600000Y-103657419D01*
X185600000Y-103657419D02*
X185742857Y-103609800D01*
X185742857Y-103609800D02*
X185790476Y-103562180D01*
X185790476Y-103562180D02*
X185790476Y-103228847D01*
X185790476Y-103228847D02*
X185600000Y-103228847D01*
X186219048Y-103133609D02*
X186552381Y-103133609D01*
X186695238Y-103657419D02*
X186219048Y-103657419D01*
X186219048Y-103657419D02*
X186219048Y-102657419D01*
X186219048Y-102657419D02*
X186695238Y-102657419D01*
X187647619Y-103657419D02*
X187076191Y-103657419D01*
X187361905Y-103657419D02*
X187361905Y-102657419D01*
X187361905Y-102657419D02*
X187266667Y-102800276D01*
X187266667Y-102800276D02*
X187171429Y-102895514D01*
X187171429Y-102895514D02*
X187076191Y-102943133D01*
D10*
X127052381Y-86154819D02*
X127052381Y-85154819D01*
X127052381Y-85154819D02*
X127623809Y-86154819D01*
X127623809Y-86154819D02*
X127623809Y-85154819D01*
X128290476Y-85154819D02*
X128480952Y-85154819D01*
X128480952Y-85154819D02*
X128576190Y-85202438D01*
X128576190Y-85202438D02*
X128671428Y-85297676D01*
X128671428Y-85297676D02*
X128719047Y-85488152D01*
X128719047Y-85488152D02*
X128719047Y-85821485D01*
X128719047Y-85821485D02*
X128671428Y-86011961D01*
X128671428Y-86011961D02*
X128576190Y-86107200D01*
X128576190Y-86107200D02*
X128480952Y-86154819D01*
X128480952Y-86154819D02*
X128290476Y-86154819D01*
X128290476Y-86154819D02*
X128195238Y-86107200D01*
X128195238Y-86107200D02*
X128100000Y-86011961D01*
X128100000Y-86011961D02*
X128052381Y-85821485D01*
X128052381Y-85821485D02*
X128052381Y-85488152D01*
X128052381Y-85488152D02*
X128100000Y-85297676D01*
X128100000Y-85297676D02*
X128195238Y-85202438D01*
X128195238Y-85202438D02*
X128290476Y-85154819D01*
X129719047Y-86154819D02*
X129385714Y-85678628D01*
X129147619Y-86154819D02*
X129147619Y-85154819D01*
X129147619Y-85154819D02*
X129528571Y-85154819D01*
X129528571Y-85154819D02*
X129623809Y-85202438D01*
X129623809Y-85202438D02*
X129671428Y-85250057D01*
X129671428Y-85250057D02*
X129719047Y-85345295D01*
X129719047Y-85345295D02*
X129719047Y-85488152D01*
X129719047Y-85488152D02*
X129671428Y-85583390D01*
X129671428Y-85583390D02*
X129623809Y-85631009D01*
X129623809Y-85631009D02*
X129528571Y-85678628D01*
X129528571Y-85678628D02*
X129147619Y-85678628D01*
X130480952Y-85631009D02*
X130147619Y-85631009D01*
X130147619Y-86154819D02*
X130147619Y-85154819D01*
X130147619Y-85154819D02*
X130623809Y-85154819D01*
X131480952Y-86154819D02*
X131004762Y-86154819D01*
X131004762Y-86154819D02*
X131004762Y-85154819D01*
X131766667Y-85869104D02*
X132242857Y-85869104D01*
X131671429Y-86154819D02*
X132004762Y-85154819D01*
X132004762Y-85154819D02*
X132338095Y-86154819D01*
X132623810Y-86107200D02*
X132766667Y-86154819D01*
X132766667Y-86154819D02*
X133004762Y-86154819D01*
X133004762Y-86154819D02*
X133100000Y-86107200D01*
X133100000Y-86107200D02*
X133147619Y-86059580D01*
X133147619Y-86059580D02*
X133195238Y-85964342D01*
X133195238Y-85964342D02*
X133195238Y-85869104D01*
X133195238Y-85869104D02*
X133147619Y-85773866D01*
X133147619Y-85773866D02*
X133100000Y-85726247D01*
X133100000Y-85726247D02*
X133004762Y-85678628D01*
X133004762Y-85678628D02*
X132814286Y-85631009D01*
X132814286Y-85631009D02*
X132719048Y-85583390D01*
X132719048Y-85583390D02*
X132671429Y-85535771D01*
X132671429Y-85535771D02*
X132623810Y-85440533D01*
X132623810Y-85440533D02*
X132623810Y-85345295D01*
X132623810Y-85345295D02*
X132671429Y-85250057D01*
X132671429Y-85250057D02*
X132719048Y-85202438D01*
X132719048Y-85202438D02*
X132814286Y-85154819D01*
X132814286Y-85154819D02*
X133052381Y-85154819D01*
X133052381Y-85154819D02*
X133195238Y-85202438D01*
X133623810Y-86154819D02*
X133623810Y-85154819D01*
X133623810Y-85631009D02*
X134195238Y-85631009D01*
X134195238Y-86154819D02*
X134195238Y-85154819D01*
X135195238Y-86154819D02*
X134623810Y-86154819D01*
X134909524Y-86154819D02*
X134909524Y-85154819D01*
X134909524Y-85154819D02*
X134814286Y-85297676D01*
X134814286Y-85297676D02*
X134719048Y-85392914D01*
X134719048Y-85392914D02*
X134623810Y-85440533D01*
X100709580Y-94642857D02*
X100757200Y-94690476D01*
X100757200Y-94690476D02*
X100804819Y-94833333D01*
X100804819Y-94833333D02*
X100804819Y-94928571D01*
X100804819Y-94928571D02*
X100757200Y-95071428D01*
X100757200Y-95071428D02*
X100661961Y-95166666D01*
X100661961Y-95166666D02*
X100566723Y-95214285D01*
X100566723Y-95214285D02*
X100376247Y-95261904D01*
X100376247Y-95261904D02*
X100233390Y-95261904D01*
X100233390Y-95261904D02*
X100042914Y-95214285D01*
X100042914Y-95214285D02*
X99947676Y-95166666D01*
X99947676Y-95166666D02*
X99852438Y-95071428D01*
X99852438Y-95071428D02*
X99804819Y-94928571D01*
X99804819Y-94928571D02*
X99804819Y-94833333D01*
X99804819Y-94833333D02*
X99852438Y-94690476D01*
X99852438Y-94690476D02*
X99900057Y-94642857D01*
X99900057Y-94261904D02*
X99852438Y-94214285D01*
X99852438Y-94214285D02*
X99804819Y-94119047D01*
X99804819Y-94119047D02*
X99804819Y-93880952D01*
X99804819Y-93880952D02*
X99852438Y-93785714D01*
X99852438Y-93785714D02*
X99900057Y-93738095D01*
X99900057Y-93738095D02*
X99995295Y-93690476D01*
X99995295Y-93690476D02*
X100090533Y-93690476D01*
X100090533Y-93690476D02*
X100233390Y-93738095D01*
X100233390Y-93738095D02*
X100804819Y-94309523D01*
X100804819Y-94309523D02*
X100804819Y-93690476D01*
X99804819Y-92785714D02*
X99804819Y-93261904D01*
X99804819Y-93261904D02*
X100281009Y-93309523D01*
X100281009Y-93309523D02*
X100233390Y-93261904D01*
X100233390Y-93261904D02*
X100185771Y-93166666D01*
X100185771Y-93166666D02*
X100185771Y-92928571D01*
X100185771Y-92928571D02*
X100233390Y-92833333D01*
X100233390Y-92833333D02*
X100281009Y-92785714D01*
X100281009Y-92785714D02*
X100376247Y-92738095D01*
X100376247Y-92738095D02*
X100614342Y-92738095D01*
X100614342Y-92738095D02*
X100709580Y-92785714D01*
X100709580Y-92785714D02*
X100757200Y-92833333D01*
X100757200Y-92833333D02*
X100804819Y-92928571D01*
X100804819Y-92928571D02*
X100804819Y-93166666D01*
X100804819Y-93166666D02*
X100757200Y-93261904D01*
X100757200Y-93261904D02*
X100709580Y-93309523D01*
X154371428Y-102254819D02*
X154038095Y-101778628D01*
X153800000Y-102254819D02*
X153800000Y-101254819D01*
X153800000Y-101254819D02*
X154180952Y-101254819D01*
X154180952Y-101254819D02*
X154276190Y-101302438D01*
X154276190Y-101302438D02*
X154323809Y-101350057D01*
X154323809Y-101350057D02*
X154371428Y-101445295D01*
X154371428Y-101445295D02*
X154371428Y-101588152D01*
X154371428Y-101588152D02*
X154323809Y-101683390D01*
X154323809Y-101683390D02*
X154276190Y-101731009D01*
X154276190Y-101731009D02*
X154180952Y-101778628D01*
X154180952Y-101778628D02*
X153800000Y-101778628D01*
X154990476Y-101254819D02*
X155180952Y-101254819D01*
X155180952Y-101254819D02*
X155276190Y-101302438D01*
X155276190Y-101302438D02*
X155371428Y-101397676D01*
X155371428Y-101397676D02*
X155419047Y-101588152D01*
X155419047Y-101588152D02*
X155419047Y-101921485D01*
X155419047Y-101921485D02*
X155371428Y-102111961D01*
X155371428Y-102111961D02*
X155276190Y-102207200D01*
X155276190Y-102207200D02*
X155180952Y-102254819D01*
X155180952Y-102254819D02*
X154990476Y-102254819D01*
X154990476Y-102254819D02*
X154895238Y-102207200D01*
X154895238Y-102207200D02*
X154800000Y-102111961D01*
X154800000Y-102111961D02*
X154752381Y-101921485D01*
X154752381Y-101921485D02*
X154752381Y-101588152D01*
X154752381Y-101588152D02*
X154800000Y-101397676D01*
X154800000Y-101397676D02*
X154895238Y-101302438D01*
X154895238Y-101302438D02*
X154990476Y-101254819D01*
X155704762Y-101254819D02*
X156276190Y-101254819D01*
X155990476Y-102254819D02*
X155990476Y-101254819D01*
X156561905Y-101969104D02*
X157038095Y-101969104D01*
X156466667Y-102254819D02*
X156800000Y-101254819D01*
X156800000Y-101254819D02*
X157133333Y-102254819D01*
X158038095Y-102254819D02*
X157704762Y-101778628D01*
X157466667Y-102254819D02*
X157466667Y-101254819D01*
X157466667Y-101254819D02*
X157847619Y-101254819D01*
X157847619Y-101254819D02*
X157942857Y-101302438D01*
X157942857Y-101302438D02*
X157990476Y-101350057D01*
X157990476Y-101350057D02*
X158038095Y-101445295D01*
X158038095Y-101445295D02*
X158038095Y-101588152D01*
X158038095Y-101588152D02*
X157990476Y-101683390D01*
X157990476Y-101683390D02*
X157942857Y-101731009D01*
X157942857Y-101731009D02*
X157847619Y-101778628D01*
X157847619Y-101778628D02*
X157466667Y-101778628D01*
X158657143Y-101778628D02*
X158657143Y-102254819D01*
X158323810Y-101254819D02*
X158657143Y-101778628D01*
X158657143Y-101778628D02*
X158990476Y-101254819D01*
X159847619Y-102254819D02*
X159276191Y-102254819D01*
X159561905Y-102254819D02*
X159561905Y-101254819D01*
X159561905Y-101254819D02*
X159466667Y-101397676D01*
X159466667Y-101397676D02*
X159371429Y-101492914D01*
X159371429Y-101492914D02*
X159276191Y-101540533D01*
X126952381Y-60854819D02*
X126952381Y-59854819D01*
X126952381Y-59854819D02*
X127523809Y-60854819D01*
X127523809Y-60854819D02*
X127523809Y-59854819D01*
X128190476Y-59854819D02*
X128380952Y-59854819D01*
X128380952Y-59854819D02*
X128476190Y-59902438D01*
X128476190Y-59902438D02*
X128571428Y-59997676D01*
X128571428Y-59997676D02*
X128619047Y-60188152D01*
X128619047Y-60188152D02*
X128619047Y-60521485D01*
X128619047Y-60521485D02*
X128571428Y-60711961D01*
X128571428Y-60711961D02*
X128476190Y-60807200D01*
X128476190Y-60807200D02*
X128380952Y-60854819D01*
X128380952Y-60854819D02*
X128190476Y-60854819D01*
X128190476Y-60854819D02*
X128095238Y-60807200D01*
X128095238Y-60807200D02*
X128000000Y-60711961D01*
X128000000Y-60711961D02*
X127952381Y-60521485D01*
X127952381Y-60521485D02*
X127952381Y-60188152D01*
X127952381Y-60188152D02*
X128000000Y-59997676D01*
X128000000Y-59997676D02*
X128095238Y-59902438D01*
X128095238Y-59902438D02*
X128190476Y-59854819D01*
X129619047Y-60854819D02*
X129285714Y-60378628D01*
X129047619Y-60854819D02*
X129047619Y-59854819D01*
X129047619Y-59854819D02*
X129428571Y-59854819D01*
X129428571Y-59854819D02*
X129523809Y-59902438D01*
X129523809Y-59902438D02*
X129571428Y-59950057D01*
X129571428Y-59950057D02*
X129619047Y-60045295D01*
X129619047Y-60045295D02*
X129619047Y-60188152D01*
X129619047Y-60188152D02*
X129571428Y-60283390D01*
X129571428Y-60283390D02*
X129523809Y-60331009D01*
X129523809Y-60331009D02*
X129428571Y-60378628D01*
X129428571Y-60378628D02*
X129047619Y-60378628D01*
X130380952Y-60331009D02*
X130047619Y-60331009D01*
X130047619Y-60854819D02*
X130047619Y-59854819D01*
X130047619Y-59854819D02*
X130523809Y-59854819D01*
X131380952Y-60854819D02*
X130904762Y-60854819D01*
X130904762Y-60854819D02*
X130904762Y-59854819D01*
X131666667Y-60569104D02*
X132142857Y-60569104D01*
X131571429Y-60854819D02*
X131904762Y-59854819D01*
X131904762Y-59854819D02*
X132238095Y-60854819D01*
X132523810Y-60807200D02*
X132666667Y-60854819D01*
X132666667Y-60854819D02*
X132904762Y-60854819D01*
X132904762Y-60854819D02*
X133000000Y-60807200D01*
X133000000Y-60807200D02*
X133047619Y-60759580D01*
X133047619Y-60759580D02*
X133095238Y-60664342D01*
X133095238Y-60664342D02*
X133095238Y-60569104D01*
X133095238Y-60569104D02*
X133047619Y-60473866D01*
X133047619Y-60473866D02*
X133000000Y-60426247D01*
X133000000Y-60426247D02*
X132904762Y-60378628D01*
X132904762Y-60378628D02*
X132714286Y-60331009D01*
X132714286Y-60331009D02*
X132619048Y-60283390D01*
X132619048Y-60283390D02*
X132571429Y-60235771D01*
X132571429Y-60235771D02*
X132523810Y-60140533D01*
X132523810Y-60140533D02*
X132523810Y-60045295D01*
X132523810Y-60045295D02*
X132571429Y-59950057D01*
X132571429Y-59950057D02*
X132619048Y-59902438D01*
X132619048Y-59902438D02*
X132714286Y-59854819D01*
X132714286Y-59854819D02*
X132952381Y-59854819D01*
X132952381Y-59854819D02*
X133095238Y-59902438D01*
X133523810Y-60854819D02*
X133523810Y-59854819D01*
X133523810Y-60331009D02*
X134095238Y-60331009D01*
X134095238Y-60854819D02*
X134095238Y-59854819D01*
X134523810Y-59950057D02*
X134571429Y-59902438D01*
X134571429Y-59902438D02*
X134666667Y-59854819D01*
X134666667Y-59854819D02*
X134904762Y-59854819D01*
X134904762Y-59854819D02*
X135000000Y-59902438D01*
X135000000Y-59902438D02*
X135047619Y-59950057D01*
X135047619Y-59950057D02*
X135095238Y-60045295D01*
X135095238Y-60045295D02*
X135095238Y-60140533D01*
X135095238Y-60140533D02*
X135047619Y-60283390D01*
X135047619Y-60283390D02*
X134476191Y-60854819D01*
X134476191Y-60854819D02*
X135095238Y-60854819D01*
X106056368Y-48686759D02*
X106086844Y-48595330D01*
X106086844Y-48595330D02*
X106086844Y-48442949D01*
X106086844Y-48442949D02*
X106056368Y-48381997D01*
X106056368Y-48381997D02*
X106025891Y-48351521D01*
X106025891Y-48351521D02*
X105964939Y-48321044D01*
X105964939Y-48321044D02*
X105903987Y-48321044D01*
X105903987Y-48321044D02*
X105843034Y-48351521D01*
X105843034Y-48351521D02*
X105812558Y-48381997D01*
X105812558Y-48381997D02*
X105782082Y-48442949D01*
X105782082Y-48442949D02*
X105751606Y-48564854D01*
X105751606Y-48564854D02*
X105721129Y-48625806D01*
X105721129Y-48625806D02*
X105690653Y-48656283D01*
X105690653Y-48656283D02*
X105629701Y-48686759D01*
X105629701Y-48686759D02*
X105568748Y-48686759D01*
X105568748Y-48686759D02*
X105507796Y-48656283D01*
X105507796Y-48656283D02*
X105477320Y-48625806D01*
X105477320Y-48625806D02*
X105446844Y-48564854D01*
X105446844Y-48564854D02*
X105446844Y-48412473D01*
X105446844Y-48412473D02*
X105477320Y-48321044D01*
X106086844Y-48046759D02*
X105446844Y-48046759D01*
X105446844Y-48046759D02*
X105446844Y-47894378D01*
X105446844Y-47894378D02*
X105477320Y-47802949D01*
X105477320Y-47802949D02*
X105538272Y-47741997D01*
X105538272Y-47741997D02*
X105599225Y-47711520D01*
X105599225Y-47711520D02*
X105721129Y-47681044D01*
X105721129Y-47681044D02*
X105812558Y-47681044D01*
X105812558Y-47681044D02*
X105934463Y-47711520D01*
X105934463Y-47711520D02*
X105995415Y-47741997D01*
X105995415Y-47741997D02*
X106056368Y-47802949D01*
X106056368Y-47802949D02*
X106086844Y-47894378D01*
X106086844Y-47894378D02*
X106086844Y-48046759D01*
X106025891Y-47041044D02*
X106056368Y-47071520D01*
X106056368Y-47071520D02*
X106086844Y-47162949D01*
X106086844Y-47162949D02*
X106086844Y-47223901D01*
X106086844Y-47223901D02*
X106056368Y-47315330D01*
X106056368Y-47315330D02*
X105995415Y-47376282D01*
X105995415Y-47376282D02*
X105934463Y-47406759D01*
X105934463Y-47406759D02*
X105812558Y-47437235D01*
X105812558Y-47437235D02*
X105721129Y-47437235D01*
X105721129Y-47437235D02*
X105599225Y-47406759D01*
X105599225Y-47406759D02*
X105538272Y-47376282D01*
X105538272Y-47376282D02*
X105477320Y-47315330D01*
X105477320Y-47315330D02*
X105446844Y-47223901D01*
X105446844Y-47223901D02*
X105446844Y-47162949D01*
X105446844Y-47162949D02*
X105477320Y-47071520D01*
X105477320Y-47071520D02*
X105507796Y-47041044D01*
X105903987Y-46797235D02*
X105903987Y-46492473D01*
X106086844Y-46858187D02*
X105446844Y-46644854D01*
X105446844Y-46644854D02*
X106086844Y-46431520D01*
X106086844Y-45852473D02*
X105782082Y-46065807D01*
X106086844Y-46218188D02*
X105446844Y-46218188D01*
X105446844Y-46218188D02*
X105446844Y-45974378D01*
X105446844Y-45974378D02*
X105477320Y-45913426D01*
X105477320Y-45913426D02*
X105507796Y-45882949D01*
X105507796Y-45882949D02*
X105568748Y-45852473D01*
X105568748Y-45852473D02*
X105660177Y-45852473D01*
X105660177Y-45852473D02*
X105721129Y-45882949D01*
X105721129Y-45882949D02*
X105751606Y-45913426D01*
X105751606Y-45913426D02*
X105782082Y-45974378D01*
X105782082Y-45974378D02*
X105782082Y-46218188D01*
X106086844Y-45578188D02*
X105446844Y-45578188D01*
X105446844Y-45578188D02*
X105446844Y-45425807D01*
X105446844Y-45425807D02*
X105477320Y-45334378D01*
X105477320Y-45334378D02*
X105538272Y-45273426D01*
X105538272Y-45273426D02*
X105599225Y-45242949D01*
X105599225Y-45242949D02*
X105721129Y-45212473D01*
X105721129Y-45212473D02*
X105812558Y-45212473D01*
X105812558Y-45212473D02*
X105934463Y-45242949D01*
X105934463Y-45242949D02*
X105995415Y-45273426D01*
X105995415Y-45273426D02*
X106056368Y-45334378D01*
X106056368Y-45334378D02*
X106086844Y-45425807D01*
X106086844Y-45425807D02*
X106086844Y-45578188D01*
X106086844Y-44602949D02*
X106086844Y-44968664D01*
X106086844Y-44785807D02*
X105446844Y-44785807D01*
X105446844Y-44785807D02*
X105538272Y-44846759D01*
X105538272Y-44846759D02*
X105599225Y-44907711D01*
X105599225Y-44907711D02*
X105629701Y-44968664D01*
X147309523Y-76054819D02*
X146976190Y-75578628D01*
X146738095Y-76054819D02*
X146738095Y-75054819D01*
X146738095Y-75054819D02*
X147119047Y-75054819D01*
X147119047Y-75054819D02*
X147214285Y-75102438D01*
X147214285Y-75102438D02*
X147261904Y-75150057D01*
X147261904Y-75150057D02*
X147309523Y-75245295D01*
X147309523Y-75245295D02*
X147309523Y-75388152D01*
X147309523Y-75388152D02*
X147261904Y-75483390D01*
X147261904Y-75483390D02*
X147214285Y-75531009D01*
X147214285Y-75531009D02*
X147119047Y-75578628D01*
X147119047Y-75578628D02*
X146738095Y-75578628D01*
X147738095Y-76054819D02*
X147738095Y-75054819D01*
X147738095Y-75054819D02*
X148309523Y-76054819D01*
X148309523Y-76054819D02*
X148309523Y-75054819D01*
X149214285Y-75388152D02*
X149214285Y-76054819D01*
X148976190Y-75007200D02*
X148738095Y-75721485D01*
X148738095Y-75721485D02*
X149357142Y-75721485D01*
X160150057Y-85095238D02*
X160102438Y-85190476D01*
X160102438Y-85190476D02*
X160007200Y-85285714D01*
X160007200Y-85285714D02*
X159864342Y-85428571D01*
X159864342Y-85428571D02*
X159816723Y-85523809D01*
X159816723Y-85523809D02*
X159816723Y-85619047D01*
X160054819Y-85571428D02*
X160007200Y-85666666D01*
X160007200Y-85666666D02*
X159911961Y-85761904D01*
X159911961Y-85761904D02*
X159721485Y-85809523D01*
X159721485Y-85809523D02*
X159388152Y-85809523D01*
X159388152Y-85809523D02*
X159197676Y-85761904D01*
X159197676Y-85761904D02*
X159102438Y-85666666D01*
X159102438Y-85666666D02*
X159054819Y-85571428D01*
X159054819Y-85571428D02*
X159054819Y-85380952D01*
X159054819Y-85380952D02*
X159102438Y-85285714D01*
X159102438Y-85285714D02*
X159197676Y-85190476D01*
X159197676Y-85190476D02*
X159388152Y-85142857D01*
X159388152Y-85142857D02*
X159721485Y-85142857D01*
X159721485Y-85142857D02*
X159911961Y-85190476D01*
X159911961Y-85190476D02*
X160007200Y-85285714D01*
X160007200Y-85285714D02*
X160054819Y-85380952D01*
X160054819Y-85380952D02*
X160054819Y-85571428D01*
X159483390Y-84571428D02*
X159435771Y-84666666D01*
X159435771Y-84666666D02*
X159388152Y-84714285D01*
X159388152Y-84714285D02*
X159292914Y-84761904D01*
X159292914Y-84761904D02*
X159245295Y-84761904D01*
X159245295Y-84761904D02*
X159150057Y-84714285D01*
X159150057Y-84714285D02*
X159102438Y-84666666D01*
X159102438Y-84666666D02*
X159054819Y-84571428D01*
X159054819Y-84571428D02*
X159054819Y-84380952D01*
X159054819Y-84380952D02*
X159102438Y-84285714D01*
X159102438Y-84285714D02*
X159150057Y-84238095D01*
X159150057Y-84238095D02*
X159245295Y-84190476D01*
X159245295Y-84190476D02*
X159292914Y-84190476D01*
X159292914Y-84190476D02*
X159388152Y-84238095D01*
X159388152Y-84238095D02*
X159435771Y-84285714D01*
X159435771Y-84285714D02*
X159483390Y-84380952D01*
X159483390Y-84380952D02*
X159483390Y-84571428D01*
X159483390Y-84571428D02*
X159531009Y-84666666D01*
X159531009Y-84666666D02*
X159578628Y-84714285D01*
X159578628Y-84714285D02*
X159673866Y-84761904D01*
X159673866Y-84761904D02*
X159864342Y-84761904D01*
X159864342Y-84761904D02*
X159959580Y-84714285D01*
X159959580Y-84714285D02*
X160007200Y-84666666D01*
X160007200Y-84666666D02*
X160054819Y-84571428D01*
X160054819Y-84571428D02*
X160054819Y-84380952D01*
X160054819Y-84380952D02*
X160007200Y-84285714D01*
X160007200Y-84285714D02*
X159959580Y-84238095D01*
X159959580Y-84238095D02*
X159864342Y-84190476D01*
X159864342Y-84190476D02*
X159673866Y-84190476D01*
X159673866Y-84190476D02*
X159578628Y-84238095D01*
X159578628Y-84238095D02*
X159531009Y-84285714D01*
X159531009Y-84285714D02*
X159483390Y-84380952D01*
X108954819Y-105690476D02*
X108478628Y-106023809D01*
X108954819Y-106261904D02*
X107954819Y-106261904D01*
X107954819Y-106261904D02*
X107954819Y-105880952D01*
X107954819Y-105880952D02*
X108002438Y-105785714D01*
X108002438Y-105785714D02*
X108050057Y-105738095D01*
X108050057Y-105738095D02*
X108145295Y-105690476D01*
X108145295Y-105690476D02*
X108288152Y-105690476D01*
X108288152Y-105690476D02*
X108383390Y-105738095D01*
X108383390Y-105738095D02*
X108431009Y-105785714D01*
X108431009Y-105785714D02*
X108478628Y-105880952D01*
X108478628Y-105880952D02*
X108478628Y-106261904D01*
X108954819Y-105261904D02*
X107954819Y-105261904D01*
X107954819Y-105261904D02*
X108954819Y-104690476D01*
X108954819Y-104690476D02*
X107954819Y-104690476D01*
X108050057Y-104261904D02*
X108002438Y-104214285D01*
X108002438Y-104214285D02*
X107954819Y-104119047D01*
X107954819Y-104119047D02*
X107954819Y-103880952D01*
X107954819Y-103880952D02*
X108002438Y-103785714D01*
X108002438Y-103785714D02*
X108050057Y-103738095D01*
X108050057Y-103738095D02*
X108145295Y-103690476D01*
X108145295Y-103690476D02*
X108240533Y-103690476D01*
X108240533Y-103690476D02*
X108383390Y-103738095D01*
X108383390Y-103738095D02*
X108954819Y-104309523D01*
X108954819Y-104309523D02*
X108954819Y-103690476D01*
X106238095Y-74654819D02*
X106238095Y-75464342D01*
X106238095Y-75464342D02*
X106285714Y-75559580D01*
X106285714Y-75559580D02*
X106333333Y-75607200D01*
X106333333Y-75607200D02*
X106428571Y-75654819D01*
X106428571Y-75654819D02*
X106619047Y-75654819D01*
X106619047Y-75654819D02*
X106714285Y-75607200D01*
X106714285Y-75607200D02*
X106761904Y-75559580D01*
X106761904Y-75559580D02*
X106809523Y-75464342D01*
X106809523Y-75464342D02*
X106809523Y-74654819D01*
X107190476Y-74654819D02*
X107809523Y-74654819D01*
X107809523Y-74654819D02*
X107476190Y-75035771D01*
X107476190Y-75035771D02*
X107619047Y-75035771D01*
X107619047Y-75035771D02*
X107714285Y-75083390D01*
X107714285Y-75083390D02*
X107761904Y-75131009D01*
X107761904Y-75131009D02*
X107809523Y-75226247D01*
X107809523Y-75226247D02*
X107809523Y-75464342D01*
X107809523Y-75464342D02*
X107761904Y-75559580D01*
X107761904Y-75559580D02*
X107714285Y-75607200D01*
X107714285Y-75607200D02*
X107619047Y-75654819D01*
X107619047Y-75654819D02*
X107333333Y-75654819D01*
X107333333Y-75654819D02*
X107238095Y-75607200D01*
X107238095Y-75607200D02*
X107190476Y-75559580D01*
X114054819Y-116152380D02*
X113054819Y-116152380D01*
X113054819Y-116152380D02*
X113054819Y-115771428D01*
X113054819Y-115771428D02*
X113102438Y-115676190D01*
X113102438Y-115676190D02*
X113150057Y-115628571D01*
X113150057Y-115628571D02*
X113245295Y-115580952D01*
X113245295Y-115580952D02*
X113388152Y-115580952D01*
X113388152Y-115580952D02*
X113483390Y-115628571D01*
X113483390Y-115628571D02*
X113531009Y-115676190D01*
X113531009Y-115676190D02*
X113578628Y-115771428D01*
X113578628Y-115771428D02*
X113578628Y-116152380D01*
X113054819Y-115247618D02*
X114054819Y-115009523D01*
X114054819Y-115009523D02*
X113340533Y-114819047D01*
X113340533Y-114819047D02*
X114054819Y-114628571D01*
X114054819Y-114628571D02*
X113054819Y-114390476D01*
X114054819Y-113438095D02*
X113578628Y-113771428D01*
X114054819Y-114009523D02*
X113054819Y-114009523D01*
X113054819Y-114009523D02*
X113054819Y-113628571D01*
X113054819Y-113628571D02*
X113102438Y-113533333D01*
X113102438Y-113533333D02*
X113150057Y-113485714D01*
X113150057Y-113485714D02*
X113245295Y-113438095D01*
X113245295Y-113438095D02*
X113388152Y-113438095D01*
X113388152Y-113438095D02*
X113483390Y-113485714D01*
X113483390Y-113485714D02*
X113531009Y-113533333D01*
X113531009Y-113533333D02*
X113578628Y-113628571D01*
X113578628Y-113628571D02*
X113578628Y-114009523D01*
X114150057Y-113247619D02*
X114150057Y-112485714D01*
X114054819Y-112247618D02*
X113054819Y-112247618D01*
X114054819Y-111771428D02*
X113054819Y-111771428D01*
X113054819Y-111771428D02*
X114054819Y-111200000D01*
X114054819Y-111200000D02*
X113054819Y-111200000D01*
X114054819Y-110200000D02*
X114054819Y-110771428D01*
X114054819Y-110485714D02*
X113054819Y-110485714D01*
X113054819Y-110485714D02*
X113197676Y-110580952D01*
X113197676Y-110580952D02*
X113292914Y-110676190D01*
X113292914Y-110676190D02*
X113340533Y-110771428D01*
X135904762Y-100402438D02*
X135809524Y-100354819D01*
X135809524Y-100354819D02*
X135666667Y-100354819D01*
X135666667Y-100354819D02*
X135523810Y-100402438D01*
X135523810Y-100402438D02*
X135428572Y-100497676D01*
X135428572Y-100497676D02*
X135380953Y-100592914D01*
X135380953Y-100592914D02*
X135333334Y-100783390D01*
X135333334Y-100783390D02*
X135333334Y-100926247D01*
X135333334Y-100926247D02*
X135380953Y-101116723D01*
X135380953Y-101116723D02*
X135428572Y-101211961D01*
X135428572Y-101211961D02*
X135523810Y-101307200D01*
X135523810Y-101307200D02*
X135666667Y-101354819D01*
X135666667Y-101354819D02*
X135761905Y-101354819D01*
X135761905Y-101354819D02*
X135904762Y-101307200D01*
X135904762Y-101307200D02*
X135952381Y-101259580D01*
X135952381Y-101259580D02*
X135952381Y-100926247D01*
X135952381Y-100926247D02*
X135761905Y-100926247D01*
X136333334Y-101069104D02*
X136809524Y-101069104D01*
X136238096Y-101354819D02*
X136571429Y-100354819D01*
X136571429Y-100354819D02*
X136904762Y-101354819D01*
X137238096Y-101354819D02*
X137238096Y-100354819D01*
X137714286Y-101354819D02*
X137714286Y-100354819D01*
X137714286Y-100354819D02*
X138285714Y-101354819D01*
X138285714Y-101354819D02*
X138285714Y-100354819D01*
X138619048Y-100354819D02*
X139190476Y-100354819D01*
X138904762Y-101354819D02*
X138904762Y-100354819D01*
X140095238Y-101354819D02*
X139761905Y-100878628D01*
X139523810Y-101354819D02*
X139523810Y-100354819D01*
X139523810Y-100354819D02*
X139904762Y-100354819D01*
X139904762Y-100354819D02*
X140000000Y-100402438D01*
X140000000Y-100402438D02*
X140047619Y-100450057D01*
X140047619Y-100450057D02*
X140095238Y-100545295D01*
X140095238Y-100545295D02*
X140095238Y-100688152D01*
X140095238Y-100688152D02*
X140047619Y-100783390D01*
X140047619Y-100783390D02*
X140000000Y-100831009D01*
X140000000Y-100831009D02*
X139904762Y-100878628D01*
X139904762Y-100878628D02*
X139523810Y-100878628D01*
X140523810Y-101354819D02*
X140523810Y-100354819D01*
X141000000Y-101354819D02*
X141000000Y-100354819D01*
X141000000Y-100354819D02*
X141333333Y-101069104D01*
X141333333Y-101069104D02*
X141666666Y-100354819D01*
X141666666Y-100354819D02*
X141666666Y-101354819D01*
X142095238Y-100450057D02*
X142142857Y-100402438D01*
X142142857Y-100402438D02*
X142238095Y-100354819D01*
X142238095Y-100354819D02*
X142476190Y-100354819D01*
X142476190Y-100354819D02*
X142571428Y-100402438D01*
X142571428Y-100402438D02*
X142619047Y-100450057D01*
X142619047Y-100450057D02*
X142666666Y-100545295D01*
X142666666Y-100545295D02*
X142666666Y-100640533D01*
X142666666Y-100640533D02*
X142619047Y-100783390D01*
X142619047Y-100783390D02*
X142047619Y-101354819D01*
X142047619Y-101354819D02*
X142666666Y-101354819D01*
X90833333Y-115679580D02*
X90785714Y-115727200D01*
X90785714Y-115727200D02*
X90642857Y-115774819D01*
X90642857Y-115774819D02*
X90547619Y-115774819D01*
X90547619Y-115774819D02*
X90404762Y-115727200D01*
X90404762Y-115727200D02*
X90309524Y-115631961D01*
X90309524Y-115631961D02*
X90261905Y-115536723D01*
X90261905Y-115536723D02*
X90214286Y-115346247D01*
X90214286Y-115346247D02*
X90214286Y-115203390D01*
X90214286Y-115203390D02*
X90261905Y-115012914D01*
X90261905Y-115012914D02*
X90309524Y-114917676D01*
X90309524Y-114917676D02*
X90404762Y-114822438D01*
X90404762Y-114822438D02*
X90547619Y-114774819D01*
X90547619Y-114774819D02*
X90642857Y-114774819D01*
X90642857Y-114774819D02*
X90785714Y-114822438D01*
X90785714Y-114822438D02*
X90833333Y-114870057D01*
X91166667Y-114774819D02*
X91785714Y-114774819D01*
X91785714Y-114774819D02*
X91452381Y-115155771D01*
X91452381Y-115155771D02*
X91595238Y-115155771D01*
X91595238Y-115155771D02*
X91690476Y-115203390D01*
X91690476Y-115203390D02*
X91738095Y-115251009D01*
X91738095Y-115251009D02*
X91785714Y-115346247D01*
X91785714Y-115346247D02*
X91785714Y-115584342D01*
X91785714Y-115584342D02*
X91738095Y-115679580D01*
X91738095Y-115679580D02*
X91690476Y-115727200D01*
X91690476Y-115727200D02*
X91595238Y-115774819D01*
X91595238Y-115774819D02*
X91309524Y-115774819D01*
X91309524Y-115774819D02*
X91214286Y-115727200D01*
X91214286Y-115727200D02*
X91166667Y-115679580D01*
X145150057Y-85095238D02*
X145102438Y-85190476D01*
X145102438Y-85190476D02*
X145007200Y-85285714D01*
X145007200Y-85285714D02*
X144864342Y-85428571D01*
X144864342Y-85428571D02*
X144816723Y-85523809D01*
X144816723Y-85523809D02*
X144816723Y-85619047D01*
X145054819Y-85571428D02*
X145007200Y-85666666D01*
X145007200Y-85666666D02*
X144911961Y-85761904D01*
X144911961Y-85761904D02*
X144721485Y-85809523D01*
X144721485Y-85809523D02*
X144388152Y-85809523D01*
X144388152Y-85809523D02*
X144197676Y-85761904D01*
X144197676Y-85761904D02*
X144102438Y-85666666D01*
X144102438Y-85666666D02*
X144054819Y-85571428D01*
X144054819Y-85571428D02*
X144054819Y-85380952D01*
X144054819Y-85380952D02*
X144102438Y-85285714D01*
X144102438Y-85285714D02*
X144197676Y-85190476D01*
X144197676Y-85190476D02*
X144388152Y-85142857D01*
X144388152Y-85142857D02*
X144721485Y-85142857D01*
X144721485Y-85142857D02*
X144911961Y-85190476D01*
X144911961Y-85190476D02*
X145007200Y-85285714D01*
X145007200Y-85285714D02*
X145054819Y-85380952D01*
X145054819Y-85380952D02*
X145054819Y-85571428D01*
X144054819Y-84238095D02*
X144054819Y-84714285D01*
X144054819Y-84714285D02*
X144531009Y-84761904D01*
X144531009Y-84761904D02*
X144483390Y-84714285D01*
X144483390Y-84714285D02*
X144435771Y-84619047D01*
X144435771Y-84619047D02*
X144435771Y-84380952D01*
X144435771Y-84380952D02*
X144483390Y-84285714D01*
X144483390Y-84285714D02*
X144531009Y-84238095D01*
X144531009Y-84238095D02*
X144626247Y-84190476D01*
X144626247Y-84190476D02*
X144864342Y-84190476D01*
X144864342Y-84190476D02*
X144959580Y-84238095D01*
X144959580Y-84238095D02*
X145007200Y-84285714D01*
X145007200Y-84285714D02*
X145054819Y-84380952D01*
X145054819Y-84380952D02*
X145054819Y-84619047D01*
X145054819Y-84619047D02*
X145007200Y-84714285D01*
X145007200Y-84714285D02*
X144959580Y-84761904D01*
X95507200Y-122933332D02*
X95554819Y-122790475D01*
X95554819Y-122790475D02*
X95554819Y-122552380D01*
X95554819Y-122552380D02*
X95507200Y-122457142D01*
X95507200Y-122457142D02*
X95459580Y-122409523D01*
X95459580Y-122409523D02*
X95364342Y-122361904D01*
X95364342Y-122361904D02*
X95269104Y-122361904D01*
X95269104Y-122361904D02*
X95173866Y-122409523D01*
X95173866Y-122409523D02*
X95126247Y-122457142D01*
X95126247Y-122457142D02*
X95078628Y-122552380D01*
X95078628Y-122552380D02*
X95031009Y-122742856D01*
X95031009Y-122742856D02*
X94983390Y-122838094D01*
X94983390Y-122838094D02*
X94935771Y-122885713D01*
X94935771Y-122885713D02*
X94840533Y-122933332D01*
X94840533Y-122933332D02*
X94745295Y-122933332D01*
X94745295Y-122933332D02*
X94650057Y-122885713D01*
X94650057Y-122885713D02*
X94602438Y-122838094D01*
X94602438Y-122838094D02*
X94554819Y-122742856D01*
X94554819Y-122742856D02*
X94554819Y-122504761D01*
X94554819Y-122504761D02*
X94602438Y-122361904D01*
X94554819Y-122028570D02*
X95554819Y-121790475D01*
X95554819Y-121790475D02*
X94840533Y-121599999D01*
X94840533Y-121599999D02*
X95554819Y-121409523D01*
X95554819Y-121409523D02*
X94554819Y-121171428D01*
X95554819Y-120266666D02*
X95554819Y-120838094D01*
X95554819Y-120552380D02*
X94554819Y-120552380D01*
X94554819Y-120552380D02*
X94697676Y-120647618D01*
X94697676Y-120647618D02*
X94792914Y-120742856D01*
X94792914Y-120742856D02*
X94840533Y-120838094D01*
D11*
X87452381Y-97071704D02*
X87928571Y-97071704D01*
X87357143Y-97357419D02*
X87690476Y-96357419D01*
X87690476Y-96357419D02*
X88023809Y-97357419D01*
X88357143Y-96357419D02*
X88357143Y-97166942D01*
X88357143Y-97166942D02*
X88404762Y-97262180D01*
X88404762Y-97262180D02*
X88452381Y-97309800D01*
X88452381Y-97309800D02*
X88547619Y-97357419D01*
X88547619Y-97357419D02*
X88738095Y-97357419D01*
X88738095Y-97357419D02*
X88833333Y-97309800D01*
X88833333Y-97309800D02*
X88880952Y-97262180D01*
X88880952Y-97262180D02*
X88928571Y-97166942D01*
X88928571Y-97166942D02*
X88928571Y-96357419D01*
X89404762Y-97357419D02*
X89404762Y-96357419D01*
X89404762Y-96357419D02*
X89642857Y-96357419D01*
X89642857Y-96357419D02*
X89785714Y-96405038D01*
X89785714Y-96405038D02*
X89880952Y-96500276D01*
X89880952Y-96500276D02*
X89928571Y-96595514D01*
X89928571Y-96595514D02*
X89976190Y-96785990D01*
X89976190Y-96785990D02*
X89976190Y-96928847D01*
X89976190Y-96928847D02*
X89928571Y-97119323D01*
X89928571Y-97119323D02*
X89880952Y-97214561D01*
X89880952Y-97214561D02*
X89785714Y-97309800D01*
X89785714Y-97309800D02*
X89642857Y-97357419D01*
X89642857Y-97357419D02*
X89404762Y-97357419D01*
X90166667Y-97452657D02*
X90928571Y-97452657D01*
X91690476Y-96405038D02*
X91595238Y-96357419D01*
X91595238Y-96357419D02*
X91452381Y-96357419D01*
X91452381Y-96357419D02*
X91309524Y-96405038D01*
X91309524Y-96405038D02*
X91214286Y-96500276D01*
X91214286Y-96500276D02*
X91166667Y-96595514D01*
X91166667Y-96595514D02*
X91119048Y-96785990D01*
X91119048Y-96785990D02*
X91119048Y-96928847D01*
X91119048Y-96928847D02*
X91166667Y-97119323D01*
X91166667Y-97119323D02*
X91214286Y-97214561D01*
X91214286Y-97214561D02*
X91309524Y-97309800D01*
X91309524Y-97309800D02*
X91452381Y-97357419D01*
X91452381Y-97357419D02*
X91547619Y-97357419D01*
X91547619Y-97357419D02*
X91690476Y-97309800D01*
X91690476Y-97309800D02*
X91738095Y-97262180D01*
X91738095Y-97262180D02*
X91738095Y-96928847D01*
X91738095Y-96928847D02*
X91547619Y-96928847D01*
X92738095Y-97357419D02*
X92404762Y-96881228D01*
X92166667Y-97357419D02*
X92166667Y-96357419D01*
X92166667Y-96357419D02*
X92547619Y-96357419D01*
X92547619Y-96357419D02*
X92642857Y-96405038D01*
X92642857Y-96405038D02*
X92690476Y-96452657D01*
X92690476Y-96452657D02*
X92738095Y-96547895D01*
X92738095Y-96547895D02*
X92738095Y-96690752D01*
X92738095Y-96690752D02*
X92690476Y-96785990D01*
X92690476Y-96785990D02*
X92642857Y-96833609D01*
X92642857Y-96833609D02*
X92547619Y-96881228D01*
X92547619Y-96881228D02*
X92166667Y-96881228D01*
X93166667Y-96833609D02*
X93500000Y-96833609D01*
X93642857Y-97357419D02*
X93166667Y-97357419D01*
X93166667Y-97357419D02*
X93166667Y-96357419D01*
X93166667Y-96357419D02*
X93642857Y-96357419D01*
X94071429Y-96833609D02*
X94404762Y-96833609D01*
X94547619Y-97357419D02*
X94071429Y-97357419D01*
X94071429Y-97357419D02*
X94071429Y-96357419D01*
X94071429Y-96357419D02*
X94547619Y-96357419D01*
X94976191Y-97357419D02*
X94976191Y-96357419D01*
X94976191Y-96357419D02*
X95547619Y-97357419D01*
X95547619Y-97357419D02*
X95547619Y-96357419D01*
X96547619Y-97357419D02*
X95976191Y-97357419D01*
X96261905Y-97357419D02*
X96261905Y-96357419D01*
X96261905Y-96357419D02*
X96166667Y-96500276D01*
X96166667Y-96500276D02*
X96071429Y-96595514D01*
X96071429Y-96595514D02*
X95976191Y-96643133D01*
D10*
X116804819Y-104166666D02*
X116328628Y-104499999D01*
X116804819Y-104738094D02*
X115804819Y-104738094D01*
X115804819Y-104738094D02*
X115804819Y-104357142D01*
X115804819Y-104357142D02*
X115852438Y-104261904D01*
X115852438Y-104261904D02*
X115900057Y-104214285D01*
X115900057Y-104214285D02*
X115995295Y-104166666D01*
X115995295Y-104166666D02*
X116138152Y-104166666D01*
X116138152Y-104166666D02*
X116233390Y-104214285D01*
X116233390Y-104214285D02*
X116281009Y-104261904D01*
X116281009Y-104261904D02*
X116328628Y-104357142D01*
X116328628Y-104357142D02*
X116328628Y-104738094D01*
X115900057Y-103785713D02*
X115852438Y-103738094D01*
X115852438Y-103738094D02*
X115804819Y-103642856D01*
X115804819Y-103642856D02*
X115804819Y-103404761D01*
X115804819Y-103404761D02*
X115852438Y-103309523D01*
X115852438Y-103309523D02*
X115900057Y-103261904D01*
X115900057Y-103261904D02*
X115995295Y-103214285D01*
X115995295Y-103214285D02*
X116090533Y-103214285D01*
X116090533Y-103214285D02*
X116233390Y-103261904D01*
X116233390Y-103261904D02*
X116804819Y-103833332D01*
X116804819Y-103833332D02*
X116804819Y-103214285D01*
X106833333Y-115559580D02*
X106785714Y-115607200D01*
X106785714Y-115607200D02*
X106642857Y-115654819D01*
X106642857Y-115654819D02*
X106547619Y-115654819D01*
X106547619Y-115654819D02*
X106404762Y-115607200D01*
X106404762Y-115607200D02*
X106309524Y-115511961D01*
X106309524Y-115511961D02*
X106261905Y-115416723D01*
X106261905Y-115416723D02*
X106214286Y-115226247D01*
X106214286Y-115226247D02*
X106214286Y-115083390D01*
X106214286Y-115083390D02*
X106261905Y-114892914D01*
X106261905Y-114892914D02*
X106309524Y-114797676D01*
X106309524Y-114797676D02*
X106404762Y-114702438D01*
X106404762Y-114702438D02*
X106547619Y-114654819D01*
X106547619Y-114654819D02*
X106642857Y-114654819D01*
X106642857Y-114654819D02*
X106785714Y-114702438D01*
X106785714Y-114702438D02*
X106833333Y-114750057D01*
X107690476Y-114654819D02*
X107500000Y-114654819D01*
X107500000Y-114654819D02*
X107404762Y-114702438D01*
X107404762Y-114702438D02*
X107357143Y-114750057D01*
X107357143Y-114750057D02*
X107261905Y-114892914D01*
X107261905Y-114892914D02*
X107214286Y-115083390D01*
X107214286Y-115083390D02*
X107214286Y-115464342D01*
X107214286Y-115464342D02*
X107261905Y-115559580D01*
X107261905Y-115559580D02*
X107309524Y-115607200D01*
X107309524Y-115607200D02*
X107404762Y-115654819D01*
X107404762Y-115654819D02*
X107595238Y-115654819D01*
X107595238Y-115654819D02*
X107690476Y-115607200D01*
X107690476Y-115607200D02*
X107738095Y-115559580D01*
X107738095Y-115559580D02*
X107785714Y-115464342D01*
X107785714Y-115464342D02*
X107785714Y-115226247D01*
X107785714Y-115226247D02*
X107738095Y-115131009D01*
X107738095Y-115131009D02*
X107690476Y-115083390D01*
X107690476Y-115083390D02*
X107595238Y-115035771D01*
X107595238Y-115035771D02*
X107404762Y-115035771D01*
X107404762Y-115035771D02*
X107309524Y-115083390D01*
X107309524Y-115083390D02*
X107261905Y-115131009D01*
X107261905Y-115131009D02*
X107214286Y-115226247D01*
X126904762Y-100402438D02*
X126809524Y-100354819D01*
X126809524Y-100354819D02*
X126666667Y-100354819D01*
X126666667Y-100354819D02*
X126523810Y-100402438D01*
X126523810Y-100402438D02*
X126428572Y-100497676D01*
X126428572Y-100497676D02*
X126380953Y-100592914D01*
X126380953Y-100592914D02*
X126333334Y-100783390D01*
X126333334Y-100783390D02*
X126333334Y-100926247D01*
X126333334Y-100926247D02*
X126380953Y-101116723D01*
X126380953Y-101116723D02*
X126428572Y-101211961D01*
X126428572Y-101211961D02*
X126523810Y-101307200D01*
X126523810Y-101307200D02*
X126666667Y-101354819D01*
X126666667Y-101354819D02*
X126761905Y-101354819D01*
X126761905Y-101354819D02*
X126904762Y-101307200D01*
X126904762Y-101307200D02*
X126952381Y-101259580D01*
X126952381Y-101259580D02*
X126952381Y-100926247D01*
X126952381Y-100926247D02*
X126761905Y-100926247D01*
X127333334Y-101069104D02*
X127809524Y-101069104D01*
X127238096Y-101354819D02*
X127571429Y-100354819D01*
X127571429Y-100354819D02*
X127904762Y-101354819D01*
X128238096Y-101354819D02*
X128238096Y-100354819D01*
X128714286Y-101354819D02*
X128714286Y-100354819D01*
X128714286Y-100354819D02*
X129285714Y-101354819D01*
X129285714Y-101354819D02*
X129285714Y-100354819D01*
X129619048Y-100354819D02*
X130190476Y-100354819D01*
X129904762Y-101354819D02*
X129904762Y-100354819D01*
X131095238Y-101354819D02*
X130761905Y-100878628D01*
X130523810Y-101354819D02*
X130523810Y-100354819D01*
X130523810Y-100354819D02*
X130904762Y-100354819D01*
X130904762Y-100354819D02*
X131000000Y-100402438D01*
X131000000Y-100402438D02*
X131047619Y-100450057D01*
X131047619Y-100450057D02*
X131095238Y-100545295D01*
X131095238Y-100545295D02*
X131095238Y-100688152D01*
X131095238Y-100688152D02*
X131047619Y-100783390D01*
X131047619Y-100783390D02*
X131000000Y-100831009D01*
X131000000Y-100831009D02*
X130904762Y-100878628D01*
X130904762Y-100878628D02*
X130523810Y-100878628D01*
X131523810Y-101354819D02*
X131523810Y-100354819D01*
X132000000Y-101354819D02*
X132000000Y-100354819D01*
X132000000Y-100354819D02*
X132333333Y-101069104D01*
X132333333Y-101069104D02*
X132666666Y-100354819D01*
X132666666Y-100354819D02*
X132666666Y-101354819D01*
X133666666Y-101354819D02*
X133095238Y-101354819D01*
X133380952Y-101354819D02*
X133380952Y-100354819D01*
X133380952Y-100354819D02*
X133285714Y-100497676D01*
X133285714Y-100497676D02*
X133190476Y-100592914D01*
X133190476Y-100592914D02*
X133095238Y-100640533D01*
X120778628Y-73476190D02*
X121254819Y-73476190D01*
X120254819Y-73809523D02*
X120778628Y-73476190D01*
X120778628Y-73476190D02*
X120254819Y-73142857D01*
X121254819Y-72285714D02*
X121254819Y-72857142D01*
X121254819Y-72571428D02*
X120254819Y-72571428D01*
X120254819Y-72571428D02*
X120397676Y-72666666D01*
X120397676Y-72666666D02*
X120492914Y-72761904D01*
X120492914Y-72761904D02*
X120540533Y-72857142D01*
X167904761Y-71150057D02*
X167809523Y-71102438D01*
X167809523Y-71102438D02*
X167714285Y-71007200D01*
X167714285Y-71007200D02*
X167571428Y-70864342D01*
X167571428Y-70864342D02*
X167476190Y-70816723D01*
X167476190Y-70816723D02*
X167380952Y-70816723D01*
X167428571Y-71054819D02*
X167333333Y-71007200D01*
X167333333Y-71007200D02*
X167238095Y-70911961D01*
X167238095Y-70911961D02*
X167190476Y-70721485D01*
X167190476Y-70721485D02*
X167190476Y-70388152D01*
X167190476Y-70388152D02*
X167238095Y-70197676D01*
X167238095Y-70197676D02*
X167333333Y-70102438D01*
X167333333Y-70102438D02*
X167428571Y-70054819D01*
X167428571Y-70054819D02*
X167619047Y-70054819D01*
X167619047Y-70054819D02*
X167714285Y-70102438D01*
X167714285Y-70102438D02*
X167809523Y-70197676D01*
X167809523Y-70197676D02*
X167857142Y-70388152D01*
X167857142Y-70388152D02*
X167857142Y-70721485D01*
X167857142Y-70721485D02*
X167809523Y-70911961D01*
X167809523Y-70911961D02*
X167714285Y-71007200D01*
X167714285Y-71007200D02*
X167619047Y-71054819D01*
X167619047Y-71054819D02*
X167428571Y-71054819D01*
X168809523Y-71054819D02*
X168238095Y-71054819D01*
X168523809Y-71054819D02*
X168523809Y-70054819D01*
X168523809Y-70054819D02*
X168428571Y-70197676D01*
X168428571Y-70197676D02*
X168333333Y-70292914D01*
X168333333Y-70292914D02*
X168238095Y-70340533D01*
D12*
%TO.C,J1*%
X174330000Y-105270000D02*
X174330000Y-107870000D01*
X171670000Y-102670000D02*
X173000000Y-102670000D01*
X171670000Y-105270000D02*
X174330000Y-105270000D01*
X171670000Y-105270000D02*
X171670000Y-107870000D01*
X171670000Y-107870000D02*
X174330000Y-107870000D01*
X171670000Y-104000000D02*
X171670000Y-102670000D01*
%TO.C,C10*%
X128265000Y-103738748D02*
X128265000Y-104261252D01*
X129735000Y-103738748D02*
X129735000Y-104261252D01*
D11*
%TO.C,AUD_BLACK1*%
X174900000Y-92150000D02*
X174900000Y-98250000D01*
X174900000Y-98250000D02*
X187100000Y-98250000D01*
X187100000Y-92150000D02*
X174900000Y-92150000D01*
X187100000Y-92700000D02*
X189100000Y-92700000D01*
X187100000Y-98250000D02*
X187100000Y-92150000D01*
X189100000Y-92700000D02*
X189100000Y-97700000D01*
X189100000Y-97700000D02*
X187100000Y-97700000D01*
D12*
%TO.C,R1*%
X121735000Y-104227064D02*
X121735000Y-103772936D01*
X120265000Y-104227064D02*
X120265000Y-103772936D01*
%TO.C,Q4*%
X150440000Y-67000000D02*
X150440000Y-66350000D01*
X153560000Y-67000000D02*
X153560000Y-65325000D01*
X150440000Y-67000000D02*
X150440000Y-67650000D01*
X153560000Y-67000000D02*
X153560000Y-67650000D01*
%TO.C,U2*%
X126875000Y-77125000D02*
X126875000Y-69875000D01*
X127875000Y-68875000D02*
X135125000Y-68875000D01*
X135125000Y-68875000D02*
X135125000Y-77125000D01*
X135125000Y-77125000D02*
X126875000Y-77125000D01*
%TO.C,RESET1*%
X144900000Y-91850000D02*
X145350000Y-91850000D01*
X146650000Y-91850000D02*
X149350000Y-91850000D01*
X151100000Y-91850000D02*
X150700000Y-91850000D01*
X149350000Y-98150000D02*
X146650000Y-98150000D01*
X145350000Y-98150000D02*
X144900000Y-98150000D01*
X150650000Y-98150000D02*
X151100000Y-98150000D01*
X151100000Y-98150000D02*
X151100000Y-91850000D01*
X144900000Y-98150000D02*
X144900000Y-91850000D01*
%TO.C,SW2*%
X95900000Y-111850000D02*
X96350000Y-111850000D01*
X97650000Y-111850000D02*
X100350000Y-111850000D01*
X102100000Y-111850000D02*
X101700000Y-111850000D01*
X100350000Y-118150000D02*
X97650000Y-118150000D01*
X96350000Y-118150000D02*
X95900000Y-118150000D01*
X101650000Y-118150000D02*
X102100000Y-118150000D01*
X102100000Y-118150000D02*
X102100000Y-111850000D01*
X95900000Y-118150000D02*
X95900000Y-111850000D01*
%TO.C,C4*%
X98738748Y-121735000D02*
X99261252Y-121735000D01*
X98738748Y-120265000D02*
X99261252Y-120265000D01*
%TO.C,C23*%
X120263748Y-110735000D02*
X120786252Y-110735000D01*
X120263748Y-109265000D02*
X120786252Y-109265000D01*
%TO.C,RN5*%
X161600000Y-74720000D02*
X162400000Y-74720000D01*
X161600000Y-71280000D02*
X162400000Y-71280000D01*
%TO.C,RN6*%
X162400000Y-65280000D02*
X161600000Y-65280000D01*
X162400000Y-68720000D02*
X161600000Y-68720000D01*
%TO.C,Q7*%
X158560000Y-85000000D02*
X158560000Y-85650000D01*
X155440000Y-85000000D02*
X155440000Y-86675000D01*
X158560000Y-85000000D02*
X158560000Y-84350000D01*
X155440000Y-85000000D02*
X155440000Y-84350000D01*
%TO.C,U5*%
X155000000Y-80435000D02*
X153050000Y-80435000D01*
X155000000Y-71565000D02*
X151550000Y-71565000D01*
X155000000Y-80435000D02*
X156950000Y-80435000D01*
X155000000Y-71565000D02*
X156950000Y-71565000D01*
%TO.C,SW3*%
X95900000Y-127850000D02*
X96350000Y-127850000D01*
X97650000Y-127850000D02*
X100350000Y-127850000D01*
X102100000Y-127850000D02*
X101700000Y-127850000D01*
X100350000Y-134150000D02*
X97650000Y-134150000D01*
X96350000Y-134150000D02*
X95900000Y-134150000D01*
X101650000Y-134150000D02*
X102100000Y-134150000D01*
X102100000Y-134150000D02*
X102100000Y-127850000D01*
X95900000Y-134150000D02*
X95900000Y-127850000D01*
%TO.C,bSWD1*%
X91330000Y-78075000D02*
X91330000Y-79405000D01*
X91330000Y-76805000D02*
X88670000Y-76805000D01*
X91330000Y-66585000D02*
X88670000Y-66585000D01*
X91330000Y-76805000D02*
X91330000Y-66585000D01*
X91330000Y-79405000D02*
X90000000Y-79405000D01*
X88670000Y-76805000D02*
X88670000Y-66585000D01*
D11*
%TO.C,AUD_PINK1*%
X99100000Y-107850000D02*
X99100000Y-101750000D01*
X99100000Y-101750000D02*
X86900000Y-101750000D01*
X86900000Y-107850000D02*
X99100000Y-107850000D01*
X86900000Y-107300000D02*
X84900000Y-107300000D01*
X86900000Y-101750000D02*
X86900000Y-107850000D01*
X84900000Y-107300000D02*
X84900000Y-102300000D01*
X84900000Y-102300000D02*
X86900000Y-102300000D01*
D12*
%TO.C,U1*%
X110000000Y-100435000D02*
X108050000Y-100435000D01*
X110000000Y-91565000D02*
X106550000Y-91565000D01*
X110000000Y-100435000D02*
X111950000Y-100435000D01*
X110000000Y-91565000D02*
X111950000Y-91565000D01*
D11*
%TO.C,TFT1*%
X104500000Y-38000000D02*
X104500000Y-88000000D01*
X127200000Y-56200000D02*
X127200000Y-38000000D01*
X151000000Y-51200000D02*
X151000000Y-56200000D01*
X151000000Y-56200000D02*
X127200000Y-56200000D01*
X154000000Y-48200000D02*
X151000000Y-51200000D01*
X154000000Y-48200000D02*
X154000000Y-38000000D01*
X173500000Y-38000000D02*
X173500000Y-88000000D01*
X180000000Y-38000000D02*
X94000000Y-38000000D01*
X94000000Y-38000000D02*
X94000000Y-88000000D01*
X94000000Y-88000000D02*
X180000000Y-88000000D01*
X180000000Y-88000000D02*
X180000000Y-38000000D01*
X181000000Y-89000000D02*
X93000000Y-89000000D01*
X93000000Y-89000000D02*
X93000000Y-37000000D01*
X93000000Y-37000000D02*
X181000000Y-37000000D01*
X181000000Y-37000000D02*
X181000000Y-89000000D01*
X102500000Y-41000000D02*
G75*
G03*
X99300000Y-41000000I-1600000J0D01*
G01*
X99300000Y-41000000D02*
G75*
G03*
X102500000Y-41000000I1600000J0D01*
G01*
X102500000Y-85000000D02*
G75*
G03*
X99300000Y-85000000I-1600000J0D01*
G01*
X99300000Y-85000000D02*
G75*
G03*
X102500000Y-85000000I1600000J0D01*
G01*
X178600000Y-41000000D02*
G75*
G03*
X175400000Y-41000000I-1600000J0D01*
G01*
X175400000Y-41000000D02*
G75*
G03*
X178600000Y-41000000I1600000J0D01*
G01*
X178600000Y-85000000D02*
G75*
G03*
X175400000Y-85000000I-1600000J0D01*
G01*
X175400000Y-85000000D02*
G75*
G03*
X178600000Y-85000000I1600000J0D01*
G01*
D12*
%TO.C,Q6*%
X168560000Y-85000000D02*
X168560000Y-85650000D01*
X165440000Y-85000000D02*
X165440000Y-86675000D01*
X168560000Y-85000000D02*
X168560000Y-84350000D01*
X165440000Y-85000000D02*
X165440000Y-84350000D01*
%TO.C,RN3*%
X101600000Y-100720000D02*
X102400000Y-100720000D01*
X101600000Y-97280000D02*
X102400000Y-97280000D01*
%TO.C,JTAG1*%
X165490000Y-93317470D02*
X165490000Y-92662530D01*
X165490000Y-92047470D02*
X165490000Y-91225000D01*
X157881529Y-92865000D02*
X157738471Y-92865000D01*
X157935000Y-94755000D02*
X165490000Y-94755000D01*
X156480000Y-91225000D02*
X165490000Y-91225000D01*
X156611529Y-92865000D02*
X156480000Y-92865000D01*
X156415000Y-94755000D02*
X156415000Y-93625000D01*
X156480000Y-92865000D02*
X156480000Y-92662530D01*
X156480000Y-92047470D02*
X156480000Y-91225000D01*
X157935000Y-94755000D02*
X157935000Y-94188471D01*
X157935000Y-93061529D02*
X157935000Y-92918471D01*
X157175000Y-94755000D02*
X156415000Y-94755000D01*
X165490000Y-94755000D02*
X165490000Y-93932530D01*
%TO.C,RN7*%
X161600000Y-80720000D02*
X162400000Y-80720000D01*
X161600000Y-77280000D02*
X162400000Y-77280000D01*
%TO.C,C2*%
X122265000Y-76701248D02*
X122265000Y-77223752D01*
X123735000Y-76701248D02*
X123735000Y-77223752D01*
%TO.C,SW4*%
X103900000Y-119850000D02*
X104350000Y-119850000D01*
X105650000Y-119850000D02*
X108350000Y-119850000D01*
X110100000Y-119850000D02*
X109700000Y-119850000D01*
X108350000Y-126150000D02*
X105650000Y-126150000D01*
X104350000Y-126150000D02*
X103900000Y-126150000D01*
X109650000Y-126150000D02*
X110100000Y-126150000D01*
X110100000Y-126150000D02*
X110100000Y-119850000D01*
X103900000Y-126150000D02*
X103900000Y-119850000D01*
%TO.C,C5*%
X98738748Y-125735000D02*
X99261252Y-125735000D01*
X98738748Y-124265000D02*
X99261252Y-124265000D01*
%TO.C,Q2*%
X153560000Y-85000000D02*
X153560000Y-85650000D01*
X150440000Y-85000000D02*
X150440000Y-86675000D01*
X153560000Y-85000000D02*
X153560000Y-84350000D01*
X150440000Y-85000000D02*
X150440000Y-84350000D01*
%TO.C,C1*%
X122265000Y-68776248D02*
X122265000Y-69298752D01*
X123735000Y-68776248D02*
X123735000Y-69298752D01*
%TO.C,BIASTRIM1*%
X119737000Y-93405000D02*
X123420000Y-93405000D01*
X118379000Y-90004000D02*
X118379000Y-91099000D01*
X119737000Y-96645000D02*
X123420000Y-96645000D01*
X118379000Y-98950000D02*
X118379000Y-100045000D01*
X123420000Y-96450000D02*
X123420000Y-100045000D01*
X118379000Y-90004000D02*
X123420000Y-90004000D01*
X118379000Y-100045000D02*
X123420000Y-100045000D01*
X118379000Y-93951000D02*
X118379000Y-96100000D01*
X123420000Y-96450000D02*
X123420000Y-96645000D01*
X123420000Y-93405000D02*
X123420000Y-93600000D01*
X123420000Y-90004000D02*
X123420000Y-93600000D01*
X118379000Y-93951000D02*
X118379000Y-96100000D01*
%TO.C,Q3*%
X168000000Y-80560000D02*
X167350000Y-80560000D01*
X168000000Y-77440000D02*
X166325000Y-77440000D01*
X168000000Y-80560000D02*
X168650000Y-80560000D01*
X168000000Y-77440000D02*
X168650000Y-77440000D01*
%TO.C,U4*%
X139410000Y-107910000D02*
X138150000Y-107910000D01*
X132590000Y-107910000D02*
X133850000Y-107910000D01*
X132590000Y-104150000D02*
X132590000Y-107910000D01*
X139410000Y-101900000D02*
X139410000Y-107910000D01*
%TO.C,RN1*%
X101670000Y-104450000D02*
X101670000Y-106550000D01*
X107010000Y-104450000D02*
X107010000Y-106550000D01*
D11*
%TO.C,AUD_ORANGE1*%
X174900000Y-102150000D02*
X174900000Y-108250000D01*
X174900000Y-108250000D02*
X187100000Y-108250000D01*
X187100000Y-102150000D02*
X174900000Y-102150000D01*
X187100000Y-102700000D02*
X189100000Y-102700000D01*
X187100000Y-108250000D02*
X187100000Y-102150000D01*
X189100000Y-102700000D02*
X189100000Y-107700000D01*
X189100000Y-107700000D02*
X187100000Y-107700000D01*
D12*
%TO.C,NORFLASH1*%
X128250000Y-79275000D02*
X128250000Y-79535000D01*
X128250000Y-84725000D02*
X128250000Y-84465000D01*
X133750000Y-84725000D02*
X133750000Y-84465000D01*
X131000000Y-79275000D02*
X133750000Y-79275000D01*
X131000000Y-84725000D02*
X133750000Y-84725000D01*
X131000000Y-79275000D02*
X128250000Y-79275000D01*
X131000000Y-84725000D02*
X128250000Y-84725000D01*
X128250000Y-79535000D02*
X126600000Y-79535000D01*
X133750000Y-79275000D02*
X133750000Y-79535000D01*
%TO.C,C25*%
X102735000Y-94227064D02*
X102735000Y-93772936D01*
X101265000Y-94227064D02*
X101265000Y-93772936D01*
%TO.C,ROTARY1*%
X164500000Y-109000000D02*
G75*
G03*
X158500000Y-109000000I-3000000J0D01*
G01*
X158500000Y-109000000D02*
G75*
G03*
X164500000Y-109000000I3000000J0D01*
G01*
X154300000Y-104900000D02*
X154000000Y-105200000D01*
X167600000Y-114900000D02*
X163500000Y-114900000D01*
X167600000Y-112500000D02*
X167600000Y-114900000D01*
X161000000Y-109000000D02*
X162000000Y-109000000D01*
X153700000Y-104900000D02*
X154300000Y-104900000D01*
X154000000Y-105200000D02*
X153700000Y-104900000D01*
X161500000Y-108500000D02*
X161500000Y-109500000D01*
X167600000Y-107700000D02*
X167600000Y-110300000D01*
X159500000Y-103100000D02*
X155400000Y-103100000D01*
X159500000Y-114900000D02*
X155400000Y-114900000D01*
X163500000Y-103100000D02*
X167600000Y-103100000D01*
X167600000Y-103100000D02*
X167600000Y-105500000D01*
X155400000Y-103100000D02*
X155400000Y-114900000D01*
%TO.C,NORFLASH2*%
X133750000Y-66725000D02*
X133750000Y-66465000D01*
X133750000Y-61275000D02*
X133750000Y-61535000D01*
X128250000Y-61275000D02*
X128250000Y-61535000D01*
X131000000Y-66725000D02*
X128250000Y-66725000D01*
X131000000Y-61275000D02*
X128250000Y-61275000D01*
X131000000Y-66725000D02*
X133750000Y-66725000D01*
X131000000Y-61275000D02*
X133750000Y-61275000D01*
X133750000Y-66465000D02*
X135400000Y-66465000D01*
X128250000Y-66725000D02*
X128250000Y-66465000D01*
D10*
%TO.C,SDCARD1*%
X121500000Y-42250000D02*
X121500000Y-49500000D01*
X121500000Y-39010927D02*
X121500000Y-39489072D01*
X121500000Y-36521855D02*
X121500000Y-39021855D01*
X121500000Y-36521855D02*
X120484968Y-36521855D01*
X120484968Y-36521855D02*
X114984968Y-36521855D01*
X120234968Y-39021855D02*
X121500000Y-39021855D01*
X114984968Y-37721855D02*
X114984968Y-36521855D01*
X114984968Y-36521855D02*
X109484968Y-36521855D01*
X109550000Y-36521855D02*
X106750000Y-36521855D01*
X108250000Y-51000000D02*
X111000000Y-51000000D01*
X108150000Y-39021855D02*
X106750000Y-39021855D01*
X106750000Y-42250000D02*
X106750000Y-49500000D01*
X106750000Y-39021855D02*
X106750000Y-39500000D01*
X106750000Y-36521855D02*
X106750000Y-39021855D01*
D12*
%TO.C,RN4*%
X147600000Y-74720000D02*
X148400000Y-74720000D01*
X147600000Y-71280000D02*
X148400000Y-71280000D01*
%TO.C,Q8*%
X163560000Y-85000000D02*
X163560000Y-85650000D01*
X160440000Y-85000000D02*
X160440000Y-86675000D01*
X163560000Y-85000000D02*
X163560000Y-84350000D01*
X160440000Y-85000000D02*
X160440000Y-84350000D01*
%TO.C,RN2*%
X109330000Y-103950000D02*
X109330000Y-106050000D01*
X114670000Y-103950000D02*
X114670000Y-106050000D01*
%TO.C,U3*%
X107000000Y-67615000D02*
X109200000Y-67615000D01*
X107000000Y-67615000D02*
X104800000Y-67615000D01*
X107000000Y-74385000D02*
X110600000Y-74385000D01*
X107000000Y-74385000D02*
X104800000Y-74385000D01*
%TO.C,PWR_IN1*%
X118270000Y-115330000D02*
X118270000Y-112670000D01*
X115670000Y-115330000D02*
X115670000Y-114000000D01*
X118270000Y-112670000D02*
X123410000Y-112670000D01*
X117000000Y-115330000D02*
X115670000Y-115330000D01*
X118270000Y-115330000D02*
X123410000Y-115330000D01*
X123410000Y-115330000D02*
X123410000Y-112670000D01*
%TO.C,GAINTRIM2*%
X137737000Y-93405000D02*
X141420000Y-93405000D01*
X136379000Y-90004000D02*
X136379000Y-91099000D01*
X137737000Y-96645000D02*
X141420000Y-96645000D01*
X136379000Y-98950000D02*
X136379000Y-100045000D01*
X141420000Y-96450000D02*
X141420000Y-100045000D01*
X136379000Y-90004000D02*
X141420000Y-90004000D01*
X136379000Y-100045000D02*
X141420000Y-100045000D01*
X136379000Y-93951000D02*
X136379000Y-96100000D01*
X141420000Y-96450000D02*
X141420000Y-96645000D01*
X141420000Y-93405000D02*
X141420000Y-93600000D01*
X141420000Y-90004000D02*
X141420000Y-93600000D01*
X136379000Y-93951000D02*
X136379000Y-96100000D01*
%TO.C,C3*%
X90738748Y-117735000D02*
X91261252Y-117735000D01*
X90738748Y-116265000D02*
X91261252Y-116265000D01*
%TO.C,Q5*%
X148560000Y-85000000D02*
X148560000Y-85650000D01*
X145440000Y-85000000D02*
X145440000Y-86675000D01*
X148560000Y-85000000D02*
X148560000Y-84350000D01*
X145440000Y-85000000D02*
X145440000Y-84350000D01*
%TO.C,SW1*%
X87900000Y-119850000D02*
X88350000Y-119850000D01*
X89650000Y-119850000D02*
X92350000Y-119850000D01*
X94100000Y-119850000D02*
X93700000Y-119850000D01*
X92350000Y-126150000D02*
X89650000Y-126150000D01*
X88350000Y-126150000D02*
X87900000Y-126150000D01*
X93650000Y-126150000D02*
X94100000Y-126150000D01*
X94100000Y-126150000D02*
X94100000Y-119850000D01*
X87900000Y-126150000D02*
X87900000Y-119850000D01*
D11*
%TO.C,AUD_GREEN1*%
X99100000Y-97850000D02*
X99100000Y-91750000D01*
X99100000Y-91750000D02*
X86900000Y-91750000D01*
X86900000Y-97850000D02*
X99100000Y-97850000D01*
X86900000Y-97300000D02*
X84900000Y-97300000D01*
X86900000Y-91750000D02*
X86900000Y-97850000D01*
X84900000Y-97300000D02*
X84900000Y-92300000D01*
X84900000Y-92300000D02*
X86900000Y-92300000D01*
D12*
%TO.C,R2*%
X118735000Y-104227064D02*
X118735000Y-103772936D01*
X117265000Y-104227064D02*
X117265000Y-103772936D01*
%TO.C,C6*%
X106738748Y-117615000D02*
X107261252Y-117615000D01*
X106738748Y-116145000D02*
X107261252Y-116145000D01*
%TO.C,GAINTRIM1*%
X128737000Y-93405000D02*
X132420000Y-93405000D01*
X127379000Y-90004000D02*
X127379000Y-91099000D01*
X128737000Y-96645000D02*
X132420000Y-96645000D01*
X127379000Y-98950000D02*
X127379000Y-100045000D01*
X132420000Y-96450000D02*
X132420000Y-100045000D01*
X127379000Y-90004000D02*
X132420000Y-90004000D01*
X127379000Y-100045000D02*
X132420000Y-100045000D01*
X127379000Y-93951000D02*
X127379000Y-96100000D01*
X132420000Y-96450000D02*
X132420000Y-96645000D01*
X132420000Y-93405000D02*
X132420000Y-93600000D01*
X132420000Y-90004000D02*
X132420000Y-93600000D01*
X127379000Y-93951000D02*
X127379000Y-96100000D01*
%TO.C,Y1*%
X121600000Y-74650000D02*
X124400000Y-74650000D01*
X124400000Y-74650000D02*
X124400000Y-71350000D01*
%TO.C,Q1*%
X168000000Y-74560000D02*
X167350000Y-74560000D01*
X168000000Y-71440000D02*
X166325000Y-71440000D01*
X168000000Y-74560000D02*
X168650000Y-74560000D01*
X168000000Y-71440000D02*
X168650000Y-71440000D01*
%TD*%
M02*
