%TF.GenerationSoftware,KiCad,Pcbnew,7.0.10*%
%TF.CreationDate,2024-03-06T18:57:33-08:00*%
%TF.ProjectId,player_system,706c6179-6572-45f7-9379-7374656d2e6b,rev?*%
%TF.SameCoordinates,Original*%
%TF.FileFunction,Soldermask,Top*%
%TF.FilePolarity,Negative*%
%FSLAX46Y46*%
G04 Gerber Fmt 4.6, Leading zero omitted, Abs format (unit mm)*
G04 Created by KiCad (PCBNEW 7.0.10) date 2024-03-06 18:57:33*
%MOMM*%
%LPD*%
G01*
G04 APERTURE LIST*
G04 Aperture macros list*
%AMRoundRect*
0 Rectangle with rounded corners*
0 $1 Rounding radius*
0 $2 $3 $4 $5 $6 $7 $8 $9 X,Y pos of 4 corners*
0 Add a 4 corners polygon primitive as box body*
4,1,4,$2,$3,$4,$5,$6,$7,$8,$9,$2,$3,0*
0 Add four circle primitives for the rounded corners*
1,1,$1+$1,$2,$3*
1,1,$1+$1,$4,$5*
1,1,$1+$1,$6,$7*
1,1,$1+$1,$8,$9*
0 Add four rect primitives between the rounded corners*
20,1,$1+$1,$2,$3,$4,$5,0*
20,1,$1+$1,$4,$5,$6,$7,0*
20,1,$1+$1,$6,$7,$8,$9,0*
20,1,$1+$1,$8,$9,$2,$3,0*%
%AMFreePoly0*
4,1,17,-0.750000,0.450000,-0.742031,0.518685,-0.697499,0.619541,-0.619541,0.697499,-0.518685,0.742031,-0.450000,0.750000,0.000000,0.750000,0.750000,0.000000,0.750000,-0.450000,0.742031,-0.518685,0.697499,-0.619541,0.619541,-0.697499,0.518685,-0.742031,0.450000,-0.750000,0.000000,-0.750000,-0.750000,0.000000,-0.750000,0.450000,-0.750000,0.450000,$1*%
G04 Aperture macros list end*
%ADD10C,2.200000*%
%ADD11FreePoly0,315.000000*%
%ADD12FreePoly0,225.000000*%
%ADD13FreePoly0,45.000000*%
%ADD14O,1.700000X1.700000*%
%ADD15R,1.700000X1.700000*%
%ADD16RoundRect,0.250000X-0.475000X0.337500X-0.475000X-0.337500X0.475000X-0.337500X0.475000X0.337500X0*%
%ADD17RoundRect,0.200000X-0.800000X-1.200000X0.800000X-1.200000X0.800000X1.200000X-0.800000X1.200000X0*%
%ADD18RoundRect,0.200000X0.800000X1.200000X-0.800000X1.200000X-0.800000X-1.200000X0.800000X-1.200000X0*%
%ADD19C,0.850000*%
%ADD20RoundRect,0.250000X0.450000X-0.350000X0.450000X0.350000X-0.450000X0.350000X-0.450000X-0.350000X0*%
%ADD21FreePoly0,135.000000*%
%ADD22RoundRect,0.150000X-0.150000X0.587500X-0.150000X-0.587500X0.150000X-0.587500X0.150000X0.587500X0*%
%ADD23C,0.400000*%
%ADD24R,1.000000X2.750000*%
%ADD25RoundRect,0.250000X-0.337500X-0.475000X0.337500X-0.475000X0.337500X0.475000X-0.337500X0.475000X0*%
%ADD26R,0.900000X0.400000*%
%ADD27RoundRect,0.150000X0.150000X-0.587500X0.150000X0.587500X-0.150000X0.587500X-0.150000X-0.587500X0*%
%ADD28RoundRect,0.150000X-0.825000X-0.150000X0.825000X-0.150000X0.825000X0.150000X-0.825000X0.150000X0*%
%ADD29RoundRect,0.090000X-0.810000X-0.810000X0.810000X-0.810000X0.810000X0.810000X-0.810000X0.810000X0*%
%ADD30O,1.000000X1.000000*%
%ADD31R,1.000000X1.000000*%
%ADD32C,2.340000*%
%ADD33RoundRect,0.150000X-0.587500X-0.150000X0.587500X-0.150000X0.587500X0.150000X-0.587500X0.150000X0*%
%ADD34R,1.500000X2.000000*%
%ADD35R,3.800000X2.000000*%
%ADD36R,0.900000X0.900000*%
%ADD37RoundRect,0.150000X-0.650000X-0.150000X0.650000X-0.150000X0.650000X0.150000X-0.650000X0.150000X0*%
%ADD38C,2.000000*%
%ADD39C,3.200000*%
%ADD40R,2.000000X2.000000*%
%ADD41RoundRect,0.150000X0.650000X0.150000X-0.650000X0.150000X-0.650000X-0.150000X0.650000X-0.150000X0*%
%ADD42R,1.200000X1.400000*%
%ADD43R,1.200000X2.200000*%
%ADD44R,1.600000X1.400000*%
%ADD45R,0.700000X1.600000*%
%ADD46C,0.900000*%
%ADD47RoundRect,0.100000X0.637500X0.100000X-0.637500X0.100000X-0.637500X-0.100000X0.637500X-0.100000X0*%
%ADD48R,1.000000X1.150000*%
%ADD49RoundRect,0.200000X-1.200000X0.800000X-1.200000X-0.800000X1.200000X-0.800000X1.200000X0.800000X0*%
%ADD50RoundRect,0.200000X1.200000X-0.800000X1.200000X0.800000X-1.200000X0.800000X-1.200000X-0.800000X0*%
G04 APERTURE END LIST*
D10*
%TO.C,H12*%
X100900000Y-41000000D03*
%TD*%
%TO.C,H11*%
X100900000Y-85000000D03*
%TD*%
%TO.C,H10*%
X177000000Y-85000000D03*
%TD*%
%TO.C,H9*%
X177000000Y-41000000D03*
%TD*%
%TO.C,H8*%
X184000000Y-40000000D03*
%TD*%
%TO.C,H7*%
X90000000Y-40000000D03*
%TD*%
%TO.C,H6*%
X177000000Y-113000000D03*
%TD*%
%TO.C,H5*%
X128000000Y-112000000D03*
%TD*%
%TO.C,H4*%
X91000000Y-111000000D03*
%TD*%
%TO.C,H3*%
X184000000Y-84000000D03*
%TD*%
%TO.C,H2*%
X91000000Y-132000000D03*
%TD*%
%TO.C,H1*%
X107000000Y-132000000D03*
%TD*%
D11*
%TO.C,SD_DAT2*%
X120000000Y-56141421D03*
%TD*%
%TO.C,SD_DAT1*%
X110000000Y-56141421D03*
%TD*%
D12*
%TO.C,TP29*%
X172858579Y-71000000D03*
%TD*%
D13*
%TO.C,TP15*%
X100141421Y-64000000D03*
%TD*%
D12*
%TO.C,TP77*%
X184858579Y-72000000D03*
%TD*%
%TO.C,TP96*%
X147858579Y-82000000D03*
%TD*%
%TO.C,TP3*%
X124858579Y-61400000D03*
%TD*%
%TO.C,TP94*%
X172858579Y-59000000D03*
%TD*%
D14*
%TO.C,J1*%
X173000000Y-106540000D03*
D15*
X173000000Y-104000000D03*
%TD*%
D12*
%TO.C,TP73*%
X184858579Y-64000000D03*
%TD*%
D16*
%TO.C,C10*%
X129000000Y-105037500D03*
X129000000Y-102962500D03*
%TD*%
D11*
%TO.C,TP22*%
X114000000Y-56141421D03*
%TD*%
D13*
%TO.C,TP4*%
X137141421Y-64300000D03*
%TD*%
D12*
%TO.C,TP76*%
X184858579Y-70000000D03*
%TD*%
D17*
%TO.C,AUD_BLACK1*%
X176800000Y-97950000D03*
D18*
X175950000Y-92650000D03*
D17*
X184100000Y-97950000D03*
X180900000Y-97950000D03*
D19*
X178450000Y-95200000D03*
X185450000Y-95200000D03*
%TD*%
D13*
%TO.C,TP8*%
X137141421Y-84900000D03*
%TD*%
D20*
%TO.C,R1*%
X121000000Y-103000000D03*
X121000000Y-105000000D03*
%TD*%
D12*
%TO.C,TP88*%
X172858579Y-73000000D03*
%TD*%
D13*
%TO.C,TP13*%
X100141421Y-56000000D03*
%TD*%
D21*
%TO.C,TP32*%
X112000000Y-89858579D03*
%TD*%
%TO.C,TP59*%
X88000000Y-116858579D03*
%TD*%
D13*
%TO.C,TP51*%
X114141421Y-74000000D03*
%TD*%
D12*
%TO.C,TP67*%
X184858579Y-52000000D03*
%TD*%
%TO.C,TP6*%
X124858579Y-65400000D03*
%TD*%
D22*
%TO.C,Q4*%
X152000000Y-67937500D03*
X151050000Y-66062500D03*
X152950000Y-66062500D03*
%TD*%
D21*
%TO.C,TP33*%
X114000000Y-89858579D03*
%TD*%
D23*
%TO.C,U2*%
X134600000Y-76600000D03*
X133800000Y-76600000D03*
X133000000Y-76600000D03*
X132200000Y-76600000D03*
X131400000Y-76600000D03*
X130600000Y-76600000D03*
X129800000Y-76600000D03*
X129000000Y-76600000D03*
X128200000Y-76600000D03*
X127400000Y-76600000D03*
X134600000Y-75800000D03*
X133800000Y-75800000D03*
X133000000Y-75800000D03*
X132200000Y-75800000D03*
X131400000Y-75800000D03*
X130600000Y-75800000D03*
X129800000Y-75800000D03*
X129000000Y-75800000D03*
X128200000Y-75800000D03*
X127400000Y-75800000D03*
X134600000Y-75000000D03*
X133800000Y-75000000D03*
X133000000Y-75000000D03*
X132200000Y-75000000D03*
X131400000Y-75000000D03*
X130600000Y-75000000D03*
X129800000Y-75000000D03*
X129000000Y-75000000D03*
X128200000Y-75000000D03*
X127400000Y-75000000D03*
X134600000Y-74200000D03*
X133800000Y-74200000D03*
X133000000Y-74200000D03*
X132200000Y-74200000D03*
X131400000Y-74200000D03*
X130600000Y-74200000D03*
X129800000Y-74200000D03*
X129000000Y-74200000D03*
X128200000Y-74200000D03*
X127400000Y-74200000D03*
X134600000Y-73400000D03*
X133800000Y-73400000D03*
X133000000Y-73400000D03*
X132200000Y-73400000D03*
X131400000Y-73400000D03*
X130600000Y-73400000D03*
X129800000Y-73400000D03*
X129000000Y-73400000D03*
X128200000Y-73400000D03*
X127400000Y-73400000D03*
X134600000Y-72600000D03*
X133800000Y-72600000D03*
X133000000Y-72600000D03*
X132200000Y-72600000D03*
X131400000Y-72600000D03*
X130600000Y-72600000D03*
X129800000Y-72600000D03*
X129000000Y-72600000D03*
X128200000Y-72600000D03*
X127400000Y-72600000D03*
X134600000Y-71800000D03*
X133800000Y-71800000D03*
X133000000Y-71800000D03*
X132200000Y-71800000D03*
X131400000Y-71800000D03*
X130600000Y-71800000D03*
X129800000Y-71800000D03*
X129000000Y-71800000D03*
X128200000Y-71800000D03*
X127400000Y-71800000D03*
X134600000Y-71000000D03*
X133800000Y-71000000D03*
X133000000Y-71000000D03*
X132200000Y-71000000D03*
X131400000Y-71000000D03*
X130600000Y-71000000D03*
X129800000Y-71000000D03*
X129000000Y-71000000D03*
X128200000Y-71000000D03*
X127400000Y-71000000D03*
X134600000Y-70200000D03*
X133800000Y-70200000D03*
X133000000Y-70200000D03*
X132200000Y-70200000D03*
X131400000Y-70200000D03*
X130600000Y-70200000D03*
X129800000Y-70200000D03*
X129000000Y-70200000D03*
X128200000Y-70200000D03*
X127400000Y-70200000D03*
X134600000Y-69400000D03*
X133800000Y-69400000D03*
X133000000Y-69400000D03*
X132200000Y-69400000D03*
X131400000Y-69400000D03*
X130600000Y-69400000D03*
X129800000Y-69400000D03*
X129000000Y-69400000D03*
X128200000Y-69400000D03*
X127400000Y-69400000D03*
%TD*%
D24*
%TO.C,RESET1*%
X150000000Y-92120000D03*
X150000000Y-97880000D03*
X146000000Y-92120000D03*
X146000000Y-97880000D03*
%TD*%
D13*
%TO.C,TP46*%
X100141421Y-66000000D03*
%TD*%
D24*
%TO.C,SW2*%
X101000000Y-112120000D03*
X101000000Y-117880000D03*
X97000000Y-112120000D03*
X97000000Y-117880000D03*
%TD*%
D25*
%TO.C,C4*%
X100037500Y-121000000D03*
X97962500Y-121000000D03*
%TD*%
D12*
%TO.C,TP79*%
X184858579Y-76000000D03*
%TD*%
%TO.C,TP92*%
X147858579Y-64000000D03*
%TD*%
D25*
%TO.C,C23*%
X121562500Y-110000000D03*
X119487500Y-110000000D03*
%TD*%
D26*
%TO.C,RN5*%
X161150000Y-74200000D03*
X161150000Y-73400000D03*
X161150000Y-72600000D03*
X161150000Y-71800000D03*
X162850000Y-71800000D03*
X162850000Y-72600000D03*
X162850000Y-73400000D03*
X162850000Y-74200000D03*
%TD*%
D13*
%TO.C,TP5*%
X137141421Y-62300000D03*
%TD*%
D26*
%TO.C,RN6*%
X162850000Y-65800000D03*
X162850000Y-66600000D03*
X162850000Y-67400000D03*
X162850000Y-68200000D03*
X161150000Y-68200000D03*
X161150000Y-67400000D03*
X161150000Y-66600000D03*
X161150000Y-65800000D03*
%TD*%
D13*
%TO.C,TP41*%
X146141421Y-109000000D03*
%TD*%
D12*
%TO.C,TP63*%
X184858579Y-44000000D03*
%TD*%
%TO.C,TP93*%
X147858579Y-62000000D03*
%TD*%
%TO.C,TP18*%
X172858579Y-67000000D03*
%TD*%
%TO.C,TP74*%
X184858579Y-66000000D03*
%TD*%
D27*
%TO.C,Q7*%
X157000000Y-84062500D03*
X157950000Y-85937500D03*
X156050000Y-85937500D03*
%TD*%
D13*
%TO.C,TP50*%
X114141421Y-66000000D03*
%TD*%
D28*
%TO.C,U5*%
X157475000Y-72190000D03*
X157475000Y-73460000D03*
X157475000Y-74730000D03*
X157475000Y-76000000D03*
X157475000Y-77270000D03*
X157475000Y-78540000D03*
X157475000Y-79810000D03*
X152525000Y-79810000D03*
X152525000Y-78540000D03*
X152525000Y-77270000D03*
X152525000Y-76000000D03*
X152525000Y-74730000D03*
X152525000Y-73460000D03*
X152525000Y-72190000D03*
%TD*%
D13*
%TO.C,TP52*%
X100141421Y-76000000D03*
%TD*%
%TO.C,TP40*%
X146141421Y-113000000D03*
%TD*%
%TO.C,TP53*%
X100141421Y-78000000D03*
%TD*%
D24*
%TO.C,SW3*%
X101000000Y-128120000D03*
X101000000Y-133880000D03*
X97000000Y-128120000D03*
X97000000Y-133880000D03*
%TD*%
D12*
%TO.C,TP28*%
X147858579Y-76000000D03*
%TD*%
D14*
%TO.C,bSWD1*%
X90000000Y-67915000D03*
X90000000Y-70455000D03*
X90000000Y-72995000D03*
X90000000Y-75535000D03*
D15*
X90000000Y-78075000D03*
%TD*%
D13*
%TO.C,TP58*%
X114141421Y-78000000D03*
%TD*%
D18*
%TO.C,AUD_PINK1*%
X97200000Y-102050000D03*
D17*
X98050000Y-107350000D03*
D18*
X89900000Y-102050000D03*
X93100000Y-102050000D03*
D19*
X95550000Y-104800000D03*
X88550000Y-104800000D03*
%TD*%
D12*
%TO.C,TP30*%
X147858579Y-78000000D03*
%TD*%
D13*
%TO.C,TP44*%
X100141421Y-70000000D03*
%TD*%
%TO.C,TP61*%
X101141421Y-109000000D03*
%TD*%
D28*
%TO.C,U1*%
X112475000Y-92190000D03*
X112475000Y-93460000D03*
X112475000Y-94730000D03*
X112475000Y-96000000D03*
X112475000Y-97270000D03*
X112475000Y-98540000D03*
X112475000Y-99810000D03*
X107525000Y-99810000D03*
X107525000Y-98540000D03*
X107525000Y-97270000D03*
X107525000Y-96000000D03*
X107525000Y-94730000D03*
X107525000Y-93460000D03*
X107525000Y-92190000D03*
%TD*%
D12*
%TO.C,TP86*%
X147858579Y-70000000D03*
%TD*%
D21*
%TO.C,TP37*%
X160000000Y-58858579D03*
%TD*%
D29*
%TO.C,TFT1*%
X96000000Y-46300000D03*
X96000000Y-48840000D03*
X96000000Y-51380000D03*
X96000000Y-53920000D03*
X96000000Y-56460000D03*
X96000000Y-59000000D03*
X96000000Y-61540000D03*
X96000000Y-64080000D03*
X96000000Y-66620000D03*
X96000000Y-69160000D03*
X96000000Y-71700000D03*
X96000000Y-74240000D03*
X96000000Y-76780000D03*
X96000000Y-79320000D03*
X177000000Y-59000000D03*
X177000000Y-61540000D03*
X177000000Y-64080000D03*
X177000000Y-66620000D03*
%TD*%
D13*
%TO.C,TP57*%
X114141421Y-72000000D03*
%TD*%
%TO.C,TP1*%
X137141421Y-66300000D03*
%TD*%
D27*
%TO.C,Q6*%
X167000000Y-84062500D03*
X167950000Y-85937500D03*
X166050000Y-85937500D03*
%TD*%
D26*
%TO.C,RN3*%
X101150000Y-100200000D03*
X101150000Y-99400000D03*
X101150000Y-98600000D03*
X101150000Y-97800000D03*
X102850000Y-97800000D03*
X102850000Y-98600000D03*
X102850000Y-99400000D03*
X102850000Y-100200000D03*
%TD*%
D30*
%TO.C,JTAG1*%
X164795000Y-92355000D03*
X164795000Y-93625000D03*
X163525000Y-92355000D03*
X163525000Y-93625000D03*
X162255000Y-92355000D03*
X162255000Y-93625000D03*
X160985000Y-92355000D03*
X160985000Y-93625000D03*
X159715000Y-92355000D03*
X159715000Y-93625000D03*
X158445000Y-92355000D03*
X158445000Y-93625000D03*
X157175000Y-92355000D03*
D31*
X157175000Y-93625000D03*
%TD*%
D21*
%TO.C,TP89*%
X100000000Y-89858579D03*
%TD*%
D11*
%TO.C,TP34*%
X173000000Y-111141421D03*
%TD*%
D26*
%TO.C,RN7*%
X161150000Y-80200000D03*
X161150000Y-79400000D03*
X161150000Y-78600000D03*
X161150000Y-77800000D03*
X162850000Y-77800000D03*
X162850000Y-78600000D03*
X162850000Y-79400000D03*
X162850000Y-80200000D03*
%TD*%
D16*
%TO.C,C2*%
X123000000Y-78000000D03*
X123000000Y-75925000D03*
%TD*%
D12*
%TO.C,TP99*%
X172858579Y-77000000D03*
%TD*%
%TO.C,TP69*%
X184858579Y-56000000D03*
%TD*%
D24*
%TO.C,SW4*%
X109000000Y-120120000D03*
X109000000Y-125880000D03*
X105000000Y-120120000D03*
X105000000Y-125880000D03*
%TD*%
D21*
%TO.C,TP83*%
X102000000Y-89858579D03*
%TD*%
D13*
%TO.C,TP54*%
X114141421Y-76000000D03*
%TD*%
D12*
%TO.C,TP75*%
X184858579Y-68000000D03*
%TD*%
%TO.C,TP27*%
X172858579Y-69000000D03*
%TD*%
%TO.C,TP64*%
X184858579Y-46000000D03*
%TD*%
%TO.C,TP66*%
X184858579Y-50000000D03*
%TD*%
D13*
%TO.C,TP42*%
X146141421Y-111000000D03*
%TD*%
D21*
%TO.C,TP31*%
X110000000Y-89858579D03*
%TD*%
D25*
%TO.C,C5*%
X100037500Y-125000000D03*
X97962500Y-125000000D03*
%TD*%
D27*
%TO.C,Q2*%
X152000000Y-84062500D03*
X152950000Y-85937500D03*
X151050000Y-85937500D03*
%TD*%
D16*
%TO.C,C1*%
X123000000Y-70075000D03*
X123000000Y-68000000D03*
%TD*%
D11*
%TO.C,TP25*%
X112000000Y-56141421D03*
%TD*%
D13*
%TO.C,TP82*%
X164141421Y-97000000D03*
%TD*%
D32*
%TO.C,BIASTRIM1*%
X118500000Y-97525000D03*
X123500000Y-95025000D03*
X118500000Y-92525000D03*
%TD*%
D33*
%TO.C,Q3*%
X168937500Y-79000000D03*
X167062500Y-79950000D03*
X167062500Y-78050000D03*
%TD*%
D34*
%TO.C,U4*%
X133700000Y-102850000D03*
X136000000Y-102850000D03*
D35*
X136000000Y-109150000D03*
D34*
X138300000Y-102850000D03*
%TD*%
D12*
%TO.C,TP10*%
X124858579Y-82700000D03*
%TD*%
D36*
%TO.C,RN1*%
X102340000Y-104000000D03*
X103680000Y-104000000D03*
X105000000Y-104000000D03*
X106340000Y-104000000D03*
X106340000Y-107000000D03*
X105000000Y-107000000D03*
X103680000Y-107000000D03*
X102340000Y-107000000D03*
%TD*%
D21*
%TO.C,TP84*%
X106000000Y-89858579D03*
%TD*%
D17*
%TO.C,AUD_ORANGE1*%
X176800000Y-107950000D03*
D18*
X175950000Y-102650000D03*
D17*
X184100000Y-107950000D03*
X180900000Y-107950000D03*
D19*
X178450000Y-105200000D03*
X185450000Y-105200000D03*
%TD*%
D12*
%TO.C,TP80*%
X184858579Y-78000000D03*
%TD*%
D37*
%TO.C,NORFLASH1*%
X134600000Y-80095000D03*
X134600000Y-81365000D03*
X134600000Y-82635000D03*
X134600000Y-83905000D03*
X127400000Y-83905000D03*
X127400000Y-82635000D03*
X127400000Y-81365000D03*
X127400000Y-80095000D03*
%TD*%
D20*
%TO.C,C25*%
X102000000Y-93000000D03*
X102000000Y-95000000D03*
%TD*%
D38*
%TO.C,ROTARY1*%
X168500000Y-106500000D03*
X168500000Y-111500000D03*
D39*
X161500000Y-114600000D03*
X161500000Y-103400000D03*
D38*
X154000000Y-109000000D03*
X154000000Y-111500000D03*
D40*
X154000000Y-106500000D03*
%TD*%
D41*
%TO.C,NORFLASH2*%
X127400000Y-65905000D03*
X127400000Y-64635000D03*
X127400000Y-63365000D03*
X127400000Y-62095000D03*
X134600000Y-62095000D03*
X134600000Y-63365000D03*
X134600000Y-64635000D03*
X134600000Y-65905000D03*
%TD*%
D42*
%TO.C,SDCARD1*%
X121784968Y-50521855D03*
D43*
X121784968Y-40921855D03*
D44*
X107184968Y-50521855D03*
D43*
X106284968Y-40921855D03*
D45*
X120584968Y-51021855D03*
X119484968Y-51021855D03*
X118384968Y-51021855D03*
X117284968Y-51021855D03*
X116184968Y-51021855D03*
X115084968Y-51021855D03*
X113984968Y-51021855D03*
X112884968Y-51021855D03*
X111784968Y-51021855D03*
D46*
X118984968Y-40521855D03*
X110984968Y-40521855D03*
%TD*%
D26*
%TO.C,RN4*%
X147150000Y-74200000D03*
X147150000Y-73400000D03*
X147150000Y-72600000D03*
X147150000Y-71800000D03*
X148850000Y-71800000D03*
X148850000Y-72600000D03*
X148850000Y-73400000D03*
X148850000Y-74200000D03*
%TD*%
D13*
%TO.C,TP7*%
X137141421Y-82900000D03*
%TD*%
D12*
%TO.C,TP98*%
X172858579Y-75000000D03*
%TD*%
D13*
%TO.C,TP17*%
X100141421Y-54000000D03*
%TD*%
%TO.C,TP16*%
X100141421Y-60000000D03*
%TD*%
D12*
%TO.C,TP100*%
X172858579Y-79000000D03*
%TD*%
%TO.C,TP9*%
X124858579Y-81100000D03*
%TD*%
%TO.C,TP87*%
X147858579Y-68000000D03*
%TD*%
%TO.C,TP21*%
X172858579Y-60878680D03*
%TD*%
D13*
%TO.C,TP47*%
X100141421Y-68000000D03*
%TD*%
D21*
%TO.C,TP35*%
X164000000Y-58858579D03*
%TD*%
D12*
%TO.C,TP2*%
X124858579Y-63400000D03*
%TD*%
%TO.C,TP91*%
X147858579Y-66000000D03*
%TD*%
D13*
%TO.C,TP55*%
X100141421Y-80000000D03*
%TD*%
D27*
%TO.C,Q8*%
X162000000Y-84062500D03*
X162950000Y-85937500D03*
X161050000Y-85937500D03*
%TD*%
D36*
%TO.C,RN2*%
X110000000Y-103500000D03*
X111340000Y-103500000D03*
X112660000Y-103500000D03*
X114000000Y-103500000D03*
X114000000Y-106500000D03*
X112660000Y-106500000D03*
X111340000Y-106500000D03*
X110000000Y-106500000D03*
%TD*%
D47*
%TO.C,U3*%
X104137500Y-73925000D03*
X104137500Y-73275000D03*
X104137500Y-72625000D03*
X104137500Y-71975000D03*
X104137500Y-71325000D03*
X104137500Y-70675000D03*
X104137500Y-70025000D03*
X104137500Y-69375000D03*
X104137500Y-68725000D03*
X104137500Y-68075000D03*
X109862500Y-68075000D03*
X109862500Y-68725000D03*
X109862500Y-69375000D03*
X109862500Y-70025000D03*
X109862500Y-70675000D03*
X109862500Y-71325000D03*
X109862500Y-71975000D03*
X109862500Y-72625000D03*
X109862500Y-73275000D03*
X109862500Y-73925000D03*
%TD*%
D14*
%TO.C,PWR_IN1*%
X122080000Y-114000000D03*
X119540000Y-114000000D03*
D15*
X117000000Y-114000000D03*
%TD*%
D12*
%TO.C,TP65*%
X184858579Y-48000000D03*
%TD*%
D32*
%TO.C,GAINTRIM2*%
X136500000Y-97525000D03*
X141500000Y-95025000D03*
X136500000Y-92525000D03*
%TD*%
D21*
%TO.C,TP60*%
X96000000Y-124858579D03*
%TD*%
D11*
%TO.C,TP23*%
X118000000Y-56141421D03*
%TD*%
D21*
%TO.C,TP85*%
X108000000Y-89858579D03*
%TD*%
D12*
%TO.C,TP19*%
X172858579Y-65000000D03*
%TD*%
D13*
%TO.C,TP11*%
X137141421Y-80900000D03*
%TD*%
%TO.C,TP14*%
X100141421Y-58000000D03*
%TD*%
D25*
%TO.C,C3*%
X92037500Y-117000000D03*
X89962500Y-117000000D03*
%TD*%
D27*
%TO.C,Q5*%
X147000000Y-84062500D03*
X147950000Y-85937500D03*
X146050000Y-85937500D03*
%TD*%
D11*
%TO.C,TP97*%
X181000000Y-111141421D03*
%TD*%
D24*
%TO.C,SW1*%
X93000000Y-120120000D03*
X93000000Y-125880000D03*
X89000000Y-120120000D03*
X89000000Y-125880000D03*
%TD*%
D12*
%TO.C,TP95*%
X172858579Y-57000000D03*
%TD*%
D18*
%TO.C,AUD_GREEN1*%
X97200000Y-92050000D03*
D17*
X98050000Y-97350000D03*
D18*
X89900000Y-92050000D03*
X93100000Y-92050000D03*
D19*
X95550000Y-94800000D03*
X88550000Y-94800000D03*
%TD*%
D12*
%TO.C,TP68*%
X184858579Y-54000000D03*
%TD*%
%TO.C,TP72*%
X184858579Y-62000000D03*
%TD*%
D13*
%TO.C,TP45*%
X100141421Y-72000000D03*
%TD*%
%TO.C,TP43*%
X146141421Y-105000000D03*
%TD*%
D11*
%TO.C,TP24*%
X116000000Y-56141421D03*
%TD*%
D20*
%TO.C,R2*%
X118000000Y-103000000D03*
X118000000Y-105000000D03*
%TD*%
D25*
%TO.C,C6*%
X108037500Y-116880000D03*
X105962500Y-116880000D03*
%TD*%
D21*
%TO.C,TP36*%
X162000000Y-58858579D03*
%TD*%
D12*
%TO.C,TP20*%
X172858579Y-62939340D03*
%TD*%
%TO.C,TP70*%
X184858579Y-58000000D03*
%TD*%
%TO.C,TP101*%
X172858579Y-81000000D03*
%TD*%
D21*
%TO.C,TP26*%
X104000000Y-89858579D03*
%TD*%
%TO.C,TP38*%
X158000000Y-58858579D03*
%TD*%
D13*
%TO.C,TP39*%
X146141421Y-107000000D03*
%TD*%
D32*
%TO.C,GAINTRIM1*%
X127500000Y-97525000D03*
X132500000Y-95025000D03*
X127500000Y-92525000D03*
%TD*%
D13*
%TO.C,TP48*%
X114141421Y-70000000D03*
%TD*%
D48*
%TO.C,Y1*%
X122300000Y-73875000D03*
X122300000Y-72125000D03*
X123700000Y-72125000D03*
X123700000Y-73875000D03*
%TD*%
D12*
%TO.C,TP78*%
X184858579Y-74000000D03*
%TD*%
D13*
%TO.C,TP56*%
X100141421Y-74000000D03*
%TD*%
D12*
%TO.C,TP71*%
X184858579Y-60000000D03*
%TD*%
D13*
%TO.C,TP12*%
X100141421Y-62000000D03*
%TD*%
D12*
%TO.C,TP81*%
X184858579Y-80000000D03*
%TD*%
%TO.C,TP90*%
X147858579Y-80000000D03*
%TD*%
D33*
%TO.C,Q1*%
X168937500Y-73000000D03*
X167062500Y-73950000D03*
X167062500Y-72050000D03*
%TD*%
D13*
%TO.C,TP49*%
X114141421Y-68000000D03*
%TD*%
D21*
%TO.C,TP62*%
X104000000Y-116738579D03*
%TD*%
D49*
%TO.C,VOLUME1*%
X161250000Y-41000000D03*
D50*
X172750000Y-41000000D03*
D17*
X163000000Y-51500000D03*
X167000000Y-51500000D03*
X171000000Y-51500000D03*
%TD*%
M02*
