%TF.GenerationSoftware,KiCad,Pcbnew,7.0.10*%
%TF.CreationDate,2024-03-06T19:41:30-08:00*%
%TF.ProjectId,player_system,706c6179-6572-45f7-9379-7374656d2e6b,rev?*%
%TF.SameCoordinates,Original*%
%TF.FileFunction,Paste,Top*%
%TF.FilePolarity,Positive*%
%FSLAX46Y46*%
G04 Gerber Fmt 4.6, Leading zero omitted, Abs format (unit mm)*
G04 Created by KiCad (PCBNEW 7.0.10) date 2024-03-06 19:41:30*
%MOMM*%
%LPD*%
G01*
G04 APERTURE LIST*
G04 Aperture macros list*
%AMRoundRect*
0 Rectangle with rounded corners*
0 $1 Rounding radius*
0 $2 $3 $4 $5 $6 $7 $8 $9 X,Y pos of 4 corners*
0 Add a 4 corners polygon primitive as box body*
4,1,4,$2,$3,$4,$5,$6,$7,$8,$9,$2,$3,0*
0 Add four circle primitives for the rounded corners*
1,1,$1+$1,$2,$3*
1,1,$1+$1,$4,$5*
1,1,$1+$1,$6,$7*
1,1,$1+$1,$8,$9*
0 Add four rect primitives between the rounded corners*
20,1,$1+$1,$2,$3,$4,$5,0*
20,1,$1+$1,$4,$5,$6,$7,0*
20,1,$1+$1,$6,$7,$8,$9,0*
20,1,$1+$1,$8,$9,$2,$3,0*%
G04 Aperture macros list end*
%ADD10RoundRect,0.250000X-0.475000X0.337500X-0.475000X-0.337500X0.475000X-0.337500X0.475000X0.337500X0*%
%ADD11RoundRect,0.250000X0.450000X-0.350000X0.450000X0.350000X-0.450000X0.350000X-0.450000X-0.350000X0*%
%ADD12RoundRect,0.150000X-0.150000X0.587500X-0.150000X-0.587500X0.150000X-0.587500X0.150000X0.587500X0*%
%ADD13C,0.400000*%
%ADD14R,1.000000X2.750000*%
%ADD15RoundRect,0.250000X-0.337500X-0.475000X0.337500X-0.475000X0.337500X0.475000X-0.337500X0.475000X0*%
%ADD16R,0.900000X0.400000*%
%ADD17RoundRect,0.150000X0.150000X-0.587500X0.150000X0.587500X-0.150000X0.587500X-0.150000X-0.587500X0*%
%ADD18RoundRect,0.150000X-0.825000X-0.150000X0.825000X-0.150000X0.825000X0.150000X-0.825000X0.150000X0*%
%ADD19RoundRect,0.150000X-0.587500X-0.150000X0.587500X-0.150000X0.587500X0.150000X-0.587500X0.150000X0*%
%ADD20R,1.500000X2.000000*%
%ADD21R,3.800000X2.000000*%
%ADD22R,0.900000X0.900000*%
%ADD23RoundRect,0.150000X-0.650000X-0.150000X0.650000X-0.150000X0.650000X0.150000X-0.650000X0.150000X0*%
%ADD24RoundRect,0.150000X0.650000X0.150000X-0.650000X0.150000X-0.650000X-0.150000X0.650000X-0.150000X0*%
%ADD25R,0.700000X1.600000*%
%ADD26R,1.200000X2.200000*%
%ADD27R,1.600000X1.400000*%
%ADD28R,1.200000X1.400000*%
%ADD29RoundRect,0.100000X0.637500X0.100000X-0.637500X0.100000X-0.637500X-0.100000X0.637500X-0.100000X0*%
%ADD30R,1.000000X1.150000*%
G04 APERTURE END LIST*
D10*
%TO.C,C10*%
X129000000Y-102962500D03*
X129000000Y-105037500D03*
%TD*%
D11*
%TO.C,R1*%
X121000000Y-105000000D03*
X121000000Y-103000000D03*
%TD*%
D12*
%TO.C,Q4*%
X152950000Y-66062500D03*
X151050000Y-66062500D03*
X152000000Y-67937500D03*
%TD*%
D13*
%TO.C,U2*%
X127400000Y-69400000D03*
X128200000Y-69400000D03*
X129000000Y-69400000D03*
X129800000Y-69400000D03*
X130600000Y-69400000D03*
X131400000Y-69400000D03*
X132200000Y-69400000D03*
X133000000Y-69400000D03*
X133800000Y-69400000D03*
X134600000Y-69400000D03*
X127400000Y-70200000D03*
X128200000Y-70200000D03*
X129000000Y-70200000D03*
X129800000Y-70200000D03*
X130600000Y-70200000D03*
X131400000Y-70200000D03*
X132200000Y-70200000D03*
X133000000Y-70200000D03*
X133800000Y-70200000D03*
X134600000Y-70200000D03*
X127400000Y-71000000D03*
X128200000Y-71000000D03*
X129000000Y-71000000D03*
X129800000Y-71000000D03*
X130600000Y-71000000D03*
X131400000Y-71000000D03*
X132200000Y-71000000D03*
X133000000Y-71000000D03*
X133800000Y-71000000D03*
X134600000Y-71000000D03*
X127400000Y-71800000D03*
X128200000Y-71800000D03*
X129000000Y-71800000D03*
X129800000Y-71800000D03*
X130600000Y-71800000D03*
X131400000Y-71800000D03*
X132200000Y-71800000D03*
X133000000Y-71800000D03*
X133800000Y-71800000D03*
X134600000Y-71800000D03*
X127400000Y-72600000D03*
X128200000Y-72600000D03*
X129000000Y-72600000D03*
X129800000Y-72600000D03*
X130600000Y-72600000D03*
X131400000Y-72600000D03*
X132200000Y-72600000D03*
X133000000Y-72600000D03*
X133800000Y-72600000D03*
X134600000Y-72600000D03*
X127400000Y-73400000D03*
X128200000Y-73400000D03*
X129000000Y-73400000D03*
X129800000Y-73400000D03*
X130600000Y-73400000D03*
X131400000Y-73400000D03*
X132200000Y-73400000D03*
X133000000Y-73400000D03*
X133800000Y-73400000D03*
X134600000Y-73400000D03*
X127400000Y-74200000D03*
X128200000Y-74200000D03*
X129000000Y-74200000D03*
X129800000Y-74200000D03*
X130600000Y-74200000D03*
X131400000Y-74200000D03*
X132200000Y-74200000D03*
X133000000Y-74200000D03*
X133800000Y-74200000D03*
X134600000Y-74200000D03*
X127400000Y-75000000D03*
X128200000Y-75000000D03*
X129000000Y-75000000D03*
X129800000Y-75000000D03*
X130600000Y-75000000D03*
X131400000Y-75000000D03*
X132200000Y-75000000D03*
X133000000Y-75000000D03*
X133800000Y-75000000D03*
X134600000Y-75000000D03*
X127400000Y-75800000D03*
X128200000Y-75800000D03*
X129000000Y-75800000D03*
X129800000Y-75800000D03*
X130600000Y-75800000D03*
X131400000Y-75800000D03*
X132200000Y-75800000D03*
X133000000Y-75800000D03*
X133800000Y-75800000D03*
X134600000Y-75800000D03*
X127400000Y-76600000D03*
X128200000Y-76600000D03*
X129000000Y-76600000D03*
X129800000Y-76600000D03*
X130600000Y-76600000D03*
X131400000Y-76600000D03*
X132200000Y-76600000D03*
X133000000Y-76600000D03*
X133800000Y-76600000D03*
X134600000Y-76600000D03*
%TD*%
D14*
%TO.C,RESET1*%
X146000000Y-97880000D03*
X146000000Y-92120000D03*
X150000000Y-97880000D03*
X150000000Y-92120000D03*
%TD*%
%TO.C,SW2*%
X97000000Y-117880000D03*
X97000000Y-112120000D03*
X101000000Y-117880000D03*
X101000000Y-112120000D03*
%TD*%
D15*
%TO.C,C4*%
X97962500Y-121000000D03*
X100037500Y-121000000D03*
%TD*%
%TO.C,C23*%
X119487500Y-110000000D03*
X121562500Y-110000000D03*
%TD*%
D16*
%TO.C,RN5*%
X162850000Y-74200000D03*
X162850000Y-73400000D03*
X162850000Y-72600000D03*
X162850000Y-71800000D03*
X161150000Y-71800000D03*
X161150000Y-72600000D03*
X161150000Y-73400000D03*
X161150000Y-74200000D03*
%TD*%
%TO.C,RN6*%
X161150000Y-65800000D03*
X161150000Y-66600000D03*
X161150000Y-67400000D03*
X161150000Y-68200000D03*
X162850000Y-68200000D03*
X162850000Y-67400000D03*
X162850000Y-66600000D03*
X162850000Y-65800000D03*
%TD*%
D17*
%TO.C,Q7*%
X156050000Y-85937500D03*
X157950000Y-85937500D03*
X157000000Y-84062500D03*
%TD*%
D18*
%TO.C,U5*%
X152525000Y-72190000D03*
X152525000Y-73460000D03*
X152525000Y-74730000D03*
X152525000Y-76000000D03*
X152525000Y-77270000D03*
X152525000Y-78540000D03*
X152525000Y-79810000D03*
X157475000Y-79810000D03*
X157475000Y-78540000D03*
X157475000Y-77270000D03*
X157475000Y-76000000D03*
X157475000Y-74730000D03*
X157475000Y-73460000D03*
X157475000Y-72190000D03*
%TD*%
D14*
%TO.C,SW3*%
X97000000Y-133880000D03*
X97000000Y-128120000D03*
X101000000Y-133880000D03*
X101000000Y-128120000D03*
%TD*%
D18*
%TO.C,U1*%
X107525000Y-92190000D03*
X107525000Y-93460000D03*
X107525000Y-94730000D03*
X107525000Y-96000000D03*
X107525000Y-97270000D03*
X107525000Y-98540000D03*
X107525000Y-99810000D03*
X112475000Y-99810000D03*
X112475000Y-98540000D03*
X112475000Y-97270000D03*
X112475000Y-96000000D03*
X112475000Y-94730000D03*
X112475000Y-93460000D03*
X112475000Y-92190000D03*
%TD*%
D17*
%TO.C,Q6*%
X166050000Y-85937500D03*
X167950000Y-85937500D03*
X167000000Y-84062500D03*
%TD*%
D16*
%TO.C,RN3*%
X102850000Y-100200000D03*
X102850000Y-99400000D03*
X102850000Y-98600000D03*
X102850000Y-97800000D03*
X101150000Y-97800000D03*
X101150000Y-98600000D03*
X101150000Y-99400000D03*
X101150000Y-100200000D03*
%TD*%
%TO.C,RN7*%
X162850000Y-80200000D03*
X162850000Y-79400000D03*
X162850000Y-78600000D03*
X162850000Y-77800000D03*
X161150000Y-77800000D03*
X161150000Y-78600000D03*
X161150000Y-79400000D03*
X161150000Y-80200000D03*
%TD*%
D10*
%TO.C,C2*%
X123000000Y-75925000D03*
X123000000Y-78000000D03*
%TD*%
D14*
%TO.C,SW4*%
X105000000Y-125880000D03*
X105000000Y-120120000D03*
X109000000Y-125880000D03*
X109000000Y-120120000D03*
%TD*%
D15*
%TO.C,C5*%
X97962500Y-125000000D03*
X100037500Y-125000000D03*
%TD*%
D17*
%TO.C,Q2*%
X151050000Y-85937500D03*
X152950000Y-85937500D03*
X152000000Y-84062500D03*
%TD*%
D10*
%TO.C,C1*%
X123000000Y-68000000D03*
X123000000Y-70075000D03*
%TD*%
D19*
%TO.C,Q3*%
X167062500Y-78050000D03*
X167062500Y-79950000D03*
X168937500Y-79000000D03*
%TD*%
D20*
%TO.C,U4*%
X138300000Y-102850000D03*
X136000000Y-102850000D03*
D21*
X136000000Y-109150000D03*
D20*
X133700000Y-102850000D03*
%TD*%
D22*
%TO.C,RN1*%
X102340000Y-107000000D03*
X103680000Y-107000000D03*
X105000000Y-107000000D03*
X106340000Y-107000000D03*
X106340000Y-104000000D03*
X105000000Y-104000000D03*
X103680000Y-104000000D03*
X102340000Y-104000000D03*
%TD*%
D23*
%TO.C,NORFLASH1*%
X127400000Y-80095000D03*
X127400000Y-81365000D03*
X127400000Y-82635000D03*
X127400000Y-83905000D03*
X134600000Y-83905000D03*
X134600000Y-82635000D03*
X134600000Y-81365000D03*
X134600000Y-80095000D03*
%TD*%
D11*
%TO.C,C25*%
X102000000Y-95000000D03*
X102000000Y-93000000D03*
%TD*%
D24*
%TO.C,NORFLASH2*%
X134600000Y-65905000D03*
X134600000Y-64635000D03*
X134600000Y-63365000D03*
X134600000Y-62095000D03*
X127400000Y-62095000D03*
X127400000Y-63365000D03*
X127400000Y-64635000D03*
X127400000Y-65905000D03*
%TD*%
D25*
%TO.C,SDCARD1*%
X111784968Y-51021855D03*
X112884968Y-51021855D03*
X113984968Y-51021855D03*
X115084968Y-51021855D03*
X116184968Y-51021855D03*
X117284968Y-51021855D03*
X118384968Y-51021855D03*
X119484968Y-51021855D03*
X120584968Y-51021855D03*
D26*
X106284968Y-40921855D03*
D27*
X107184968Y-50521855D03*
D26*
X121784968Y-40921855D03*
D28*
X121784968Y-50521855D03*
%TD*%
D16*
%TO.C,RN4*%
X148850000Y-74200000D03*
X148850000Y-73400000D03*
X148850000Y-72600000D03*
X148850000Y-71800000D03*
X147150000Y-71800000D03*
X147150000Y-72600000D03*
X147150000Y-73400000D03*
X147150000Y-74200000D03*
%TD*%
D17*
%TO.C,Q8*%
X161050000Y-85937500D03*
X162950000Y-85937500D03*
X162000000Y-84062500D03*
%TD*%
D22*
%TO.C,RN2*%
X110000000Y-106500000D03*
X111340000Y-106500000D03*
X112660000Y-106500000D03*
X114000000Y-106500000D03*
X114000000Y-103500000D03*
X112660000Y-103500000D03*
X111340000Y-103500000D03*
X110000000Y-103500000D03*
%TD*%
D29*
%TO.C,U3*%
X109862500Y-73925000D03*
X109862500Y-73275000D03*
X109862500Y-72625000D03*
X109862500Y-71975000D03*
X109862500Y-71325000D03*
X109862500Y-70675000D03*
X109862500Y-70025000D03*
X109862500Y-69375000D03*
X109862500Y-68725000D03*
X109862500Y-68075000D03*
X104137500Y-68075000D03*
X104137500Y-68725000D03*
X104137500Y-69375000D03*
X104137500Y-70025000D03*
X104137500Y-70675000D03*
X104137500Y-71325000D03*
X104137500Y-71975000D03*
X104137500Y-72625000D03*
X104137500Y-73275000D03*
X104137500Y-73925000D03*
%TD*%
D15*
%TO.C,C3*%
X89962500Y-117000000D03*
X92037500Y-117000000D03*
%TD*%
D17*
%TO.C,Q5*%
X146050000Y-85937500D03*
X147950000Y-85937500D03*
X147000000Y-84062500D03*
%TD*%
D14*
%TO.C,SW1*%
X89000000Y-125880000D03*
X89000000Y-120120000D03*
X93000000Y-125880000D03*
X93000000Y-120120000D03*
%TD*%
D11*
%TO.C,R2*%
X118000000Y-105000000D03*
X118000000Y-103000000D03*
%TD*%
D15*
%TO.C,C6*%
X105962500Y-116880000D03*
X108037500Y-116880000D03*
%TD*%
D30*
%TO.C,Y1*%
X123700000Y-73875000D03*
X123700000Y-72125000D03*
X122300000Y-72125000D03*
X122300000Y-73875000D03*
%TD*%
D19*
%TO.C,Q1*%
X167062500Y-72050000D03*
X167062500Y-73950000D03*
X168937500Y-73000000D03*
%TD*%
M02*
