M48
; DRILL file {KiCad 7.0.10} date Wed 06 Mar 2024 06:56:38 PM PST
; FORMAT={-:-/ absolute / metric / decimal}
; #@! TF.CreationDate,2024-03-06T18:56:38-08:00
; #@! TF.GenerationSoftware,Kicad,Pcbnew,7.0.10
; #@! TF.FileFunction,Plated,1,4,PTH
FMAT,2
METRIC
; #@! TA.AperFunction,Plated,PTH,ViaDrill
T1C0.175
; #@! TA.AperFunction,Plated,PTH,ViaDrill
T2C0.300
; #@! TA.AperFunction,Plated,PTH,ViaDrill
T3C0.400
; #@! TA.AperFunction,Plated,PTH,ComponentDrill
T4C0.650
; #@! TA.AperFunction,Plated,PTH,ComponentDrill
T5C0.710
; #@! TA.AperFunction,Plated,PTH,ViaDrill
T6C1.000
; #@! TA.AperFunction,Plated,PTH,ComponentDrill
T7C1.000
; #@! TA.AperFunction,Plated,PTH,ComponentDrill
T8C1.100
; #@! TA.AperFunction,Plated,PTH,ComponentDrill
T9C1.200
; #@! TA.AperFunction,Plated,PTH,ComponentDrill
T10C1.300
; #@! TA.AperFunction,Plated,PTH,ComponentDrill
T11C2.600
%
G90
G05
T1
X102.9Y-59.9
X108.4Y-114.1
X109.8Y-115.1
X111.785Y-51.022
X112.885Y-51.022
X113.4Y-80.4
X113.985Y-51.022
X114.0Y-88.2
X115.1Y-88.3
X115.382Y-86.83
X115.6Y-52.9
X115.982Y-87.08
X116.0Y-79.2
X116.124Y-85.602
X116.185Y-51.022
X116.2Y-88.1
X116.6Y-66.8
X117.486Y-83.686
X117.96Y-87.438
X118.1Y-83.2
X118.3Y-88.4
X118.326Y-82.252
X118.385Y-51.022
X118.8Y-67.3
X119.485Y-51.022
X119.6Y-79.4
X119.8Y-62.5
X120.428Y-68.114
X120.6Y-51.1
X120.7Y-83.9
X120.97Y-74.247
X121.013Y-81.912
X121.053Y-67.935
X121.3Y-72.9
X121.394Y-80.932
X121.44Y-76.867
X121.532Y-84.511
X121.7Y-68.0
X121.952Y-64.431
X122.3Y-58.6
X123.7Y-66.9
X123.9Y-64.5
X124.039Y-70.861
X124.2Y-58.8
X124.3Y-86.8
X124.6Y-59.3
X124.8Y-80.1
X125.172Y-84.456
X125.4Y-56.3
X125.587Y-66.322
X125.8Y-102.5
X125.84Y-74.988
X125.91Y-79.638
X126.0Y-62.7
X126.0Y-73.4
X126.09Y-78.342
X126.099Y-77.418
X126.1Y-56.7
X126.1Y-84.0
X126.16Y-66.067
X126.2Y-82.1
X126.221Y-80.943
X126.3Y-74.2
X126.4Y-71.7
X126.5Y-78.818
X126.5Y-102.7
X126.6Y-72.6
X126.692Y-67.63
X127.0Y-87.5
X127.03Y-68.87
X127.172Y-67.931
X127.4Y-62.1
X127.4Y-63.4
X127.4Y-63.4
X127.4Y-64.635
X127.4Y-69.4
X127.4Y-70.2
X127.4Y-71.0
X127.4Y-71.8
X127.4Y-72.6
X127.4Y-73.4
X127.4Y-74.2
X127.4Y-75.0
X127.4Y-75.8
X127.4Y-76.6
X127.596Y-67.038
X127.9Y-78.0
X128.2Y-69.4
X128.2Y-70.2
X128.2Y-71.0
X128.2Y-71.8
X128.2Y-72.6
X128.2Y-73.4
X128.2Y-74.2
X128.2Y-75.0
X128.2Y-75.8
X128.2Y-76.6
X128.3Y-80.7
X128.584Y-79.225
X128.639Y-68.661
X128.8Y-68.1
X128.888Y-67.406
X128.9Y-65.3
X128.903Y-66.756
X129.0Y-69.4
X129.0Y-70.2
X129.0Y-71.0
X129.0Y-71.8
X129.0Y-72.6
X129.0Y-73.4
X129.0Y-74.2
X129.0Y-75.0
X129.0Y-75.8
X129.0Y-76.6
X129.0Y-80.0
X129.1Y-78.4
X129.526Y-97.411
X129.8Y-69.4
X129.8Y-70.2
X129.8Y-71.0
X129.8Y-71.8
X129.8Y-72.6
X129.8Y-73.4
X129.8Y-74.2
X129.8Y-75.0
X129.8Y-75.8
X129.8Y-76.6
X129.8Y-78.6
X130.0Y-66.1
X130.5Y-67.1
X130.6Y-69.4
X130.6Y-70.2
X130.6Y-71.0
X130.6Y-71.8
X130.6Y-72.6
X130.6Y-73.4
X130.6Y-74.2
X130.6Y-75.0
X130.6Y-75.8
X130.6Y-76.6
X130.9Y-57.6
X131.2Y-77.8
X131.4Y-69.4
X131.4Y-70.2
X131.4Y-71.0
X131.4Y-71.8
X131.4Y-72.6
X131.4Y-73.4
X131.4Y-74.2
X131.4Y-75.0
X131.4Y-75.8
X131.4Y-76.6
X131.8Y-65.7
X132.0Y-55.6
X132.2Y-69.4
X132.2Y-70.2
X132.2Y-71.0
X132.2Y-71.8
X132.2Y-72.6
X132.2Y-73.4
X132.2Y-74.2
X132.2Y-75.0
X132.2Y-75.8
X132.2Y-76.6
X132.3Y-101.3
X132.4Y-77.9
X133.0Y-69.4
X133.0Y-70.2
X133.0Y-71.0
X133.0Y-71.8
X133.0Y-72.6
X133.0Y-73.4
X133.0Y-74.2
X133.0Y-75.0
X133.0Y-75.8
X133.0Y-76.6
X133.1Y-59.8
X133.4Y-66.4
X133.4Y-68.4
X133.5Y-65.4
X133.6Y-105.0
X133.7Y-67.9
X133.7Y-79.4
X133.8Y-69.4
X133.8Y-70.2
X133.8Y-71.0
X133.8Y-71.8
X133.8Y-72.6
X133.8Y-73.4
X133.8Y-74.2
X133.8Y-75.0
X133.8Y-75.8
X133.8Y-76.6
X133.9Y-58.6
X134.6Y-63.365
X134.6Y-64.635
X134.6Y-66.7
X134.6Y-69.4
X134.6Y-70.2
X134.6Y-71.0
X134.6Y-71.8
X134.6Y-72.6
X134.6Y-73.4
X134.6Y-74.2
X134.6Y-75.0
X134.6Y-75.8
X134.6Y-76.6
X134.6Y-82.635
X134.6Y-83.9
X135.0Y-77.71
X135.2Y-75.0
X135.246Y-49.975
X135.3Y-66.8
X135.5Y-77.2
X135.6Y-57.19
X135.6Y-79.6
X135.6Y-80.7
X135.6Y-82.0
X135.7Y-71.0
X135.8Y-67.4
X136.077Y-95.198
X136.1Y-48.4
X136.4Y-76.9
X136.4Y-79.7
X136.511Y-89.811
X136.691Y-79.119
X137.0Y-76.9
X137.6Y-79.6
X137.603Y-96.467
X137.826Y-59.155
X137.94Y-75.022
X138.0Y-68.9
X138.0Y-81.8
X138.3Y-73.1
X139.8Y-69.4
X139.9Y-79.6
X140.3Y-70.3
X140.481Y-74.407
X140.612Y-73.499
X140.8Y-75.3
X141.461Y-84.861
X142.0Y-71.61
X142.086Y-101.114
X142.2Y-93.3
X142.6Y-71.3
X142.91Y-70.41
X143.3Y-99.4
X143.324Y-78.168
X143.546Y-78.779
X144.3Y-105.4
X144.4Y-71.2
X144.6Y-95.25
X144.7Y-103.1
X144.8Y-83.5
X144.814Y-72.182
X145.31Y-102.11
X145.398Y-71.66
X145.911Y-78.211
X146.0Y-73.5
X146.167Y-86.054
X146.203Y-76.825
X146.228Y-77.766
X146.3Y-74.2
X146.4Y-81.4
X148.1Y-94.5
X148.85Y-73.4
X149.5Y-68.5
X149.5Y-78.1
X149.566Y-77.133
X149.726Y-75.308
X149.9Y-73.7
X150.0Y-72.6
X150.05Y-74.744
X150.054Y-76.331
X150.122Y-97.95
X150.5Y-79.8
X150.87Y-71.72
X151.0Y-78.6
X151.0Y-87.6
X151.15Y-75.984
X151.617Y-70.266
X152.1Y-81.9
X152.2Y-71.3
X152.7Y-83.7
X154.2Y-65.5
X154.4Y-72.2
X154.4Y-87.8
X154.7Y-74.0
X154.8Y-79.0
X155.2Y-87.3
X155.4Y-81.1
X157.4Y-87.5
X157.475Y-74.73
X157.475Y-77.27
X159.1Y-43.0
X159.35Y-88.75
X159.4Y-72.5
X159.4Y-73.5
X159.4Y-90.1
X160.662Y-73.4
X160.7Y-87.4
X160.765Y-60.46
X160.8Y-62.7
X160.9Y-59.4
X160.9Y-84.4
X161.15Y-72.6
X161.15Y-73.4
X161.21Y-59.986
X161.3Y-61.6
X162.3Y-75.6
X162.9Y-65.8
X163.8Y-60.7
X164.638Y-76.96
X164.7Y-73.9
X164.761Y-73.161
X165.2Y-60.19
X165.377Y-59.17
X165.647Y-72.256
X166.279Y-75.89
X166.5Y-92.5
X166.5Y-93.5
X168.037Y-55.0
X169.0Y-93.65
X169.7Y-81.8
X173.5Y-95.2
X174.0Y-59.648
X175.1Y-60.5
X179.1Y-75.7
X179.2Y-78.6
X179.5Y-62.7
X181.5Y-65.4
X182.2Y-64.6
X183.2Y-47.8
X183.2Y-49.5
X183.2Y-58.4
T2
X136.574Y-70.008
T3
X92.1Y-117.1
X93.0Y-120.1
X93.0Y-125.9
X93.8Y-65.4
X93.8Y-77.6
X95.8Y-86.3
X97.2Y-82.7
X98.7Y-72.8
X99.8Y-98.9
X100.0Y-121.1
X100.1Y-125.0
X100.15Y-97.8
X101.0Y-112.1
X101.0Y-117.9
X101.0Y-128.1
X101.0Y-133.9
X101.8Y-79.2
X102.0Y-93.0
X102.0Y-95.0
X102.2Y-105.1
X102.3Y-71.3
X102.4Y-70.2
X102.4Y-72.5
X102.5Y-74.1
X102.7Y-67.975
X104.1Y-97.8
X104.1Y-98.6
X104.2Y-100.0
X104.5Y-60.5
X105.0Y-107.0
X105.3Y-99.5
X105.4Y-105.5
X105.6Y-75.9
X105.723Y-71.9
X105.75Y-74.057
X106.0Y-65.0
X106.4Y-105.8
X106.5Y-73.1
X106.9Y-101.7
X108.0Y-69.6
X108.0Y-70.962
X108.0Y-73.037
X108.1Y-116.8
X108.8Y-105.2
X109.0Y-120.1
X109.0Y-125.9
X109.1Y-96.0
X109.3Y-97.3
X109.4Y-94.1
X109.6Y-92.6
X110.4Y-98.0
X110.7Y-66.3
X110.8Y-83.7
X111.037Y-96.0
X111.1Y-79.8
X111.3Y-70.0
X111.5Y-68.1
X112.1Y-68.9
X112.4Y-101.1
X112.7Y-102.1
X112.7Y-106.5
X114.0Y-106.5
X114.1Y-97.4
X114.7Y-94.8
X116.0Y-94.6
X116.5Y-90.1
X117.3Y-49.6
X118.0Y-105.0
X120.0Y-71.8
X120.3Y-76.8
X121.0Y-105.0
X123.0Y-68.0
X123.3Y-98.2
X124.71Y-68.239
X125.0Y-74.0
X125.0Y-75.9
X125.8Y-54.4
X128.3Y-86.1
X129.0Y-102.962
X129.0Y-105.1
X129.6Y-77.8
X129.963Y-64.0
X130.0Y-82.0
X130.0Y-87.2
X132.0Y-82.0
X132.037Y-64.0
X133.1Y-99.4
X133.7Y-102.85
X135.963Y-105.0
X136.0Y-102.9
X136.8Y-100.9
X137.0Y-71.992
X137.0Y-78.1
X137.4Y-57.0
X138.3Y-91.2
X138.3Y-102.75
X138.6Y-63.0
X138.6Y-98.6
X140.2Y-77.8
X140.4Y-102.7
X140.5Y-87.2
X141.7Y-68.7
X142.7Y-103.6
X143.9Y-107.5
X146.0Y-92.2
X146.0Y-97.9
X146.218Y-71.645
X147.9Y-85.9
X148.2Y-54.5
X149.6Y-87.2
X150.58Y-73.19
X150.8Y-70.5
X150.9Y-67.6
X151.8Y-107.6
X152.0Y-110.3
X152.8Y-57.0
X152.9Y-64.5
X153.0Y-87.4
X153.2Y-70.6
X154.1Y-76.0
X155.1Y-68.5
X155.7Y-73.0
X155.9Y-69.8
X156.027Y-75.635
X156.1Y-86.9
X156.28Y-79.42
X157.2Y-70.0
X157.6Y-67.3
X158.69Y-72.02
X158.9Y-97.0
X159.0Y-67.5
X159.5Y-77.1
X159.6Y-75.6
X159.6Y-86.4
X159.627Y-78.429
X159.998Y-79.293
X160.0Y-66.6
X160.0Y-74.5
X160.382Y-71.822
X160.5Y-82.4
X160.9Y-75.5
X161.8Y-85.9
X161.89Y-84.194
X162.0Y-63.2
X162.385Y-76.62
X162.5Y-81.6
X163.1Y-87.5
X163.401Y-82.499
X163.9Y-62.6
X163.9Y-67.4
X163.95Y-75.1
X164.1Y-85.8
X164.2Y-78.6
X164.2Y-80.8
X164.411Y-82.211
X164.414Y-72.369
X164.5Y-86.7
X164.6Y-68.2
X164.6Y-85.0
X164.7Y-66.5
X165.244Y-79.316
X165.5Y-62.7
X165.888Y-78.487
X165.897Y-79.983
X165.91Y-74.334
X166.05Y-85.937
X167.0Y-69.2
X167.1Y-58.9
X167.2Y-67.4
X167.8Y-75.3
X167.95Y-85.938
X168.321Y-88.017
X168.5Y-65.0
X169.8Y-71.6
X169.9Y-76.8
X170.4Y-59.0
X170.5Y-56.9
X170.7Y-63.8
X171.2Y-99.3
X172.8Y-88.2
X177.0Y-75.2
X177.7Y-72.9
X179.1Y-91.1
X179.4Y-57.4
X180.2Y-94.2
X182.2Y-55.0
T4
X157.175Y-92.355
X157.175Y-93.625
X158.445Y-92.355
X158.445Y-93.625
X159.715Y-92.355
X159.715Y-93.625
X160.985Y-92.355
X160.985Y-93.625
X162.255Y-92.355
X162.255Y-93.625
X163.525Y-92.355
X163.525Y-93.625
X164.795Y-92.355
X164.795Y-93.625
T5
X88.0Y-117.0
X96.0Y-125.0
X100.0Y-54.0
X100.0Y-56.0
X100.0Y-58.0
X100.0Y-60.0
X100.0Y-62.0
X100.0Y-64.0
X100.0Y-66.0
X100.0Y-68.0
X100.0Y-70.0
X100.0Y-72.0
X100.0Y-74.0
X100.0Y-76.0
X100.0Y-78.0
X100.0Y-80.0
X100.0Y-90.0
X101.0Y-109.0
X102.0Y-90.0
X104.0Y-90.0
X104.0Y-116.88
X106.0Y-90.0
X108.0Y-90.0
X110.0Y-56.0
X110.0Y-90.0
X112.0Y-56.0
X112.0Y-90.0
X114.0Y-56.0
X114.0Y-66.0
X114.0Y-68.0
X114.0Y-70.0
X114.0Y-72.0
X114.0Y-74.0
X114.0Y-76.0
X114.0Y-78.0
X114.0Y-90.0
X116.0Y-56.0
X118.0Y-56.0
X120.0Y-56.0
X125.0Y-61.4
X125.0Y-63.4
X125.0Y-65.4
X125.0Y-81.1
X125.0Y-82.7
X137.0Y-62.3
X137.0Y-64.3
X137.0Y-66.3
X137.0Y-80.9
X137.0Y-82.9
X137.0Y-84.9
X146.0Y-105.0
X146.0Y-107.0
X146.0Y-109.0
X146.0Y-111.0
X146.0Y-113.0
X148.0Y-62.0
X148.0Y-64.0
X148.0Y-66.0
X148.0Y-68.0
X148.0Y-70.0
X148.0Y-76.0
X148.0Y-78.0
X148.0Y-80.0
X148.0Y-82.0
X158.0Y-59.0
X160.0Y-59.0
X162.0Y-59.0
X164.0Y-59.0
X164.0Y-97.0
X173.0Y-57.0
X173.0Y-59.0
X173.0Y-60.879
X173.0Y-62.939
X173.0Y-65.0
X173.0Y-67.0
X173.0Y-69.0
X173.0Y-71.0
X173.0Y-73.0
X173.0Y-75.0
X173.0Y-77.0
X173.0Y-79.0
X173.0Y-81.0
X173.0Y-111.0
X181.0Y-111.0
X185.0Y-44.0
X185.0Y-46.0
X185.0Y-48.0
X185.0Y-50.0
X185.0Y-52.0
X185.0Y-54.0
X185.0Y-56.0
X185.0Y-58.0
X185.0Y-60.0
X185.0Y-62.0
X185.0Y-64.0
X185.0Y-66.0
X185.0Y-68.0
X185.0Y-70.0
X185.0Y-72.0
X185.0Y-74.0
X185.0Y-76.0
X185.0Y-78.0
X185.0Y-80.0
T6
X89.2Y-134.7
X90.2Y-58.0
X90.6Y-84.4
X91.4Y-47.4
X103.6Y-129.1
X103.8Y-57.7
X104.0Y-134.5
X104.7Y-81.9
X107.0Y-79.1
X108.2Y-111.0
X109.5Y-77.5
X111.1Y-63.6
X112.2Y-113.3
X113.2Y-83.0
X117.3Y-108.4
X117.4Y-45.1
X117.5Y-65.4
X132.1Y-45.1
X132.3Y-86.5
X141.8Y-51.8
X142.4Y-63.2
X142.7Y-105.9
X143.1Y-84.6
X144.8Y-66.3
X148.6Y-103.3
X150.2Y-39.8
X150.7Y-102.0
X152.2Y-62.2
X155.2Y-96.6
X168.6Y-45.8
X175.6Y-69.4
X175.7Y-79.9
X176.1Y-52.0
X178.2Y-46.0
X178.7Y-70.7
X183.2Y-88.6
T7
X90.0Y-67.915
X90.0Y-70.455
X90.0Y-72.995
X90.0Y-75.535
X90.0Y-78.075
X117.0Y-114.0
X119.54Y-114.0
X122.08Y-114.0
X154.0Y-106.5
X154.0Y-109.0
X154.0Y-111.5
X168.5Y-106.5
X168.5Y-111.5
X173.0Y-104.0
X173.0Y-106.54
T8
X96.0Y-46.3
X96.0Y-48.84
X96.0Y-51.38
X96.0Y-53.92
X96.0Y-56.46
X96.0Y-59.0
X96.0Y-61.54
X96.0Y-64.08
X96.0Y-66.62
X96.0Y-69.16
X96.0Y-71.7
X96.0Y-74.24
X96.0Y-76.78
X96.0Y-79.32
X177.0Y-59.0
X177.0Y-61.54
X177.0Y-64.08
X177.0Y-66.62
T9
X89.9Y-92.55
X89.9Y-102.55
X93.1Y-92.55
X93.1Y-102.55
X97.2Y-92.55
X97.2Y-102.55
X98.05Y-96.85
X98.05Y-106.85
X161.75Y-41.0
X163.0Y-51.0
X167.0Y-51.0
X171.0Y-51.0
X172.25Y-41.0
X175.95Y-93.15
X175.95Y-103.15
X176.8Y-97.45
X176.8Y-107.45
X180.9Y-97.45
X180.9Y-107.45
X184.1Y-97.45
X184.1Y-107.45
T10
X118.5Y-92.525
X118.5Y-97.525
X123.5Y-95.025
X127.5Y-92.525
X127.5Y-97.525
X132.5Y-95.025
X136.5Y-92.525
X136.5Y-97.525
X141.5Y-95.025
T11
X161.5Y-103.4
X161.5Y-114.6
M30
