M48
; DRILL file {KiCad 7.0.10} date Wed 06 Mar 2024 06:56:38 PM PST
; FORMAT={-:-/ absolute / metric / decimal}
; #@! TF.CreationDate,2024-03-06T18:56:38-08:00
; #@! TF.GenerationSoftware,Kicad,Pcbnew,7.0.10
; #@! TF.FileFunction,NonPlated,1,4,NPTH
FMAT,2
METRIC
; #@! TA.AperFunction,NonPlated,NPTH,ComponentDrill
T1C0.850
; #@! TA.AperFunction,NonPlated,NPTH,ComponentDrill
T2C0.900
; #@! TA.AperFunction,NonPlated,NPTH,ComponentDrill
T3C2.200
%
G90
G05
T1
X88.55Y-94.8
X88.55Y-104.8
X95.55Y-94.8
X95.55Y-104.8
X178.45Y-95.2
X178.45Y-105.2
X185.45Y-95.2
X185.45Y-105.2
T2
X110.985Y-40.522
X118.985Y-40.522
T3
X90.0Y-40.0
X91.0Y-111.0
X91.0Y-132.0
X100.9Y-41.0
X100.9Y-85.0
X107.0Y-132.0
X128.0Y-112.0
X177.0Y-41.0
X177.0Y-85.0
X177.0Y-113.0
X184.0Y-40.0
X184.0Y-84.0
M30
