M48
; DRILL file {KiCad 7.0.10} date Wed 06 Mar 2024 07:49:18 PM PST
; FORMAT={-:-/ absolute / metric / decimal}
; #@! TF.CreationDate,2024-03-06T19:49:18-08:00
; #@! TF.GenerationSoftware,Kicad,Pcbnew,7.0.10
; #@! TF.FileFunction,MixedPlating,1,2
FMAT,2
METRIC
; #@! TA.AperFunction,Plated,PTH,ViaDrill
T1C0.400
; #@! TA.AperFunction,Plated,PTH,ComponentDrill
T2C0.650
; #@! TA.AperFunction,Plated,PTH,ComponentDrill
T3C1.000
; #@! TA.AperFunction,Plated,PTH,ComponentDrill
T4C1.850
%
G90
G05
T1
X204.143Y-117.783
X204.183Y-121.897
X204.538Y-103.827
X204.577Y-79.304
X204.585Y-88.35
X204.691Y-119.034
X205.806Y-121.161
X205.838Y-110.46
X206.504Y-73.499
X206.697Y-90.882
X207.289Y-80.218
X207.864Y-105.922
X208.009Y-135.345
X208.28Y-71.12
X208.448Y-68.18
X209.174Y-100.385
X209.394Y-116.938
X209.528Y-98.935
X210.005Y-135.171
X210.119Y-120.627
X210.29Y-90.438
X210.505Y-78.452
X210.676Y-86.096
X210.787Y-87.968
X210.806Y-85.105
X210.82Y-152.4
X210.844Y-126.818
X211.453Y-119.287
X211.766Y-104.219
X211.858Y-120.832
X212.367Y-99.686
X212.778Y-94.967
X213.107Y-134.829
X213.36Y-110.096
X213.432Y-117.538
X213.873Y-101.087
X214.085Y-120.821
X214.085Y-132.546
X214.085Y-134.62
X214.085Y-152.4
X214.098Y-133.607
X214.113Y-126.453
X214.313Y-130.47
X214.53Y-155.105
X214.728Y-90.148
X214.891Y-125.405
X215.404Y-130.633
X215.513Y-89.439
X215.581Y-128.91
X215.885Y-78.977
X215.978Y-127.078
X215.979Y-65.783
X215.99Y-125.406
X216.143Y-97.852
X216.245Y-105.51
X217.063Y-122.432
X217.715Y-145.292
X218.227Y-96.627
X218.246Y-110.848
X218.56Y-123.862
X219.439Y-105.783
X220.513Y-110.632
X221.121Y-100.882
X221.728Y-161.406
X222.036Y-151.579
X222.159Y-99.869
X222.241Y-127.953
X223.163Y-140.523
X223.415Y-160.745
X223.538Y-104.196
X223.541Y-159.295
X224.385Y-127.764
X224.541Y-159.295
X225.394Y-127.356
X225.462Y-114.87
X228.036Y-104.921
T2
X223.72Y-68.72
X223.72Y-73.52
T3
X226.52Y-67.62
X226.52Y-74.62
X228.6Y-121.92
X228.6Y-124.46
X228.6Y-127.0
X228.6Y-132.08
X228.6Y-134.62
X228.6Y-137.16
X228.6Y-154.94
X228.6Y-157.48
X228.6Y-160.02
X228.6Y-162.56
T4
X204.08Y-139.669
X204.08Y-145.119
X204.08Y-150.569
X204.08Y-156.019
X204.08Y-161.469
X209.462Y-139.635
X209.53Y-145.119
X209.53Y-150.569
X209.53Y-156.019
X209.551Y-161.572
M30
