%TF.GenerationSoftware,KiCad,Pcbnew,7.0.10*%
%TF.CreationDate,2024-03-06T19:49:30-08:00*%
%TF.ProjectId,462FinalProject,34363246-696e-4616-9c50-726f6a656374,rev?*%
%TF.SameCoordinates,Original*%
%TF.FileFunction,Legend,Top*%
%TF.FilePolarity,Positive*%
%FSLAX46Y46*%
G04 Gerber Fmt 4.6, Leading zero omitted, Abs format (unit mm)*
G04 Created by KiCad (PCBNEW 7.0.10) date 2024-03-06 19:49:30*
%MOMM*%
%LPD*%
G01*
G04 APERTURE LIST*
%ADD10C,0.150000*%
%ADD11C,0.100000*%
%ADD12C,0.254000*%
%ADD13C,0.120000*%
%ADD14C,0.200000*%
G04 APERTURE END LIST*
D10*
X217162087Y-133902610D02*
X216828754Y-133426419D01*
X216590659Y-133902610D02*
X216590659Y-132902610D01*
X216590659Y-132902610D02*
X216971611Y-132902610D01*
X216971611Y-132902610D02*
X217066849Y-132950229D01*
X217066849Y-132950229D02*
X217114468Y-132997848D01*
X217114468Y-132997848D02*
X217162087Y-133093086D01*
X217162087Y-133093086D02*
X217162087Y-133235943D01*
X217162087Y-133235943D02*
X217114468Y-133331181D01*
X217114468Y-133331181D02*
X217066849Y-133378800D01*
X217066849Y-133378800D02*
X216971611Y-133426419D01*
X216971611Y-133426419D02*
X216590659Y-133426419D01*
X218114468Y-133902610D02*
X217543040Y-133902610D01*
X217828754Y-133902610D02*
X217828754Y-132902610D01*
X217828754Y-132902610D02*
X217733516Y-133045467D01*
X217733516Y-133045467D02*
X217638278Y-133140705D01*
X217638278Y-133140705D02*
X217543040Y-133188324D01*
X218733516Y-132902610D02*
X218828754Y-132902610D01*
X218828754Y-132902610D02*
X218923992Y-132950229D01*
X218923992Y-132950229D02*
X218971611Y-132997848D01*
X218971611Y-132997848D02*
X219019230Y-133093086D01*
X219019230Y-133093086D02*
X219066849Y-133283562D01*
X219066849Y-133283562D02*
X219066849Y-133521657D01*
X219066849Y-133521657D02*
X219019230Y-133712133D01*
X219019230Y-133712133D02*
X218971611Y-133807371D01*
X218971611Y-133807371D02*
X218923992Y-133854991D01*
X218923992Y-133854991D02*
X218828754Y-133902610D01*
X218828754Y-133902610D02*
X218733516Y-133902610D01*
X218733516Y-133902610D02*
X218638278Y-133854991D01*
X218638278Y-133854991D02*
X218590659Y-133807371D01*
X218590659Y-133807371D02*
X218543040Y-133712133D01*
X218543040Y-133712133D02*
X218495421Y-133521657D01*
X218495421Y-133521657D02*
X218495421Y-133283562D01*
X218495421Y-133283562D02*
X218543040Y-133093086D01*
X218543040Y-133093086D02*
X218590659Y-132997848D01*
X218590659Y-132997848D02*
X218638278Y-132950229D01*
X218638278Y-132950229D02*
X218733516Y-132902610D01*
X208989310Y-163826839D02*
X209560738Y-163826839D01*
X209275024Y-164826839D02*
X209275024Y-163826839D01*
X209894072Y-164826839D02*
X209894072Y-163826839D01*
X209894072Y-163826839D02*
X210275024Y-163826839D01*
X210275024Y-163826839D02*
X210370262Y-163874458D01*
X210370262Y-163874458D02*
X210417881Y-163922077D01*
X210417881Y-163922077D02*
X210465500Y-164017315D01*
X210465500Y-164017315D02*
X210465500Y-164160172D01*
X210465500Y-164160172D02*
X210417881Y-164255410D01*
X210417881Y-164255410D02*
X210370262Y-164303029D01*
X210370262Y-164303029D02*
X210275024Y-164350648D01*
X210275024Y-164350648D02*
X209894072Y-164350648D01*
X211322643Y-163826839D02*
X211132167Y-163826839D01*
X211132167Y-163826839D02*
X211036929Y-163874458D01*
X211036929Y-163874458D02*
X210989310Y-163922077D01*
X210989310Y-163922077D02*
X210894072Y-164064934D01*
X210894072Y-164064934D02*
X210846453Y-164255410D01*
X210846453Y-164255410D02*
X210846453Y-164636362D01*
X210846453Y-164636362D02*
X210894072Y-164731600D01*
X210894072Y-164731600D02*
X210941691Y-164779220D01*
X210941691Y-164779220D02*
X211036929Y-164826839D01*
X211036929Y-164826839D02*
X211227405Y-164826839D01*
X211227405Y-164826839D02*
X211322643Y-164779220D01*
X211322643Y-164779220D02*
X211370262Y-164731600D01*
X211370262Y-164731600D02*
X211417881Y-164636362D01*
X211417881Y-164636362D02*
X211417881Y-164398267D01*
X211417881Y-164398267D02*
X211370262Y-164303029D01*
X211370262Y-164303029D02*
X211322643Y-164255410D01*
X211322643Y-164255410D02*
X211227405Y-164207791D01*
X211227405Y-164207791D02*
X211036929Y-164207791D01*
X211036929Y-164207791D02*
X210941691Y-164255410D01*
X210941691Y-164255410D02*
X210894072Y-164303029D01*
X210894072Y-164303029D02*
X210846453Y-164398267D01*
X221418119Y-108234762D02*
X221370500Y-108330000D01*
X221370500Y-108330000D02*
X221275262Y-108425238D01*
X221275262Y-108425238D02*
X221132404Y-108568095D01*
X221132404Y-108568095D02*
X221084785Y-108663333D01*
X221084785Y-108663333D02*
X221084785Y-108758571D01*
X221322881Y-108710952D02*
X221275262Y-108806190D01*
X221275262Y-108806190D02*
X221180023Y-108901428D01*
X221180023Y-108901428D02*
X220989547Y-108949047D01*
X220989547Y-108949047D02*
X220656214Y-108949047D01*
X220656214Y-108949047D02*
X220465738Y-108901428D01*
X220465738Y-108901428D02*
X220370500Y-108806190D01*
X220370500Y-108806190D02*
X220322881Y-108710952D01*
X220322881Y-108710952D02*
X220322881Y-108520476D01*
X220322881Y-108520476D02*
X220370500Y-108425238D01*
X220370500Y-108425238D02*
X220465738Y-108330000D01*
X220465738Y-108330000D02*
X220656214Y-108282381D01*
X220656214Y-108282381D02*
X220989547Y-108282381D01*
X220989547Y-108282381D02*
X221180023Y-108330000D01*
X221180023Y-108330000D02*
X221275262Y-108425238D01*
X221275262Y-108425238D02*
X221322881Y-108520476D01*
X221322881Y-108520476D02*
X221322881Y-108710952D01*
X221322881Y-107806190D02*
X221322881Y-107615714D01*
X221322881Y-107615714D02*
X221275262Y-107520476D01*
X221275262Y-107520476D02*
X221227642Y-107472857D01*
X221227642Y-107472857D02*
X221084785Y-107377619D01*
X221084785Y-107377619D02*
X220894309Y-107330000D01*
X220894309Y-107330000D02*
X220513357Y-107330000D01*
X220513357Y-107330000D02*
X220418119Y-107377619D01*
X220418119Y-107377619D02*
X220370500Y-107425238D01*
X220370500Y-107425238D02*
X220322881Y-107520476D01*
X220322881Y-107520476D02*
X220322881Y-107710952D01*
X220322881Y-107710952D02*
X220370500Y-107806190D01*
X220370500Y-107806190D02*
X220418119Y-107853809D01*
X220418119Y-107853809D02*
X220513357Y-107901428D01*
X220513357Y-107901428D02*
X220751452Y-107901428D01*
X220751452Y-107901428D02*
X220846690Y-107853809D01*
X220846690Y-107853809D02*
X220894309Y-107806190D01*
X220894309Y-107806190D02*
X220941928Y-107710952D01*
X220941928Y-107710952D02*
X220941928Y-107520476D01*
X220941928Y-107520476D02*
X220894309Y-107425238D01*
X220894309Y-107425238D02*
X220846690Y-107377619D01*
X220846690Y-107377619D02*
X220751452Y-107330000D01*
X206766160Y-125878384D02*
X206718541Y-125926004D01*
X206718541Y-125926004D02*
X206575684Y-125973623D01*
X206575684Y-125973623D02*
X206480446Y-125973623D01*
X206480446Y-125973623D02*
X206337589Y-125926004D01*
X206337589Y-125926004D02*
X206242351Y-125830765D01*
X206242351Y-125830765D02*
X206194732Y-125735527D01*
X206194732Y-125735527D02*
X206147113Y-125545051D01*
X206147113Y-125545051D02*
X206147113Y-125402194D01*
X206147113Y-125402194D02*
X206194732Y-125211718D01*
X206194732Y-125211718D02*
X206242351Y-125116480D01*
X206242351Y-125116480D02*
X206337589Y-125021242D01*
X206337589Y-125021242D02*
X206480446Y-124973623D01*
X206480446Y-124973623D02*
X206575684Y-124973623D01*
X206575684Y-124973623D02*
X206718541Y-125021242D01*
X206718541Y-125021242D02*
X206766160Y-125068861D01*
X207623303Y-124973623D02*
X207432827Y-124973623D01*
X207432827Y-124973623D02*
X207337589Y-125021242D01*
X207337589Y-125021242D02*
X207289970Y-125068861D01*
X207289970Y-125068861D02*
X207194732Y-125211718D01*
X207194732Y-125211718D02*
X207147113Y-125402194D01*
X207147113Y-125402194D02*
X207147113Y-125783146D01*
X207147113Y-125783146D02*
X207194732Y-125878384D01*
X207194732Y-125878384D02*
X207242351Y-125926004D01*
X207242351Y-125926004D02*
X207337589Y-125973623D01*
X207337589Y-125973623D02*
X207528065Y-125973623D01*
X207528065Y-125973623D02*
X207623303Y-125926004D01*
X207623303Y-125926004D02*
X207670922Y-125878384D01*
X207670922Y-125878384D02*
X207718541Y-125783146D01*
X207718541Y-125783146D02*
X207718541Y-125545051D01*
X207718541Y-125545051D02*
X207670922Y-125449813D01*
X207670922Y-125449813D02*
X207623303Y-125402194D01*
X207623303Y-125402194D02*
X207528065Y-125354575D01*
X207528065Y-125354575D02*
X207337589Y-125354575D01*
X207337589Y-125354575D02*
X207242351Y-125402194D01*
X207242351Y-125402194D02*
X207194732Y-125449813D01*
X207194732Y-125449813D02*
X207147113Y-125545051D01*
X206802624Y-80071099D02*
X206802624Y-79071099D01*
X206802624Y-79071099D02*
X207040719Y-79071099D01*
X207040719Y-79071099D02*
X207183576Y-79118718D01*
X207183576Y-79118718D02*
X207278814Y-79213956D01*
X207278814Y-79213956D02*
X207326433Y-79309194D01*
X207326433Y-79309194D02*
X207374052Y-79499670D01*
X207374052Y-79499670D02*
X207374052Y-79642527D01*
X207374052Y-79642527D02*
X207326433Y-79833003D01*
X207326433Y-79833003D02*
X207278814Y-79928241D01*
X207278814Y-79928241D02*
X207183576Y-80023480D01*
X207183576Y-80023480D02*
X207040719Y-80071099D01*
X207040719Y-80071099D02*
X206802624Y-80071099D01*
X208278814Y-79071099D02*
X207802624Y-79071099D01*
X207802624Y-79071099D02*
X207755005Y-79547289D01*
X207755005Y-79547289D02*
X207802624Y-79499670D01*
X207802624Y-79499670D02*
X207897862Y-79452051D01*
X207897862Y-79452051D02*
X208135957Y-79452051D01*
X208135957Y-79452051D02*
X208231195Y-79499670D01*
X208231195Y-79499670D02*
X208278814Y-79547289D01*
X208278814Y-79547289D02*
X208326433Y-79642527D01*
X208326433Y-79642527D02*
X208326433Y-79880622D01*
X208326433Y-79880622D02*
X208278814Y-79975860D01*
X208278814Y-79975860D02*
X208231195Y-80023480D01*
X208231195Y-80023480D02*
X208135957Y-80071099D01*
X208135957Y-80071099D02*
X207897862Y-80071099D01*
X207897862Y-80071099D02*
X207802624Y-80023480D01*
X207802624Y-80023480D02*
X207755005Y-79975860D01*
X208968290Y-152823483D02*
X209539718Y-152823483D01*
X209254004Y-153823483D02*
X209254004Y-152823483D01*
X209873052Y-153823483D02*
X209873052Y-152823483D01*
X209873052Y-152823483D02*
X210254004Y-152823483D01*
X210254004Y-152823483D02*
X210349242Y-152871102D01*
X210349242Y-152871102D02*
X210396861Y-152918721D01*
X210396861Y-152918721D02*
X210444480Y-153013959D01*
X210444480Y-153013959D02*
X210444480Y-153156816D01*
X210444480Y-153156816D02*
X210396861Y-153252054D01*
X210396861Y-153252054D02*
X210349242Y-153299673D01*
X210349242Y-153299673D02*
X210254004Y-153347292D01*
X210254004Y-153347292D02*
X209873052Y-153347292D01*
X211015909Y-153252054D02*
X210920671Y-153204435D01*
X210920671Y-153204435D02*
X210873052Y-153156816D01*
X210873052Y-153156816D02*
X210825433Y-153061578D01*
X210825433Y-153061578D02*
X210825433Y-153013959D01*
X210825433Y-153013959D02*
X210873052Y-152918721D01*
X210873052Y-152918721D02*
X210920671Y-152871102D01*
X210920671Y-152871102D02*
X211015909Y-152823483D01*
X211015909Y-152823483D02*
X211206385Y-152823483D01*
X211206385Y-152823483D02*
X211301623Y-152871102D01*
X211301623Y-152871102D02*
X211349242Y-152918721D01*
X211349242Y-152918721D02*
X211396861Y-153013959D01*
X211396861Y-153013959D02*
X211396861Y-153061578D01*
X211396861Y-153061578D02*
X211349242Y-153156816D01*
X211349242Y-153156816D02*
X211301623Y-153204435D01*
X211301623Y-153204435D02*
X211206385Y-153252054D01*
X211206385Y-153252054D02*
X211015909Y-153252054D01*
X211015909Y-153252054D02*
X210920671Y-153299673D01*
X210920671Y-153299673D02*
X210873052Y-153347292D01*
X210873052Y-153347292D02*
X210825433Y-153442530D01*
X210825433Y-153442530D02*
X210825433Y-153633006D01*
X210825433Y-153633006D02*
X210873052Y-153728244D01*
X210873052Y-153728244D02*
X210920671Y-153775864D01*
X210920671Y-153775864D02*
X211015909Y-153823483D01*
X211015909Y-153823483D02*
X211206385Y-153823483D01*
X211206385Y-153823483D02*
X211301623Y-153775864D01*
X211301623Y-153775864D02*
X211349242Y-153728244D01*
X211349242Y-153728244D02*
X211396861Y-153633006D01*
X211396861Y-153633006D02*
X211396861Y-153442530D01*
X211396861Y-153442530D02*
X211349242Y-153347292D01*
X211349242Y-153347292D02*
X211301623Y-153299673D01*
X211301623Y-153299673D02*
X211206385Y-153252054D01*
X203518290Y-152823483D02*
X204089718Y-152823483D01*
X203804004Y-153823483D02*
X203804004Y-152823483D01*
X204423052Y-153823483D02*
X204423052Y-152823483D01*
X204423052Y-152823483D02*
X204804004Y-152823483D01*
X204804004Y-152823483D02*
X204899242Y-152871102D01*
X204899242Y-152871102D02*
X204946861Y-152918721D01*
X204946861Y-152918721D02*
X204994480Y-153013959D01*
X204994480Y-153013959D02*
X204994480Y-153156816D01*
X204994480Y-153156816D02*
X204946861Y-153252054D01*
X204946861Y-153252054D02*
X204899242Y-153299673D01*
X204899242Y-153299673D02*
X204804004Y-153347292D01*
X204804004Y-153347292D02*
X204423052Y-153347292D01*
X205327814Y-152823483D02*
X205946861Y-152823483D01*
X205946861Y-152823483D02*
X205613528Y-153204435D01*
X205613528Y-153204435D02*
X205756385Y-153204435D01*
X205756385Y-153204435D02*
X205851623Y-153252054D01*
X205851623Y-153252054D02*
X205899242Y-153299673D01*
X205899242Y-153299673D02*
X205946861Y-153394911D01*
X205946861Y-153394911D02*
X205946861Y-153633006D01*
X205946861Y-153633006D02*
X205899242Y-153728244D01*
X205899242Y-153728244D02*
X205851623Y-153775864D01*
X205851623Y-153775864D02*
X205756385Y-153823483D01*
X205756385Y-153823483D02*
X205470671Y-153823483D01*
X205470671Y-153823483D02*
X205375433Y-153775864D01*
X205375433Y-153775864D02*
X205327814Y-153728244D01*
D11*
X220107825Y-118267916D02*
X220107825Y-118744106D01*
X220107825Y-118744106D02*
X219107825Y-118744106D01*
X219203063Y-117982201D02*
X219155444Y-117934582D01*
X219155444Y-117934582D02*
X219107825Y-117839344D01*
X219107825Y-117839344D02*
X219107825Y-117601249D01*
X219107825Y-117601249D02*
X219155444Y-117506011D01*
X219155444Y-117506011D02*
X219203063Y-117458392D01*
X219203063Y-117458392D02*
X219298301Y-117410773D01*
X219298301Y-117410773D02*
X219393539Y-117410773D01*
X219393539Y-117410773D02*
X219536396Y-117458392D01*
X219536396Y-117458392D02*
X220107825Y-118029820D01*
X220107825Y-118029820D02*
X220107825Y-117410773D01*
D12*
X206492195Y-108155606D02*
X206431719Y-108276558D01*
X206431719Y-108276558D02*
X206310767Y-108397511D01*
X206310767Y-108397511D02*
X206129338Y-108578939D01*
X206129338Y-108578939D02*
X206068862Y-108699892D01*
X206068862Y-108699892D02*
X206068862Y-108820844D01*
X206371243Y-108760368D02*
X206310767Y-108881320D01*
X206310767Y-108881320D02*
X206189814Y-109002273D01*
X206189814Y-109002273D02*
X205947909Y-109062749D01*
X205947909Y-109062749D02*
X205524576Y-109062749D01*
X205524576Y-109062749D02*
X205282671Y-109002273D01*
X205282671Y-109002273D02*
X205161719Y-108881320D01*
X205161719Y-108881320D02*
X205101243Y-108760368D01*
X205101243Y-108760368D02*
X205101243Y-108518463D01*
X205101243Y-108518463D02*
X205161719Y-108397511D01*
X205161719Y-108397511D02*
X205282671Y-108276558D01*
X205282671Y-108276558D02*
X205524576Y-108216082D01*
X205524576Y-108216082D02*
X205947909Y-108216082D01*
X205947909Y-108216082D02*
X206189814Y-108276558D01*
X206189814Y-108276558D02*
X206310767Y-108397511D01*
X206310767Y-108397511D02*
X206371243Y-108518463D01*
X206371243Y-108518463D02*
X206371243Y-108760368D01*
X205645528Y-107490368D02*
X205585052Y-107611320D01*
X205585052Y-107611320D02*
X205524576Y-107671797D01*
X205524576Y-107671797D02*
X205403624Y-107732273D01*
X205403624Y-107732273D02*
X205343147Y-107732273D01*
X205343147Y-107732273D02*
X205222195Y-107671797D01*
X205222195Y-107671797D02*
X205161719Y-107611320D01*
X205161719Y-107611320D02*
X205101243Y-107490368D01*
X205101243Y-107490368D02*
X205101243Y-107248463D01*
X205101243Y-107248463D02*
X205161719Y-107127511D01*
X205161719Y-107127511D02*
X205222195Y-107067035D01*
X205222195Y-107067035D02*
X205343147Y-107006558D01*
X205343147Y-107006558D02*
X205403624Y-107006558D01*
X205403624Y-107006558D02*
X205524576Y-107067035D01*
X205524576Y-107067035D02*
X205585052Y-107127511D01*
X205585052Y-107127511D02*
X205645528Y-107248463D01*
X205645528Y-107248463D02*
X205645528Y-107490368D01*
X205645528Y-107490368D02*
X205706005Y-107611320D01*
X205706005Y-107611320D02*
X205766481Y-107671797D01*
X205766481Y-107671797D02*
X205887433Y-107732273D01*
X205887433Y-107732273D02*
X206129338Y-107732273D01*
X206129338Y-107732273D02*
X206250290Y-107671797D01*
X206250290Y-107671797D02*
X206310767Y-107611320D01*
X206310767Y-107611320D02*
X206371243Y-107490368D01*
X206371243Y-107490368D02*
X206371243Y-107248463D01*
X206371243Y-107248463D02*
X206310767Y-107127511D01*
X206310767Y-107127511D02*
X206250290Y-107067035D01*
X206250290Y-107067035D02*
X206129338Y-107006558D01*
X206129338Y-107006558D02*
X205887433Y-107006558D01*
X205887433Y-107006558D02*
X205766481Y-107067035D01*
X205766481Y-107067035D02*
X205706005Y-107127511D01*
X205706005Y-107127511D02*
X205645528Y-107248463D01*
D10*
X205000340Y-77112606D02*
X204524149Y-77445939D01*
X205000340Y-77684034D02*
X204000340Y-77684034D01*
X204000340Y-77684034D02*
X204000340Y-77303082D01*
X204000340Y-77303082D02*
X204047959Y-77207844D01*
X204047959Y-77207844D02*
X204095578Y-77160225D01*
X204095578Y-77160225D02*
X204190816Y-77112606D01*
X204190816Y-77112606D02*
X204333673Y-77112606D01*
X204333673Y-77112606D02*
X204428911Y-77160225D01*
X204428911Y-77160225D02*
X204476530Y-77207844D01*
X204476530Y-77207844D02*
X204524149Y-77303082D01*
X204524149Y-77303082D02*
X204524149Y-77684034D01*
X205000340Y-76160225D02*
X205000340Y-76731653D01*
X205000340Y-76445939D02*
X204000340Y-76445939D01*
X204000340Y-76445939D02*
X204143197Y-76541177D01*
X204143197Y-76541177D02*
X204238435Y-76636415D01*
X204238435Y-76636415D02*
X204286054Y-76731653D01*
X204095578Y-75779272D02*
X204047959Y-75731653D01*
X204047959Y-75731653D02*
X204000340Y-75636415D01*
X204000340Y-75636415D02*
X204000340Y-75398320D01*
X204000340Y-75398320D02*
X204047959Y-75303082D01*
X204047959Y-75303082D02*
X204095578Y-75255463D01*
X204095578Y-75255463D02*
X204190816Y-75207844D01*
X204190816Y-75207844D02*
X204286054Y-75207844D01*
X204286054Y-75207844D02*
X204428911Y-75255463D01*
X204428911Y-75255463D02*
X205000340Y-75826891D01*
X205000340Y-75826891D02*
X205000340Y-75207844D01*
X208968290Y-158273483D02*
X209539718Y-158273483D01*
X209254004Y-159273483D02*
X209254004Y-158273483D01*
X209873052Y-159273483D02*
X209873052Y-158273483D01*
X209873052Y-158273483D02*
X210254004Y-158273483D01*
X210254004Y-158273483D02*
X210349242Y-158321102D01*
X210349242Y-158321102D02*
X210396861Y-158368721D01*
X210396861Y-158368721D02*
X210444480Y-158463959D01*
X210444480Y-158463959D02*
X210444480Y-158606816D01*
X210444480Y-158606816D02*
X210396861Y-158702054D01*
X210396861Y-158702054D02*
X210349242Y-158749673D01*
X210349242Y-158749673D02*
X210254004Y-158797292D01*
X210254004Y-158797292D02*
X209873052Y-158797292D01*
X210920671Y-159273483D02*
X211111147Y-159273483D01*
X211111147Y-159273483D02*
X211206385Y-159225864D01*
X211206385Y-159225864D02*
X211254004Y-159178244D01*
X211254004Y-159178244D02*
X211349242Y-159035387D01*
X211349242Y-159035387D02*
X211396861Y-158844911D01*
X211396861Y-158844911D02*
X211396861Y-158463959D01*
X211396861Y-158463959D02*
X211349242Y-158368721D01*
X211349242Y-158368721D02*
X211301623Y-158321102D01*
X211301623Y-158321102D02*
X211206385Y-158273483D01*
X211206385Y-158273483D02*
X211015909Y-158273483D01*
X211015909Y-158273483D02*
X210920671Y-158321102D01*
X210920671Y-158321102D02*
X210873052Y-158368721D01*
X210873052Y-158368721D02*
X210825433Y-158463959D01*
X210825433Y-158463959D02*
X210825433Y-158702054D01*
X210825433Y-158702054D02*
X210873052Y-158797292D01*
X210873052Y-158797292D02*
X210920671Y-158844911D01*
X210920671Y-158844911D02*
X211015909Y-158892530D01*
X211015909Y-158892530D02*
X211206385Y-158892530D01*
X211206385Y-158892530D02*
X211301623Y-158844911D01*
X211301623Y-158844911D02*
X211349242Y-158797292D01*
X211349242Y-158797292D02*
X211396861Y-158702054D01*
X206802624Y-85151099D02*
X206802624Y-84151099D01*
X206802624Y-84151099D02*
X207040719Y-84151099D01*
X207040719Y-84151099D02*
X207183576Y-84198718D01*
X207183576Y-84198718D02*
X207278814Y-84293956D01*
X207278814Y-84293956D02*
X207326433Y-84389194D01*
X207326433Y-84389194D02*
X207374052Y-84579670D01*
X207374052Y-84579670D02*
X207374052Y-84722527D01*
X207374052Y-84722527D02*
X207326433Y-84913003D01*
X207326433Y-84913003D02*
X207278814Y-85008241D01*
X207278814Y-85008241D02*
X207183576Y-85103480D01*
X207183576Y-85103480D02*
X207040719Y-85151099D01*
X207040719Y-85151099D02*
X206802624Y-85151099D01*
X207707386Y-84151099D02*
X208374052Y-84151099D01*
X208374052Y-84151099D02*
X207945481Y-85151099D01*
X206225520Y-65840516D02*
X206177901Y-65888136D01*
X206177901Y-65888136D02*
X206035044Y-65935755D01*
X206035044Y-65935755D02*
X205939806Y-65935755D01*
X205939806Y-65935755D02*
X205796949Y-65888136D01*
X205796949Y-65888136D02*
X205701711Y-65792897D01*
X205701711Y-65792897D02*
X205654092Y-65697659D01*
X205654092Y-65697659D02*
X205606473Y-65507183D01*
X205606473Y-65507183D02*
X205606473Y-65364326D01*
X205606473Y-65364326D02*
X205654092Y-65173850D01*
X205654092Y-65173850D02*
X205701711Y-65078612D01*
X205701711Y-65078612D02*
X205796949Y-64983374D01*
X205796949Y-64983374D02*
X205939806Y-64935755D01*
X205939806Y-64935755D02*
X206035044Y-64935755D01*
X206035044Y-64935755D02*
X206177901Y-64983374D01*
X206177901Y-64983374D02*
X206225520Y-65030993D01*
X207177901Y-65935755D02*
X206606473Y-65935755D01*
X206892187Y-65935755D02*
X206892187Y-64935755D01*
X206892187Y-64935755D02*
X206796949Y-65078612D01*
X206796949Y-65078612D02*
X206701711Y-65173850D01*
X206701711Y-65173850D02*
X206606473Y-65221469D01*
X211750916Y-76332602D02*
X211703297Y-76427840D01*
X211703297Y-76427840D02*
X211608059Y-76523078D01*
X211608059Y-76523078D02*
X211465201Y-76665935D01*
X211465201Y-76665935D02*
X211417582Y-76761173D01*
X211417582Y-76761173D02*
X211417582Y-76856411D01*
X211655678Y-76808792D02*
X211608059Y-76904030D01*
X211608059Y-76904030D02*
X211512820Y-76999268D01*
X211512820Y-76999268D02*
X211322344Y-77046887D01*
X211322344Y-77046887D02*
X210989011Y-77046887D01*
X210989011Y-77046887D02*
X210798535Y-76999268D01*
X210798535Y-76999268D02*
X210703297Y-76904030D01*
X210703297Y-76904030D02*
X210655678Y-76808792D01*
X210655678Y-76808792D02*
X210655678Y-76618316D01*
X210655678Y-76618316D02*
X210703297Y-76523078D01*
X210703297Y-76523078D02*
X210798535Y-76427840D01*
X210798535Y-76427840D02*
X210989011Y-76380221D01*
X210989011Y-76380221D02*
X211322344Y-76380221D01*
X211322344Y-76380221D02*
X211512820Y-76427840D01*
X211512820Y-76427840D02*
X211608059Y-76523078D01*
X211608059Y-76523078D02*
X211655678Y-76618316D01*
X211655678Y-76618316D02*
X211655678Y-76808792D01*
X210655678Y-76046887D02*
X210655678Y-75427840D01*
X210655678Y-75427840D02*
X211036630Y-75761173D01*
X211036630Y-75761173D02*
X211036630Y-75618316D01*
X211036630Y-75618316D02*
X211084249Y-75523078D01*
X211084249Y-75523078D02*
X211131868Y-75475459D01*
X211131868Y-75475459D02*
X211227106Y-75427840D01*
X211227106Y-75427840D02*
X211465201Y-75427840D01*
X211465201Y-75427840D02*
X211560439Y-75475459D01*
X211560439Y-75475459D02*
X211608059Y-75523078D01*
X211608059Y-75523078D02*
X211655678Y-75618316D01*
X211655678Y-75618316D02*
X211655678Y-75904030D01*
X211655678Y-75904030D02*
X211608059Y-75999268D01*
X211608059Y-75999268D02*
X211560439Y-76046887D01*
X206527475Y-116037498D02*
X206194142Y-115561307D01*
X205956047Y-116037498D02*
X205956047Y-115037498D01*
X205956047Y-115037498D02*
X206336999Y-115037498D01*
X206336999Y-115037498D02*
X206432237Y-115085117D01*
X206432237Y-115085117D02*
X206479856Y-115132736D01*
X206479856Y-115132736D02*
X206527475Y-115227974D01*
X206527475Y-115227974D02*
X206527475Y-115370831D01*
X206527475Y-115370831D02*
X206479856Y-115466069D01*
X206479856Y-115466069D02*
X206432237Y-115513688D01*
X206432237Y-115513688D02*
X206336999Y-115561307D01*
X206336999Y-115561307D02*
X205956047Y-115561307D01*
X206956047Y-116037498D02*
X206956047Y-115037498D01*
X206956047Y-115037498D02*
X207527475Y-116037498D01*
X207527475Y-116037498D02*
X207527475Y-115037498D01*
X207956047Y-115132736D02*
X208003666Y-115085117D01*
X208003666Y-115085117D02*
X208098904Y-115037498D01*
X208098904Y-115037498D02*
X208336999Y-115037498D01*
X208336999Y-115037498D02*
X208432237Y-115085117D01*
X208432237Y-115085117D02*
X208479856Y-115132736D01*
X208479856Y-115132736D02*
X208527475Y-115227974D01*
X208527475Y-115227974D02*
X208527475Y-115323212D01*
X208527475Y-115323212D02*
X208479856Y-115466069D01*
X208479856Y-115466069D02*
X207908428Y-116037498D01*
X207908428Y-116037498D02*
X208527475Y-116037498D01*
X226415720Y-137970360D02*
X226415720Y-138779883D01*
X226415720Y-138779883D02*
X226463339Y-138875121D01*
X226463339Y-138875121D02*
X226510958Y-138922741D01*
X226510958Y-138922741D02*
X226606196Y-138970360D01*
X226606196Y-138970360D02*
X226796672Y-138970360D01*
X226796672Y-138970360D02*
X226891910Y-138922741D01*
X226891910Y-138922741D02*
X226939529Y-138875121D01*
X226939529Y-138875121D02*
X226987148Y-138779883D01*
X226987148Y-138779883D02*
X226987148Y-137970360D01*
X227368101Y-137970360D02*
X227987148Y-137970360D01*
X227987148Y-137970360D02*
X227653815Y-138351312D01*
X227653815Y-138351312D02*
X227796672Y-138351312D01*
X227796672Y-138351312D02*
X227891910Y-138398931D01*
X227891910Y-138398931D02*
X227939529Y-138446550D01*
X227939529Y-138446550D02*
X227987148Y-138541788D01*
X227987148Y-138541788D02*
X227987148Y-138779883D01*
X227987148Y-138779883D02*
X227939529Y-138875121D01*
X227939529Y-138875121D02*
X227891910Y-138922741D01*
X227891910Y-138922741D02*
X227796672Y-138970360D01*
X227796672Y-138970360D02*
X227510958Y-138970360D01*
X227510958Y-138970360D02*
X227415720Y-138922741D01*
X227415720Y-138922741D02*
X227368101Y-138875121D01*
D11*
X229107419Y-71453333D02*
X229821704Y-71453333D01*
X229821704Y-71453333D02*
X229964561Y-71500952D01*
X229964561Y-71500952D02*
X230059800Y-71596190D01*
X230059800Y-71596190D02*
X230107419Y-71739047D01*
X230107419Y-71739047D02*
X230107419Y-71834285D01*
X229107419Y-71072380D02*
X229107419Y-70453333D01*
X229107419Y-70453333D02*
X229488371Y-70786666D01*
X229488371Y-70786666D02*
X229488371Y-70643809D01*
X229488371Y-70643809D02*
X229535990Y-70548571D01*
X229535990Y-70548571D02*
X229583609Y-70500952D01*
X229583609Y-70500952D02*
X229678847Y-70453333D01*
X229678847Y-70453333D02*
X229916942Y-70453333D01*
X229916942Y-70453333D02*
X230012180Y-70500952D01*
X230012180Y-70500952D02*
X230059800Y-70548571D01*
X230059800Y-70548571D02*
X230107419Y-70643809D01*
X230107419Y-70643809D02*
X230107419Y-70929523D01*
X230107419Y-70929523D02*
X230059800Y-71024761D01*
X230059800Y-71024761D02*
X230012180Y-71072380D01*
D10*
X203518290Y-141923483D02*
X204089718Y-141923483D01*
X203804004Y-142923483D02*
X203804004Y-141923483D01*
X204423052Y-142923483D02*
X204423052Y-141923483D01*
X204423052Y-141923483D02*
X204804004Y-141923483D01*
X204804004Y-141923483D02*
X204899242Y-141971102D01*
X204899242Y-141971102D02*
X204946861Y-142018721D01*
X204946861Y-142018721D02*
X204994480Y-142113959D01*
X204994480Y-142113959D02*
X204994480Y-142256816D01*
X204994480Y-142256816D02*
X204946861Y-142352054D01*
X204946861Y-142352054D02*
X204899242Y-142399673D01*
X204899242Y-142399673D02*
X204804004Y-142447292D01*
X204804004Y-142447292D02*
X204423052Y-142447292D01*
X205946861Y-142923483D02*
X205375433Y-142923483D01*
X205661147Y-142923483D02*
X205661147Y-141923483D01*
X205661147Y-141923483D02*
X205565909Y-142066340D01*
X205565909Y-142066340D02*
X205470671Y-142161578D01*
X205470671Y-142161578D02*
X205375433Y-142209197D01*
X206802624Y-82611099D02*
X206802624Y-81611099D01*
X206802624Y-81611099D02*
X207040719Y-81611099D01*
X207040719Y-81611099D02*
X207183576Y-81658718D01*
X207183576Y-81658718D02*
X207278814Y-81753956D01*
X207278814Y-81753956D02*
X207326433Y-81849194D01*
X207326433Y-81849194D02*
X207374052Y-82039670D01*
X207374052Y-82039670D02*
X207374052Y-82182527D01*
X207374052Y-82182527D02*
X207326433Y-82373003D01*
X207326433Y-82373003D02*
X207278814Y-82468241D01*
X207278814Y-82468241D02*
X207183576Y-82563480D01*
X207183576Y-82563480D02*
X207040719Y-82611099D01*
X207040719Y-82611099D02*
X206802624Y-82611099D01*
X208231195Y-81611099D02*
X208040719Y-81611099D01*
X208040719Y-81611099D02*
X207945481Y-81658718D01*
X207945481Y-81658718D02*
X207897862Y-81706337D01*
X207897862Y-81706337D02*
X207802624Y-81849194D01*
X207802624Y-81849194D02*
X207755005Y-82039670D01*
X207755005Y-82039670D02*
X207755005Y-82420622D01*
X207755005Y-82420622D02*
X207802624Y-82515860D01*
X207802624Y-82515860D02*
X207850243Y-82563480D01*
X207850243Y-82563480D02*
X207945481Y-82611099D01*
X207945481Y-82611099D02*
X208135957Y-82611099D01*
X208135957Y-82611099D02*
X208231195Y-82563480D01*
X208231195Y-82563480D02*
X208278814Y-82515860D01*
X208278814Y-82515860D02*
X208326433Y-82420622D01*
X208326433Y-82420622D02*
X208326433Y-82182527D01*
X208326433Y-82182527D02*
X208278814Y-82087289D01*
X208278814Y-82087289D02*
X208231195Y-82039670D01*
X208231195Y-82039670D02*
X208135957Y-81992051D01*
X208135957Y-81992051D02*
X207945481Y-81992051D01*
X207945481Y-81992051D02*
X207850243Y-82039670D01*
X207850243Y-82039670D02*
X207802624Y-82087289D01*
X207802624Y-82087289D02*
X207755005Y-82182527D01*
D11*
X218008482Y-118236384D02*
X217532291Y-118569717D01*
X218008482Y-118807812D02*
X217008482Y-118807812D01*
X217008482Y-118807812D02*
X217008482Y-118426860D01*
X217008482Y-118426860D02*
X217056101Y-118331622D01*
X217056101Y-118331622D02*
X217103720Y-118284003D01*
X217103720Y-118284003D02*
X217198958Y-118236384D01*
X217198958Y-118236384D02*
X217341815Y-118236384D01*
X217341815Y-118236384D02*
X217437053Y-118284003D01*
X217437053Y-118284003D02*
X217484672Y-118331622D01*
X217484672Y-118331622D02*
X217532291Y-118426860D01*
X217532291Y-118426860D02*
X217532291Y-118807812D01*
X217008482Y-117331622D02*
X217008482Y-117807812D01*
X217008482Y-117807812D02*
X217484672Y-117855431D01*
X217484672Y-117855431D02*
X217437053Y-117807812D01*
X217437053Y-117807812D02*
X217389434Y-117712574D01*
X217389434Y-117712574D02*
X217389434Y-117474479D01*
X217389434Y-117474479D02*
X217437053Y-117379241D01*
X217437053Y-117379241D02*
X217484672Y-117331622D01*
X217484672Y-117331622D02*
X217579910Y-117284003D01*
X217579910Y-117284003D02*
X217818005Y-117284003D01*
X217818005Y-117284003D02*
X217913243Y-117331622D01*
X217913243Y-117331622D02*
X217960863Y-117379241D01*
X217960863Y-117379241D02*
X218008482Y-117474479D01*
X218008482Y-117474479D02*
X218008482Y-117712574D01*
X218008482Y-117712574D02*
X217960863Y-117807812D01*
X217960863Y-117807812D02*
X217913243Y-117855431D01*
D10*
X206766160Y-123338384D02*
X206718541Y-123386004D01*
X206718541Y-123386004D02*
X206575684Y-123433623D01*
X206575684Y-123433623D02*
X206480446Y-123433623D01*
X206480446Y-123433623D02*
X206337589Y-123386004D01*
X206337589Y-123386004D02*
X206242351Y-123290765D01*
X206242351Y-123290765D02*
X206194732Y-123195527D01*
X206194732Y-123195527D02*
X206147113Y-123005051D01*
X206147113Y-123005051D02*
X206147113Y-122862194D01*
X206147113Y-122862194D02*
X206194732Y-122671718D01*
X206194732Y-122671718D02*
X206242351Y-122576480D01*
X206242351Y-122576480D02*
X206337589Y-122481242D01*
X206337589Y-122481242D02*
X206480446Y-122433623D01*
X206480446Y-122433623D02*
X206575684Y-122433623D01*
X206575684Y-122433623D02*
X206718541Y-122481242D01*
X206718541Y-122481242D02*
X206766160Y-122528861D01*
X207147113Y-122528861D02*
X207194732Y-122481242D01*
X207194732Y-122481242D02*
X207289970Y-122433623D01*
X207289970Y-122433623D02*
X207528065Y-122433623D01*
X207528065Y-122433623D02*
X207623303Y-122481242D01*
X207623303Y-122481242D02*
X207670922Y-122528861D01*
X207670922Y-122528861D02*
X207718541Y-122624099D01*
X207718541Y-122624099D02*
X207718541Y-122719337D01*
X207718541Y-122719337D02*
X207670922Y-122862194D01*
X207670922Y-122862194D02*
X207099494Y-123433623D01*
X207099494Y-123433623D02*
X207718541Y-123433623D01*
X208968290Y-147373483D02*
X209539718Y-147373483D01*
X209254004Y-148373483D02*
X209254004Y-147373483D01*
X209873052Y-148373483D02*
X209873052Y-147373483D01*
X209873052Y-147373483D02*
X210254004Y-147373483D01*
X210254004Y-147373483D02*
X210349242Y-147421102D01*
X210349242Y-147421102D02*
X210396861Y-147468721D01*
X210396861Y-147468721D02*
X210444480Y-147563959D01*
X210444480Y-147563959D02*
X210444480Y-147706816D01*
X210444480Y-147706816D02*
X210396861Y-147802054D01*
X210396861Y-147802054D02*
X210349242Y-147849673D01*
X210349242Y-147849673D02*
X210254004Y-147897292D01*
X210254004Y-147897292D02*
X209873052Y-147897292D01*
X210777814Y-147373483D02*
X211444480Y-147373483D01*
X211444480Y-147373483D02*
X211015909Y-148373483D01*
X225574517Y-108190746D02*
X225526898Y-108285984D01*
X225526898Y-108285984D02*
X225431660Y-108381222D01*
X225431660Y-108381222D02*
X225288802Y-108524079D01*
X225288802Y-108524079D02*
X225241183Y-108619317D01*
X225241183Y-108619317D02*
X225241183Y-108714555D01*
X225479279Y-108666936D02*
X225431660Y-108762174D01*
X225431660Y-108762174D02*
X225336421Y-108857412D01*
X225336421Y-108857412D02*
X225145945Y-108905031D01*
X225145945Y-108905031D02*
X224812612Y-108905031D01*
X224812612Y-108905031D02*
X224622136Y-108857412D01*
X224622136Y-108857412D02*
X224526898Y-108762174D01*
X224526898Y-108762174D02*
X224479279Y-108666936D01*
X224479279Y-108666936D02*
X224479279Y-108476460D01*
X224479279Y-108476460D02*
X224526898Y-108381222D01*
X224526898Y-108381222D02*
X224622136Y-108285984D01*
X224622136Y-108285984D02*
X224812612Y-108238365D01*
X224812612Y-108238365D02*
X225145945Y-108238365D01*
X225145945Y-108238365D02*
X225336421Y-108285984D01*
X225336421Y-108285984D02*
X225431660Y-108381222D01*
X225431660Y-108381222D02*
X225479279Y-108476460D01*
X225479279Y-108476460D02*
X225479279Y-108666936D01*
X224574517Y-107857412D02*
X224526898Y-107809793D01*
X224526898Y-107809793D02*
X224479279Y-107714555D01*
X224479279Y-107714555D02*
X224479279Y-107476460D01*
X224479279Y-107476460D02*
X224526898Y-107381222D01*
X224526898Y-107381222D02*
X224574517Y-107333603D01*
X224574517Y-107333603D02*
X224669755Y-107285984D01*
X224669755Y-107285984D02*
X224764993Y-107285984D01*
X224764993Y-107285984D02*
X224907850Y-107333603D01*
X224907850Y-107333603D02*
X225479279Y-107905031D01*
X225479279Y-107905031D02*
X225479279Y-107285984D01*
D12*
X217460208Y-76334951D02*
X217399732Y-76455903D01*
X217399732Y-76455903D02*
X217278780Y-76576856D01*
X217278780Y-76576856D02*
X217097351Y-76758284D01*
X217097351Y-76758284D02*
X217036875Y-76879237D01*
X217036875Y-76879237D02*
X217036875Y-77000189D01*
X217339256Y-76939713D02*
X217278780Y-77060665D01*
X217278780Y-77060665D02*
X217157827Y-77181618D01*
X217157827Y-77181618D02*
X216915922Y-77242094D01*
X216915922Y-77242094D02*
X216492589Y-77242094D01*
X216492589Y-77242094D02*
X216250684Y-77181618D01*
X216250684Y-77181618D02*
X216129732Y-77060665D01*
X216129732Y-77060665D02*
X216069256Y-76939713D01*
X216069256Y-76939713D02*
X216069256Y-76697808D01*
X216069256Y-76697808D02*
X216129732Y-76576856D01*
X216129732Y-76576856D02*
X216250684Y-76455903D01*
X216250684Y-76455903D02*
X216492589Y-76395427D01*
X216492589Y-76395427D02*
X216915922Y-76395427D01*
X216915922Y-76395427D02*
X217157827Y-76455903D01*
X217157827Y-76455903D02*
X217278780Y-76576856D01*
X217278780Y-76576856D02*
X217339256Y-76697808D01*
X217339256Y-76697808D02*
X217339256Y-76939713D01*
X216069256Y-75972094D02*
X216069256Y-75125427D01*
X216069256Y-75125427D02*
X217339256Y-75669713D01*
X223933350Y-87678728D02*
X223933350Y-88283490D01*
X223933350Y-88283490D02*
X222663350Y-88283490D01*
X223933350Y-86590156D02*
X223933350Y-87315871D01*
X223933350Y-86953014D02*
X222663350Y-86953014D01*
X222663350Y-86953014D02*
X222844778Y-87073966D01*
X222844778Y-87073966D02*
X222965731Y-87194918D01*
X222965731Y-87194918D02*
X223026207Y-87315871D01*
D10*
X228266666Y-119044819D02*
X228266666Y-119759104D01*
X228266666Y-119759104D02*
X228219047Y-119901961D01*
X228219047Y-119901961D02*
X228123809Y-119997200D01*
X228123809Y-119997200D02*
X227980952Y-120044819D01*
X227980952Y-120044819D02*
X227885714Y-120044819D01*
X229171428Y-119378152D02*
X229171428Y-120044819D01*
X228933333Y-118997200D02*
X228695238Y-119711485D01*
X228695238Y-119711485D02*
X229314285Y-119711485D01*
X208424326Y-141889865D02*
X208995754Y-141889865D01*
X208710040Y-142889865D02*
X208710040Y-141889865D01*
X209329088Y-142889865D02*
X209329088Y-141889865D01*
X209329088Y-141889865D02*
X209710040Y-141889865D01*
X209710040Y-141889865D02*
X209805278Y-141937484D01*
X209805278Y-141937484D02*
X209852897Y-141985103D01*
X209852897Y-141985103D02*
X209900516Y-142080341D01*
X209900516Y-142080341D02*
X209900516Y-142223198D01*
X209900516Y-142223198D02*
X209852897Y-142318436D01*
X209852897Y-142318436D02*
X209805278Y-142366055D01*
X209805278Y-142366055D02*
X209710040Y-142413674D01*
X209710040Y-142413674D02*
X209329088Y-142413674D01*
X210852897Y-142889865D02*
X210281469Y-142889865D01*
X210567183Y-142889865D02*
X210567183Y-141889865D01*
X210567183Y-141889865D02*
X210471945Y-142032722D01*
X210471945Y-142032722D02*
X210376707Y-142127960D01*
X210376707Y-142127960D02*
X210281469Y-142175579D01*
X211471945Y-141889865D02*
X211567183Y-141889865D01*
X211567183Y-141889865D02*
X211662421Y-141937484D01*
X211662421Y-141937484D02*
X211710040Y-141985103D01*
X211710040Y-141985103D02*
X211757659Y-142080341D01*
X211757659Y-142080341D02*
X211805278Y-142270817D01*
X211805278Y-142270817D02*
X211805278Y-142508912D01*
X211805278Y-142508912D02*
X211757659Y-142699388D01*
X211757659Y-142699388D02*
X211710040Y-142794626D01*
X211710040Y-142794626D02*
X211662421Y-142842246D01*
X211662421Y-142842246D02*
X211567183Y-142889865D01*
X211567183Y-142889865D02*
X211471945Y-142889865D01*
X211471945Y-142889865D02*
X211376707Y-142842246D01*
X211376707Y-142842246D02*
X211329088Y-142794626D01*
X211329088Y-142794626D02*
X211281469Y-142699388D01*
X211281469Y-142699388D02*
X211233850Y-142508912D01*
X211233850Y-142508912D02*
X211233850Y-142270817D01*
X211233850Y-142270817D02*
X211281469Y-142080341D01*
X211281469Y-142080341D02*
X211329088Y-141985103D01*
X211329088Y-141985103D02*
X211376707Y-141937484D01*
X211376707Y-141937484D02*
X211471945Y-141889865D01*
X228266666Y-129204819D02*
X228266666Y-129919104D01*
X228266666Y-129919104D02*
X228219047Y-130061961D01*
X228219047Y-130061961D02*
X228123809Y-130157200D01*
X228123809Y-130157200D02*
X227980952Y-130204819D01*
X227980952Y-130204819D02*
X227885714Y-130204819D01*
X228695238Y-129300057D02*
X228742857Y-129252438D01*
X228742857Y-129252438D02*
X228838095Y-129204819D01*
X228838095Y-129204819D02*
X229076190Y-129204819D01*
X229076190Y-129204819D02*
X229171428Y-129252438D01*
X229171428Y-129252438D02*
X229219047Y-129300057D01*
X229219047Y-129300057D02*
X229266666Y-129395295D01*
X229266666Y-129395295D02*
X229266666Y-129490533D01*
X229266666Y-129490533D02*
X229219047Y-129633390D01*
X229219047Y-129633390D02*
X228647619Y-130204819D01*
X228647619Y-130204819D02*
X229266666Y-130204819D01*
D12*
X216561041Y-127205560D02*
X216561041Y-125935560D01*
X217891518Y-127084607D02*
X217831042Y-127145084D01*
X217831042Y-127145084D02*
X217649613Y-127205560D01*
X217649613Y-127205560D02*
X217528661Y-127205560D01*
X217528661Y-127205560D02*
X217347232Y-127145084D01*
X217347232Y-127145084D02*
X217226280Y-127024131D01*
X217226280Y-127024131D02*
X217165803Y-126903179D01*
X217165803Y-126903179D02*
X217105327Y-126661274D01*
X217105327Y-126661274D02*
X217105327Y-126479845D01*
X217105327Y-126479845D02*
X217165803Y-126237941D01*
X217165803Y-126237941D02*
X217226280Y-126116988D01*
X217226280Y-126116988D02*
X217347232Y-125996036D01*
X217347232Y-125996036D02*
X217528661Y-125935560D01*
X217528661Y-125935560D02*
X217649613Y-125935560D01*
X217649613Y-125935560D02*
X217831042Y-125996036D01*
X217831042Y-125996036D02*
X217891518Y-126056512D01*
X219101042Y-127205560D02*
X218375327Y-127205560D01*
X218738184Y-127205560D02*
X218738184Y-125935560D01*
X218738184Y-125935560D02*
X218617232Y-126116988D01*
X218617232Y-126116988D02*
X218496280Y-126237941D01*
X218496280Y-126237941D02*
X218375327Y-126298417D01*
D10*
X203518290Y-163723483D02*
X204089718Y-163723483D01*
X203804004Y-164723483D02*
X203804004Y-163723483D01*
X204423052Y-164723483D02*
X204423052Y-163723483D01*
X204423052Y-163723483D02*
X204804004Y-163723483D01*
X204804004Y-163723483D02*
X204899242Y-163771102D01*
X204899242Y-163771102D02*
X204946861Y-163818721D01*
X204946861Y-163818721D02*
X204994480Y-163913959D01*
X204994480Y-163913959D02*
X204994480Y-164056816D01*
X204994480Y-164056816D02*
X204946861Y-164152054D01*
X204946861Y-164152054D02*
X204899242Y-164199673D01*
X204899242Y-164199673D02*
X204804004Y-164247292D01*
X204804004Y-164247292D02*
X204423052Y-164247292D01*
X205899242Y-163723483D02*
X205423052Y-163723483D01*
X205423052Y-163723483D02*
X205375433Y-164199673D01*
X205375433Y-164199673D02*
X205423052Y-164152054D01*
X205423052Y-164152054D02*
X205518290Y-164104435D01*
X205518290Y-164104435D02*
X205756385Y-164104435D01*
X205756385Y-164104435D02*
X205851623Y-164152054D01*
X205851623Y-164152054D02*
X205899242Y-164199673D01*
X205899242Y-164199673D02*
X205946861Y-164294911D01*
X205946861Y-164294911D02*
X205946861Y-164533006D01*
X205946861Y-164533006D02*
X205899242Y-164628244D01*
X205899242Y-164628244D02*
X205851623Y-164675864D01*
X205851623Y-164675864D02*
X205756385Y-164723483D01*
X205756385Y-164723483D02*
X205518290Y-164723483D01*
X205518290Y-164723483D02*
X205423052Y-164675864D01*
X205423052Y-164675864D02*
X205375433Y-164628244D01*
X228266666Y-152064819D02*
X228266666Y-152779104D01*
X228266666Y-152779104D02*
X228219047Y-152921961D01*
X228219047Y-152921961D02*
X228123809Y-153017200D01*
X228123809Y-153017200D02*
X227980952Y-153064819D01*
X227980952Y-153064819D02*
X227885714Y-153064819D01*
X229219047Y-152064819D02*
X228742857Y-152064819D01*
X228742857Y-152064819D02*
X228695238Y-152541009D01*
X228695238Y-152541009D02*
X228742857Y-152493390D01*
X228742857Y-152493390D02*
X228838095Y-152445771D01*
X228838095Y-152445771D02*
X229076190Y-152445771D01*
X229076190Y-152445771D02*
X229171428Y-152493390D01*
X229171428Y-152493390D02*
X229219047Y-152541009D01*
X229219047Y-152541009D02*
X229266666Y-152636247D01*
X229266666Y-152636247D02*
X229266666Y-152874342D01*
X229266666Y-152874342D02*
X229219047Y-152969580D01*
X229219047Y-152969580D02*
X229171428Y-153017200D01*
X229171428Y-153017200D02*
X229076190Y-153064819D01*
X229076190Y-153064819D02*
X228838095Y-153064819D01*
X228838095Y-153064819D02*
X228742857Y-153017200D01*
X228742857Y-153017200D02*
X228695238Y-152969580D01*
X203518290Y-158273483D02*
X204089718Y-158273483D01*
X203804004Y-159273483D02*
X203804004Y-158273483D01*
X204423052Y-159273483D02*
X204423052Y-158273483D01*
X204423052Y-158273483D02*
X204804004Y-158273483D01*
X204804004Y-158273483D02*
X204899242Y-158321102D01*
X204899242Y-158321102D02*
X204946861Y-158368721D01*
X204946861Y-158368721D02*
X204994480Y-158463959D01*
X204994480Y-158463959D02*
X204994480Y-158606816D01*
X204994480Y-158606816D02*
X204946861Y-158702054D01*
X204946861Y-158702054D02*
X204899242Y-158749673D01*
X204899242Y-158749673D02*
X204804004Y-158797292D01*
X204804004Y-158797292D02*
X204423052Y-158797292D01*
X205851623Y-158606816D02*
X205851623Y-159273483D01*
X205613528Y-158225864D02*
X205375433Y-158940149D01*
X205375433Y-158940149D02*
X205994480Y-158940149D01*
X212874517Y-108190746D02*
X212826898Y-108285984D01*
X212826898Y-108285984D02*
X212731660Y-108381222D01*
X212731660Y-108381222D02*
X212588802Y-108524079D01*
X212588802Y-108524079D02*
X212541183Y-108619317D01*
X212541183Y-108619317D02*
X212541183Y-108714555D01*
X212779279Y-108666936D02*
X212731660Y-108762174D01*
X212731660Y-108762174D02*
X212636421Y-108857412D01*
X212636421Y-108857412D02*
X212445945Y-108905031D01*
X212445945Y-108905031D02*
X212112612Y-108905031D01*
X212112612Y-108905031D02*
X211922136Y-108857412D01*
X211922136Y-108857412D02*
X211826898Y-108762174D01*
X211826898Y-108762174D02*
X211779279Y-108666936D01*
X211779279Y-108666936D02*
X211779279Y-108476460D01*
X211779279Y-108476460D02*
X211826898Y-108381222D01*
X211826898Y-108381222D02*
X211922136Y-108285984D01*
X211922136Y-108285984D02*
X212112612Y-108238365D01*
X212112612Y-108238365D02*
X212445945Y-108238365D01*
X212445945Y-108238365D02*
X212636421Y-108285984D01*
X212636421Y-108285984D02*
X212731660Y-108381222D01*
X212731660Y-108381222D02*
X212779279Y-108476460D01*
X212779279Y-108476460D02*
X212779279Y-108666936D01*
X212112612Y-107381222D02*
X212779279Y-107381222D01*
X211731660Y-107619317D02*
X212445945Y-107857412D01*
X212445945Y-107857412D02*
X212445945Y-107238365D01*
X230024517Y-108190746D02*
X229976898Y-108285984D01*
X229976898Y-108285984D02*
X229881660Y-108381222D01*
X229881660Y-108381222D02*
X229738802Y-108524079D01*
X229738802Y-108524079D02*
X229691183Y-108619317D01*
X229691183Y-108619317D02*
X229691183Y-108714555D01*
X229929279Y-108666936D02*
X229881660Y-108762174D01*
X229881660Y-108762174D02*
X229786421Y-108857412D01*
X229786421Y-108857412D02*
X229595945Y-108905031D01*
X229595945Y-108905031D02*
X229262612Y-108905031D01*
X229262612Y-108905031D02*
X229072136Y-108857412D01*
X229072136Y-108857412D02*
X228976898Y-108762174D01*
X228976898Y-108762174D02*
X228929279Y-108666936D01*
X228929279Y-108666936D02*
X228929279Y-108476460D01*
X228929279Y-108476460D02*
X228976898Y-108381222D01*
X228976898Y-108381222D02*
X229072136Y-108285984D01*
X229072136Y-108285984D02*
X229262612Y-108238365D01*
X229262612Y-108238365D02*
X229595945Y-108238365D01*
X229595945Y-108238365D02*
X229786421Y-108285984D01*
X229786421Y-108285984D02*
X229881660Y-108381222D01*
X229881660Y-108381222D02*
X229929279Y-108476460D01*
X229929279Y-108476460D02*
X229929279Y-108666936D01*
X229929279Y-107285984D02*
X229929279Y-107857412D01*
X229929279Y-107571698D02*
X228929279Y-107571698D01*
X228929279Y-107571698D02*
X229072136Y-107666936D01*
X229072136Y-107666936D02*
X229167374Y-107762174D01*
X229167374Y-107762174D02*
X229214993Y-107857412D01*
X203518290Y-147373483D02*
X204089718Y-147373483D01*
X203804004Y-148373483D02*
X203804004Y-147373483D01*
X204423052Y-148373483D02*
X204423052Y-147373483D01*
X204423052Y-147373483D02*
X204804004Y-147373483D01*
X204804004Y-147373483D02*
X204899242Y-147421102D01*
X204899242Y-147421102D02*
X204946861Y-147468721D01*
X204946861Y-147468721D02*
X204994480Y-147563959D01*
X204994480Y-147563959D02*
X204994480Y-147706816D01*
X204994480Y-147706816D02*
X204946861Y-147802054D01*
X204946861Y-147802054D02*
X204899242Y-147849673D01*
X204899242Y-147849673D02*
X204804004Y-147897292D01*
X204804004Y-147897292D02*
X204423052Y-147897292D01*
X205375433Y-147468721D02*
X205423052Y-147421102D01*
X205423052Y-147421102D02*
X205518290Y-147373483D01*
X205518290Y-147373483D02*
X205756385Y-147373483D01*
X205756385Y-147373483D02*
X205851623Y-147421102D01*
X205851623Y-147421102D02*
X205899242Y-147468721D01*
X205899242Y-147468721D02*
X205946861Y-147563959D01*
X205946861Y-147563959D02*
X205946861Y-147659197D01*
X205946861Y-147659197D02*
X205899242Y-147802054D01*
X205899242Y-147802054D02*
X205327814Y-148373483D01*
X205327814Y-148373483D02*
X205946861Y-148373483D01*
X211421584Y-98174303D02*
X210945393Y-98507636D01*
X211421584Y-98745731D02*
X210421584Y-98745731D01*
X210421584Y-98745731D02*
X210421584Y-98364779D01*
X210421584Y-98364779D02*
X210469203Y-98269541D01*
X210469203Y-98269541D02*
X210516822Y-98221922D01*
X210516822Y-98221922D02*
X210612060Y-98174303D01*
X210612060Y-98174303D02*
X210754917Y-98174303D01*
X210754917Y-98174303D02*
X210850155Y-98221922D01*
X210850155Y-98221922D02*
X210897774Y-98269541D01*
X210897774Y-98269541D02*
X210945393Y-98364779D01*
X210945393Y-98364779D02*
X210945393Y-98745731D01*
X211421584Y-97745731D02*
X210421584Y-97745731D01*
X210421584Y-97745731D02*
X211421584Y-97174303D01*
X211421584Y-97174303D02*
X210421584Y-97174303D01*
X211421584Y-96174303D02*
X211421584Y-96745731D01*
X211421584Y-96460017D02*
X210421584Y-96460017D01*
X210421584Y-96460017D02*
X210564441Y-96555255D01*
X210564441Y-96555255D02*
X210659679Y-96650493D01*
X210659679Y-96650493D02*
X210707298Y-96745731D01*
X206225520Y-68380516D02*
X206177901Y-68428136D01*
X206177901Y-68428136D02*
X206035044Y-68475755D01*
X206035044Y-68475755D02*
X205939806Y-68475755D01*
X205939806Y-68475755D02*
X205796949Y-68428136D01*
X205796949Y-68428136D02*
X205701711Y-68332897D01*
X205701711Y-68332897D02*
X205654092Y-68237659D01*
X205654092Y-68237659D02*
X205606473Y-68047183D01*
X205606473Y-68047183D02*
X205606473Y-67904326D01*
X205606473Y-67904326D02*
X205654092Y-67713850D01*
X205654092Y-67713850D02*
X205701711Y-67618612D01*
X205701711Y-67618612D02*
X205796949Y-67523374D01*
X205796949Y-67523374D02*
X205939806Y-67475755D01*
X205939806Y-67475755D02*
X206035044Y-67475755D01*
X206035044Y-67475755D02*
X206177901Y-67523374D01*
X206177901Y-67523374D02*
X206225520Y-67570993D01*
X206558854Y-67475755D02*
X207177901Y-67475755D01*
X207177901Y-67475755D02*
X206844568Y-67856707D01*
X206844568Y-67856707D02*
X206987425Y-67856707D01*
X206987425Y-67856707D02*
X207082663Y-67904326D01*
X207082663Y-67904326D02*
X207130282Y-67951945D01*
X207130282Y-67951945D02*
X207177901Y-68047183D01*
X207177901Y-68047183D02*
X207177901Y-68285278D01*
X207177901Y-68285278D02*
X207130282Y-68380516D01*
X207130282Y-68380516D02*
X207082663Y-68428136D01*
X207082663Y-68428136D02*
X206987425Y-68475755D01*
X206987425Y-68475755D02*
X206701711Y-68475755D01*
X206701711Y-68475755D02*
X206606473Y-68428136D01*
X206606473Y-68428136D02*
X206558854Y-68380516D01*
X206766160Y-130958384D02*
X206718541Y-131006004D01*
X206718541Y-131006004D02*
X206575684Y-131053623D01*
X206575684Y-131053623D02*
X206480446Y-131053623D01*
X206480446Y-131053623D02*
X206337589Y-131006004D01*
X206337589Y-131006004D02*
X206242351Y-130910765D01*
X206242351Y-130910765D02*
X206194732Y-130815527D01*
X206194732Y-130815527D02*
X206147113Y-130625051D01*
X206147113Y-130625051D02*
X206147113Y-130482194D01*
X206147113Y-130482194D02*
X206194732Y-130291718D01*
X206194732Y-130291718D02*
X206242351Y-130196480D01*
X206242351Y-130196480D02*
X206337589Y-130101242D01*
X206337589Y-130101242D02*
X206480446Y-130053623D01*
X206480446Y-130053623D02*
X206575684Y-130053623D01*
X206575684Y-130053623D02*
X206718541Y-130101242D01*
X206718541Y-130101242D02*
X206766160Y-130148861D01*
X207670922Y-130053623D02*
X207194732Y-130053623D01*
X207194732Y-130053623D02*
X207147113Y-130529813D01*
X207147113Y-130529813D02*
X207194732Y-130482194D01*
X207194732Y-130482194D02*
X207289970Y-130434575D01*
X207289970Y-130434575D02*
X207528065Y-130434575D01*
X207528065Y-130434575D02*
X207623303Y-130482194D01*
X207623303Y-130482194D02*
X207670922Y-130529813D01*
X207670922Y-130529813D02*
X207718541Y-130625051D01*
X207718541Y-130625051D02*
X207718541Y-130863146D01*
X207718541Y-130863146D02*
X207670922Y-130958384D01*
X207670922Y-130958384D02*
X207623303Y-131006004D01*
X207623303Y-131006004D02*
X207528065Y-131053623D01*
X207528065Y-131053623D02*
X207289970Y-131053623D01*
X207289970Y-131053623D02*
X207194732Y-131006004D01*
X207194732Y-131006004D02*
X207147113Y-130958384D01*
D12*
X214930593Y-108240952D02*
X214870117Y-108361904D01*
X214870117Y-108361904D02*
X214749165Y-108482857D01*
X214749165Y-108482857D02*
X214567736Y-108664285D01*
X214567736Y-108664285D02*
X214507260Y-108785238D01*
X214507260Y-108785238D02*
X214507260Y-108906190D01*
X214809641Y-108845714D02*
X214749165Y-108966666D01*
X214749165Y-108966666D02*
X214628212Y-109087619D01*
X214628212Y-109087619D02*
X214386307Y-109148095D01*
X214386307Y-109148095D02*
X213962974Y-109148095D01*
X213962974Y-109148095D02*
X213721069Y-109087619D01*
X213721069Y-109087619D02*
X213600117Y-108966666D01*
X213600117Y-108966666D02*
X213539641Y-108845714D01*
X213539641Y-108845714D02*
X213539641Y-108603809D01*
X213539641Y-108603809D02*
X213600117Y-108482857D01*
X213600117Y-108482857D02*
X213721069Y-108361904D01*
X213721069Y-108361904D02*
X213962974Y-108301428D01*
X213962974Y-108301428D02*
X214386307Y-108301428D01*
X214386307Y-108301428D02*
X214628212Y-108361904D01*
X214628212Y-108361904D02*
X214749165Y-108482857D01*
X214749165Y-108482857D02*
X214809641Y-108603809D01*
X214809641Y-108603809D02*
X214809641Y-108845714D01*
X213539641Y-107212857D02*
X213539641Y-107454762D01*
X213539641Y-107454762D02*
X213600117Y-107575714D01*
X213600117Y-107575714D02*
X213660593Y-107636190D01*
X213660593Y-107636190D02*
X213842022Y-107757143D01*
X213842022Y-107757143D02*
X214083926Y-107817619D01*
X214083926Y-107817619D02*
X214567736Y-107817619D01*
X214567736Y-107817619D02*
X214688688Y-107757143D01*
X214688688Y-107757143D02*
X214749165Y-107696666D01*
X214749165Y-107696666D02*
X214809641Y-107575714D01*
X214809641Y-107575714D02*
X214809641Y-107333809D01*
X214809641Y-107333809D02*
X214749165Y-107212857D01*
X214749165Y-107212857D02*
X214688688Y-107152381D01*
X214688688Y-107152381D02*
X214567736Y-107091904D01*
X214567736Y-107091904D02*
X214265355Y-107091904D01*
X214265355Y-107091904D02*
X214144403Y-107152381D01*
X214144403Y-107152381D02*
X214083926Y-107212857D01*
X214083926Y-107212857D02*
X214023450Y-107333809D01*
X214023450Y-107333809D02*
X214023450Y-107575714D01*
X214023450Y-107575714D02*
X214083926Y-107696666D01*
X214083926Y-107696666D02*
X214144403Y-107757143D01*
X214144403Y-107757143D02*
X214265355Y-107817619D01*
D10*
X217638278Y-130952610D02*
X217304945Y-130476419D01*
X217066850Y-130952610D02*
X217066850Y-129952610D01*
X217066850Y-129952610D02*
X217447802Y-129952610D01*
X217447802Y-129952610D02*
X217543040Y-130000229D01*
X217543040Y-130000229D02*
X217590659Y-130047848D01*
X217590659Y-130047848D02*
X217638278Y-130143086D01*
X217638278Y-130143086D02*
X217638278Y-130285943D01*
X217638278Y-130285943D02*
X217590659Y-130381181D01*
X217590659Y-130381181D02*
X217543040Y-130428800D01*
X217543040Y-130428800D02*
X217447802Y-130476419D01*
X217447802Y-130476419D02*
X217066850Y-130476419D01*
X218114469Y-130952610D02*
X218304945Y-130952610D01*
X218304945Y-130952610D02*
X218400183Y-130904991D01*
X218400183Y-130904991D02*
X218447802Y-130857371D01*
X218447802Y-130857371D02*
X218543040Y-130714514D01*
X218543040Y-130714514D02*
X218590659Y-130524038D01*
X218590659Y-130524038D02*
X218590659Y-130143086D01*
X218590659Y-130143086D02*
X218543040Y-130047848D01*
X218543040Y-130047848D02*
X218495421Y-130000229D01*
X218495421Y-130000229D02*
X218400183Y-129952610D01*
X218400183Y-129952610D02*
X218209707Y-129952610D01*
X218209707Y-129952610D02*
X218114469Y-130000229D01*
X218114469Y-130000229D02*
X218066850Y-130047848D01*
X218066850Y-130047848D02*
X218019231Y-130143086D01*
X218019231Y-130143086D02*
X218019231Y-130381181D01*
X218019231Y-130381181D02*
X218066850Y-130476419D01*
X218066850Y-130476419D02*
X218114469Y-130524038D01*
X218114469Y-130524038D02*
X218209707Y-130571657D01*
X218209707Y-130571657D02*
X218400183Y-130571657D01*
X218400183Y-130571657D02*
X218495421Y-130524038D01*
X218495421Y-130524038D02*
X218543040Y-130476419D01*
X218543040Y-130476419D02*
X218590659Y-130381181D01*
X214556658Y-69709443D02*
X214556658Y-70518966D01*
X214556658Y-70518966D02*
X214604277Y-70614204D01*
X214604277Y-70614204D02*
X214651896Y-70661824D01*
X214651896Y-70661824D02*
X214747134Y-70709443D01*
X214747134Y-70709443D02*
X214937610Y-70709443D01*
X214937610Y-70709443D02*
X215032848Y-70661824D01*
X215032848Y-70661824D02*
X215080467Y-70614204D01*
X215080467Y-70614204D02*
X215128086Y-70518966D01*
X215128086Y-70518966D02*
X215128086Y-69709443D01*
X216128086Y-70709443D02*
X215556658Y-70709443D01*
X215842372Y-70709443D02*
X215842372Y-69709443D01*
X215842372Y-69709443D02*
X215747134Y-69852300D01*
X215747134Y-69852300D02*
X215651896Y-69947538D01*
X215651896Y-69947538D02*
X215556658Y-69995157D01*
X218415610Y-151457014D02*
X218415610Y-152266537D01*
X218415610Y-152266537D02*
X218463229Y-152361775D01*
X218463229Y-152361775D02*
X218510848Y-152409395D01*
X218510848Y-152409395D02*
X218606086Y-152457014D01*
X218606086Y-152457014D02*
X218796562Y-152457014D01*
X218796562Y-152457014D02*
X218891800Y-152409395D01*
X218891800Y-152409395D02*
X218939419Y-152361775D01*
X218939419Y-152361775D02*
X218987038Y-152266537D01*
X218987038Y-152266537D02*
X218987038Y-151457014D01*
X219415610Y-151552252D02*
X219463229Y-151504633D01*
X219463229Y-151504633D02*
X219558467Y-151457014D01*
X219558467Y-151457014D02*
X219796562Y-151457014D01*
X219796562Y-151457014D02*
X219891800Y-151504633D01*
X219891800Y-151504633D02*
X219939419Y-151552252D01*
X219939419Y-151552252D02*
X219987038Y-151647490D01*
X219987038Y-151647490D02*
X219987038Y-151742728D01*
X219987038Y-151742728D02*
X219939419Y-151885585D01*
X219939419Y-151885585D02*
X219367991Y-152457014D01*
X219367991Y-152457014D02*
X219987038Y-152457014D01*
X206149860Y-70961654D02*
X205816527Y-70485463D01*
X205578432Y-70961654D02*
X205578432Y-69961654D01*
X205578432Y-69961654D02*
X205959384Y-69961654D01*
X205959384Y-69961654D02*
X206054622Y-70009273D01*
X206054622Y-70009273D02*
X206102241Y-70056892D01*
X206102241Y-70056892D02*
X206149860Y-70152130D01*
X206149860Y-70152130D02*
X206149860Y-70294987D01*
X206149860Y-70294987D02*
X206102241Y-70390225D01*
X206102241Y-70390225D02*
X206054622Y-70437844D01*
X206054622Y-70437844D02*
X205959384Y-70485463D01*
X205959384Y-70485463D02*
X205578432Y-70485463D01*
X207007003Y-70294987D02*
X207007003Y-70961654D01*
X206768908Y-69914035D02*
X206530813Y-70628320D01*
X206530813Y-70628320D02*
X207149860Y-70628320D01*
X217692975Y-118203735D02*
X217216784Y-118537068D01*
X217692975Y-118775163D02*
X216692975Y-118775163D01*
X216692975Y-118775163D02*
X216692975Y-118394211D01*
X216692975Y-118394211D02*
X216740594Y-118298973D01*
X216740594Y-118298973D02*
X216788213Y-118251354D01*
X216788213Y-118251354D02*
X216883451Y-118203735D01*
X216883451Y-118203735D02*
X217026308Y-118203735D01*
X217026308Y-118203735D02*
X217121546Y-118251354D01*
X217121546Y-118251354D02*
X217169165Y-118298973D01*
X217169165Y-118298973D02*
X217216784Y-118394211D01*
X217216784Y-118394211D02*
X217216784Y-118775163D01*
X217692975Y-117251354D02*
X217692975Y-117822782D01*
X217692975Y-117537068D02*
X216692975Y-117537068D01*
X216692975Y-117537068D02*
X216835832Y-117632306D01*
X216835832Y-117632306D02*
X216931070Y-117727544D01*
X216931070Y-117727544D02*
X216978689Y-117822782D01*
X206766160Y-128418384D02*
X206718541Y-128466004D01*
X206718541Y-128466004D02*
X206575684Y-128513623D01*
X206575684Y-128513623D02*
X206480446Y-128513623D01*
X206480446Y-128513623D02*
X206337589Y-128466004D01*
X206337589Y-128466004D02*
X206242351Y-128370765D01*
X206242351Y-128370765D02*
X206194732Y-128275527D01*
X206194732Y-128275527D02*
X206147113Y-128085051D01*
X206147113Y-128085051D02*
X206147113Y-127942194D01*
X206147113Y-127942194D02*
X206194732Y-127751718D01*
X206194732Y-127751718D02*
X206242351Y-127656480D01*
X206242351Y-127656480D02*
X206337589Y-127561242D01*
X206337589Y-127561242D02*
X206480446Y-127513623D01*
X206480446Y-127513623D02*
X206575684Y-127513623D01*
X206575684Y-127513623D02*
X206718541Y-127561242D01*
X206718541Y-127561242D02*
X206766160Y-127608861D01*
X207623303Y-127846956D02*
X207623303Y-128513623D01*
X207385208Y-127466004D02*
X207147113Y-128180289D01*
X207147113Y-128180289D02*
X207766160Y-128180289D01*
X206802624Y-87691099D02*
X206802624Y-86691099D01*
X206802624Y-86691099D02*
X207040719Y-86691099D01*
X207040719Y-86691099D02*
X207183576Y-86738718D01*
X207183576Y-86738718D02*
X207278814Y-86833956D01*
X207278814Y-86833956D02*
X207326433Y-86929194D01*
X207326433Y-86929194D02*
X207374052Y-87119670D01*
X207374052Y-87119670D02*
X207374052Y-87262527D01*
X207374052Y-87262527D02*
X207326433Y-87453003D01*
X207326433Y-87453003D02*
X207278814Y-87548241D01*
X207278814Y-87548241D02*
X207183576Y-87643480D01*
X207183576Y-87643480D02*
X207040719Y-87691099D01*
X207040719Y-87691099D02*
X206802624Y-87691099D01*
X208326433Y-87691099D02*
X207755005Y-87691099D01*
X208040719Y-87691099D02*
X208040719Y-86691099D01*
X208040719Y-86691099D02*
X207945481Y-86833956D01*
X207945481Y-86833956D02*
X207850243Y-86929194D01*
X207850243Y-86929194D02*
X207755005Y-86976813D01*
D13*
%TO.C,R10*%
X217577881Y-134362791D02*
X218032009Y-134362791D01*
X217577881Y-135832791D02*
X218032009Y-135832791D01*
%TO.C,TP6*%
X211451215Y-161572020D02*
G75*
G03*
X207651215Y-161572020I-1900000J0D01*
G01*
X207651215Y-161572020D02*
G75*
G03*
X211451215Y-161572020I1900000J0D01*
G01*
%TO.C,Q9*%
X220028062Y-108139524D02*
X220028062Y-106464524D01*
X220028062Y-108139524D02*
X220028062Y-108789524D01*
X216908062Y-108139524D02*
X216908062Y-107489524D01*
X216908062Y-108139524D02*
X216908062Y-108789524D01*
%TO.C,C6*%
X206671575Y-126463804D02*
X207194079Y-126463804D01*
X206671575Y-127933804D02*
X207194079Y-127933804D01*
%TO.C,D5*%
X205180719Y-80616280D02*
X205180719Y-82616280D01*
X205180719Y-80616280D02*
X209190719Y-80616280D01*
X205180719Y-82616280D02*
X209190719Y-82616280D01*
%TO.C,TP8*%
X211430195Y-150568664D02*
G75*
G03*
X207630195Y-150568664I-1900000J0D01*
G01*
X207630195Y-150568664D02*
G75*
G03*
X211430195Y-150568664I1900000J0D01*
G01*
%TO.C,TP3*%
X205980195Y-150568664D02*
G75*
G03*
X202180195Y-150568664I-1900000J0D01*
G01*
X202180195Y-150568664D02*
G75*
G03*
X205980195Y-150568664I1900000J0D01*
G01*
D11*
%TO.C,L2*%
X219650406Y-120641250D02*
X222190406Y-120641250D01*
X222190406Y-120641250D02*
X222190406Y-115561250D01*
X222190406Y-115561250D02*
X219650406Y-115561250D01*
X219650406Y-115561250D02*
X219650406Y-120641250D01*
D14*
%TO.C,Q8*%
X207296925Y-106409654D02*
X207296925Y-107459654D01*
X207246925Y-107809654D02*
X207246925Y-108259654D01*
X204346925Y-107809654D02*
X207246925Y-107809654D01*
X207246925Y-108259654D02*
X204346925Y-108259654D01*
X204346925Y-108259654D02*
X204346925Y-107809654D01*
D13*
%TO.C,R12*%
X205460521Y-76696813D02*
X205460521Y-76242685D01*
X206930521Y-76696813D02*
X206930521Y-76242685D01*
%TO.C,TP9*%
X211430195Y-156018664D02*
G75*
G03*
X207630195Y-156018664I-1900000J0D01*
G01*
X207630195Y-156018664D02*
G75*
G03*
X211430195Y-156018664I1900000J0D01*
G01*
%TO.C,D7*%
X205180719Y-85696280D02*
X205180719Y-87696280D01*
X205180719Y-85696280D02*
X209190719Y-85696280D01*
X205180719Y-87696280D02*
X209190719Y-87696280D01*
%TO.C,C1*%
X206130935Y-66425936D02*
X206653439Y-66425936D01*
X206130935Y-67895936D02*
X206653439Y-67895936D01*
%TO.C,Q3*%
X211200859Y-76237364D02*
X211200859Y-77912364D01*
X211200859Y-76237364D02*
X211200859Y-75587364D01*
X214320859Y-76237364D02*
X214320859Y-76887364D01*
X214320859Y-76237364D02*
X214320859Y-75587364D01*
%TO.C,RN2*%
X207617952Y-116462679D02*
X206817952Y-116462679D01*
X207617952Y-119902679D02*
X206817952Y-119902679D01*
%TO.C,U3*%
X227177625Y-139360541D02*
X223727625Y-139360541D01*
X227177625Y-139360541D02*
X229127625Y-139360541D01*
X227177625Y-148230541D02*
X225227625Y-148230541D01*
X227177625Y-148230541D02*
X229127625Y-148230541D01*
%TO.C,J3*%
X223460000Y-74880000D02*
X223460000Y-74460000D01*
X225440000Y-74880000D02*
X223460000Y-74880000D01*
X227810000Y-74880000D02*
X227410000Y-74880000D01*
X223230000Y-72880000D02*
X222780000Y-72880000D01*
X222780000Y-72430000D02*
X222780000Y-72880000D01*
D11*
X224395000Y-69420000D02*
X222920000Y-69420000D01*
D13*
X223460000Y-67360000D02*
X223460000Y-67780000D01*
X225440000Y-67360000D02*
X223460000Y-67360000D01*
X227410000Y-67360000D02*
X227810000Y-67360000D01*
%TO.C,TP1*%
X205980195Y-139668664D02*
G75*
G03*
X202180195Y-139668664I-1900000J0D01*
G01*
X202180195Y-139668664D02*
G75*
G03*
X205980195Y-139668664I1900000J0D01*
G01*
%TO.C,D6*%
X205180719Y-83156280D02*
X205180719Y-85156280D01*
X205180719Y-83156280D02*
X209190719Y-83156280D01*
X205180719Y-85156280D02*
X209190719Y-85156280D01*
%TO.C,C2*%
X206671575Y-123923804D02*
X207194079Y-123923804D01*
X206671575Y-125393804D02*
X207194079Y-125393804D01*
%TO.C,TP7*%
X211430195Y-145118664D02*
G75*
G03*
X207630195Y-145118664I-1900000J0D01*
G01*
X207630195Y-145118664D02*
G75*
G03*
X211430195Y-145118664I1900000J0D01*
G01*
%TO.C,Q2*%
X224184460Y-108095508D02*
X224184460Y-106420508D01*
X224184460Y-108095508D02*
X224184460Y-108745508D01*
X221064460Y-108095508D02*
X221064460Y-107445508D01*
X221064460Y-108095508D02*
X221064460Y-108745508D01*
D14*
%TO.C,Q7*%
X215264938Y-77838999D02*
X215264938Y-76788999D01*
X215314938Y-76438999D02*
X215314938Y-75988999D01*
X218214938Y-76438999D02*
X215314938Y-76438999D01*
X215314938Y-75988999D02*
X218214938Y-75988999D01*
X218214938Y-75988999D02*
X218214938Y-76438999D01*
%TO.C,L1*%
X229709032Y-81117062D02*
X229709032Y-93817062D01*
X227859032Y-81117062D02*
X229709032Y-81117062D01*
X219359032Y-81117062D02*
X217009032Y-81117062D01*
X217009032Y-81117062D02*
X217009032Y-93817062D01*
X229709032Y-93817062D02*
X227859032Y-93817062D01*
X217009032Y-93817062D02*
X219359032Y-93817062D01*
D13*
%TO.C,J4*%
X227270000Y-120590000D02*
X228600000Y-120590000D01*
X227270000Y-121920000D02*
X227270000Y-120590000D01*
X227270000Y-123190000D02*
X227270000Y-128330000D01*
X227270000Y-123190000D02*
X229930000Y-123190000D01*
X227270000Y-128330000D02*
X229930000Y-128330000D01*
X229930000Y-123190000D02*
X229930000Y-128330000D01*
%TO.C,TP10*%
X211362421Y-139635046D02*
G75*
G03*
X207562421Y-139635046I-1900000J0D01*
G01*
X207562421Y-139635046D02*
G75*
G03*
X211362421Y-139635046I1900000J0D01*
G01*
%TO.C,J2*%
X227270000Y-130750000D02*
X228600000Y-130750000D01*
X227270000Y-132080000D02*
X227270000Y-130750000D01*
X227270000Y-133350000D02*
X227270000Y-138490000D01*
X227270000Y-133350000D02*
X229930000Y-133350000D01*
X227270000Y-138490000D02*
X229930000Y-138490000D01*
X229930000Y-133350000D02*
X229930000Y-138490000D01*
D14*
%TO.C,IC1*%
X216725804Y-125731242D02*
X217200804Y-125731242D01*
X217550804Y-125831242D02*
X218050804Y-125831242D01*
X217550804Y-127431242D02*
X217550804Y-125831242D01*
X218050804Y-125831242D02*
X218050804Y-127431242D01*
X218050804Y-127431242D02*
X217550804Y-127431242D01*
D13*
%TO.C,TP5*%
X205980195Y-161468664D02*
G75*
G03*
X202180195Y-161468664I-1900000J0D01*
G01*
X202180195Y-161468664D02*
G75*
G03*
X205980195Y-161468664I1900000J0D01*
G01*
%TO.C,J5*%
X227270000Y-153610000D02*
X228600000Y-153610000D01*
X227270000Y-154940000D02*
X227270000Y-153610000D01*
X227270000Y-156210000D02*
X227270000Y-163890000D01*
X227270000Y-156210000D02*
X229930000Y-156210000D01*
X227270000Y-163890000D02*
X229930000Y-163890000D01*
X229930000Y-156210000D02*
X229930000Y-163890000D01*
%TO.C,TP4*%
X205980195Y-156018664D02*
G75*
G03*
X202180195Y-156018664I-1900000J0D01*
G01*
X202180195Y-156018664D02*
G75*
G03*
X205980195Y-156018664I1900000J0D01*
G01*
%TO.C,Q4*%
X211484460Y-108095508D02*
X211484460Y-106420508D01*
X211484460Y-108095508D02*
X211484460Y-108745508D01*
X208364460Y-108095508D02*
X208364460Y-107445508D01*
X208364460Y-108095508D02*
X208364460Y-108745508D01*
%TO.C,Q1*%
X228634460Y-108095508D02*
X228634460Y-106420508D01*
X228634460Y-108095508D02*
X228634460Y-108745508D01*
X225514460Y-108095508D02*
X225514460Y-107445508D01*
X225514460Y-108095508D02*
X225514460Y-108745508D01*
%TO.C,TP2*%
X205980195Y-145118664D02*
G75*
G03*
X202180195Y-145118664I-1900000J0D01*
G01*
X202180195Y-145118664D02*
G75*
G03*
X205980195Y-145118664I1900000J0D01*
G01*
%TO.C,RN1*%
X211846765Y-97083827D02*
X211846765Y-97883827D01*
X215286765Y-97083827D02*
X215286765Y-97883827D01*
%TO.C,C3*%
X206130935Y-68965936D02*
X206653439Y-68965936D01*
X206130935Y-70435936D02*
X206653439Y-70435936D01*
%TO.C,C5*%
X206671575Y-131543804D02*
X207194079Y-131543804D01*
X206671575Y-133013804D02*
X207194079Y-133013804D01*
D14*
%TO.C,Q6*%
X215735323Y-106495000D02*
X215735323Y-107545000D01*
X215685323Y-107895000D02*
X215685323Y-108345000D01*
X212785323Y-107895000D02*
X215685323Y-107895000D01*
X215685323Y-108345000D02*
X212785323Y-108345000D01*
X212785323Y-108345000D02*
X212785323Y-107895000D01*
D13*
%TO.C,R9*%
X217577881Y-131412791D02*
X218032009Y-131412791D01*
X217577881Y-132882791D02*
X218032009Y-132882791D01*
%TO.C,U1*%
X215318563Y-69414624D02*
X217118563Y-69414624D01*
X215318563Y-69414624D02*
X214518563Y-69414624D01*
X215318563Y-66294624D02*
X216118563Y-66294624D01*
X215318563Y-66294624D02*
X214518563Y-66294624D01*
%TO.C,U2*%
X219177515Y-152817195D02*
X215577515Y-152817195D01*
X219177515Y-152817195D02*
X221377515Y-152817195D01*
X219177515Y-159587195D02*
X216977515Y-159587195D01*
X219177515Y-159587195D02*
X221377515Y-159587195D01*
%TO.C,R4*%
X206089463Y-71421835D02*
X206543591Y-71421835D01*
X206089463Y-72891835D02*
X206543591Y-72891835D01*
%TO.C,R1*%
X216323156Y-117810005D02*
X216323156Y-118264133D01*
X214853156Y-117810005D02*
X214853156Y-118264133D01*
%TO.C,C4*%
X206671575Y-129003804D02*
X207194079Y-129003804D01*
X206671575Y-130473804D02*
X207194079Y-130473804D01*
%TO.C,D1*%
X205180719Y-88236280D02*
X205180719Y-90236280D01*
X205180719Y-88236280D02*
X209190719Y-88236280D01*
X205180719Y-90236280D02*
X209190719Y-90236280D01*
%TD*%
M02*
