%TF.GenerationSoftware,KiCad,Pcbnew,7.0.10*%
%TF.CreationDate,2024-03-06T19:49:30-08:00*%
%TF.ProjectId,462FinalProject,34363246-696e-4616-9c50-726f6a656374,rev?*%
%TF.SameCoordinates,Original*%
%TF.FileFunction,Copper,L1,Top*%
%TF.FilePolarity,Positive*%
%FSLAX46Y46*%
G04 Gerber Fmt 4.6, Leading zero omitted, Abs format (unit mm)*
G04 Created by KiCad (PCBNEW 7.0.10) date 2024-03-06 19:49:30*
%MOMM*%
%LPD*%
G01*
G04 APERTURE LIST*
G04 Aperture macros list*
%AMRoundRect*
0 Rectangle with rounded corners*
0 $1 Rounding radius*
0 $2 $3 $4 $5 $6 $7 $8 $9 X,Y pos of 4 corners*
0 Add a 4 corners polygon primitive as box body*
4,1,4,$2,$3,$4,$5,$6,$7,$8,$9,$2,$3,0*
0 Add four circle primitives for the rounded corners*
1,1,$1+$1,$2,$3*
1,1,$1+$1,$4,$5*
1,1,$1+$1,$6,$7*
1,1,$1+$1,$8,$9*
0 Add four rect primitives between the rounded corners*
20,1,$1+$1,$2,$3,$4,$5,0*
20,1,$1+$1,$4,$5,$6,$7,0*
20,1,$1+$1,$6,$7,$8,$9,0*
20,1,$1+$1,$8,$9,$2,$3,0*%
G04 Aperture macros list end*
%TA.AperFunction,SMDPad,CuDef*%
%ADD10RoundRect,0.250000X-0.262500X-0.450000X0.262500X-0.450000X0.262500X0.450000X-0.262500X0.450000X0*%
%TD*%
%TA.AperFunction,ComponentPad*%
%ADD11C,3.400000*%
%TD*%
%TA.AperFunction,SMDPad,CuDef*%
%ADD12RoundRect,0.150000X-0.150000X0.587500X-0.150000X-0.587500X0.150000X-0.587500X0.150000X0.587500X0*%
%TD*%
%TA.AperFunction,SMDPad,CuDef*%
%ADD13RoundRect,0.250000X-0.337500X-0.475000X0.337500X-0.475000X0.337500X0.475000X-0.337500X0.475000X0*%
%TD*%
%TA.AperFunction,SMDPad,CuDef*%
%ADD14RoundRect,0.225000X-0.225000X-0.375000X0.225000X-0.375000X0.225000X0.375000X-0.225000X0.375000X0*%
%TD*%
%TA.AperFunction,SMDPad,CuDef*%
%ADD15R,1.400000X1.000000*%
%TD*%
%TA.AperFunction,SMDPad,CuDef*%
%ADD16R,0.600000X1.050000*%
%TD*%
%TA.AperFunction,SMDPad,CuDef*%
%ADD17RoundRect,0.250000X0.450000X-0.262500X0.450000X0.262500X-0.450000X0.262500X-0.450000X-0.262500X0*%
%TD*%
%TA.AperFunction,SMDPad,CuDef*%
%ADD18RoundRect,0.150000X0.150000X-0.587500X0.150000X0.587500X-0.150000X0.587500X-0.150000X-0.587500X0*%
%TD*%
%TA.AperFunction,SMDPad,CuDef*%
%ADD19R,0.900000X0.400000*%
%TD*%
%TA.AperFunction,SMDPad,CuDef*%
%ADD20RoundRect,0.150000X-0.825000X-0.150000X0.825000X-0.150000X0.825000X0.150000X-0.825000X0.150000X0*%
%TD*%
%TA.AperFunction,SMDPad,CuDef*%
%ADD21R,1.525000X0.400000*%
%TD*%
%TA.AperFunction,SMDPad,CuDef*%
%ADD22R,1.525000X0.425000*%
%TD*%
%TA.AperFunction,ComponentPad*%
%ADD23RoundRect,0.375000X-0.375000X0.875000X-0.375000X-0.875000X0.375000X-0.875000X0.375000X0.875000X0*%
%TD*%
%TA.AperFunction,SMDPad,CuDef*%
%ADD24R,1.550000X1.200000*%
%TD*%
%TA.AperFunction,ComponentPad*%
%ADD25RoundRect,0.200000X1.300000X-0.300000X1.300000X0.300000X-1.300000X0.300000X-1.300000X-0.300000X0*%
%TD*%
%TA.AperFunction,SMDPad,CuDef*%
%ADD26R,1.550000X1.500000*%
%TD*%
%TA.AperFunction,ComponentPad*%
%ADD27RoundRect,0.375000X0.375000X-0.875000X0.375000X0.875000X-0.375000X0.875000X-0.375000X-0.875000X0*%
%TD*%
%TA.AperFunction,SMDPad,CuDef*%
%ADD28R,1.500000X2.000000*%
%TD*%
%TA.AperFunction,SMDPad,CuDef*%
%ADD29R,7.000000X4.000000*%
%TD*%
%TA.AperFunction,ComponentPad*%
%ADD30R,1.700000X1.700000*%
%TD*%
%TA.AperFunction,ComponentPad*%
%ADD31O,1.700000X1.700000*%
%TD*%
%TA.AperFunction,SMDPad,CuDef*%
%ADD32R,0.475000X0.300000*%
%TD*%
%TA.AperFunction,SMDPad,CuDef*%
%ADD33R,0.400000X0.900000*%
%TD*%
%TA.AperFunction,SMDPad,CuDef*%
%ADD34RoundRect,0.150000X0.512500X0.150000X-0.512500X0.150000X-0.512500X-0.150000X0.512500X-0.150000X0*%
%TD*%
%TA.AperFunction,SMDPad,CuDef*%
%ADD35RoundRect,0.100000X-0.637500X-0.100000X0.637500X-0.100000X0.637500X0.100000X-0.637500X0.100000X0*%
%TD*%
%TA.AperFunction,SMDPad,CuDef*%
%ADD36RoundRect,0.250000X-0.450000X0.262500X-0.450000X-0.262500X0.450000X-0.262500X0.450000X0.262500X0*%
%TD*%
%TA.AperFunction,ViaPad*%
%ADD37C,0.800000*%
%TD*%
%TA.AperFunction,Conductor*%
%ADD38C,0.250000*%
%TD*%
G04 APERTURE END LIST*
D10*
%TO.P,R10,1*%
%TO.N,GND*%
X216892445Y-135097791D03*
%TO.P,R10,2*%
%TO.N,Net-(U3A-INA-)*%
X218717445Y-135097791D03*
%TD*%
D11*
%TO.P,TP6,1,1*%
%TO.N,PA12_PA10_MCU*%
X209551215Y-161572020D03*
%TD*%
D12*
%TO.P,Q9,1,G*%
%TO.N,LiPO1_Control*%
X219418062Y-107202024D03*
%TO.P,Q9,2,S*%
%TO.N,GND*%
X217518062Y-107202024D03*
%TO.P,Q9,3,D*%
%TO.N,Net-(Q6-G)*%
X218468062Y-109077024D03*
%TD*%
D13*
%TO.P,C6,1*%
%TO.N,GND*%
X205895327Y-127198804D03*
%TO.P,C6,2*%
%TO.N,LiPO High*%
X207970327Y-127198804D03*
%TD*%
D14*
%TO.P,D5,1,K*%
%TO.N,Net-(D5-K)*%
X205890719Y-81616280D03*
%TO.P,D5,2,A*%
%TO.N,GND*%
X209190719Y-81616280D03*
%TD*%
D11*
%TO.P,TP8,1,1*%
%TO.N,PC15_MCU*%
X209530195Y-150568664D03*
%TD*%
%TO.P,TP3,1,1*%
%TO.N,PA2_MCU*%
X204080195Y-150568664D03*
%TD*%
D15*
%TO.P,L2,1,1*%
%TO.N,SW*%
X220920406Y-119501250D03*
%TO.P,L2,2,2*%
%TO.N,3.3v Battery*%
X220920406Y-116701250D03*
%TD*%
D16*
%TO.P,Q8,1,G*%
%TO.N,Net-(Q4-D)*%
X206746925Y-106934654D03*
%TO.P,Q8,2,S*%
%TO.N,Net-(D7-A)*%
X204846925Y-106934654D03*
%TO.P,Q8,3,D*%
%TO.N,Switch_Regulated_V*%
X205796925Y-109134654D03*
%TD*%
D17*
%TO.P,R12,1*%
%TO.N,Net-(Q3-D)*%
X206195521Y-77382249D03*
%TO.P,R12,2*%
%TO.N,USB Vdc*%
X206195521Y-75557249D03*
%TD*%
D11*
%TO.P,TP9,1,1*%
%TO.N,PB3_PB4_PB5P_PB6_MCU*%
X209530195Y-156018664D03*
%TD*%
D14*
%TO.P,D7,1,K*%
%TO.N,LiPO High*%
X205890719Y-86696280D03*
%TO.P,D7,2,A*%
%TO.N,Net-(D7-A)*%
X209190719Y-86696280D03*
%TD*%
D13*
%TO.P,C1,1*%
%TO.N,GND*%
X205354687Y-67160936D03*
%TO.P,C1,2*%
%TO.N,USB Vdc*%
X207429687Y-67160936D03*
%TD*%
D18*
%TO.P,Q3,1,G*%
%TO.N,Switch_Regulator_PWM*%
X211810859Y-77174864D03*
%TO.P,Q3,2,S*%
%TO.N,GND*%
X213710859Y-77174864D03*
%TO.P,Q3,3,D*%
%TO.N,Net-(Q3-D)*%
X212760859Y-75299864D03*
%TD*%
D19*
%TO.P,RN2,1,R1.1*%
%TO.N,ADC_v-to-c*%
X206367952Y-116982679D03*
%TO.P,RN2,2,R2.1*%
%TO.N,LiPO1_Control*%
X206367952Y-117782679D03*
%TO.P,RN2,3,R3.1*%
%TO.N,GND*%
X206367952Y-118582679D03*
%TO.P,RN2,4,R4.1*%
X206367952Y-119382679D03*
%TO.P,RN2,5,R4.2*%
%TO.N,Switch_Regulator_PWM*%
X208067952Y-119382679D03*
%TO.P,RN2,6,R3.2*%
%TO.N,FB*%
X208067952Y-118582679D03*
%TO.P,RN2,7,R2.2*%
%TO.N,ADC_v-to-c*%
X208067952Y-117782679D03*
%TO.P,RN2,8,R1.2*%
%TO.N,LiPO2_Control*%
X208067952Y-116982679D03*
%TD*%
D20*
%TO.P,U3,1,OUTA*%
%TO.N,ADC_Current*%
X224702625Y-139985541D03*
%TO.P,U3,2,INA-*%
%TO.N,Net-(U3A-INA-)*%
X224702625Y-141255541D03*
%TO.P,U3,3,INA+*%
%TO.N,ADC_v-to-c*%
X224702625Y-142525541D03*
%TO.P,U3,4,VDD*%
%TO.N,USB Vdc*%
X224702625Y-143795541D03*
%TO.P,U3,5,INB+*%
%TO.N,GND*%
X224702625Y-145065541D03*
%TO.P,U3,6,INB-*%
%TO.N,Net-(U3B-INB-)*%
X224702625Y-146335541D03*
%TO.P,U3,7,OUTB*%
X224702625Y-147605541D03*
%TO.P,U3,8,OUTA*%
%TO.N,Net-(U3C-INC-)*%
X229652625Y-147605541D03*
%TO.P,U3,9,INC-*%
X229652625Y-146335541D03*
%TO.P,U3,10,INC+*%
%TO.N,GND*%
X229652625Y-145065541D03*
%TO.P,U3,11,VSS*%
X229652625Y-143795541D03*
%TO.P,U3,12,IND+*%
X229652625Y-142525541D03*
%TO.P,U3,13,IND-*%
%TO.N,Net-(U3D-IND-)*%
X229652625Y-141255541D03*
%TO.P,U3,14,OUTD*%
X229652625Y-139985541D03*
%TD*%
D21*
%TO.P,J3,1,VBUS*%
%TO.N,USB Vdc*%
X223632500Y-72420000D03*
D22*
%TO.P,J3,2,D-*%
%TO.N,unconnected-(J3-D--Pad2)*%
X223632500Y-71782500D03*
D21*
%TO.P,J3,3,D+*%
%TO.N,unconnected-(J3-D+-Pad3)*%
X223632500Y-71120000D03*
%TO.P,J3,4,ID*%
%TO.N,unconnected-(J3-ID-Pad4)*%
X223632500Y-70470000D03*
D22*
%TO.P,J3,5,GND*%
%TO.N,GND*%
X223632500Y-69832500D03*
D23*
%TO.P,J3,6,Shield*%
X226520000Y-75120000D03*
D24*
X226520000Y-74020000D03*
D25*
X223220000Y-73520000D03*
D26*
X226520000Y-72120000D03*
X226520000Y-70120000D03*
D25*
X223220000Y-68720000D03*
D24*
X226520000Y-68220000D03*
D27*
X226520000Y-67120000D03*
%TD*%
D11*
%TO.P,TP1,1,1*%
%TO.N,PA0_MCU*%
X204080195Y-139668664D03*
%TD*%
D14*
%TO.P,D6,1,K*%
%TO.N,USB Vdc*%
X205890719Y-84156280D03*
%TO.P,D6,2,A*%
%TO.N,Switch_Regulated_V*%
X209190719Y-84156280D03*
%TD*%
D28*
%TO.P,R5,1*%
%TO.N,3.3v Battery*%
X218051063Y-116069718D03*
%TO.P,R5,2*%
%TO.N,FB*%
X218051063Y-120069718D03*
%TD*%
D13*
%TO.P,C2,1*%
%TO.N,GND*%
X205895327Y-124658804D03*
%TO.P,C2,2*%
%TO.N,MCU Vdd*%
X207970327Y-124658804D03*
%TD*%
D11*
%TO.P,TP7,1,1*%
%TO.N,PC14_PB9_MCU*%
X209530195Y-145118664D03*
%TD*%
D12*
%TO.P,Q2,1,G*%
%TO.N,LiPO2_Control*%
X223574460Y-107158008D03*
%TO.P,Q2,2,S*%
%TO.N,ADC_v-to-c*%
X221674460Y-107158008D03*
%TO.P,Q2,3,D*%
%TO.N,LiPO Mid*%
X222624460Y-109033008D03*
%TD*%
D16*
%TO.P,Q7,1,G*%
%TO.N,Net-(Q3-D)*%
X215814938Y-77313999D03*
%TO.P,Q7,2,S*%
%TO.N,Net-(D5-K)*%
X217714938Y-77313999D03*
%TO.P,Q7,3,D*%
%TO.N,USB Vdc*%
X216764938Y-75113999D03*
%TD*%
D29*
%TO.P,L1,1,1*%
%TO.N,Net-(D5-K)*%
X223359032Y-82467062D03*
%TO.P,L1,2,2*%
%TO.N,Switch_Regulated_V*%
X223359032Y-92467062D03*
%TD*%
D30*
%TO.P,J4,1,Pin_1*%
%TO.N,LiPO Low*%
X228600000Y-121920000D03*
D31*
%TO.P,J4,2,Pin_2*%
%TO.N,3.3v Battery*%
X228600000Y-124460000D03*
%TO.P,J4,3,Pin_3*%
%TO.N,LiPO High*%
X228600000Y-127000000D03*
%TD*%
D11*
%TO.P,TP10,1,1*%
%TO.N,PB7_PB8_MCU*%
X209462421Y-139635046D03*
%TD*%
D30*
%TO.P,J2,1,Pin_1*%
%TO.N,LiPO Low*%
X228600000Y-132080000D03*
D31*
%TO.P,J2,2,Pin_2*%
%TO.N,LiPO Mid*%
X228600000Y-134620000D03*
%TO.P,J2,3,Pin_3*%
%TO.N,LiPO High*%
X228600000Y-137160000D03*
%TD*%
D32*
%TO.P,IC1,1,VIN*%
%TO.N,LiPO High*%
X216962804Y-126131242D03*
%TO.P,IC1,2,SW*%
%TO.N,SW*%
X216962804Y-126631242D03*
%TO.P,IC1,3,GND*%
%TO.N,GND*%
X216962804Y-127131242D03*
%TO.P,IC1,4,BST*%
%TO.N,BST*%
X218638804Y-127131242D03*
%TO.P,IC1,5,EN*%
%TO.N,LiPO High*%
X218638804Y-126631242D03*
%TO.P,IC1,6,FB*%
%TO.N,FB*%
X218638804Y-126131242D03*
%TD*%
D11*
%TO.P,TP5,1,1*%
%TO.N,PA11_PA9_MCU*%
X204080195Y-161468664D03*
%TD*%
D30*
%TO.P,J5,1,Pin_1*%
%TO.N,SWDIO*%
X228600000Y-154940000D03*
D31*
%TO.P,J5,2,Pin_2*%
%TO.N,SWCLK*%
X228600000Y-157480000D03*
%TO.P,J5,3,Pin_3*%
%TO.N,NRST*%
X228600000Y-160020000D03*
%TO.P,J5,4,Pin_4*%
%TO.N,GND*%
X228600000Y-162560000D03*
%TD*%
D11*
%TO.P,TP4,1,1*%
%TO.N,PA3_MCU*%
X204080195Y-156018664D03*
%TD*%
D12*
%TO.P,Q4,1,G*%
%TO.N,LiPO2_Control*%
X210874460Y-107158008D03*
%TO.P,Q4,2,S*%
%TO.N,GND*%
X208974460Y-107158008D03*
%TO.P,Q4,3,D*%
%TO.N,Net-(Q4-D)*%
X209924460Y-109033008D03*
%TD*%
%TO.P,Q1,1,G*%
%TO.N,LiPO1_Control*%
X228024460Y-107158008D03*
%TO.P,Q1,2,S*%
%TO.N,ADC_v-to-c*%
X226124460Y-107158008D03*
%TO.P,Q1,3,D*%
%TO.N,Net-(D1-K)*%
X227074460Y-109033008D03*
%TD*%
D11*
%TO.P,TP2,1,1*%
%TO.N,PA1_MCU*%
X204080195Y-145118664D03*
%TD*%
D33*
%TO.P,RN1,1,R1.1*%
%TO.N,LiPO1_Control*%
X212366765Y-98333827D03*
%TO.P,RN1,2,R2.1*%
%TO.N,USB Vdc*%
X213166765Y-98333827D03*
%TO.P,RN1,3,R3.1*%
%TO.N,LiPO2_Control*%
X213966765Y-98333827D03*
%TO.P,RN1,4,R4.1*%
%TO.N,Net-(Q4-D)*%
X214766765Y-98333827D03*
%TO.P,RN1,5,R4.2*%
%TO.N,USB Vdc*%
X214766765Y-96633827D03*
%TO.P,RN1,6,R3.2*%
%TO.N,GND*%
X213966765Y-96633827D03*
%TO.P,RN1,7,R2.2*%
%TO.N,Net-(Q6-G)*%
X213166765Y-96633827D03*
%TO.P,RN1,8,R1.2*%
%TO.N,GND*%
X212366765Y-96633827D03*
%TD*%
D13*
%TO.P,C3,1*%
%TO.N,GND*%
X205354687Y-69700936D03*
%TO.P,C3,2*%
%TO.N,MCU Vdd*%
X207429687Y-69700936D03*
%TD*%
%TO.P,C5,1*%
%TO.N,GND*%
X205895327Y-132278804D03*
%TO.P,C5,2*%
%TO.N,3.3v Battery*%
X207970327Y-132278804D03*
%TD*%
D16*
%TO.P,Q6,1,G*%
%TO.N,Net-(Q6-G)*%
X215185323Y-107020000D03*
%TO.P,Q6,2,S*%
%TO.N,LiPO Mid*%
X213285323Y-107020000D03*
%TO.P,Q6,3,D*%
%TO.N,Switch_Regulated_V*%
X214235323Y-109220000D03*
%TD*%
D10*
%TO.P,R9,1*%
%TO.N,Net-(U3A-INA-)*%
X216892445Y-132147791D03*
%TO.P,R9,2*%
%TO.N,ADC_Current*%
X218717445Y-132147791D03*
%TD*%
D34*
%TO.P,U1,1,VIN*%
%TO.N,USB Vdc*%
X216456063Y-68804624D03*
%TO.P,U1,2,GND*%
%TO.N,GND*%
X216456063Y-67854624D03*
%TO.P,U1,3,EN*%
%TO.N,Net-(U1-EN)*%
X216456063Y-66904624D03*
%TO.P,U1,4,NC*%
%TO.N,unconnected-(U1-NC-Pad4)*%
X214181063Y-66904624D03*
%TO.P,U1,5,VOUT*%
%TO.N,MCU Vdd*%
X214181063Y-68804624D03*
%TD*%
D35*
%TO.P,U2,1,PB7/PB8*%
%TO.N,PB7_PB8_MCU*%
X216315015Y-153277195D03*
%TO.P,U2,2,PC14/PB9*%
%TO.N,PC14_PB9_MCU*%
X216315015Y-153927195D03*
%TO.P,U2,3,PC15*%
%TO.N,PC15_MCU*%
X216315015Y-154577195D03*
%TO.P,U2,4,VDD*%
%TO.N,MCU Vdd*%
X216315015Y-155227195D03*
%TO.P,U2,5,VSS*%
%TO.N,GND*%
X216315015Y-155877195D03*
%TO.P,U2,6,NRST*%
%TO.N,NRST*%
X216315015Y-156527195D03*
%TO.P,U2,7,PA0*%
%TO.N,PA0_MCU*%
X216315015Y-157177195D03*
%TO.P,U2,8,PA1*%
%TO.N,PA1_MCU*%
X216315015Y-157827195D03*
%TO.P,U2,9,PA2*%
%TO.N,PA2_MCU*%
X216315015Y-158477195D03*
%TO.P,U2,10,PA3*%
%TO.N,PA3_MCU*%
X216315015Y-159127195D03*
%TO.P,U2,11,PA4*%
%TO.N,ADC_Current*%
X222040015Y-159127195D03*
%TO.P,U2,12,PA5*%
%TO.N,Switch_Regulated_V*%
X222040015Y-158477195D03*
%TO.P,U2,13,PA6*%
%TO.N,LiPO1_Control*%
X222040015Y-157827195D03*
%TO.P,U2,14,PA7*%
%TO.N,LiPO2_Control*%
X222040015Y-157177195D03*
%TO.P,U2,15,PB0/PB1/PB2/PA8*%
%TO.N,Switch_Regulator_PWM*%
X222040015Y-156527195D03*
%TO.P,U2,16,PA11/PA9*%
%TO.N,PA11_PA9_MCU*%
X222040015Y-155877195D03*
%TO.P,U2,17,PA12/PA10*%
%TO.N,PA12_PA10_MCU*%
X222040015Y-155227195D03*
%TO.P,U2,18,PA13*%
%TO.N,SWDIO*%
X222040015Y-154577195D03*
%TO.P,U2,19,PA14/PA15*%
%TO.N,SWCLK*%
X222040015Y-153927195D03*
%TO.P,U2,20,PB3/PB4/PB5/PB6*%
%TO.N,PB3_PB4_PB5P_PB6_MCU*%
X222040015Y-153277195D03*
%TD*%
D10*
%TO.P,R4,1*%
%TO.N,Net-(U1-EN)*%
X205404027Y-72156835D03*
%TO.P,R4,2*%
%TO.N,USB Vdc*%
X207229027Y-72156835D03*
%TD*%
D36*
%TO.P,R1,1*%
%TO.N,ADC_v-to-c*%
X215588156Y-117124569D03*
%TO.P,R1,2*%
%TO.N,GND*%
X215588156Y-118949569D03*
%TD*%
D13*
%TO.P,C4,1*%
%TO.N,SW*%
X205895327Y-129738804D03*
%TO.P,C4,2*%
%TO.N,BST*%
X207970327Y-129738804D03*
%TD*%
D14*
%TO.P,D1,1,K*%
%TO.N,Net-(D1-K)*%
X205890719Y-89236280D03*
%TO.P,D1,2,A*%
%TO.N,LiPO Low*%
X209190719Y-89236280D03*
%TD*%
D37*
%TO.N,GND*%
X209173886Y-100385277D03*
X204691393Y-119033764D03*
X209528434Y-98935277D03*
X211858317Y-120831826D03*
X208008945Y-135345000D03*
X205805685Y-121161048D03*
X222159013Y-99869381D03*
X221121044Y-100882024D03*
X204183291Y-121897074D03*
X211453120Y-119287012D03*
X210004754Y-135170524D03*
X215403792Y-130632531D03*
X214530161Y-155104535D03*
X215581065Y-128910443D03*
%TO.N,PC15_MCU*%
X214085000Y-152400000D03*
X210820000Y-152400000D03*
%TO.N,PB3_PB4_PB5P_PB6_MCU*%
X222036124Y-151579317D03*
%TO.N,PA12_PA10_MCU*%
X221728461Y-161406128D03*
X224541023Y-159295000D03*
%TO.N,PA11_PA9_MCU*%
X223541020Y-159295000D03*
X223414895Y-160745000D03*
%TO.N,Net-(D1-K)*%
X218226501Y-96627154D03*
X206696802Y-90882457D03*
%TO.N,ADC_v-to-c*%
X213432105Y-117537882D03*
X222241250Y-127952874D03*
%TO.N,LiPO1_Control*%
X219438541Y-105783041D03*
X228036063Y-104921187D03*
X214085000Y-134620000D03*
X212366765Y-99685602D03*
X204142679Y-117782679D03*
%TO.N,Switch_Regulator_PWM*%
X210118999Y-120627061D03*
X204576812Y-79303779D03*
X210504687Y-78452435D03*
X214085000Y-132545874D03*
%TO.N,FB*%
X217063201Y-122432274D03*
X218560025Y-123861565D03*
%TO.N,LiPO2_Control*%
X214097652Y-133607345D03*
X213872653Y-101087347D03*
X223537604Y-104196187D03*
X209393999Y-116937905D03*
%TO.N,ADC_Current*%
X223162644Y-140522957D03*
X217715000Y-145292167D03*
%TO.N,Net-(U1-EN)*%
X215978744Y-65783057D03*
X206504027Y-73498685D03*
%TO.N,USB Vdc*%
X210675569Y-86096463D03*
X208448375Y-68179624D03*
X208280000Y-71120000D03*
X216142959Y-97851926D03*
X224385375Y-127763687D03*
X214727540Y-90148434D03*
%TO.N,Net-(Q4-D)*%
X207863590Y-105922102D03*
X211766010Y-104219295D03*
%TO.N,LiPO Mid*%
X225394036Y-127356242D03*
X220512518Y-110632225D03*
X225462492Y-114870205D03*
X218246296Y-110847836D03*
%TO.N,Net-(Q6-G)*%
X216245162Y-105510467D03*
X212778453Y-94966743D03*
%TO.N,Switch_Regulated_V*%
X205838062Y-110460281D03*
X213360000Y-110095693D03*
X213107105Y-134829107D03*
X210806024Y-85105006D03*
X215512609Y-89439339D03*
%TO.N,3.3v Battery*%
X214312978Y-130470423D03*
X214890730Y-125405263D03*
%TO.N,SW*%
X215990043Y-125406242D03*
X215978273Y-127078273D03*
%TO.N,LiPO High*%
X214085000Y-120820718D03*
X214113264Y-126453458D03*
X210843999Y-126817819D03*
X204584950Y-88349578D03*
%TO.N,Net-(D7-A)*%
X210787157Y-87967729D03*
X204538083Y-103827222D03*
%TO.N,Net-(D5-K)*%
X207288665Y-80218334D03*
X215884963Y-78977418D03*
%TO.N,LiPO Low*%
X210290155Y-90438479D03*
%TD*%
D38*
%TO.N,GND*%
X205895327Y-124658804D02*
X205895327Y-123609110D01*
X213784695Y-131820874D02*
X214385305Y-131820874D01*
X214530161Y-155104535D02*
X215302821Y-155877195D01*
X212053453Y-96320515D02*
X212053453Y-93353312D01*
X223727626Y-145065541D02*
X218267445Y-139605360D01*
X218267445Y-136472791D02*
X216892445Y-135097791D01*
X215581065Y-128910443D02*
X215581065Y-128512981D01*
X207116723Y-126148804D02*
X208112927Y-126148804D01*
X217458057Y-65058057D02*
X218440000Y-66040000D01*
X206945327Y-133328804D02*
X210820000Y-133328804D01*
X217518062Y-107202024D02*
X217518062Y-105061938D01*
X224220000Y-74020000D02*
X223720000Y-73520000D01*
X208882827Y-123934292D02*
X206109583Y-121161048D01*
X225083533Y-145065541D02*
X224702625Y-145065541D01*
X229652625Y-142525541D02*
X229652625Y-143795541D01*
X204519043Y-126035088D02*
X205895327Y-124658804D01*
X210820000Y-134355278D02*
X210004754Y-135170524D01*
X230225000Y-100685000D02*
X225784197Y-96244197D01*
X208974460Y-107158008D02*
X208974460Y-100584703D01*
X205354687Y-67160936D02*
X206404687Y-66110936D01*
X206404687Y-66110936D02*
X208012287Y-66110936D01*
X209528434Y-98935277D02*
X211829884Y-96633827D01*
X226520000Y-70120000D02*
X226520000Y-72120000D01*
X205354687Y-69700936D02*
X205354687Y-67160936D01*
X225784197Y-96244197D02*
X228600000Y-93428394D01*
X221121044Y-101458956D02*
X221121044Y-100882024D01*
X228600000Y-78400000D02*
X228600000Y-86360000D01*
X223720000Y-68720000D02*
X224220000Y-68220000D01*
X205895327Y-127198804D02*
X206066723Y-127198804D01*
X204519043Y-133171516D02*
X204519043Y-126035088D01*
X228600000Y-86360000D02*
X213934439Y-86360000D01*
X218440000Y-66040000D02*
X218440000Y-66533186D01*
X228352625Y-142200540D02*
X228352625Y-139069076D01*
X228600000Y-93428394D02*
X228600000Y-86360000D01*
X208974460Y-100584703D02*
X209173886Y-100385277D01*
X212366765Y-96633827D02*
X212053453Y-96320515D01*
X209269443Y-81616280D02*
X209190719Y-81616280D01*
X218440000Y-66533186D02*
X217118562Y-67854624D01*
X226520000Y-70120000D02*
X226520000Y-68220000D01*
X205895327Y-123609110D02*
X204183291Y-121897074D01*
X223632500Y-68807500D02*
X223720000Y-68720000D01*
X211790563Y-118949569D02*
X215588156Y-118949569D01*
X223632500Y-69832500D02*
X223632500Y-68807500D01*
X226520000Y-74020000D02*
X224220000Y-74020000D01*
X213966765Y-96633827D02*
X213966765Y-91440000D01*
X218267445Y-139605360D02*
X218267445Y-136472791D01*
X213966765Y-86392326D02*
X213934439Y-86360000D01*
X210820000Y-133328804D02*
X210820000Y-134355278D01*
X215581065Y-128512981D02*
X216962804Y-127131242D01*
X229652625Y-143795541D02*
X229652625Y-145065541D01*
X224702625Y-145065541D02*
X223727626Y-145065541D01*
X213710859Y-77174864D02*
X209269443Y-81616280D01*
X208882827Y-123807316D02*
X211858317Y-120831826D01*
X220785545Y-101794455D02*
X221121044Y-101458956D01*
X223720000Y-73520000D02*
X228600000Y-78400000D01*
X211453120Y-119287012D02*
X211790563Y-118949569D01*
X214385305Y-131651018D02*
X215403792Y-130632531D01*
X228600000Y-162560000D02*
X231015000Y-160145000D01*
X213934439Y-86360000D02*
X209190719Y-81616280D01*
X230225000Y-137196701D02*
X230225000Y-100685000D01*
X205916867Y-119033764D02*
X206367952Y-118582679D01*
X212276765Y-133328804D02*
X213784695Y-131820874D01*
X214385305Y-131820874D02*
X214385305Y-131651018D01*
X206367952Y-119382679D02*
X206367952Y-118582679D01*
X208012287Y-66110936D02*
X209065166Y-65058057D01*
X208112927Y-126148804D02*
X208882827Y-125378904D01*
X231015000Y-150997008D02*
X225083533Y-145065541D01*
X211829884Y-96633827D02*
X212366765Y-96633827D01*
X217118562Y-67854624D02*
X216456063Y-67854624D01*
X220626814Y-68720000D02*
X218440000Y-66533186D01*
X213966765Y-91440000D02*
X213966765Y-86392326D01*
X226520000Y-72120000D02*
X226520000Y-74020000D01*
X229652625Y-142525541D02*
X228677626Y-142525541D01*
X210820000Y-133328804D02*
X212276765Y-133328804D01*
X208882827Y-125378904D02*
X208882827Y-123934292D01*
X222159013Y-99869381D02*
X225784197Y-96244197D01*
X224702625Y-145065541D02*
X229652625Y-145065541D01*
X217518062Y-105061938D02*
X220785545Y-101794455D01*
X231015000Y-160145000D02*
X231015000Y-150997008D01*
X206066723Y-127198804D02*
X207116723Y-126148804D01*
X223720000Y-68720000D02*
X220626814Y-68720000D01*
X209065166Y-65058057D02*
X217458057Y-65058057D01*
X214385305Y-131820874D02*
X216892445Y-134328014D01*
X208882827Y-123934292D02*
X208882827Y-123807316D01*
X208008945Y-135345000D02*
X206692527Y-135345000D01*
X224220000Y-68220000D02*
X226520000Y-68220000D01*
X206692527Y-135345000D02*
X204519043Y-133171516D01*
X228677626Y-142525541D02*
X228352625Y-142200540D01*
X205895327Y-132278804D02*
X206945327Y-133328804D01*
X216892445Y-134328014D02*
X216892445Y-135097791D01*
X212053453Y-93353312D02*
X213966765Y-91440000D01*
X204691393Y-119033764D02*
X205916867Y-119033764D01*
X228352625Y-139069076D02*
X230225000Y-137196701D01*
X215302821Y-155877195D02*
X216315015Y-155877195D01*
X206109583Y-121161048D02*
X205805685Y-121161048D01*
%TO.N,PB7_PB8_MCU*%
X211593963Y-141766588D02*
X209462421Y-139635046D01*
X211593963Y-146546036D02*
X211593963Y-141766588D01*
X216315015Y-153277195D02*
X215577516Y-153277195D01*
X216315015Y-153277195D02*
X216315015Y-151267088D01*
X216315015Y-151267088D02*
X211593963Y-146546036D01*
%TO.N,PC15_MCU*%
X214085000Y-153084679D02*
X214085000Y-152400000D01*
X210820000Y-151858469D02*
X209530195Y-150568664D01*
X215577516Y-154577195D02*
X214085000Y-153084679D01*
X216315015Y-154577195D02*
X215577516Y-154577195D01*
X210820000Y-152400000D02*
X210820000Y-151858469D01*
%TO.N,PB3_PB4_PB5P_PB6_MCU*%
X222036124Y-153273304D02*
X222040015Y-153277195D01*
X222036124Y-151579317D02*
X222036124Y-153273304D01*
%TO.N,PC14_PB9_MCU*%
X215127516Y-153477195D02*
X215127516Y-150715985D01*
X215127516Y-150715985D02*
X209530195Y-145118664D01*
X216315015Y-153927195D02*
X215577516Y-153927195D01*
X215577516Y-153927195D02*
X215127516Y-153477195D01*
%TO.N,PA12_PA10_MCU*%
X221562569Y-161572020D02*
X209551215Y-161572020D01*
X222040015Y-155227195D02*
X222777514Y-155227195D01*
X222777514Y-155227195D02*
X224541023Y-156990704D01*
X224541023Y-156990704D02*
X224541023Y-159295000D01*
X221728461Y-161406128D02*
X221562569Y-161572020D01*
%TO.N,PA11_PA9_MCU*%
X220562875Y-163597020D02*
X206208551Y-163597020D01*
X222777514Y-155877195D02*
X223541020Y-156640701D01*
X223541020Y-156640701D02*
X223541020Y-159295000D01*
X222040015Y-155877195D02*
X222777514Y-155877195D01*
X206208551Y-163597020D02*
X204080195Y-161468664D01*
X223414895Y-160745000D02*
X220562875Y-163597020D01*
%TO.N,PA3_MCU*%
X216315015Y-159127195D02*
X207188726Y-159127195D01*
X207188726Y-159127195D02*
X204080195Y-156018664D01*
%TO.N,PA2_MCU*%
X207505195Y-153993664D02*
X204080195Y-150568664D01*
X209124943Y-158477195D02*
X207505195Y-156857447D01*
X207505195Y-156857447D02*
X207505195Y-153993664D01*
X216315015Y-158477195D02*
X209124943Y-158477195D01*
%TO.N,PA1_MCU*%
X216315015Y-157827195D02*
X215223703Y-157827195D01*
X207505195Y-151625195D02*
X207505195Y-148543664D01*
X209873664Y-153993664D02*
X207505195Y-151625195D01*
X211390172Y-153993664D02*
X209873664Y-153993664D01*
X215223703Y-157827195D02*
X211390172Y-153993664D01*
X207505195Y-148543664D02*
X204080195Y-145118664D01*
%TO.N,Net-(D1-K)*%
X218226501Y-96962175D02*
X224285513Y-103021187D01*
X224285513Y-103021187D02*
X225577583Y-103021187D01*
X205650070Y-89476929D02*
X205890719Y-89236280D01*
X225577583Y-103021187D02*
X227074460Y-104518064D01*
X206696802Y-90042363D02*
X205890719Y-89236280D01*
X206696802Y-90882457D02*
X206696802Y-90042363D01*
X218226501Y-96627154D02*
X218226501Y-96962175D01*
X227074460Y-104518064D02*
X227074460Y-109033008D01*
%TO.N,PA0_MCU*%
X213360000Y-154959679D02*
X213360000Y-151534686D01*
X213360000Y-151534686D02*
X209145314Y-147320000D01*
X206105195Y-141693664D02*
X204080195Y-139668664D01*
X209145314Y-147320000D02*
X208645195Y-147320000D01*
X206105195Y-144780000D02*
X206105195Y-141693664D01*
X208645195Y-147320000D02*
X206105195Y-144780000D01*
X215577516Y-157177195D02*
X213360000Y-154959679D01*
X216315015Y-157177195D02*
X215577516Y-157177195D01*
%TO.N,ADC_v-to-c*%
X212627284Y-117537882D02*
X212382487Y-117782679D01*
X225391187Y-103471187D02*
X226124460Y-104204460D01*
X226060000Y-139591375D02*
X225236718Y-138768093D01*
X221674460Y-107158008D02*
X221674460Y-105034026D01*
X215174843Y-117537882D02*
X215588156Y-117124569D01*
X226060000Y-142143165D02*
X226060000Y-139591375D01*
X207667952Y-117782679D02*
X208067952Y-117782679D01*
X225677624Y-142525541D02*
X226060000Y-142143165D01*
X208067952Y-117782679D02*
X212382487Y-117782679D01*
X213432105Y-117537882D02*
X215174843Y-117537882D01*
X212382487Y-117782679D02*
X212635000Y-117530166D01*
X224702625Y-142525541D02*
X225677624Y-142525541D01*
X221674460Y-108444977D02*
X215588156Y-114531281D01*
X213432105Y-117537882D02*
X212627284Y-117537882D01*
X206867952Y-116982679D02*
X207667952Y-117782679D01*
X226124460Y-104204460D02*
X226124460Y-107158008D01*
X215588156Y-114531281D02*
X215588156Y-117124569D01*
X225236718Y-138768093D02*
X223943937Y-137475312D01*
X223943937Y-137475312D02*
X223943937Y-133912281D01*
X221674460Y-105034026D02*
X223237299Y-103471187D01*
X223237299Y-103471187D02*
X225391187Y-103471187D01*
X221674460Y-107158008D02*
X221674460Y-108444977D01*
X206367952Y-116982679D02*
X206867952Y-116982679D01*
X223943937Y-133912281D02*
X223943937Y-129655561D01*
X223943937Y-129655561D02*
X222241250Y-127952874D01*
%TO.N,LiPO1_Control*%
X212341440Y-99660277D02*
X207679723Y-99660277D01*
X228024460Y-104932790D02*
X228036063Y-104921187D01*
X228024460Y-107158008D02*
X228024460Y-104932790D01*
X222040015Y-157827195D02*
X221302516Y-157827195D01*
X216536396Y-139700000D02*
X216218198Y-139381802D01*
X203200000Y-116840000D02*
X204142679Y-117782679D01*
X218890000Y-144593604D02*
X216536396Y-142240000D01*
X212366765Y-99685602D02*
X212341440Y-99660277D01*
X218890000Y-155414679D02*
X218890000Y-144593604D01*
X207679723Y-99660277D02*
X203200000Y-104140000D01*
X221302516Y-157827195D02*
X218890000Y-155414679D01*
X216536396Y-142240000D02*
X216536396Y-139700000D01*
X203200000Y-104140000D02*
X203200000Y-116840000D01*
X214085000Y-137248604D02*
X214085000Y-134620000D01*
X219438541Y-107181545D02*
X219418062Y-107202024D01*
X206367952Y-117782679D02*
X204142679Y-117782679D01*
X212366765Y-98333827D02*
X212366765Y-99685602D01*
X216218198Y-139381802D02*
X214085000Y-137248604D01*
X219438541Y-105783041D02*
X219438541Y-107181545D01*
%TO.N,Switch_Regulator_PWM*%
X210504687Y-78452435D02*
X210533288Y-78452435D01*
X219790000Y-144220812D02*
X219394594Y-143825406D01*
X210533288Y-78452435D02*
X211810859Y-77174864D01*
X219394594Y-143825406D02*
X217436396Y-141867208D01*
X222040015Y-156527195D02*
X221302516Y-156527195D01*
X202750000Y-118802081D02*
X202750000Y-81130591D01*
X202750000Y-81130591D02*
X204576812Y-79303779D01*
X219790000Y-155014679D02*
X219790000Y-144220812D01*
X203855598Y-119907679D02*
X202750000Y-118802081D01*
X208067952Y-119382679D02*
X207542952Y-119907679D01*
X210118999Y-120627061D02*
X208874617Y-119382679D01*
X215260000Y-137150812D02*
X215260000Y-133720874D01*
X207542952Y-119907679D02*
X203855598Y-119907679D01*
X217436396Y-139327208D02*
X216854594Y-138745406D01*
X221302516Y-156527195D02*
X219790000Y-155014679D01*
X216854594Y-138745406D02*
X215260000Y-137150812D01*
X215260000Y-133720874D02*
X214085000Y-132545874D01*
X208874617Y-119382679D02*
X208067952Y-119382679D01*
X217436396Y-141867208D02*
X217436396Y-139327208D01*
%TO.N,FB*%
X210586961Y-120069718D02*
X218051063Y-120069718D01*
X217063201Y-122432274D02*
X218051063Y-121444412D01*
X218638804Y-126131242D02*
X218638804Y-123940344D01*
X209099922Y-118582679D02*
X210586961Y-120069718D01*
X218051063Y-121444412D02*
X218051063Y-120069718D01*
X218638804Y-123940344D02*
X218560025Y-123861565D01*
X208067952Y-118582679D02*
X209099922Y-118582679D01*
%TO.N,LiPO2_Control*%
X210874460Y-104085540D02*
X213868020Y-101091980D01*
X213868020Y-101091980D02*
X213868020Y-99568020D01*
X208112726Y-116937905D02*
X208067952Y-116982679D01*
X213966765Y-99469275D02*
X213966765Y-98333827D01*
X214810000Y-137337208D02*
X214810000Y-134319695D01*
X221302516Y-157177195D02*
X219340000Y-155214679D01*
X219340000Y-155214679D02*
X219340000Y-144407208D01*
X222040015Y-157177195D02*
X221302516Y-157177195D01*
X214810000Y-134319695D02*
X214097652Y-133607345D01*
X223574460Y-104233043D02*
X223537604Y-104196187D01*
X213868020Y-99568020D02*
X213966765Y-99469275D01*
X210824460Y-107208008D02*
X210824460Y-115507444D01*
X216986396Y-142053604D02*
X216986396Y-139513604D01*
X219340000Y-144407208D02*
X216986396Y-142053604D01*
X210824460Y-115507444D02*
X209393999Y-116937905D01*
X210874460Y-107158008D02*
X210874460Y-104085540D01*
X216986396Y-139513604D02*
X214810000Y-137337208D01*
X210874460Y-107158008D02*
X210824460Y-107208008D01*
X209393999Y-116937905D02*
X208112726Y-116937905D01*
X223574460Y-107158008D02*
X223574460Y-104233043D01*
%TO.N,Net-(U3A-INA-)*%
X218717445Y-137103063D02*
X218717445Y-135097791D01*
X218717445Y-135097791D02*
X218717445Y-133972791D01*
X218717445Y-133972791D02*
X216892445Y-132147791D01*
X222869923Y-141255541D02*
X218717445Y-137103063D01*
X224702625Y-141255541D02*
X222869923Y-141255541D01*
%TO.N,ADC_Current*%
X218717445Y-132147791D02*
X223162644Y-136592990D01*
X222040015Y-159127195D02*
X221302516Y-159127195D01*
X223162644Y-136592990D02*
X223162644Y-140522957D01*
X217990000Y-155814679D02*
X217990000Y-145567167D01*
X223162644Y-140522957D02*
X224165209Y-140522957D01*
X224165209Y-140522957D02*
X224702625Y-139985541D01*
X222040015Y-159127195D02*
X221316120Y-159127195D01*
X221302516Y-159127195D02*
X217990000Y-155814679D01*
X217990000Y-145567167D02*
X217715000Y-145292167D01*
%TO.N,Net-(U1-EN)*%
X205404027Y-72156835D02*
X205404027Y-72398685D01*
X215978744Y-66427305D02*
X216456063Y-66904624D01*
X215978744Y-65783057D02*
X215978744Y-66427305D01*
X205404027Y-72398685D02*
X206504027Y-73498685D01*
%TO.N,USB Vdc*%
X208265862Y-71120000D02*
X207229027Y-72156835D01*
X214766765Y-96633827D02*
X214766765Y-90368722D01*
X207229027Y-72156835D02*
X207229027Y-74523743D01*
X221971996Y-72420000D02*
X219277997Y-75113999D01*
X205301812Y-80096062D02*
X204769520Y-80628354D01*
X225677624Y-143795541D02*
X226510000Y-142963165D01*
X214894471Y-68179624D02*
X208448375Y-68179624D01*
X226510000Y-139276063D02*
X224393937Y-137160000D01*
X214491765Y-97408827D02*
X213291765Y-97408827D01*
X210675569Y-86096463D02*
X210494506Y-86096463D01*
X226510000Y-142963165D02*
X226510000Y-139276063D01*
X223632500Y-72420000D02*
X221971996Y-72420000D01*
X216142959Y-97851926D02*
X215984864Y-97851926D01*
X216456063Y-68804624D02*
X215519471Y-68804624D01*
X206195521Y-75557249D02*
X204895645Y-76857125D01*
X215519471Y-68804624D02*
X214894471Y-68179624D01*
X215291765Y-97158827D02*
X214766765Y-96633827D01*
X207455666Y-85721227D02*
X205890719Y-84156280D01*
X207229027Y-74523743D02*
X206195521Y-75557249D01*
X210119270Y-85721227D02*
X207455666Y-85721227D01*
X204769520Y-83035081D02*
X205890719Y-84156280D01*
X216764938Y-69113499D02*
X216456063Y-68804624D01*
X213166765Y-97533827D02*
X213166765Y-98333827D01*
X208448375Y-68179624D02*
X207429687Y-67160936D01*
X214766765Y-97133827D02*
X214491765Y-97408827D01*
X224702625Y-143795541D02*
X225677624Y-143795541D01*
X208280000Y-71120000D02*
X208265862Y-71120000D01*
X214766765Y-90187659D02*
X214727540Y-90148434D01*
X214766765Y-90368722D02*
X214766765Y-90187659D01*
X204895645Y-77643395D02*
X205301812Y-78049562D01*
X215984864Y-97851926D02*
X215291765Y-97158827D01*
X204769520Y-80628354D02*
X204769520Y-83035081D01*
X214766765Y-96633827D02*
X214766765Y-97133827D01*
X210494506Y-86096463D02*
X210119270Y-85721227D01*
X204895645Y-76857125D02*
X204895645Y-77643395D01*
X219277997Y-75113999D02*
X216764938Y-75113999D01*
X205301812Y-78049562D02*
X205301812Y-80096062D01*
X216764938Y-75113999D02*
X216764938Y-69113499D01*
X224393937Y-137160000D02*
X224393937Y-127772249D01*
X224393937Y-127772249D02*
X224385375Y-127763687D01*
X213291765Y-97408827D02*
X213166765Y-97533827D01*
%TO.N,Net-(Q3-D)*%
X208277906Y-75299864D02*
X212760859Y-75299864D01*
X212760859Y-75299864D02*
X213800803Y-75299864D01*
X213800803Y-75299864D02*
X215814938Y-77313999D01*
X206195521Y-77382249D02*
X208277906Y-75299864D01*
%TO.N,MCU Vdd*%
X202300000Y-118988477D02*
X207970327Y-124658804D01*
X205998788Y-71131835D02*
X204896427Y-71131835D01*
X204896427Y-71131835D02*
X202300000Y-73728262D01*
X217052514Y-155227195D02*
X217540000Y-154739709D01*
X204969043Y-132985120D02*
X204969043Y-126492488D01*
X204969043Y-126492488D02*
X205312727Y-126148804D01*
X216315015Y-155227195D02*
X217052514Y-155227195D01*
X212382105Y-140984577D02*
X212382105Y-138573182D01*
X217540000Y-146142472D02*
X212382105Y-140984577D01*
X202300000Y-73728262D02*
X202300000Y-118988477D01*
X217540000Y-154739709D02*
X217540000Y-146142472D01*
X214181063Y-68804624D02*
X213284751Y-69700936D01*
X206480327Y-126148804D02*
X207970327Y-124658804D01*
X207429687Y-69700936D02*
X205998788Y-71131835D01*
X212382105Y-138573182D02*
X208428923Y-134620000D01*
X208428923Y-134620000D02*
X206603923Y-134620000D01*
X206603923Y-134620000D02*
X204969043Y-132985120D01*
X205312727Y-126148804D02*
X206480327Y-126148804D01*
X213284751Y-69700936D02*
X207429687Y-69700936D01*
%TO.N,Net-(Q4-D)*%
X207759477Y-105922102D02*
X206746925Y-106934654D01*
X207863590Y-105922102D02*
X207759477Y-105922102D01*
X208845279Y-109033008D02*
X209924460Y-109033008D01*
X206746925Y-106934654D02*
X208845279Y-109033008D01*
X214766765Y-98333827D02*
X214766765Y-101218540D01*
X214766765Y-101218540D02*
X211766010Y-104219295D01*
%TO.N,LiPO Mid*%
X220512518Y-110632225D02*
X221025243Y-110632225D01*
X225394036Y-131414036D02*
X225394036Y-127356242D01*
X213285323Y-107020000D02*
X212491010Y-107814313D01*
X225462492Y-114870205D02*
X225462492Y-112329410D01*
X223773248Y-110181796D02*
X222624460Y-109033008D01*
X213086838Y-110847836D02*
X218246296Y-110847836D01*
X228600000Y-134620000D02*
X225394036Y-131414036D01*
X212491010Y-107814313D02*
X212491010Y-110252008D01*
X212491010Y-110252008D02*
X213086838Y-110847836D01*
X223773248Y-110640166D02*
X223773248Y-110181796D01*
X221025243Y-110632225D02*
X222624460Y-109033008D01*
X225462492Y-112329410D02*
X223773248Y-110640166D01*
%TO.N,Net-(Q6-G)*%
X215185323Y-106570306D02*
X216245162Y-105510467D01*
X218468062Y-109077024D02*
X217979654Y-109077024D01*
X213166765Y-95452664D02*
X213166765Y-96633827D01*
X213215569Y-95403860D02*
X213166765Y-95452664D01*
X217979654Y-109077024D02*
X215922630Y-107020000D01*
X215922630Y-107020000D02*
X215185323Y-107020000D01*
X212778453Y-94966743D02*
X213215569Y-95403860D01*
X215185323Y-107020000D02*
X215185323Y-106570306D01*
%TO.N,NRST*%
X220941508Y-160020000D02*
X228600000Y-160020000D01*
X216315015Y-156527195D02*
X217448703Y-156527195D01*
X217448703Y-156527195D02*
X220941508Y-160020000D01*
%TO.N,Switch_Regulated_V*%
X217501501Y-103228822D02*
X217501501Y-92467062D01*
X223359032Y-92467062D02*
X217501501Y-92467062D01*
X213360000Y-137160000D02*
X213360000Y-135082002D01*
X205796925Y-109134654D02*
X205796925Y-110419144D01*
X217501501Y-92467062D02*
X215512609Y-90478170D01*
X210806024Y-85105006D02*
X210139445Y-85105006D01*
X210139445Y-85105006D02*
X209190719Y-84156280D01*
X215900000Y-139700000D02*
X213360000Y-137160000D01*
X222040015Y-158477195D02*
X221302516Y-158477195D01*
X215512609Y-90478170D02*
X215512609Y-89439339D01*
X213360000Y-135082002D02*
X213107105Y-134829107D01*
X218440000Y-155614679D02*
X218440000Y-144780000D01*
X218440000Y-144780000D02*
X215900000Y-142240000D01*
X221302516Y-158477195D02*
X218440000Y-155614679D01*
X213360000Y-110095693D02*
X213359815Y-110095508D01*
X215900000Y-142240000D02*
X215900000Y-139700000D01*
X205796925Y-110419144D02*
X205838062Y-110460281D01*
X214235323Y-106495000D02*
X217501501Y-103228822D01*
X214235323Y-109220000D02*
X213359815Y-110095508D01*
X214235323Y-109220000D02*
X214235323Y-106495000D01*
%TO.N,SWDIO*%
X228237195Y-154577195D02*
X228600000Y-154940000D01*
X222040015Y-154577195D02*
X228237195Y-154577195D01*
%TO.N,SWCLK*%
X229775000Y-156305000D02*
X228600000Y-157480000D01*
X229775000Y-153765000D02*
X229775000Y-156305000D01*
X227262805Y-153927195D02*
X227425000Y-153765000D01*
X222040015Y-153927195D02*
X227262805Y-153927195D01*
X227425000Y-153765000D02*
X229775000Y-153765000D01*
%TO.N,3.3v Battery*%
X215614751Y-124681242D02*
X215839539Y-124681242D01*
X215839539Y-124681242D02*
X219126063Y-121394718D01*
X210060327Y-130188804D02*
X214031359Y-130188804D01*
X219126063Y-117144718D02*
X218682595Y-116701250D01*
X219126063Y-121394718D02*
X219126063Y-117144718D01*
X214890730Y-125405263D02*
X215614751Y-124681242D01*
X207970327Y-132278804D02*
X210060327Y-130188804D01*
X220920406Y-116780406D02*
X220920406Y-116701250D01*
X220920406Y-116701250D02*
X218682595Y-116701250D01*
X218682595Y-116701250D02*
X218051063Y-116069718D01*
X228600000Y-124460000D02*
X220920406Y-116780406D01*
X214031359Y-130188804D02*
X214312978Y-130470423D01*
%TO.N,SW*%
X214367742Y-128688804D02*
X215978273Y-127078273D01*
X205895327Y-129738804D02*
X206945327Y-128688804D01*
X216425304Y-126631242D02*
X216962804Y-126631242D01*
X220920406Y-120475879D02*
X215990043Y-125406242D01*
X220920406Y-119501250D02*
X220920406Y-120475879D01*
X215978273Y-127078273D02*
X216425304Y-126631242D01*
X206945327Y-128688804D02*
X214367742Y-128688804D01*
%TO.N,LiPO High*%
X210843999Y-126817819D02*
X210463014Y-127198804D01*
X216962804Y-126131242D02*
X214435480Y-126131242D01*
X214085000Y-125780762D02*
X214085000Y-120820718D01*
X229775000Y-135985000D02*
X228600000Y-137160000D01*
X204584950Y-88002049D02*
X205890719Y-86696280D01*
X228600000Y-127000000D02*
X229775000Y-128175000D01*
X218071242Y-126631242D02*
X218638804Y-126631242D01*
X214435480Y-126131242D02*
X214113264Y-126453458D01*
X228231242Y-126631242D02*
X228600000Y-127000000D01*
X229775000Y-128175000D02*
X229775000Y-135985000D01*
X204584950Y-88349578D02*
X204584950Y-88002049D01*
X217571242Y-126131242D02*
X218071242Y-126631242D01*
X218638804Y-126631242D02*
X228231242Y-126631242D01*
X214435480Y-126131242D02*
X214085000Y-125780762D01*
X216962804Y-126131242D02*
X217571242Y-126131242D01*
X210463014Y-127198804D02*
X207970327Y-127198804D01*
%TO.N,Net-(D7-A)*%
X210787157Y-87967729D02*
X210462168Y-87967729D01*
X210462168Y-87967729D02*
X209190719Y-86696280D01*
X204846925Y-106934654D02*
X204846925Y-104136064D01*
X204846925Y-104136064D02*
X204538083Y-103827222D01*
%TO.N,Net-(D5-K)*%
X217714938Y-77313999D02*
X217548382Y-77313999D01*
X218205969Y-77313999D02*
X217714938Y-77313999D01*
X223359032Y-82467062D02*
X218205969Y-77313999D01*
X217548382Y-77313999D02*
X215884963Y-78977418D01*
X207288665Y-80218334D02*
X205890719Y-81616280D01*
%TO.N,LiPO Low*%
X210290155Y-90438479D02*
X210290155Y-90335716D01*
X210290155Y-90335716D02*
X209190719Y-89236280D01*
%TO.N,BST*%
X207970327Y-129738804D02*
X216031242Y-129738804D01*
X216031242Y-129738804D02*
X218638804Y-127131242D01*
%TO.N,Net-(U3B-INB-)*%
X224702625Y-146335541D02*
X224702625Y-147605541D01*
%TO.N,Net-(U3C-INC-)*%
X229652625Y-146335541D02*
X229652625Y-147605541D01*
%TO.N,Net-(U3D-IND-)*%
X229652625Y-141255541D02*
X229652625Y-139985541D01*
%TD*%
M02*
