%TF.GenerationSoftware,KiCad,Pcbnew,7.0.10*%
%TF.CreationDate,2024-03-06T19:49:30-08:00*%
%TF.ProjectId,462FinalProject,34363246-696e-4616-9c50-726f6a656374,rev?*%
%TF.SameCoordinates,Original*%
%TF.FileFunction,Soldermask,Top*%
%TF.FilePolarity,Negative*%
%FSLAX46Y46*%
G04 Gerber Fmt 4.6, Leading zero omitted, Abs format (unit mm)*
G04 Created by KiCad (PCBNEW 7.0.10) date 2024-03-06 19:49:30*
%MOMM*%
%LPD*%
G01*
G04 APERTURE LIST*
G04 Aperture macros list*
%AMRoundRect*
0 Rectangle with rounded corners*
0 $1 Rounding radius*
0 $2 $3 $4 $5 $6 $7 $8 $9 X,Y pos of 4 corners*
0 Add a 4 corners polygon primitive as box body*
4,1,4,$2,$3,$4,$5,$6,$7,$8,$9,$2,$3,0*
0 Add four circle primitives for the rounded corners*
1,1,$1+$1,$2,$3*
1,1,$1+$1,$4,$5*
1,1,$1+$1,$6,$7*
1,1,$1+$1,$8,$9*
0 Add four rect primitives between the rounded corners*
20,1,$1+$1,$2,$3,$4,$5,0*
20,1,$1+$1,$4,$5,$6,$7,0*
20,1,$1+$1,$6,$7,$8,$9,0*
20,1,$1+$1,$8,$9,$2,$3,0*%
G04 Aperture macros list end*
%ADD10RoundRect,0.250000X-0.262500X-0.450000X0.262500X-0.450000X0.262500X0.450000X-0.262500X0.450000X0*%
%ADD11C,3.400000*%
%ADD12RoundRect,0.150000X-0.150000X0.587500X-0.150000X-0.587500X0.150000X-0.587500X0.150000X0.587500X0*%
%ADD13RoundRect,0.250000X-0.337500X-0.475000X0.337500X-0.475000X0.337500X0.475000X-0.337500X0.475000X0*%
%ADD14RoundRect,0.225000X-0.225000X-0.375000X0.225000X-0.375000X0.225000X0.375000X-0.225000X0.375000X0*%
%ADD15R,1.400000X1.000000*%
%ADD16R,0.600000X1.050000*%
%ADD17RoundRect,0.250000X0.450000X-0.262500X0.450000X0.262500X-0.450000X0.262500X-0.450000X-0.262500X0*%
%ADD18RoundRect,0.150000X0.150000X-0.587500X0.150000X0.587500X-0.150000X0.587500X-0.150000X-0.587500X0*%
%ADD19R,0.900000X0.400000*%
%ADD20RoundRect,0.150000X-0.825000X-0.150000X0.825000X-0.150000X0.825000X0.150000X-0.825000X0.150000X0*%
%ADD21R,1.525000X0.400000*%
%ADD22R,1.525000X0.425000*%
%ADD23RoundRect,0.375000X-0.375000X0.875000X-0.375000X-0.875000X0.375000X-0.875000X0.375000X0.875000X0*%
%ADD24R,1.550000X1.200000*%
%ADD25RoundRect,0.200000X1.300000X-0.300000X1.300000X0.300000X-1.300000X0.300000X-1.300000X-0.300000X0*%
%ADD26R,1.550000X1.500000*%
%ADD27RoundRect,0.375000X0.375000X-0.875000X0.375000X0.875000X-0.375000X0.875000X-0.375000X-0.875000X0*%
%ADD28R,1.500000X2.000000*%
%ADD29R,7.000000X4.000000*%
%ADD30R,1.700000X1.700000*%
%ADD31O,1.700000X1.700000*%
%ADD32R,0.475000X0.300000*%
%ADD33R,0.400000X0.900000*%
%ADD34RoundRect,0.150000X0.512500X0.150000X-0.512500X0.150000X-0.512500X-0.150000X0.512500X-0.150000X0*%
%ADD35RoundRect,0.100000X-0.637500X-0.100000X0.637500X-0.100000X0.637500X0.100000X-0.637500X0.100000X0*%
%ADD36RoundRect,0.250000X-0.450000X0.262500X-0.450000X-0.262500X0.450000X-0.262500X0.450000X0.262500X0*%
G04 APERTURE END LIST*
D10*
%TO.C,R10*%
X216892445Y-135097791D03*
X218717445Y-135097791D03*
%TD*%
D11*
%TO.C,TP6*%
X209551215Y-161572020D03*
%TD*%
D12*
%TO.C,Q9*%
X219418062Y-107202024D03*
X217518062Y-107202024D03*
X218468062Y-109077024D03*
%TD*%
D13*
%TO.C,C6*%
X205895327Y-127198804D03*
X207970327Y-127198804D03*
%TD*%
D14*
%TO.C,D5*%
X205890719Y-81616280D03*
X209190719Y-81616280D03*
%TD*%
D11*
%TO.C,TP8*%
X209530195Y-150568664D03*
%TD*%
%TO.C,TP3*%
X204080195Y-150568664D03*
%TD*%
D15*
%TO.C,L2*%
X220920406Y-119501250D03*
X220920406Y-116701250D03*
%TD*%
D16*
%TO.C,Q8*%
X206746925Y-106934654D03*
X204846925Y-106934654D03*
X205796925Y-109134654D03*
%TD*%
D17*
%TO.C,R12*%
X206195521Y-77382249D03*
X206195521Y-75557249D03*
%TD*%
D11*
%TO.C,TP9*%
X209530195Y-156018664D03*
%TD*%
D14*
%TO.C,D7*%
X205890719Y-86696280D03*
X209190719Y-86696280D03*
%TD*%
D13*
%TO.C,C1*%
X205354687Y-67160936D03*
X207429687Y-67160936D03*
%TD*%
D18*
%TO.C,Q3*%
X211810859Y-77174864D03*
X213710859Y-77174864D03*
X212760859Y-75299864D03*
%TD*%
D19*
%TO.C,RN2*%
X206367952Y-116982679D03*
X206367952Y-117782679D03*
X206367952Y-118582679D03*
X206367952Y-119382679D03*
X208067952Y-119382679D03*
X208067952Y-118582679D03*
X208067952Y-117782679D03*
X208067952Y-116982679D03*
%TD*%
D20*
%TO.C,U3*%
X224702625Y-139985541D03*
X224702625Y-141255541D03*
X224702625Y-142525541D03*
X224702625Y-143795541D03*
X224702625Y-145065541D03*
X224702625Y-146335541D03*
X224702625Y-147605541D03*
X229652625Y-147605541D03*
X229652625Y-146335541D03*
X229652625Y-145065541D03*
X229652625Y-143795541D03*
X229652625Y-142525541D03*
X229652625Y-141255541D03*
X229652625Y-139985541D03*
%TD*%
D21*
%TO.C,J3*%
X223632500Y-72420000D03*
D22*
X223632500Y-71782500D03*
D21*
X223632500Y-71120000D03*
X223632500Y-70470000D03*
D22*
X223632500Y-69832500D03*
D23*
X226520000Y-75120000D03*
D24*
X226520000Y-74020000D03*
D25*
X223220000Y-73520000D03*
D26*
X226520000Y-72120000D03*
X226520000Y-70120000D03*
D25*
X223220000Y-68720000D03*
D24*
X226520000Y-68220000D03*
D27*
X226520000Y-67120000D03*
%TD*%
D11*
%TO.C,TP1*%
X204080195Y-139668664D03*
%TD*%
D14*
%TO.C,D6*%
X205890719Y-84156280D03*
X209190719Y-84156280D03*
%TD*%
D28*
%TO.C,R5*%
X218051063Y-116069718D03*
X218051063Y-120069718D03*
%TD*%
D13*
%TO.C,C2*%
X205895327Y-124658804D03*
X207970327Y-124658804D03*
%TD*%
D11*
%TO.C,TP7*%
X209530195Y-145118664D03*
%TD*%
D12*
%TO.C,Q2*%
X223574460Y-107158008D03*
X221674460Y-107158008D03*
X222624460Y-109033008D03*
%TD*%
D16*
%TO.C,Q7*%
X215814938Y-77313999D03*
X217714938Y-77313999D03*
X216764938Y-75113999D03*
%TD*%
D29*
%TO.C,L1*%
X223359032Y-82467062D03*
X223359032Y-92467062D03*
%TD*%
D30*
%TO.C,J4*%
X228600000Y-121920000D03*
D31*
X228600000Y-124460000D03*
X228600000Y-127000000D03*
%TD*%
D11*
%TO.C,TP10*%
X209462421Y-139635046D03*
%TD*%
D30*
%TO.C,J2*%
X228600000Y-132080000D03*
D31*
X228600000Y-134620000D03*
X228600000Y-137160000D03*
%TD*%
D32*
%TO.C,IC1*%
X216962804Y-126131242D03*
X216962804Y-126631242D03*
X216962804Y-127131242D03*
X218638804Y-127131242D03*
X218638804Y-126631242D03*
X218638804Y-126131242D03*
%TD*%
D11*
%TO.C,TP5*%
X204080195Y-161468664D03*
%TD*%
D30*
%TO.C,J5*%
X228600000Y-154940000D03*
D31*
X228600000Y-157480000D03*
X228600000Y-160020000D03*
X228600000Y-162560000D03*
%TD*%
D11*
%TO.C,TP4*%
X204080195Y-156018664D03*
%TD*%
D12*
%TO.C,Q4*%
X210874460Y-107158008D03*
X208974460Y-107158008D03*
X209924460Y-109033008D03*
%TD*%
%TO.C,Q1*%
X228024460Y-107158008D03*
X226124460Y-107158008D03*
X227074460Y-109033008D03*
%TD*%
D11*
%TO.C,TP2*%
X204080195Y-145118664D03*
%TD*%
D33*
%TO.C,RN1*%
X212366765Y-98333827D03*
X213166765Y-98333827D03*
X213966765Y-98333827D03*
X214766765Y-98333827D03*
X214766765Y-96633827D03*
X213966765Y-96633827D03*
X213166765Y-96633827D03*
X212366765Y-96633827D03*
%TD*%
D13*
%TO.C,C3*%
X205354687Y-69700936D03*
X207429687Y-69700936D03*
%TD*%
%TO.C,C5*%
X205895327Y-132278804D03*
X207970327Y-132278804D03*
%TD*%
D16*
%TO.C,Q6*%
X215185323Y-107020000D03*
X213285323Y-107020000D03*
X214235323Y-109220000D03*
%TD*%
D10*
%TO.C,R9*%
X216892445Y-132147791D03*
X218717445Y-132147791D03*
%TD*%
D34*
%TO.C,U1*%
X216456063Y-68804624D03*
X216456063Y-67854624D03*
X216456063Y-66904624D03*
X214181063Y-66904624D03*
X214181063Y-68804624D03*
%TD*%
D35*
%TO.C,U2*%
X216315015Y-153277195D03*
X216315015Y-153927195D03*
X216315015Y-154577195D03*
X216315015Y-155227195D03*
X216315015Y-155877195D03*
X216315015Y-156527195D03*
X216315015Y-157177195D03*
X216315015Y-157827195D03*
X216315015Y-158477195D03*
X216315015Y-159127195D03*
X222040015Y-159127195D03*
X222040015Y-158477195D03*
X222040015Y-157827195D03*
X222040015Y-157177195D03*
X222040015Y-156527195D03*
X222040015Y-155877195D03*
X222040015Y-155227195D03*
X222040015Y-154577195D03*
X222040015Y-153927195D03*
X222040015Y-153277195D03*
%TD*%
D10*
%TO.C,R4*%
X205404027Y-72156835D03*
X207229027Y-72156835D03*
%TD*%
D36*
%TO.C,R1*%
X215588156Y-117124569D03*
X215588156Y-118949569D03*
%TD*%
D13*
%TO.C,C4*%
X205895327Y-129738804D03*
X207970327Y-129738804D03*
%TD*%
D14*
%TO.C,D1*%
X205890719Y-89236280D03*
X209190719Y-89236280D03*
%TD*%
M02*
