%TF.GenerationSoftware,KiCad,Pcbnew,7.0.10*%
%TF.CreationDate,2024-03-06T19:49:30-08:00*%
%TF.ProjectId,462FinalProject,34363246-696e-4616-9c50-726f6a656374,rev?*%
%TF.SameCoordinates,Original*%
%TF.FileFunction,Copper,L2,Bot*%
%TF.FilePolarity,Positive*%
%FSLAX46Y46*%
G04 Gerber Fmt 4.6, Leading zero omitted, Abs format (unit mm)*
G04 Created by KiCad (PCBNEW 7.0.10) date 2024-03-06 19:49:30*
%MOMM*%
%LPD*%
G01*
G04 APERTURE LIST*
G04 Aperture macros list*
%AMRoundRect*
0 Rectangle with rounded corners*
0 $1 Rounding radius*
0 $2 $3 $4 $5 $6 $7 $8 $9 X,Y pos of 4 corners*
0 Add a 4 corners polygon primitive as box body*
4,1,4,$2,$3,$4,$5,$6,$7,$8,$9,$2,$3,0*
0 Add four circle primitives for the rounded corners*
1,1,$1+$1,$2,$3*
1,1,$1+$1,$4,$5*
1,1,$1+$1,$6,$7*
1,1,$1+$1,$8,$9*
0 Add four rect primitives between the rounded corners*
20,1,$1+$1,$2,$3,$4,$5,0*
20,1,$1+$1,$4,$5,$6,$7,0*
20,1,$1+$1,$6,$7,$8,$9,0*
20,1,$1+$1,$8,$9,$2,$3,0*%
G04 Aperture macros list end*
%TA.AperFunction,ComponentPad*%
%ADD10C,3.400000*%
%TD*%
%TA.AperFunction,ComponentPad*%
%ADD11RoundRect,0.375000X-0.375000X0.875000X-0.375000X-0.875000X0.375000X-0.875000X0.375000X0.875000X0*%
%TD*%
%TA.AperFunction,ComponentPad*%
%ADD12RoundRect,0.200000X1.300000X-0.300000X1.300000X0.300000X-1.300000X0.300000X-1.300000X-0.300000X0*%
%TD*%
%TA.AperFunction,ComponentPad*%
%ADD13RoundRect,0.375000X0.375000X-0.875000X0.375000X0.875000X-0.375000X0.875000X-0.375000X-0.875000X0*%
%TD*%
%TA.AperFunction,ComponentPad*%
%ADD14R,1.700000X1.700000*%
%TD*%
%TA.AperFunction,ComponentPad*%
%ADD15O,1.700000X1.700000*%
%TD*%
%TA.AperFunction,ViaPad*%
%ADD16C,0.800000*%
%TD*%
%TA.AperFunction,Conductor*%
%ADD17C,0.250000*%
%TD*%
G04 APERTURE END LIST*
D10*
%TO.P,TP6,1,1*%
%TO.N,PA12_PA10_MCU*%
X209551215Y-161572020D03*
%TD*%
%TO.P,TP8,1,1*%
%TO.N,PC15_MCU*%
X209530195Y-150568664D03*
%TD*%
%TO.P,TP3,1,1*%
%TO.N,PA2_MCU*%
X204080195Y-150568664D03*
%TD*%
%TO.P,TP9,1,1*%
%TO.N,PB3_PB4_PB5P_PB6_MCU*%
X209530195Y-156018664D03*
%TD*%
D11*
%TO.P,J3,6,Shield*%
%TO.N,GND*%
X226520000Y-75120000D03*
D12*
X223220000Y-73520000D03*
X223220000Y-68720000D03*
D13*
X226520000Y-67120000D03*
%TD*%
D10*
%TO.P,TP1,1,1*%
%TO.N,PA0_MCU*%
X204080195Y-139668664D03*
%TD*%
%TO.P,TP7,1,1*%
%TO.N,PC14_PB9_MCU*%
X209530195Y-145118664D03*
%TD*%
D14*
%TO.P,J4,1,Pin_1*%
%TO.N,LiPO Low*%
X228600000Y-121920000D03*
D15*
%TO.P,J4,2,Pin_2*%
%TO.N,3.3v Battery*%
X228600000Y-124460000D03*
%TO.P,J4,3,Pin_3*%
%TO.N,LiPO High*%
X228600000Y-127000000D03*
%TD*%
D10*
%TO.P,TP10,1,1*%
%TO.N,PB7_PB8_MCU*%
X209462421Y-139635046D03*
%TD*%
D14*
%TO.P,J2,1,Pin_1*%
%TO.N,LiPO Low*%
X228600000Y-132080000D03*
D15*
%TO.P,J2,2,Pin_2*%
%TO.N,LiPO Mid*%
X228600000Y-134620000D03*
%TO.P,J2,3,Pin_3*%
%TO.N,LiPO High*%
X228600000Y-137160000D03*
%TD*%
D10*
%TO.P,TP5,1,1*%
%TO.N,PA11_PA9_MCU*%
X204080195Y-161468664D03*
%TD*%
D14*
%TO.P,J5,1,Pin_1*%
%TO.N,SWDIO*%
X228600000Y-154940000D03*
D15*
%TO.P,J5,2,Pin_2*%
%TO.N,SWCLK*%
X228600000Y-157480000D03*
%TO.P,J5,3,Pin_3*%
%TO.N,NRST*%
X228600000Y-160020000D03*
%TO.P,J5,4,Pin_4*%
%TO.N,GND*%
X228600000Y-162560000D03*
%TD*%
D10*
%TO.P,TP4,1,1*%
%TO.N,PA3_MCU*%
X204080195Y-156018664D03*
%TD*%
%TO.P,TP2,1,1*%
%TO.N,PA1_MCU*%
X204080195Y-145118664D03*
%TD*%
D16*
%TO.N,GND*%
X209173886Y-100385277D03*
X204691393Y-119033764D03*
X209528434Y-98935277D03*
X211858317Y-120831826D03*
X208008945Y-135345000D03*
X205805685Y-121161048D03*
X222159013Y-99869381D03*
X221121044Y-100882024D03*
X204183291Y-121897074D03*
X211453120Y-119287012D03*
X210004754Y-135170524D03*
X215403792Y-130632531D03*
X214530161Y-155104535D03*
X215581065Y-128910443D03*
%TO.N,PC15_MCU*%
X214085000Y-152400000D03*
X210820000Y-152400000D03*
%TO.N,PB3_PB4_PB5P_PB6_MCU*%
X222036124Y-151579317D03*
%TO.N,PA12_PA10_MCU*%
X221728461Y-161406128D03*
X224541023Y-159295000D03*
%TO.N,PA11_PA9_MCU*%
X223541020Y-159295000D03*
X223414895Y-160745000D03*
%TO.N,Net-(D1-K)*%
X218226501Y-96627154D03*
X206696802Y-90882457D03*
%TO.N,ADC_v-to-c*%
X213432105Y-117537882D03*
X222241250Y-127952874D03*
%TO.N,LiPO1_Control*%
X219438541Y-105783041D03*
X228036063Y-104921187D03*
X214085000Y-134620000D03*
X212366765Y-99685602D03*
X204142679Y-117782679D03*
%TO.N,Switch_Regulator_PWM*%
X210118999Y-120627061D03*
X204576812Y-79303779D03*
X210504687Y-78452435D03*
X214085000Y-132545874D03*
%TO.N,FB*%
X217063201Y-122432274D03*
X218560025Y-123861565D03*
%TO.N,LiPO2_Control*%
X214097652Y-133607345D03*
X213872653Y-101087347D03*
X223537604Y-104196187D03*
X209393999Y-116937905D03*
%TO.N,ADC_Current*%
X223162644Y-140522957D03*
X217715000Y-145292167D03*
%TO.N,Net-(U1-EN)*%
X215978744Y-65783057D03*
X206504027Y-73498685D03*
%TO.N,USB Vdc*%
X210675569Y-86096463D03*
X208448375Y-68179624D03*
X208280000Y-71120000D03*
X216142959Y-97851926D03*
X224385375Y-127763687D03*
X214727540Y-90148434D03*
%TO.N,Net-(Q4-D)*%
X207863590Y-105922102D03*
X211766010Y-104219295D03*
%TO.N,LiPO Mid*%
X225394036Y-127356242D03*
X220512518Y-110632225D03*
X225462492Y-114870205D03*
X218246296Y-110847836D03*
%TO.N,Net-(Q6-G)*%
X216245162Y-105510467D03*
X212778453Y-94966743D03*
%TO.N,Switch_Regulated_V*%
X205838062Y-110460281D03*
X213360000Y-110095693D03*
X213107105Y-134829107D03*
X210806024Y-85105006D03*
X215512609Y-89439339D03*
%TO.N,3.3v Battery*%
X214312978Y-130470423D03*
X214890730Y-125405263D03*
%TO.N,SW*%
X215990043Y-125406242D03*
X215978273Y-127078273D03*
%TO.N,LiPO High*%
X214085000Y-120820718D03*
X214113264Y-126453458D03*
X210843999Y-126817819D03*
X204584950Y-88349578D03*
%TO.N,Net-(D7-A)*%
X210787157Y-87967729D03*
X204538083Y-103827222D03*
%TO.N,Net-(D5-K)*%
X207288665Y-80218334D03*
X215884963Y-78977418D03*
%TO.N,LiPO Low*%
X210290155Y-90438479D03*
%TD*%
D17*
%TO.N,GND*%
X215403792Y-130632531D02*
X215403792Y-129087716D01*
X205069659Y-121897074D02*
X205805685Y-121161048D01*
X209173886Y-99289825D02*
X209528434Y-98935277D01*
X205805685Y-121161048D02*
X205805685Y-120148056D01*
X211858317Y-120831826D02*
X211858317Y-119692209D01*
X205805685Y-120148056D02*
X204691393Y-119033764D01*
X221121044Y-100882024D02*
X221146370Y-100882024D01*
X215403792Y-129087716D02*
X215581065Y-128910443D01*
X211858317Y-119692209D02*
X211453120Y-119287012D01*
X221857028Y-162560000D02*
X228600000Y-162560000D01*
X208183421Y-135170524D02*
X208008945Y-135345000D01*
X204183291Y-121897074D02*
X205069659Y-121897074D01*
X210004754Y-135170524D02*
X208183421Y-135170524D01*
X209173886Y-100385277D02*
X209173886Y-99289825D01*
X214530161Y-155104535D02*
X214530161Y-155233133D01*
X221146370Y-100882024D02*
X222159013Y-99869381D01*
X214530161Y-155233133D02*
X221857028Y-162560000D01*
%TO.N,PC15_MCU*%
X214085000Y-152400000D02*
X210820000Y-152400000D01*
%TO.N,PB3_PB4_PB5P_PB6_MCU*%
X212273026Y-153275833D02*
X209530195Y-156018664D01*
X212273026Y-153275833D02*
X220339608Y-153275833D01*
X220339608Y-153275833D02*
X222036124Y-151579317D01*
%TO.N,PA12_PA10_MCU*%
X224541023Y-159295000D02*
X224541023Y-160644177D01*
X223715200Y-161470000D02*
X221792333Y-161470000D01*
X224541023Y-160644177D02*
X223715200Y-161470000D01*
X221792333Y-161470000D02*
X221728461Y-161406128D01*
%TO.N,PA11_PA9_MCU*%
X223541020Y-159295000D02*
X223541020Y-160618875D01*
X223541020Y-160618875D02*
X223414895Y-160745000D01*
%TO.N,Net-(D1-K)*%
X218226501Y-95650429D02*
X212053001Y-89476929D01*
X218226501Y-96627154D02*
X218226501Y-95650429D01*
X212053001Y-89476929D02*
X208102330Y-89476929D01*
X208102330Y-89476929D02*
X206696802Y-90882457D01*
%TO.N,ADC_v-to-c*%
X214810000Y-118915777D02*
X214810000Y-123032336D01*
X214810000Y-123032336D02*
X219730538Y-127952874D01*
X219730538Y-127952874D02*
X222241250Y-127952874D01*
X213432105Y-117537882D02*
X214810000Y-118915777D01*
%TO.N,LiPO1_Control*%
X202710211Y-123245211D02*
X202710211Y-119215147D01*
X228036063Y-104921187D02*
X220300395Y-104921187D01*
X214085000Y-134620000D02*
X202710211Y-123245211D01*
X220300395Y-104921187D02*
X219438541Y-105783041D01*
X202710211Y-119215147D02*
X204142679Y-117782679D01*
X217543041Y-105783041D02*
X219438541Y-105783041D01*
X212366765Y-99685602D02*
X212366765Y-100606765D01*
X212366765Y-100606765D02*
X217543041Y-105783041D01*
%TO.N,Switch_Regulator_PWM*%
X214085000Y-132545874D02*
X210118999Y-128579873D01*
X204576812Y-79303779D02*
X205428156Y-78452435D01*
X205428156Y-78452435D02*
X210504687Y-78452435D01*
X210118999Y-128579873D02*
X210118999Y-120627061D01*
%TO.N,FB*%
X218560025Y-123861565D02*
X218492492Y-123861565D01*
X218492492Y-123861565D02*
X217063201Y-122432274D01*
%TO.N,LiPO2_Control*%
X216981493Y-104196187D02*
X213872653Y-101087347D01*
X214097652Y-133607345D02*
X209393999Y-128903692D01*
X223537604Y-104196187D02*
X216981493Y-104196187D01*
X209393999Y-128903692D02*
X209393999Y-116937905D01*
%TO.N,ADC_Current*%
X218393434Y-145292167D02*
X223162644Y-140522957D01*
X217715000Y-145292167D02*
X218393434Y-145292167D01*
%TO.N,Net-(U1-EN)*%
X206504027Y-73498685D02*
X208263116Y-73498685D01*
X208263116Y-73498685D02*
X215978744Y-65783057D01*
%TO.N,USB Vdc*%
X208448375Y-68179624D02*
X208448375Y-70951625D01*
X214727540Y-90148434D02*
X210675569Y-86096463D01*
X222311926Y-97851926D02*
X216142959Y-97851926D01*
X224385375Y-127763687D02*
X224385375Y-114287077D01*
X228761063Y-104301063D02*
X222311926Y-97851926D01*
X228761063Y-109911389D02*
X228761063Y-104301063D01*
X224385375Y-114287077D02*
X228761063Y-109911389D01*
X208448375Y-70951625D02*
X208280000Y-71120000D01*
%TO.N,Net-(Q4-D)*%
X211766010Y-104219295D02*
X209566397Y-104219295D01*
X209566397Y-104219295D02*
X207863590Y-105922102D01*
%TO.N,LiPO Mid*%
X218246296Y-110847836D02*
X220296907Y-110847836D01*
X225394036Y-114938661D02*
X225462492Y-114870205D01*
X225394036Y-127356242D02*
X225394036Y-114938661D01*
X220296907Y-110847836D02*
X220512518Y-110632225D01*
%TO.N,Net-(Q6-G)*%
X211641765Y-100907070D02*
X216245162Y-105510467D01*
X211641765Y-96103431D02*
X211641765Y-100907070D01*
X212778453Y-94966743D02*
X211641765Y-96103431D01*
%TO.N,Switch_Regulated_V*%
X215512609Y-89439339D02*
X211178276Y-85105006D01*
X202260211Y-123982213D02*
X202260211Y-114038132D01*
X213107105Y-134829107D02*
X202260211Y-123982213D01*
X211178276Y-85105006D02*
X210806024Y-85105006D01*
X205838062Y-110460281D02*
X212995412Y-110460281D01*
X212995412Y-110460281D02*
X213360000Y-110095693D01*
X202260211Y-114038132D02*
X205838062Y-110460281D01*
%TO.N,3.3v Battery*%
X215081006Y-126950235D02*
X214312978Y-127718263D01*
X214890730Y-125405263D02*
X215081006Y-125595539D01*
X214312978Y-127718263D02*
X214312978Y-130470423D01*
X215081006Y-125595539D02*
X215081006Y-126950235D01*
%TO.N,SW*%
X215990043Y-127066503D02*
X215978273Y-127078273D01*
X215990043Y-125406242D02*
X215990043Y-127066503D01*
%TO.N,LiPO High*%
X214085000Y-120820718D02*
X212241838Y-118977556D01*
X212241838Y-112239160D02*
X214085000Y-110395998D01*
X212241838Y-118977556D02*
X212241838Y-112239160D01*
X211191765Y-101093466D02*
X211191765Y-96486568D01*
X213748903Y-126817819D02*
X210843999Y-126817819D01*
X214085000Y-103986701D02*
X211191765Y-101093466D01*
X214113264Y-126453458D02*
X213748903Y-126817819D01*
X211191765Y-96486568D02*
X204584950Y-89879753D01*
X214085000Y-110395998D02*
X214085000Y-103986701D01*
X204584950Y-89879753D02*
X204584950Y-88349578D01*
%TO.N,Net-(D7-A)*%
X204538083Y-103827222D02*
X203859950Y-103149089D01*
X203859950Y-88049273D02*
X204321367Y-87587856D01*
X204321367Y-87587856D02*
X210407284Y-87587856D01*
X210407284Y-87587856D02*
X210787157Y-87967729D01*
X203859950Y-103149089D02*
X203859950Y-88049273D01*
%TO.N,Net-(D5-K)*%
X215884963Y-78977418D02*
X214644047Y-80218334D01*
X214644047Y-80218334D02*
X207288665Y-80218334D01*
%TO.N,LiPO Low*%
X228600000Y-121920000D02*
X229211063Y-121308937D01*
X222448550Y-97352154D02*
X217102532Y-97352154D01*
X229775000Y-123095000D02*
X228600000Y-121920000D01*
X229211063Y-121308937D02*
X229211063Y-104114667D01*
X229211063Y-104114667D02*
X222448550Y-97352154D01*
X217102532Y-97352154D02*
X210290155Y-90539777D01*
X229775000Y-130905000D02*
X229775000Y-123095000D01*
X228600000Y-132080000D02*
X229775000Y-130905000D01*
X210290155Y-90539777D02*
X210290155Y-90438479D01*
%TD*%
M02*
